<?xml version="1.0" encoding="UTF-8" standalone="no"?>
<!DOCTYPE svg PUBLIC "-//W3C//DTD SVG 1.1//EN"
 "http://www.w3.org/Graphics/SVG/1.1/DTD/svg11.dtd">
<!-- Generated by graphviz version 2.43.0 (0)
 -->
<!-- Title: BST Pages: 1 -->
<svg width="1137pt" height="332pt"
 viewBox="0.00 0.00 1137.48 332.00" xmlns="http://www.w3.org/2000/svg" xmlns:xlink="http://www.w3.org/1999/xlink">
<g id="graph0" class="graph" transform="scale(1 1) rotate(0) translate(4 328)">
<title>BST</title>
<polygon fill="white" stroke="transparent" points="-4,4 -4,-328 1133.48,-328 1133.48,4 -4,4"/>
<!-- base -->
<g id="node1" class="node">
<title>base</title>
<ellipse fill="none" stroke="black" cx="564.74" cy="-306" rx="57.69" ry="18"/>
<text text-anchor="middle" x="564.74" y="-302.3" font-family="Arial" font-size="14.00">Base model</text>
</g>
<!-- s1 -->
<g id="node2" class="node">
<title>s1</title>
<ellipse fill="none" stroke="black" cx="564.74" cy="-234" rx="87.99" ry="18"/>
<text text-anchor="middle" x="564.74" y="-230.3" font-family="Arial" font-size="14.00">ABSORPTION(ZO)</text>
</g>
<!-- base&#45;&gt;s1 -->
<g id="edge1" class="edge">
<title>base&#45;&gt;s1</title>
<path fill="none" stroke="black" d="M564.74,-287.7C564.74,-279.98 564.74,-270.71 564.74,-262.11"/>
<polygon fill="black" stroke="black" points="568.24,-262.1 564.74,-252.1 561.24,-262.1 568.24,-262.1"/>
</g>
<!-- s2 -->
<g id="node3" class="node">
<title>s2</title>
<ellipse fill="none" stroke="black" cx="276.74" cy="-234" rx="89.08" ry="18"/>
<text text-anchor="middle" x="276.74" y="-230.3" font-family="Arial" font-size="14.00">ELIMINATION(MM)</text>
</g>
<!-- base&#45;&gt;s2 -->
<g id="edge2" class="edge">
<title>base&#45;&gt;s2</title>
<path fill="none" stroke="black" d="M520.69,-294.29C472.85,-282.66 395.97,-263.98 341.31,-250.69"/>
<polygon fill="black" stroke="black" points="341.92,-247.24 331.37,-248.28 340.26,-254.04 341.92,-247.24"/>
</g>
<!-- s3 -->
<g id="node4" class="node">
<title>s3</title>
<ellipse fill="none" stroke="black" cx="846.74" cy="-234" rx="83.39" ry="18"/>
<text text-anchor="middle" x="846.74" y="-230.3" font-family="Arial" font-size="14.00">PERIPHERALS(1)</text>
</g>
<!-- base&#45;&gt;s3 -->
<g id="edge3" class="edge">
<title>base&#45;&gt;s3</title>
<path fill="none" stroke="black" d="M608.5,-294.14C655.58,-282.45 730.89,-263.76 784.22,-250.52"/>
<polygon fill="black" stroke="black" points="785.38,-253.84 794.24,-248.03 783.69,-247.04 785.38,-253.84"/>
</g>
<!-- s4 -->
<g id="node5" class="node">
<title>s4</title>
<ellipse fill="none" stroke="black" cx="466.74" cy="-162" rx="89.08" ry="18"/>
<text text-anchor="middle" x="466.74" y="-158.3" font-family="Arial" font-size="14.00">ELIMINATION(MM)</text>
</g>
<!-- s1&#45;&gt;s4 -->
<g id="edge4" class="edge">
<title>s1&#45;&gt;s4</title>
<path fill="none" stroke="black" d="M541.52,-216.41C528.58,-207.17 512.29,-195.54 498.22,-185.49"/>
<polygon fill="black" stroke="black" points="499.97,-182.43 489.8,-179.47 495.9,-188.13 499.97,-182.43"/>
</g>
<!-- s5 -->
<g id="node6" class="node">
<title>s5</title>
<ellipse fill="none" stroke="black" cx="656.74" cy="-162" rx="83.39" ry="18"/>
<text text-anchor="middle" x="656.74" y="-158.3" font-family="Arial" font-size="14.00">PERIPHERALS(1)</text>
</g>
<!-- s1&#45;&gt;s5 -->
<g id="edge5" class="edge">
<title>s1&#45;&gt;s5</title>
<path fill="none" stroke="black" d="M586.54,-216.41C598.58,-207.26 613.69,-195.76 626.81,-185.77"/>
<polygon fill="black" stroke="black" points="629.26,-188.31 635.1,-179.47 625.02,-182.74 629.26,-188.31"/>
</g>
<!-- s6 -->
<g id="node7" class="node">
<title>s6</title>
<ellipse fill="none" stroke="black" cx="87.74" cy="-162" rx="87.99" ry="18"/>
<text text-anchor="middle" x="87.74" y="-158.3" font-family="Arial" font-size="14.00">ABSORPTION(ZO)</text>
</g>
<!-- s2&#45;&gt;s6 -->
<g id="edge6" class="edge">
<title>s2&#45;&gt;s6</title>
<path fill="none" stroke="black" d="M235.73,-217.81C207.03,-207.18 168.51,-192.91 137.96,-181.6"/>
<polygon fill="black" stroke="black" points="138.94,-178.23 128.35,-178.04 136.51,-184.79 138.94,-178.23"/>
</g>
<!-- s7 -->
<g id="node8" class="node">
<title>s7</title>
<ellipse fill="none" stroke="black" cx="276.74" cy="-162" rx="83.39" ry="18"/>
<text text-anchor="middle" x="276.74" y="-158.3" font-family="Arial" font-size="14.00">PERIPHERALS(1)</text>
</g>
<!-- s2&#45;&gt;s7 -->
<g id="edge7" class="edge">
<title>s2&#45;&gt;s7</title>
<path fill="none" stroke="black" d="M276.74,-215.7C276.74,-207.98 276.74,-198.71 276.74,-190.11"/>
<polygon fill="black" stroke="black" points="280.24,-190.1 276.74,-180.1 273.24,-190.1 280.24,-190.1"/>
</g>
<!-- s8 -->
<g id="node9" class="node">
<title>s8</title>
<ellipse fill="none" stroke="black" cx="1041.74" cy="-162" rx="87.99" ry="18"/>
<text text-anchor="middle" x="1041.74" y="-158.3" font-family="Arial" font-size="14.00">ABSORPTION(ZO)</text>
</g>
<!-- s3&#45;&gt;s8 -->
<g id="edge8" class="edge">
<title>s3&#45;&gt;s8</title>
<path fill="none" stroke="black" d="M888.1,-218.15C917.99,-207.43 958.55,-192.86 990.5,-181.4"/>
<polygon fill="black" stroke="black" points="991.88,-184.62 1000.11,-177.94 989.52,-178.03 991.88,-184.62"/>
</g>
<!-- s9 -->
<g id="node10" class="node">
<title>s9</title>
<ellipse fill="none" stroke="black" cx="846.74" cy="-162" rx="89.08" ry="18"/>
<text text-anchor="middle" x="846.74" y="-158.3" font-family="Arial" font-size="14.00">ELIMINATION(MM)</text>
</g>
<!-- s3&#45;&gt;s9 -->
<g id="edge9" class="edge">
<title>s3&#45;&gt;s9</title>
<path fill="none" stroke="black" d="M846.74,-215.7C846.74,-207.98 846.74,-198.71 846.74,-190.11"/>
<polygon fill="black" stroke="black" points="850.24,-190.1 846.74,-180.1 843.24,-190.1 850.24,-190.1"/>
</g>
<!-- s10 -->
<g id="node11" class="node">
<title>s10</title>
<ellipse fill="none" stroke="black" cx="275.74" cy="-90" rx="55.49" ry="18"/>
<text text-anchor="middle" x="275.74" y="-86.3" font-family="Arial" font-size="14.00">Best model</text>
</g>
<!-- s4&#45;&gt;s10 -->
<g id="edge10" class="edge">
<title>s4&#45;&gt;s10</title>
<path fill="none" stroke="black" d="M425.77,-145.98C394.87,-134.66 352.53,-119.14 320.71,-107.48"/>
<polygon fill="black" stroke="black" points="321.79,-104.15 311.19,-103.99 319.38,-110.72 321.79,-104.15"/>
</g>
<!-- s11 -->
<g id="node12" class="node">
<title>s11</title>
<ellipse fill="none" stroke="black" cx="848.74" cy="-90" rx="55.49" ry="18"/>
<text text-anchor="middle" x="848.74" y="-86.3" font-family="Arial" font-size="14.00">Best model</text>
</g>
<!-- s5&#45;&gt;s11 -->
<g id="edge12" class="edge">
<title>s5&#45;&gt;s11</title>
<path fill="none" stroke="black" d="M697.46,-146.15C728.58,-134.81 771.47,-119.17 803.63,-107.45"/>
<polygon fill="black" stroke="black" points="805.05,-110.65 813.25,-103.94 802.65,-104.08 805.05,-110.65"/>
</g>
<!-- s6&#45;&gt;s10 -->
<g id="edge11" class="edge">
<title>s6&#45;&gt;s10</title>
<path fill="none" stroke="black" d="M128.07,-145.98C158.35,-134.71 199.8,-119.28 231.08,-107.63"/>
<polygon fill="black" stroke="black" points="232.7,-110.76 240.85,-103.99 230.26,-104.2 232.7,-110.76"/>
</g>
<!-- s12 -->
<g id="node13" class="node">
<title>s12</title>
<ellipse fill="none" stroke="black" cx="464.74" cy="-90" rx="55.49" ry="18"/>
<text text-anchor="middle" x="464.74" y="-86.3" font-family="Arial" font-size="14.00">Best model</text>
</g>
<!-- s7&#45;&gt;s12 -->
<g id="edge14" class="edge">
<title>s7&#45;&gt;s12</title>
<path fill="none" stroke="black" d="M316.61,-146.15C346.99,-134.84 388.81,-119.27 420.27,-107.56"/>
<polygon fill="black" stroke="black" points="421.53,-110.83 429.68,-104.06 419.08,-104.27 421.53,-110.83"/>
</g>
<!-- s8&#45;&gt;s11 -->
<g id="edge13" class="edge">
<title>s8&#45;&gt;s11</title>
<path fill="none" stroke="black" d="M1000.34,-145.98C969.02,-134.62 926.06,-119.04 893.87,-107.37"/>
<polygon fill="black" stroke="black" points="894.84,-104 884.25,-103.88 892.45,-110.58 894.84,-104"/>
</g>
<!-- s9&#45;&gt;s12 -->
<g id="edge15" class="edge">
<title>s9&#45;&gt;s12</title>
<path fill="none" stroke="black" d="M783.23,-149.36C710.34,-136 591.84,-114.29 521.78,-101.45"/>
<polygon fill="black" stroke="black" points="522.27,-97.98 511.81,-99.62 521.01,-104.87 522.27,-97.98"/>
</g>
<!-- s13 -->
<g id="node14" class="node">
<title>s13</title>
<ellipse fill="none" stroke="black" cx="275.74" cy="-18" rx="83.39" ry="18"/>
<text text-anchor="middle" x="275.74" y="-14.3" font-family="Arial" font-size="14.00">PERIPHERALS(1)</text>
</g>
<!-- s10&#45;&gt;s13 -->
<g id="edge16" class="edge">
<title>s10&#45;&gt;s13</title>
<path fill="none" stroke="black" d="M275.74,-71.7C275.74,-63.98 275.74,-54.71 275.74,-46.11"/>
<polygon fill="black" stroke="black" points="279.24,-46.1 275.74,-36.1 272.24,-46.1 279.24,-46.1"/>
</g>
<!-- s14 -->
<g id="node15" class="node">
<title>s14</title>
<ellipse fill="none" stroke="black" cx="848.74" cy="-18" rx="89.08" ry="18"/>
<text text-anchor="middle" x="848.74" y="-14.3" font-family="Arial" font-size="14.00">ELIMINATION(MM)</text>
</g>
<!-- s11&#45;&gt;s14 -->
<g id="edge17" class="edge">
<title>s11&#45;&gt;s14</title>
<path fill="none" stroke="black" d="M848.74,-71.7C848.74,-63.98 848.74,-54.71 848.74,-46.11"/>
<polygon fill="black" stroke="black" points="852.24,-46.1 848.74,-36.1 845.24,-46.1 852.24,-46.1"/>
</g>
<!-- s15 -->
<g id="node16" class="node">
<title>s15</title>
<ellipse fill="none" stroke="black" cx="464.74" cy="-18" rx="87.99" ry="18"/>
<text text-anchor="middle" x="464.74" y="-14.3" font-family="Arial" font-size="14.00">ABSORPTION(ZO)</text>
</g>
<!-- s12&#45;&gt;s15 -->
<g id="edge18" class="edge">
<title>s12&#45;&gt;s15</title>
<path fill="none" stroke="black" d="M464.74,-71.7C464.74,-63.98 464.74,-54.71 464.74,-46.11"/>
<polygon fill="black" stroke="black" points="468.24,-46.1 464.74,-36.1 461.24,-46.1 468.24,-46.1"/>
</g>
</g>
</svg>
