<?xml version="1.0" encoding="UTF-8" standalone="no"?>
<!DOCTYPE svg PUBLIC "-//W3C//DTD SVG 1.1//EN"
 "http://www.w3.org/Graphics/SVG/1.1/DTD/svg11.dtd">
<!-- Generated by graphviz version 2.43.0 (0)
 -->
<!-- Title: BST Pages: 1 -->
<svg width="560pt" height="404pt"
 viewBox="0.00 0.00 559.59 404.00" xmlns="http://www.w3.org/2000/svg" xmlns:xlink="http://www.w3.org/1999/xlink">
<g id="graph0" class="graph" transform="scale(1 1) rotate(0) translate(4 400)">
<title>BST</title>
<polygon fill="white" stroke="transparent" points="-4,4 -4,-400 555.59,-400 555.59,4 -4,4"/>
<!-- base -->
<g id="node1" class="node">
<title>base</title>
<ellipse fill="none" stroke="black" cx="279.25" cy="-378" rx="57.69" ry="18"/>
<text text-anchor="middle" x="279.25" y="-374.3" font-family="Arial" font-size="14.00">Base model</text>
</g>
<!-- s0 -->
<g id="node2" class="node">
<title>s0</title>
<ellipse fill="none" stroke="black" cx="279.25" cy="-306" rx="61.99" ry="18"/>
<text text-anchor="middle" x="279.25" y="-302.3" font-family="Arial" font-size="14.00">Modelsearch</text>
</g>
<!-- base&#45;&gt;s0 -->
<g id="edge1" class="edge">
<title>base&#45;&gt;s0</title>
<path fill="none" stroke="black" d="M279.25,-359.7C279.25,-351.98 279.25,-342.71 279.25,-334.11"/>
<polygon fill="black" stroke="black" points="282.75,-334.1 279.25,-324.1 275.75,-334.1 282.75,-334.1"/>
</g>
<!-- s1 -->
<g id="node3" class="node">
<title>s1</title>
<ellipse fill="none" stroke="black" cx="279.25" cy="-234" rx="147.57" ry="18"/>
<text text-anchor="middle" x="279.25" y="-230.3" font-family="Arial" font-size="14.00">final model (+ final model &#45;1 comp)</text>
</g>
<!-- s0&#45;&gt;s1 -->
<g id="edge2" class="edge">
<title>s0&#45;&gt;s1</title>
<path fill="none" stroke="black" d="M279.25,-287.7C279.25,-279.98 279.25,-270.71 279.25,-262.11"/>
<polygon fill="black" stroke="black" points="282.75,-262.1 279.25,-252.1 275.75,-262.1 282.75,-262.1"/>
</g>
<!-- s2 -->
<g id="node4" class="node">
<title>s2</title>
<ellipse fill="none" stroke="black" cx="279.25" cy="-162" rx="89.08" ry="18"/>
<text text-anchor="middle" x="279.25" y="-158.3" font-family="Arial" font-size="14.00">8 (+ 8) QSS models</text>
</g>
<!-- s1&#45;&gt;s2 -->
<g id="edge3" class="edge">
<title>s1&#45;&gt;s2</title>
<path fill="none" stroke="black" d="M279.25,-215.7C279.25,-207.98 279.25,-198.71 279.25,-190.11"/>
<polygon fill="black" stroke="black" points="282.75,-190.1 279.25,-180.1 275.75,-190.1 282.75,-190.1"/>
</g>
<!-- s3 -->
<g id="node5" class="node">
<title>s3</title>
<ellipse fill="none" stroke="black" cx="279.25" cy="-90" rx="75.29" ry="18"/>
<text text-anchor="middle" x="279.25" y="-86.3" font-family="Arial" font-size="14.00">best QSS model</text>
</g>
<!-- s2&#45;&gt;s3 -->
<g id="edge4" class="edge">
<title>s2&#45;&gt;s3</title>
<path fill="none" stroke="black" d="M279.25,-143.7C279.25,-135.98 279.25,-126.71 279.25,-118.11"/>
<polygon fill="black" stroke="black" points="282.75,-118.1 279.25,-108.1 275.75,-118.1 282.75,-118.1"/>
</g>
<!-- s31 -->
<g id="node6" class="node">
<title>s31</title>
<ellipse fill="none" stroke="black" cx="29.25" cy="-18" rx="29.5" ry="18"/>
<text text-anchor="middle" x="29.25" y="-14.3" font-family="Arial" font-size="14.00">4 full</text>
</g>
<!-- s3&#45;&gt;s31 -->
<g id="edge5" class="edge">
<title>s3&#45;&gt;s31</title>
<path fill="none" stroke="black" d="M223.12,-77.79C179.93,-68.49 119.06,-53.91 67.25,-36 65.14,-35.27 62.99,-34.47 60.83,-33.63"/>
<polygon fill="black" stroke="black" points="62.07,-30.35 51.49,-29.73 59.37,-36.81 62.07,-30.35"/>
</g>
<!-- s32 -->
<g id="node7" class="node">
<title>s32</title>
<ellipse fill="none" stroke="black" cx="120.25" cy="-18" rx="44.39" ry="18"/>
<text text-anchor="middle" x="120.25" y="-14.3" font-family="Arial" font-size="14.00">2 CR+IB</text>
</g>
<!-- s3&#45;&gt;s32 -->
<g id="edge6" class="edge">
<title>s3&#45;&gt;s32</title>
<path fill="none" stroke="black" d="M244.75,-73.81C219.29,-62.6 184.64,-47.35 158.36,-35.78"/>
<polygon fill="black" stroke="black" points="159.66,-32.53 149.09,-31.7 156.84,-38.93 159.66,-32.53"/>
</g>
<!-- s33 -->
<g id="node8" class="node">
<title>s33</title>
<ellipse fill="none" stroke="black" cx="231.25" cy="-18" rx="48.99" ry="18"/>
<text text-anchor="middle" x="231.25" y="-14.3" font-family="Arial" font-size="14.00">1 Wagner</text>
</g>
<!-- s3&#45;&gt;s33 -->
<g id="edge7" class="edge">
<title>s3&#45;&gt;s33</title>
<path fill="none" stroke="black" d="M267.63,-72.05C261.91,-63.71 254.9,-53.49 248.56,-44.25"/>
<polygon fill="black" stroke="black" points="251.3,-42.06 242.76,-35.79 245.53,-46.02 251.3,-42.06"/>
</g>
<!-- s34 -->
<g id="node9" class="node">
<title>s34</title>
<ellipse fill="none" stroke="black" cx="328.25" cy="-18" rx="30.59" ry="18"/>
<text text-anchor="middle" x="328.25" y="-14.3" font-family="Arial" font-size="14.00">2 CR</text>
</g>
<!-- s3&#45;&gt;s34 -->
<g id="edge8" class="edge">
<title>s3&#45;&gt;s34</title>
<path fill="none" stroke="black" d="M291.11,-72.05C297.18,-63.38 304.68,-52.67 311.34,-43.15"/>
<polygon fill="black" stroke="black" points="314.3,-45.03 317.17,-34.83 308.56,-41.01 314.3,-45.03"/>
</g>
<!-- s35 -->
<g id="node10" class="node">
<title>s35</title>
<ellipse fill="none" stroke="black" cx="404.25" cy="-18" rx="27" ry="18"/>
<text text-anchor="middle" x="404.25" y="-14.3" font-family="Arial" font-size="14.00">2 IB</text>
</g>
<!-- s3&#45;&gt;s35 -->
<g id="edge9" class="edge">
<title>s3&#45;&gt;s35</title>
<path fill="none" stroke="black" d="M307.3,-73.29C327.52,-61.96 354.75,-46.72 375.2,-35.27"/>
<polygon fill="black" stroke="black" points="377.05,-38.24 384.07,-30.3 373.63,-32.13 377.05,-38.24"/>
</g>
<!-- s36 -->
<g id="node11" class="node">
<title>s36</title>
<ellipse fill="none" stroke="black" cx="500.25" cy="-18" rx="51.19" ry="18"/>
<text text-anchor="middle" x="500.25" y="-14.3" font-family="Arial" font-size="14.00">1 MMAPP</text>
</g>
<!-- s3&#45;&gt;s36 -->
<g id="edge10" class="edge">
<title>s3&#45;&gt;s36</title>
<path fill="none" stroke="black" d="M322.65,-75.25C360.38,-63.3 414.91,-46.03 453.58,-33.78"/>
<polygon fill="black" stroke="black" points="455.07,-36.98 463.54,-30.63 452.95,-30.31 455.07,-36.98"/>
</g>
</g>
</svg>
