<?xml version="1.0" encoding="UTF-8" standalone="no"?>
<!DOCTYPE svg PUBLIC "-//W3C//DTD SVG 1.1//EN"
 "http://www.w3.org/Graphics/SVG/1.1/DTD/svg11.dtd">
<!-- Generated by graphviz version 2.43.0 (0)
 -->
<!-- Title: G Pages: 1 -->
<svg width="371pt" height="437pt"
 viewBox="0.00 0.00 370.50 437.00" xmlns="http://www.w3.org/2000/svg" xmlns:xlink="http://www.w3.org/1999/xlink">
<g id="graph0" class="graph" transform="scale(1 1) rotate(0) translate(4 433)">
<title>G</title>
<polygon fill="white" stroke="transparent" points="-4,4 -4,-433 366.5,-433 366.5,4 -4,4"/>
<!-- draw -->
<g id="node1" class="node">
<title>draw</title>
<polygon fill="none" stroke="black" points="249,-429 146,-429 146,-393 249,-393 249,-429"/>
<text text-anchor="middle" x="197.5" y="-407.3" font-family="Times,serif" font-size="14.00">Input model</text>
</g>
<!-- ruvsearch -->
<g id="node2" class="node">
<title>ruvsearch</title>
<polygon fill="none" stroke="black" points="299.5,-356 95.5,-356 95.5,-320 299.5,-320 299.5,-356"/>
<text text-anchor="middle" x="197.5" y="-334.3" font-family="Times,serif" font-size="14.00">Run residual error models</text>
</g>
<!-- draw&#45;&gt;ruvsearch -->
<g id="edge1" class="edge">
<title>draw&#45;&gt;ruvsearch</title>
<path fill="none" stroke="black" d="M197.5,-392.81C197.5,-384.79 197.5,-375.05 197.5,-366.07"/>
<polygon fill="black" stroke="black" points="201,-366.03 197.5,-356.03 194,-366.03 201,-366.03"/>
</g>
<!-- select -->
<g id="node3" class="node">
<title>select</title>
<polygon fill="none" stroke="black" points="210.5,-283 66.5,-283 66.5,-247 210.5,-247 210.5,-283"/>
<text text-anchor="middle" x="138.5" y="-261.3" font-family="Times,serif" font-size="14.00">Select best model</text>
</g>
<!-- ruvsearch&#45;&gt;select -->
<g id="edge2" class="edge">
<title>ruvsearch&#45;&gt;select</title>
<path fill="none" stroke="black" d="M183.22,-319.81C175.97,-311.09 167.04,-300.34 159.06,-290.75"/>
<polygon fill="black" stroke="black" points="161.73,-288.48 152.65,-283.03 156.35,-292.96 161.73,-288.48"/>
</g>
<!-- update -->
<g id="node4" class="node">
<title>update</title>
<polygon fill="none" stroke="black" points="219,-196 0,-196 0,-160 219,-160 219,-196"/>
<text text-anchor="middle" x="109.5" y="-174.3" font-family="Times,serif" font-size="14.00">Update and run input model</text>
</g>
<!-- select&#45;&gt;update -->
<g id="edge3" class="edge">
<title>select&#45;&gt;update</title>
<path fill="none" stroke="black" d="M132.63,-246.8C128.62,-235.05 123.23,-219.24 118.66,-205.84"/>
<polygon fill="black" stroke="black" points="121.9,-204.51 115.36,-196.18 115.28,-206.77 121.9,-204.51"/>
</g>
<!-- better -->
<g id="node5" class="node">
<title>better</title>
<polygon fill="none" stroke="black" points="178.5,-123 29.69,-105 178.5,-87 327.31,-105 178.5,-123"/>
<text text-anchor="middle" x="178.5" y="-101.3" font-family="Times,serif" font-size="14.00">Significantly better?</text>
</g>
<!-- update&#45;&gt;better -->
<g id="edge4" class="edge">
<title>update&#45;&gt;better</title>
<path fill="none" stroke="black" d="M126.2,-159.81C135.23,-150.52 146.49,-138.93 156.25,-128.89"/>
<polygon fill="black" stroke="black" points="158.9,-131.19 163.36,-121.58 153.88,-126.31 158.9,-131.19"/>
</g>
<!-- better&#45;&gt;ruvsearch -->
<g id="edge6" class="edge">
<title>better&#45;&gt;ruvsearch</title>
<path fill="none" stroke="black" d="M197.62,-120.76C208.64,-130.54 221.48,-144.41 227.5,-160 247.2,-211.03 225.79,-275.28 210.38,-310.64"/>
<polygon fill="black" stroke="black" points="207.16,-309.26 206.23,-319.81 213.54,-312.14 207.16,-309.26"/>
<text text-anchor="middle" x="299" y="-217.8" font-family="Times,serif" font-size="14.00">Yes (max 3 times)</text>
</g>
<!-- done -->
<g id="node6" class="node">
<title>done</title>
<polygon fill="none" stroke="black" points="205.5,-36 151.5,-36 151.5,0 205.5,0 205.5,-36"/>
<text text-anchor="middle" x="178.5" y="-14.3" font-family="Times,serif" font-size="14.00">Done</text>
</g>
<!-- better&#45;&gt;done -->
<g id="edge5" class="edge">
<title>better&#45;&gt;done</title>
<path fill="none" stroke="black" d="M178.5,-86.8C178.5,-75.16 178.5,-59.55 178.5,-46.24"/>
<polygon fill="black" stroke="black" points="182,-46.18 178.5,-36.18 175,-46.18 182,-46.18"/>
<text text-anchor="middle" x="189" y="-57.8" font-family="Times,serif" font-size="14.00">No</text>
</g>
</g>
</svg>
