<?xml version="1.0" encoding="UTF-8" standalone="no"?>
<!DOCTYPE svg PUBLIC "-//W3C//DTD SVG 1.1//EN"
 "http://www.w3.org/Graphics/SVG/1.1/DTD/svg11.dtd">
<!-- Generated by graphviz version 2.43.0 (0)
 -->
<!-- Title: BST Pages: 1 -->
<svg width="618pt" height="188pt"
 viewBox="0.00 0.00 617.72 188.00" xmlns="http://www.w3.org/2000/svg" xmlns:xlink="http://www.w3.org/1999/xlink">
<g id="graph0" class="graph" transform="scale(1 1) rotate(0) translate(4 184)">
<title>BST</title>
<polygon fill="white" stroke="transparent" points="-4,4 -4,-184 613.72,-184 613.72,4 -4,4"/>
<!-- base -->
<g id="node1" class="node">
<title>base</title>
<ellipse fill="none" stroke="black" cx="290.89" cy="-162" rx="57.69" ry="18"/>
<text text-anchor="middle" x="290.89" y="-158.3" font-family="Arial" font-size="14.00">Base model</text>
</g>
<!-- s1 -->
<g id="node2" class="node">
<title>s1</title>
<polygon fill="none" stroke="black" points="258.89,-108 144.89,-108 144.89,-72 258.89,-72 258.89,-108"/>
<text text-anchor="middle" x="201.89" y="-86.3" font-family="Arial" font-size="14.00">Base metabolite</text>
</g>
<!-- base&#45;&gt;s1 -->
<g id="edge1" class="edge">
<title>base&#45;&gt;s1</title>
<path fill="none" stroke="black" d="M270.69,-145.12C259.17,-136.05 244.5,-124.51 231.67,-114.42"/>
<polygon fill="black" stroke="black" points="233.58,-111.48 223.56,-108.04 229.25,-116.98 233.58,-111.48"/>
</g>
<!-- s3 -->
<g id="node4" class="node">
<title>s3</title>
<ellipse fill="none" stroke="black" cx="413.89" cy="-90" rx="102.88" ry="18"/>
<text text-anchor="middle" x="413.89" y="-86.3" font-family="Arial" font-size="14.00">Presystemic metabolite</text>
</g>
<!-- base&#45;&gt;s3 -->
<g id="edge3" class="edge">
<title>base&#45;&gt;s3</title>
<path fill="none" stroke="black" d="M317.58,-145.81C334.78,-136.02 357.4,-123.15 376.39,-112.34"/>
<polygon fill="black" stroke="black" points="378.15,-115.37 385.11,-107.38 374.68,-109.28 378.15,-115.37"/>
</g>
<!-- s2 -->
<g id="node3" class="node">
<title>s2</title>
<ellipse fill="none" stroke="black" cx="133.89" cy="-18" rx="133.78" ry="18"/>
<text text-anchor="middle" x="133.89" y="-14.3" font-family="Arial" font-size="14.00">Base metabolite with peripheral</text>
</g>
<!-- s1&#45;&gt;s2 -->
<g id="edge2" class="edge">
<title>s1&#45;&gt;s2</title>
<path fill="none" stroke="black" d="M185.08,-71.7C176.76,-63.14 166.58,-52.66 157.5,-43.3"/>
<polygon fill="black" stroke="black" points="159.98,-40.84 150.5,-36.1 154.96,-45.72 159.98,-40.84"/>
</g>
<!-- s4 -->
<g id="node5" class="node">
<title>s4</title>
<ellipse fill="none" stroke="black" cx="447.89" cy="-18" rx="161.67" ry="18"/>
<text text-anchor="middle" x="447.89" y="-14.3" font-family="Arial" font-size="14.00">Presystemic metabolite with peripheral</text>
</g>
<!-- s3&#45;&gt;s4 -->
<g id="edge4" class="edge">
<title>s3&#45;&gt;s4</title>
<path fill="none" stroke="black" d="M422.12,-72.05C425.99,-64.09 430.69,-54.41 435.01,-45.51"/>
<polygon fill="black" stroke="black" points="438.28,-46.8 439.5,-36.28 431.98,-43.74 438.28,-46.8"/>
</g>
</g>
</svg>
