<?xml version="1.0" encoding="UTF-8" standalone="no"?>
<!DOCTYPE svg PUBLIC "-//W3C//DTD SVG 1.1//EN"
 "http://www.w3.org/Graphics/SVG/1.1/DTD/svg11.dtd">
<!-- Generated by graphviz version 2.43.0 (0)
 -->
<!-- Title: BST Pages: 1 -->
<svg width="492pt" height="44pt"
 viewBox="0.00 0.00 491.89 44.00" xmlns="http://www.w3.org/2000/svg" xmlns:xlink="http://www.w3.org/1999/xlink">
<g id="graph0" class="graph" transform="scale(1 1) rotate(0) translate(4 40)">
<title>BST</title>
<polygon fill="white" stroke="transparent" points="-4,4 -4,-40 487.89,-40 487.89,4 -4,4"/>
<!-- base -->
<g id="node1" class="node">
<title>base</title>
<ellipse fill="none" stroke="black" cx="30.55" cy="-18" rx="30.59" ry="18"/>
<text text-anchor="middle" x="30.55" y="-14.3" font-family="Arial" font-size="14.00">Input</text>
</g>
<!-- s0 -->
<g id="node2" class="node">
<title>s0</title>
<polygon fill="none" stroke="black" points="169.09,-36 97.09,-36 97.09,0 169.09,0 169.09,-36"/>
<text text-anchor="middle" x="133.09" y="-14.3" font-family="Arial" font-size="14.00">structural</text>
</g>
<!-- base&#45;&gt;s0 -->
<g id="edge1" class="edge">
<title>base&#45;&gt;s0</title>
<path fill="none" stroke="black" d="M61.17,-18C69.25,-18 78.19,-18 86.92,-18"/>
<polygon fill="black" stroke="black" points="87.01,-21.5 97.01,-18 87.01,-14.5 87.01,-21.5"/>
</g>
<!-- s1 -->
<g id="node3" class="node">
<title>s1</title>
<polygon fill="none" stroke="black" points="269.09,-36 205.09,-36 205.09,0 269.09,0 269.09,-36"/>
<text text-anchor="middle" x="237.09" y="-14.3" font-family="Arial" font-size="14.00">residual</text>
</g>
<!-- s0&#45;&gt;s1 -->
<g id="edge2" class="edge">
<title>s0&#45;&gt;s1</title>
<path fill="none" stroke="black" d="M169.2,-18C177.47,-18 186.37,-18 194.89,-18"/>
<polygon fill="black" stroke="black" points="195.02,-21.5 205.02,-18 195.02,-14.5 195.02,-21.5"/>
</g>
<!-- s2 -->
<g id="node4" class="node">
<title>s2</title>
<polygon fill="none" stroke="black" points="375.09,-36 305.09,-36 305.09,0 375.09,0 375.09,-36"/>
<text text-anchor="middle" x="340.09" y="-14.3" font-family="Arial" font-size="14.00">iivsearch</text>
</g>
<!-- s1&#45;&gt;s2 -->
<g id="edge3" class="edge">
<title>s1&#45;&gt;s2</title>
<path fill="none" stroke="black" d="M269.22,-18C277.39,-18 286.35,-18 295.05,-18"/>
<polygon fill="black" stroke="black" points="295.08,-21.5 305.08,-18 295.08,-14.5 295.08,-21.5"/>
</g>
<!-- s3 -->
<g id="node5" class="node">
<title>s3</title>
<ellipse fill="none" stroke="black" cx="447.49" cy="-18" rx="36.29" ry="18"/>
<text text-anchor="middle" x="447.49" y="-14.3" font-family="Arial" font-size="14.00">results</text>
</g>
<!-- s2&#45;&gt;s3 -->
<g id="edge4" class="edge">
<title>s2&#45;&gt;s3</title>
<path fill="none" stroke="black" d="M375.31,-18C383.43,-18 392.22,-18 400.76,-18"/>
<polygon fill="black" stroke="black" points="401,-21.5 411,-18 401,-14.5 401,-21.5"/>
</g>
</g>
</svg>
