<?xml version="1.0" encoding="UTF-8" standalone="no"?>
<!DOCTYPE svg PUBLIC "-//W3C//DTD SVG 1.1//EN"
 "http://www.w3.org/Graphics/SVG/1.1/DTD/svg11.dtd">
<!-- Generated by graphviz version 2.43.0 (0)
 -->
<!-- Title: fo Pages: 1 -->
<svg width="337pt" height="44pt"
 viewBox="0.00 0.00 337.00 44.00" xmlns="http://www.w3.org/2000/svg" xmlns:xlink="http://www.w3.org/1999/xlink">
<g id="graph0" class="graph" transform="scale(1 1) rotate(0) translate(4 40)">
<title>fo</title>
<polygon fill="white" stroke="transparent" points="-4,4 -4,-40 333,-40 333,4 -4,4"/>
<!-- S -->
<!-- Depot -->
<g id="node3" class="node">
<title>Depot</title>
<polygon fill="none" stroke="black" points="145,-36 86,-36 86,0 145,0 145,-36"/>
<text text-anchor="middle" x="115.5" y="-14.3" font-family="Times,serif" font-size="14.00">Depot</text>
</g>
<!-- S&#45;&gt;Depot -->
<g id="edge3" class="edge">
<title>S&#45;&gt;Depot</title>
<path fill="none" stroke="black" d="M10.12,-18C20.91,-18 50.86,-18 75.93,-18"/>
<polygon fill="black" stroke="black" points="75.95,-21.5 85.95,-18 75.95,-14.5 75.95,-21.5"/>
<text text-anchor="middle" x="48" y="-21.8" font-family="Times,serif" font-size="14.00">Bolus</text>
</g>
<!-- Output -->
<!-- Central -->
<g id="node4" class="node">
<title>Central</title>
<polygon fill="none" stroke="black" points="270,-36 200,-36 200,0 270,0 270,-36"/>
<text text-anchor="middle" x="235" y="-14.3" font-family="Times,serif" font-size="14.00">Central</text>
</g>
<!-- Depot&#45;&gt;Central -->
<g id="edge1" class="edge">
<title>Depot&#45;&gt;Central</title>
<path fill="none" stroke="black" d="M145.24,-18C158.6,-18 174.79,-18 189.67,-18"/>
<polygon fill="black" stroke="black" points="189.7,-21.5 199.7,-18 189.7,-14.5 189.7,-21.5"/>
<text text-anchor="middle" x="172.5" y="-21.8" font-family="Times,serif" font-size="14.00">Ka</text>
</g>
<!-- Central&#45;&gt;Output -->
<g id="edge2" class="edge">
<title>Central&#45;&gt;Output</title>
<path fill="none" stroke="black" d="M270.48,-18C282.98,-18 296.47,-18 306.51,-18"/>
<polygon fill="black" stroke="black" points="306.75,-21.5 316.75,-18 306.75,-14.5 306.75,-21.5"/>
<text text-anchor="middle" x="293.5" y="-21.8" font-family="Times,serif" font-size="14.00">K</text>
</g>
</g>
</svg>
