<?xml version="1.0" encoding="UTF-8" standalone="no"?>
<!DOCTYPE svg PUBLIC "-//W3C//DTD SVG 1.1//EN"
 "http://www.w3.org/Graphics/SVG/1.1/DTD/svg11.dtd">
<!-- Generated by graphviz version 2.43.0 (0)
 -->
<!-- Title: G Pages: 1 -->
<svg width="341pt" height="625pt"
 viewBox="0.00 0.00 341.00 625.00" xmlns="http://www.w3.org/2000/svg" xmlns:xlink="http://www.w3.org/1999/xlink">
<g id="graph0" class="graph" transform="scale(1 1) rotate(0) translate(4 621)">
<title>G</title>
<polygon fill="white" stroke="transparent" points="-4,4 -4,-621 337,-621 337,4 -4,4"/>
<!-- draw -->
<g id="node1" class="node">
<title>draw</title>
<polygon fill="none" stroke="black" points="218,-617 115,-617 115,-581 218,-581 218,-617"/>
<text text-anchor="middle" x="166.5" y="-595.3" font-family="Times,serif" font-size="14.00">Input model</text>
</g>
<!-- derivative -->
<g id="node2" class="node">
<title>derivative</title>
<polygon fill="none" stroke="black" points="259,-544 74,-544 74,-508 259,-508 259,-544"/>
<text text-anchor="middle" x="166.5" y="-522.3" font-family="Times,serif" font-size="14.00">Add IIVs for derivatives</text>
</g>
<!-- draw&#45;&gt;derivative -->
<g id="edge1" class="edge">
<title>draw&#45;&gt;derivative</title>
<path fill="none" stroke="black" d="M166.5,-580.81C166.5,-572.79 166.5,-563.05 166.5,-554.07"/>
<polygon fill="black" stroke="black" points="170,-554.03 166.5,-544.03 163,-554.03 170,-554.03"/>
</g>
<!-- linearize -->
<g id="node3" class="node">
<title>linearize</title>
<polygon fill="none" stroke="black" points="232,-457 101,-457 101,-421 232,-421 232,-457"/>
<text text-anchor="middle" x="166.5" y="-435.3" font-family="Times,serif" font-size="14.00">Linearize model</text>
</g>
<!-- derivative&#45;&gt;linearize -->
<g id="edge2" class="edge">
<title>derivative&#45;&gt;linearize</title>
<path fill="none" stroke="black" d="M166.5,-507.8C166.5,-496.16 166.5,-480.55 166.5,-467.24"/>
<polygon fill="black" stroke="black" points="170,-467.18 166.5,-457.18 163,-467.18 170,-467.18"/>
<text text-anchor="middle" x="201" y="-478.8" font-family="Times,serif" font-size="14.00">Fit model</text>
</g>
<!-- cands -->
<g id="node4" class="node">
<title>cands</title>
<polygon fill="none" stroke="black" points="277,-370 56,-370 56,-334 277,-334 277,-370"/>
<text text-anchor="middle" x="166.5" y="-348.3" font-family="Times,serif" font-size="14.00">Create linearized candidates</text>
</g>
<!-- linearize&#45;&gt;cands -->
<g id="edge3" class="edge">
<title>linearize&#45;&gt;cands</title>
<path fill="none" stroke="black" d="M166.5,-420.8C166.5,-409.16 166.5,-393.55 166.5,-380.24"/>
<polygon fill="black" stroke="black" points="170,-380.18 166.5,-370.18 163,-380.18 170,-380.18"/>
<text text-anchor="middle" x="201" y="-391.8" font-family="Times,serif" font-size="14.00">Fit model</text>
</g>
<!-- best_cand -->
<g id="node5" class="node">
<title>best_cand</title>
<polygon fill="none" stroke="black" points="333,-283 0,-283 0,-247 333,-247 333,-283"/>
<text text-anchor="middle" x="166.5" y="-261.3" font-family="Times,serif" font-size="14.00">Select best linearized model and delinearize</text>
</g>
<!-- cands&#45;&gt;best_cand -->
<g id="edge4" class="edge">
<title>cands&#45;&gt;best_cand</title>
<path fill="none" stroke="black" d="M166.5,-333.8C166.5,-322.16 166.5,-306.55 166.5,-293.24"/>
<polygon fill="black" stroke="black" points="170,-293.18 166.5,-283.18 163,-293.18 170,-293.18"/>
<text text-anchor="middle" x="204.5" y="-304.8" font-family="Times,serif" font-size="14.00">Fit models</text>
</g>
<!-- better -->
<g id="node6" class="node">
<title>better</title>
<polygon fill="none" stroke="black" points="265,-196 68,-196 68,-160 265,-160 265,-196"/>
<text text-anchor="middle" x="166.5" y="-174.3" font-family="Times,serif" font-size="14.00">Better than input model?</text>
</g>
<!-- best_cand&#45;&gt;better -->
<g id="edge5" class="edge">
<title>best_cand&#45;&gt;better</title>
<path fill="none" stroke="black" d="M166.5,-246.8C166.5,-235.16 166.5,-219.55 166.5,-206.24"/>
<polygon fill="black" stroke="black" points="170,-206.18 166.5,-196.18 163,-206.18 170,-206.18"/>
<text text-anchor="middle" x="201" y="-217.8" font-family="Times,serif" font-size="14.00">Fit model</text>
</g>
<!-- select_lin -->
<g id="node7" class="node">
<title>select_lin</title>
<polygon fill="none" stroke="black" points="150,-109 47,-109 47,-73 150,-73 150,-109"/>
<text text-anchor="middle" x="98.5" y="-87.3" font-family="Times,serif" font-size="14.00">Select input</text>
</g>
<!-- better&#45;&gt;select_lin -->
<g id="edge7" class="edge">
<title>better&#45;&gt;select_lin</title>
<path fill="none" stroke="black" d="M152.74,-159.8C142.97,-147.59 129.69,-130.99 118.72,-117.28"/>
<polygon fill="black" stroke="black" points="121.22,-114.8 112.24,-109.18 115.75,-119.17 121.22,-114.8"/>
<text text-anchor="middle" x="148" y="-130.8" font-family="Times,serif" font-size="14.00">No</text>
</g>
<!-- select_input -->
<g id="node8" class="node">
<title>select_input</title>
<polygon fill="none" stroke="black" points="303,-109 168,-109 168,-73 303,-73 303,-109"/>
<text text-anchor="middle" x="235.5" y="-87.3" font-family="Times,serif" font-size="14.00">Select candidate</text>
</g>
<!-- better&#45;&gt;select_input -->
<g id="edge6" class="edge">
<title>better&#45;&gt;select_input</title>
<path fill="none" stroke="black" d="M180.46,-159.8C190.38,-147.59 203.85,-130.99 214.98,-117.28"/>
<polygon fill="black" stroke="black" points="217.97,-119.15 221.56,-109.18 212.54,-114.73 217.97,-119.15"/>
<text text-anchor="middle" x="217" y="-130.8" font-family="Times,serif" font-size="14.00">Yes</text>
</g>
<!-- done -->
<g id="node9" class="node">
<title>done</title>
<polygon fill="none" stroke="black" points="215,-36 118,-36 118,0 215,0 215,-36"/>
<text text-anchor="middle" x="166.5" y="-14.3" font-family="Times,serif" font-size="14.00">Best model</text>
</g>
<!-- select_lin&#45;&gt;done -->
<g id="edge9" class="edge">
<title>select_lin&#45;&gt;done</title>
<path fill="none" stroke="black" d="M114.96,-72.81C123.4,-64 133.82,-53.13 143.08,-43.46"/>
<polygon fill="black" stroke="black" points="145.8,-45.67 150.19,-36.03 140.75,-40.83 145.8,-45.67"/>
</g>
<!-- select_input&#45;&gt;done -->
<g id="edge8" class="edge">
<title>select_input&#45;&gt;done</title>
<path fill="none" stroke="black" d="M218.8,-72.81C210.24,-64 199.66,-53.13 190.27,-43.46"/>
<polygon fill="black" stroke="black" points="192.53,-40.76 183.05,-36.03 187.51,-45.64 192.53,-40.76"/>
</g>
</g>
</svg>
