<?xml version="1.0" encoding="UTF-8" standalone="no"?>
<!DOCTYPE svg PUBLIC "-//W3C//DTD SVG 1.1//EN"
 "http://www.w3.org/Graphics/SVG/1.1/DTD/svg11.dtd">
<!-- Generated by graphviz version 2.40.1 (20161225.0304)
 -->
<!-- Title: fo Pages: 1 -->
<svg width="358pt" height="44pt"
 viewBox="0.00 0.00 358.00 44.00" xmlns="http://www.w3.org/2000/svg" xmlns:xlink="http://www.w3.org/1999/xlink">
<g id="graph0" class="graph" transform="scale(1 1) rotate(0) translate(4 40)">
<title>fo</title>
<polygon fill="#ffffff" stroke="transparent" points="-4,4 -4,-40 354,-40 354,4 -4,4"/>
<!-- S -->
<!-- Depot -->
<g id="node3" class="node">
<title>Depot</title>
<polygon fill="none" stroke="#000000" points="164,-36 105,-36 105,0 164,0 164,-36"/>
<text text-anchor="middle" x="134.5" y="-14.3" font-family="Times,serif" font-size="14.00" fill="#000000">Depot</text>
</g>
<!-- S&#45;&gt;Depot -->
<g id="edge3" class="edge">
<title>S&#45;&gt;Depot</title>
<path fill="none" stroke="#000000" d="M10.2369,-18C24.3088,-18 63.9553,-18 94.7203,-18"/>
<polygon fill="#000000" stroke="#000000" points="94.7635,-21.5001 104.7634,-18 94.7634,-14.5001 94.7635,-21.5001"/>
<text text-anchor="middle" x="57.5" y="-21.8" font-family="Times,serif" font-size="14.00" fill="#000000">Infusion</text>
</g>
<!-- Output -->
<!-- Central -->
<g id="node4" class="node">
<title>Central</title>
<polygon fill="none" stroke="#000000" points="290,-36 219,-36 219,0 290,0 290,-36"/>
<text text-anchor="middle" x="254.5" y="-14.3" font-family="Times,serif" font-size="14.00" fill="#000000">Central</text>
</g>
<!-- Depot&#45;&gt;Central -->
<g id="edge1" class="edge">
<title>Depot&#45;&gt;Central</title>
<path fill="none" stroke="#000000" d="M164.1629,-18C177.5841,-18 193.7536,-18 208.6809,-18"/>
<polygon fill="#000000" stroke="#000000" points="208.7677,-21.5001 218.7677,-18 208.7677,-14.5001 208.7677,-21.5001"/>
<text text-anchor="middle" x="191.5" y="-21.8" font-family="Times,serif" font-size="14.00" fill="#000000">Ka</text>
</g>
<!-- Central&#45;&gt;Output -->
<g id="edge2" class="edge">
<title>Central&#45;&gt;Output</title>
<path fill="none" stroke="#000000" d="M290.1869,-18C302.8361,-18 316.4751,-18 326.7913,-18"/>
<polygon fill="#000000" stroke="#000000" points="326.7969,-21.5001 336.7969,-18 326.7968,-14.5001 326.7969,-21.5001"/>
<text text-anchor="middle" x="313.5" y="-21.8" font-family="Times,serif" font-size="14.00" fill="#000000">K</text>
</g>
</g>
</svg>
