<?xml version="1.0" encoding="UTF-8" standalone="no"?>
<!DOCTYPE svg PUBLIC "-//W3C//DTD SVG 1.1//EN"
 "http://www.w3.org/Graphics/SVG/1.1/DTD/svg11.dtd">
<!-- Generated by graphviz version 2.43.0 (0)
 -->
<!-- Title: BST Pages: 1 -->
<svg width="414pt" height="260pt"
 viewBox="0.00 0.00 414.14 260.00" xmlns="http://www.w3.org/2000/svg" xmlns:xlink="http://www.w3.org/1999/xlink">
<g id="graph0" class="graph" transform="scale(1 1) rotate(0) translate(4 256)">
<title>BST</title>
<polygon fill="white" stroke="transparent" points="-4,4 -4,-256 410.14,-256 410.14,4 -4,4"/>
<!-- s1 -->
<g id="node1" class="node">
<title>s1</title>
<ellipse fill="none" stroke="black" cx="242.39" cy="-234" rx="27" ry="18"/>
<text text-anchor="middle" x="242.39" y="-230.3" font-family="Arial" font-size="14.00">[CL]</text>
</g>
<!-- s2 -->
<g id="node2" class="node">
<title>s2</title>
<ellipse fill="none" stroke="black" cx="134.39" cy="-162" rx="41.69" ry="18"/>
<text text-anchor="middle" x="134.39" y="-158.3" font-family="Arial" font-size="14.00">[CL,VC]</text>
</g>
<!-- s1&#45;&gt;s2 -->
<g id="edge1" class="edge">
<title>s1&#45;&gt;s2</title>
<path fill="none" stroke="black" d="M223.58,-220.81C207.51,-210.39 184.08,-195.2 165.27,-183.01"/>
<polygon fill="black" stroke="black" points="167.02,-179.97 156.72,-177.47 163.21,-185.85 167.02,-179.97"/>
</g>
<!-- s3 -->
<g id="node3" class="node">
<title>s3</title>
<ellipse fill="none" stroke="black" cx="242.39" cy="-162" rx="48.19" ry="18"/>
<text text-anchor="middle" x="242.39" y="-158.3" font-family="Arial" font-size="14.00">[CL,MAT]</text>
</g>
<!-- s1&#45;&gt;s3 -->
<g id="edge2" class="edge">
<title>s1&#45;&gt;s3</title>
<path fill="none" stroke="black" d="M242.39,-215.7C242.39,-207.98 242.39,-198.71 242.39,-190.11"/>
<polygon fill="black" stroke="black" points="245.89,-190.1 242.39,-180.1 238.89,-190.1 245.89,-190.1"/>
</g>
<!-- s4 -->
<g id="node4" class="node">
<title>s4</title>
<ellipse fill="none" stroke="black" cx="357.39" cy="-162" rx="48.99" ry="18"/>
<text text-anchor="middle" x="357.39" y="-158.3" font-family="Arial" font-size="14.00">[CL,MDT]</text>
</g>
<!-- s1&#45;&gt;s4 -->
<g id="edge3" class="edge">
<title>s1&#45;&gt;s4</title>
<path fill="none" stroke="black" d="M261.64,-221.28C278.8,-210.84 304.27,-195.34 324.63,-182.95"/>
<polygon fill="black" stroke="black" points="326.56,-185.86 333.28,-177.68 322.92,-179.89 326.56,-185.86"/>
</g>
<!-- s5 -->
<g id="node5" class="node">
<title>s5</title>
<ellipse fill="none" stroke="black" cx="62.39" cy="-90" rx="62.29" ry="18"/>
<text text-anchor="middle" x="62.39" y="-86.3" font-family="Arial" font-size="14.00">[CL,VC,MAT]</text>
</g>
<!-- s2&#45;&gt;s5 -->
<g id="edge4" class="edge">
<title>s2&#45;&gt;s5</title>
<path fill="none" stroke="black" d="M118.06,-145.12C108.78,-136.09 96.98,-124.62 86.64,-114.57"/>
<polygon fill="black" stroke="black" points="89.03,-112.01 79.42,-107.55 84.15,-117.03 89.03,-112.01"/>
</g>
<!-- s6 -->
<g id="node6" class="node">
<title>s6</title>
<ellipse fill="none" stroke="black" cx="206.39" cy="-90" rx="63.89" ry="18"/>
<text text-anchor="middle" x="206.39" y="-86.3" font-family="Arial" font-size="14.00">[CL,VC,MDT]</text>
</g>
<!-- s2&#45;&gt;s6 -->
<g id="edge5" class="edge">
<title>s2&#45;&gt;s6</title>
<path fill="none" stroke="black" d="M150.73,-145.12C160.01,-136.09 171.81,-124.62 182.15,-114.57"/>
<polygon fill="black" stroke="black" points="184.64,-117.03 189.37,-107.55 179.76,-112.01 184.64,-117.03"/>
</g>
<!-- s7 -->
<g id="node7" class="node">
<title>s7</title>
<ellipse fill="none" stroke="black" cx="206.39" cy="-18" rx="83.39" ry="18"/>
<text text-anchor="middle" x="206.39" y="-14.3" font-family="Arial" font-size="14.00">[CL,VC,MDT,MAT]</text>
</g>
<!-- s6&#45;&gt;s7 -->
<g id="edge6" class="edge">
<title>s6&#45;&gt;s7</title>
<path fill="none" stroke="black" d="M206.39,-71.7C206.39,-63.98 206.39,-54.71 206.39,-46.11"/>
<polygon fill="black" stroke="black" points="209.89,-46.1 206.39,-36.1 202.89,-46.1 209.89,-46.1"/>
</g>
</g>
</svg>
