<?xml version="1.0" encoding="UTF-8" standalone="no"?>
<!DOCTYPE svg PUBLIC "-//W3C//DTD SVG 1.1//EN"
 "http://www.w3.org/Graphics/SVG/1.1/DTD/svg11.dtd">
<!-- Generated by graphviz version 2.43.0 (0)
 -->
<!-- Title: fo Pages: 1 -->
<svg width="355pt" height="44pt"
 viewBox="0.00 0.00 355.00 44.00" xmlns="http://www.w3.org/2000/svg" xmlns:xlink="http://www.w3.org/1999/xlink">
<g id="graph0" class="graph" transform="scale(1 1) rotate(0) translate(4 40)">
<title>fo</title>
<polygon fill="white" stroke="transparent" points="-4,4 -4,-40 351,-40 351,4 -4,4"/>
<!-- S -->
<!-- Depot -->
<g id="node3" class="node">
<title>Depot</title>
<polygon fill="none" stroke="black" points="163,-36 104,-36 104,0 163,0 163,-36"/>
<text text-anchor="middle" x="133.5" y="-14.3" font-family="Times,serif" font-size="14.00">Depot</text>
</g>
<!-- S&#45;&gt;Depot -->
<g id="edge3" class="edge">
<title>S&#45;&gt;Depot</title>
<path fill="none" stroke="black" d="M10.21,-18C23.11,-18 63.1,-18 93.88,-18"/>
<polygon fill="black" stroke="black" points="93.91,-21.5 103.91,-18 93.91,-14.5 93.91,-21.5"/>
<text text-anchor="middle" x="57" y="-21.8" font-family="Times,serif" font-size="14.00">Infusion</text>
</g>
<!-- Output -->
<!-- Central -->
<g id="node4" class="node">
<title>Central</title>
<polygon fill="none" stroke="black" points="288,-36 218,-36 218,0 288,0 288,-36"/>
<text text-anchor="middle" x="253" y="-14.3" font-family="Times,serif" font-size="14.00">Central</text>
</g>
<!-- Depot&#45;&gt;Central -->
<g id="edge1" class="edge">
<title>Depot&#45;&gt;Central</title>
<path fill="none" stroke="black" d="M163.24,-18C176.6,-18 192.79,-18 207.67,-18"/>
<polygon fill="black" stroke="black" points="207.7,-21.5 217.7,-18 207.7,-14.5 207.7,-21.5"/>
<text text-anchor="middle" x="190.5" y="-21.8" font-family="Times,serif" font-size="14.00">Ka</text>
</g>
<!-- Central&#45;&gt;Output -->
<g id="edge2" class="edge">
<title>Central&#45;&gt;Output</title>
<path fill="none" stroke="black" d="M288.48,-18C300.98,-18 314.47,-18 324.51,-18"/>
<polygon fill="black" stroke="black" points="324.75,-21.5 334.75,-18 324.75,-14.5 324.75,-21.5"/>
<text text-anchor="middle" x="311.5" y="-21.8" font-family="Times,serif" font-size="14.00">K</text>
</g>
</g>
</svg>
