<?xml version="1.0" encoding="UTF-8" standalone="no"?>
<!DOCTYPE svg PUBLIC "-//W3C//DTD SVG 1.1//EN"
 "http://www.w3.org/Graphics/SVG/1.1/DTD/svg11.dtd">
<!-- Generated by graphviz version 2.43.0 (0)
 -->
<!-- Title: BST Pages: 1 -->
<svg width="159pt" height="260pt"
 viewBox="0.00 0.00 158.79 260.00" xmlns="http://www.w3.org/2000/svg" xmlns:xlink="http://www.w3.org/1999/xlink">
<g id="graph0" class="graph" transform="scale(1 1) rotate(0) translate(4 256)">
<title>BST</title>
<polygon fill="white" stroke="transparent" points="-4,4 -4,-256 154.79,-256 154.79,4 -4,4"/>
<!-- base -->
<g id="node1" class="node">
<title>base</title>
<ellipse fill="none" stroke="black" cx="75.39" cy="-234" rx="75.29" ry="18"/>
<text text-anchor="middle" x="75.39" y="-230.3" font-family="Arial" font-size="14.00">Models + results</text>
</g>
<!-- s0 -->
<g id="node2" class="node">
<title>s0</title>
<polygon fill="none" stroke="black" points="138.39,-180 12.39,-180 12.39,-144 138.39,-144 138.39,-180"/>
<text text-anchor="middle" x="75.39" y="-158.3" font-family="Arial" font-size="14.00">Filter on strictness</text>
</g>
<!-- base&#45;&gt;s0 -->
<g id="edge1" class="edge">
<title>base&#45;&gt;s0</title>
<path fill="none" stroke="black" d="M75.39,-215.7C75.39,-207.98 75.39,-198.71 75.39,-190.11"/>
<polygon fill="black" stroke="black" points="78.89,-190.1 75.39,-180.1 71.89,-190.1 78.89,-190.1"/>
</g>
<!-- s1 -->
<g id="node3" class="node">
<title>s1</title>
<polygon fill="none" stroke="black" points="123.39,-108 27.39,-108 27.39,-72 123.39,-72 123.39,-108"/>
<text text-anchor="middle" x="75.39" y="-86.3" font-family="Arial" font-size="14.00">Rank models</text>
</g>
<!-- s0&#45;&gt;s1 -->
<g id="edge2" class="edge">
<title>s0&#45;&gt;s1</title>
<path fill="none" stroke="black" d="M75.39,-143.7C75.39,-135.98 75.39,-126.71 75.39,-118.11"/>
<polygon fill="black" stroke="black" points="78.89,-118.1 75.39,-108.1 71.89,-118.1 78.89,-118.1"/>
</g>
<!-- s2 -->
<g id="node4" class="node">
<title>s2</title>
<ellipse fill="none" stroke="black" cx="75.39" cy="-18" rx="56.59" ry="18"/>
<text text-anchor="middle" x="75.39" y="-14.3" font-family="Arial" font-size="14.00">Final model</text>
</g>
<!-- s1&#45;&gt;s2 -->
<g id="edge3" class="edge">
<title>s1&#45;&gt;s2</title>
<path fill="none" stroke="black" d="M75.39,-71.7C75.39,-63.98 75.39,-54.71 75.39,-46.11"/>
<polygon fill="black" stroke="black" points="78.89,-46.1 75.39,-36.1 71.89,-46.1 78.89,-46.1"/>
</g>
</g>
</svg>
