<?xml version="1.0" encoding="UTF-8" standalone="no"?>
<!DOCTYPE svg PUBLIC "-//W3C//DTD SVG 1.1//EN"
 "http://www.w3.org/Graphics/SVG/1.1/DTD/svg11.dtd">
<!-- Generated by graphviz version 2.43.0 (0)
 -->
<!-- Title: G Pages: 1 -->
<svg width="381pt" height="190pt"
 viewBox="0.00 0.00 381.00 190.00" xmlns="http://www.w3.org/2000/svg" xmlns:xlink="http://www.w3.org/1999/xlink">
<g id="graph0" class="graph" transform="scale(1 1) rotate(0) translate(4 186)">
<title>G</title>
<polygon fill="white" stroke="transparent" points="-4,4 -4,-186 377,-186 377,4 -4,4"/>
<g id="clust1" class="cluster">
<title>cluster</title>
</g>
<!-- central -->
<g id="node1" class="node">
<title>central</title>
<polygon fill="none" stroke="black" points="83.5,-109 16.5,-109 16.5,-73 83.5,-73 83.5,-109"/>
<text text-anchor="middle" x="50" y="-87.3" font-family="Times,serif" font-size="14.00">central</text>
</g>
<!-- plus -->
<g id="node2" class="node">
<title>plus</title>
<text text-anchor="middle" x="116" y="-87.3" font-family="Times,serif" font-size="14.00">+</text>
</g>
<!-- central&#45;&gt;plus -->
<g id="edge1" class="edge">
<title>central&#45;&gt;plus</title>
<path fill="none" stroke="transparent" d="M83.52,-91C86.01,-91 88.51,-91 91.01,-91"/>
<polygon fill="transparent" stroke="transparent" points="91.28,-94.5 101.28,-91 91.28,-87.5 91.28,-94.5"/>
</g>
<!-- kel -->
<g id="node5" class="node">
<title>kel</title>
<text text-anchor="middle" x="50" y="-14.3" font-family="Times,serif" font-size="14.00">kel</text>
</g>
<!-- central&#45;&gt;kel -->
<g id="edge4" class="edge">
<title>central&#45;&gt;kel</title>
<path fill="none" stroke="black" d="M50,-72.81C50,-64.79 50,-55.05 50,-46.07"/>
<polygon fill="black" stroke="black" points="53.5,-46.03 50,-36.03 46.5,-46.03 53.5,-46.03"/>
</g>
<!-- target -->
<g id="node3" class="node">
<title>target</title>
<polygon fill="none" stroke="black" points="209.5,-109 148.5,-109 148.5,-73 209.5,-73 209.5,-109"/>
<text text-anchor="middle" x="179" y="-87.3" font-family="Times,serif" font-size="14.00">target</text>
</g>
<!-- plus&#45;&gt;target -->
<g id="edge2" class="edge">
<title>plus&#45;&gt;target</title>
<path fill="none" stroke="transparent" d="M130.77,-91C133.26,-91 135.75,-91 138.24,-91"/>
<polygon fill="transparent" stroke="transparent" points="138.48,-94.5 148.48,-91 138.48,-87.5 138.48,-94.5"/>
</g>
<!-- complex -->
<g id="node4" class="node">
<title>complex</title>
<polygon fill="none" stroke="black" points="357,-109 281,-109 281,-73 357,-73 357,-109"/>
<text text-anchor="middle" x="319" y="-87.3" font-family="Times,serif" font-size="14.00">complex</text>
</g>
<!-- target&#45;&gt;complex -->
<g id="edge3" class="edge">
<title>target&#45;&gt;complex</title>
<path fill="none" stroke="black" d="M209.72,-91C227.54,-91 250.39,-91 270.58,-91"/>
<polygon fill="black" stroke="black" points="270.85,-94.5 280.85,-91 270.85,-87.5 270.85,-94.5"/>
<text text-anchor="middle" x="245.25" y="-97.8" font-family="Times,serif" font-size="14.00">kon</text>
</g>
<!-- kdeg -->
<g id="node8" class="node">
<title>kdeg</title>
<text text-anchor="middle" x="179" y="-14.3" font-family="Times,serif" font-size="14.00">kdeg</text>
</g>
<!-- target&#45;&gt;kdeg -->
<g id="edge6" class="edge">
<title>target&#45;&gt;kdeg</title>
<path fill="none" stroke="black" d="M179,-72.81C179,-64.79 179,-55.05 179,-46.07"/>
<polygon fill="black" stroke="black" points="182.5,-46.03 179,-36.03 175.5,-46.03 182.5,-46.03"/>
</g>
<!-- kint -->
<g id="node7" class="node">
<title>kint</title>
<text text-anchor="middle" x="319" y="-14.3" font-family="Times,serif" font-size="14.00">kint</text>
</g>
<!-- complex&#45;&gt;kint -->
<g id="edge7" class="edge">
<title>complex&#45;&gt;kint</title>
<path fill="none" stroke="black" d="M319,-72.81C319,-64.79 319,-55.05 319,-46.07"/>
<polygon fill="black" stroke="black" points="322.5,-46.03 319,-36.03 315.5,-46.03 322.5,-46.03"/>
</g>
<!-- ksyn -->
<g id="node6" class="node">
<title>ksyn</title>
<text text-anchor="middle" x="179" y="-160.3" font-family="Times,serif" font-size="14.00">ksyn</text>
</g>
<!-- ksyn&#45;&gt;target -->
<g id="edge5" class="edge">
<title>ksyn&#45;&gt;target</title>
<path fill="none" stroke="black" d="M179,-145.81C179,-137.79 179,-128.05 179,-119.07"/>
<polygon fill="black" stroke="black" points="182.5,-119.03 179,-109.03 175.5,-119.03 182.5,-119.03"/>
</g>
</g>
</svg>
