<?xml version="1.0" encoding="UTF-8" standalone="no"?>
<!DOCTYPE svg PUBLIC "-//W3C//DTD SVG 1.1//EN"
 "http://www.w3.org/Graphics/SVG/1.1/DTD/svg11.dtd">
<!-- Generated by graphviz version 2.43.0 (0)
 -->
<!-- Title: BST Pages: 1 -->
<svg width="1080pt" height="188pt"
 viewBox="0.00 0.00 1079.64 188.00" xmlns="http://www.w3.org/2000/svg" xmlns:xlink="http://www.w3.org/1999/xlink">
<g id="graph0" class="graph" transform="scale(1 1) rotate(0) translate(4 184)">
<title>BST</title>
<polygon fill="white" stroke="transparent" points="-4,4 -4,-184 1075.64,-184 1075.64,4 -4,4"/>
<!-- base -->
<g id="node1" class="node">
<title>base</title>
<ellipse fill="none" stroke="black" cx="363.74" cy="-162" rx="57.69" ry="18"/>
<text text-anchor="middle" x="363.74" y="-158.3" font-family="Arial" font-size="14.00">Base model</text>
</g>
<!-- s0 -->
<g id="node2" class="node">
<title>s0</title>
<ellipse fill="none" stroke="black" cx="61.74" cy="-90" rx="61.99" ry="18"/>
<text text-anchor="middle" x="61.74" y="-86.3" font-family="Arial" font-size="14.00">Naive pooled</text>
</g>
<!-- base&#45;&gt;s0 -->
<g id="edge1" class="edge">
<title>base&#45;&gt;s0</title>
<path fill="none" stroke="black" d="M318.13,-150.67C271.51,-140.08 197.04,-123.07 132.74,-108 127.86,-106.85 122.78,-105.66 117.69,-104.45"/>
<polygon fill="black" stroke="black" points="118.48,-101.04 107.94,-102.13 116.86,-107.85 118.48,-101.04"/>
</g>
<!-- s1 -->
<g id="node3" class="node">
<title>s1</title>
<ellipse fill="none" stroke="black" cx="168.74" cy="-90" rx="27" ry="18"/>
<text text-anchor="middle" x="168.74" y="-86.3" font-family="Arial" font-size="14.00">[CL]</text>
</g>
<!-- base&#45;&gt;s1 -->
<g id="edge2" class="edge">
<title>base&#45;&gt;s1</title>
<path fill="none" stroke="black" d="M323.41,-149.02C290.98,-139.04 244.44,-123.92 204.74,-108 202.92,-107.27 201.05,-106.49 199.17,-105.68"/>
<polygon fill="black" stroke="black" points="200.43,-102.41 189.88,-101.49 197.56,-108.79 200.43,-102.41"/>
</g>
<!-- s2 -->
<g id="node4" class="node">
<title>s2</title>
<ellipse fill="none" stroke="black" cx="240.74" cy="-90" rx="27" ry="18"/>
<text text-anchor="middle" x="240.74" y="-86.3" font-family="Arial" font-size="14.00">[V]</text>
</g>
<!-- base&#45;&gt;s2 -->
<g id="edge3" class="edge">
<title>base&#45;&gt;s2</title>
<path fill="none" stroke="black" d="M337.06,-145.81C317.08,-134.44 289.8,-118.92 269.37,-107.29"/>
<polygon fill="black" stroke="black" points="270.94,-104.16 260.52,-102.26 267.48,-110.24 270.94,-104.16"/>
</g>
<!-- s3 -->
<g id="node5" class="node">
<title>s3</title>
<ellipse fill="none" stroke="black" cx="319.74" cy="-90" rx="34.39" ry="18"/>
<text text-anchor="middle" x="319.74" y="-86.3" font-family="Arial" font-size="14.00">[MAT]</text>
</g>
<!-- base&#45;&gt;s3 -->
<g id="edge4" class="edge">
<title>base&#45;&gt;s3</title>
<path fill="none" stroke="black" d="M353.09,-144.05C347.77,-135.59 341.24,-125.19 335.36,-115.84"/>
<polygon fill="black" stroke="black" points="338.28,-113.91 329.99,-107.31 332.35,-117.64 338.28,-113.91"/>
</g>
<!-- s4 -->
<g id="node6" class="node">
<title>s4</title>
<ellipse fill="none" stroke="black" cx="407.74" cy="-90" rx="35.19" ry="18"/>
<text text-anchor="middle" x="407.74" y="-86.3" font-family="Arial" font-size="14.00">[CL,V]</text>
</g>
<!-- base&#45;&gt;s4 -->
<g id="edge5" class="edge">
<title>base&#45;&gt;s4</title>
<path fill="none" stroke="black" d="M374.4,-144.05C379.72,-135.59 386.25,-125.19 392.13,-115.84"/>
<polygon fill="black" stroke="black" points="395.14,-117.64 397.49,-107.31 389.21,-113.91 395.14,-117.64"/>
</g>
<!-- s5 -->
<g id="node7" class="node">
<title>s5</title>
<ellipse fill="none" stroke="black" cx="508.74" cy="-90" rx="48.19" ry="18"/>
<text text-anchor="middle" x="508.74" y="-86.3" font-family="Arial" font-size="14.00">[CL,MAT]</text>
</g>
<!-- base&#45;&gt;s5 -->
<g id="edge6" class="edge">
<title>base&#45;&gt;s5</title>
<path fill="none" stroke="black" d="M393.79,-146.5C416.2,-135.68 446.96,-120.83 471.03,-109.21"/>
<polygon fill="black" stroke="black" points="472.73,-112.27 480.22,-104.77 469.69,-105.97 472.73,-112.27"/>
</g>
<!-- s6 -->
<g id="node8" class="node">
<title>s6</title>
<ellipse fill="none" stroke="black" cx="616.74" cy="-90" rx="42.49" ry="18"/>
<text text-anchor="middle" x="616.74" y="-86.3" font-family="Arial" font-size="14.00">[V,MAT]</text>
</g>
<!-- base&#45;&gt;s6 -->
<g id="edge7" class="edge">
<title>base&#45;&gt;s6</title>
<path fill="none" stroke="black" d="M408.11,-150.24C449.19,-140.07 511.88,-124.03 565.74,-108 568.88,-107.07 572.1,-106.07 575.34,-105.05"/>
<polygon fill="black" stroke="black" points="576.57,-108.33 585.02,-101.93 574.42,-101.67 576.57,-108.33"/>
</g>
<!-- s7 -->
<g id="node9" class="node">
<title>s7</title>
<ellipse fill="none" stroke="black" cx="732.74" cy="-90" rx="55.79" ry="18"/>
<text text-anchor="middle" x="732.74" y="-86.3" font-family="Arial" font-size="14.00">[CL,V,MAT]</text>
</g>
<!-- base&#45;&gt;s7 -->
<g id="edge8" class="edge">
<title>base&#45;&gt;s7</title>
<path fill="none" stroke="black" d="M414.83,-153.42C475.44,-144.13 579.4,-127.22 667.74,-108 672.35,-107 677.11,-105.89 681.88,-104.73"/>
<polygon fill="black" stroke="black" points="682.75,-108.12 691.61,-102.31 681.06,-101.33 682.75,-108.12"/>
</g>
<!-- s8 -->
<g id="node10" class="node">
<title>s8</title>
<ellipse fill="none" stroke="black" cx="434.74" cy="-18" rx="71.49" ry="18"/>
<text text-anchor="middle" x="434.74" y="-14.3" font-family="Arial" font-size="14.00">[CL]+[V]+[MAT]</text>
</g>
<!-- s7&#45;&gt;s8 -->
<g id="edge9" class="edge">
<title>s7&#45;&gt;s8</title>
<path fill="none" stroke="black" d="M691.18,-77.92C683.41,-75.9 675.34,-73.86 667.74,-72 610.12,-57.91 544.16,-43.03 497.17,-32.63"/>
<polygon fill="black" stroke="black" points="497.66,-29.15 487.14,-30.41 496.15,-35.99 497.66,-29.15"/>
</g>
<!-- s9 -->
<g id="node11" class="node">
<title>s9</title>
<ellipse fill="none" stroke="black" cx="587.74" cy="-18" rx="63.89" ry="18"/>
<text text-anchor="middle" x="587.74" y="-14.3" font-family="Arial" font-size="14.00">[CL,V]+[MAT]</text>
</g>
<!-- s7&#45;&gt;s9 -->
<g id="edge10" class="edge">
<title>s7&#45;&gt;s9</title>
<path fill="none" stroke="black" d="M703.05,-74.67C681.25,-64.14 651.41,-49.74 627.55,-38.22"/>
<polygon fill="black" stroke="black" points="628.92,-34.99 618.4,-33.8 625.88,-41.3 628.92,-34.99"/>
</g>
<!-- s10 -->
<g id="node12" class="node">
<title>s10</title>
<ellipse fill="none" stroke="black" cx="732.74" cy="-18" rx="63.89" ry="18"/>
<text text-anchor="middle" x="732.74" y="-14.3" font-family="Arial" font-size="14.00">[CL,MAT]+[V]</text>
</g>
<!-- s7&#45;&gt;s10 -->
<g id="edge11" class="edge">
<title>s7&#45;&gt;s10</title>
<path fill="none" stroke="black" d="M732.74,-71.7C732.74,-63.98 732.74,-54.71 732.74,-46.11"/>
<polygon fill="black" stroke="black" points="736.24,-46.1 732.74,-36.1 729.24,-46.1 736.24,-46.1"/>
</g>
<!-- s11 -->
<g id="node13" class="node">
<title>s11</title>
<ellipse fill="none" stroke="black" cx="877.74" cy="-18" rx="63.89" ry="18"/>
<text text-anchor="middle" x="877.74" y="-14.3" font-family="Arial" font-size="14.00">[V,MAT]+[CL]</text>
</g>
<!-- s7&#45;&gt;s11 -->
<g id="edge12" class="edge">
<title>s7&#45;&gt;s11</title>
<path fill="none" stroke="black" d="M762.44,-74.67C784.23,-64.14 814.07,-49.74 837.94,-38.22"/>
<polygon fill="black" stroke="black" points="839.61,-41.3 847.09,-33.8 836.56,-34.99 839.61,-41.3"/>
</g>
<!-- s12 -->
<g id="node14" class="node">
<title>s12</title>
<ellipse fill="none" stroke="black" cx="1015.74" cy="-18" rx="55.79" ry="18"/>
<text text-anchor="middle" x="1015.74" y="-14.3" font-family="Arial" font-size="14.00">[CL,V,MAT]</text>
</g>
<!-- s7&#45;&gt;s12 -->
<g id="edge13" class="edge">
<title>s7&#45;&gt;s12</title>
<path fill="none" stroke="black" d="M776.23,-78.66C820.27,-68.14 890.32,-51.25 950.74,-36 955.06,-34.91 959.53,-33.77 964.02,-32.61"/>
<polygon fill="black" stroke="black" points="965.01,-35.97 973.81,-30.08 963.26,-29.2 965.01,-35.97"/>
</g>
</g>
</svg>
