<?xml version="1.0" encoding="UTF-8" standalone="no"?>
<!DOCTYPE svg PUBLIC "-//W3C//DTD SVG 1.1//EN"
 "http://www.w3.org/Graphics/SVG/1.1/DTD/svg11.dtd">
<!-- Generated by graphviz version 2.40.1 (20161225.0304)
 -->
<!-- Title: fo Pages: 1 -->
<svg width="225pt" height="44pt"
 viewBox="0.00 0.00 225.00 44.00" xmlns="http://www.w3.org/2000/svg" xmlns:xlink="http://www.w3.org/1999/xlink">
<g id="graph0" class="graph" transform="scale(1 1) rotate(0) translate(4 40)">
<title>fo</title>
<polygon fill="#ffffff" stroke="transparent" points="-4,4 -4,-40 221,-40 221,4 -4,4"/>
<!-- S -->
<!-- Central -->
<g id="node3" class="node">
<title>Central</title>
<polygon fill="none" stroke="#000000" points="157,-36 86,-36 86,0 157,0 157,-36"/>
<text text-anchor="middle" x="121.5" y="-14.3" font-family="Times,serif" font-size="14.00" fill="#000000">Central</text>
</g>
<!-- S&#45;&gt;Central -->
<g id="edge2" class="edge">
<title>S&#45;&gt;Central</title>
<path fill="none" stroke="#000000" d="M10.0059,-18C21.3746,-18 50.1317,-18 75.5918,-18"/>
<polygon fill="#000000" stroke="#000000" points="75.8735,-21.5001 85.8735,-18 75.8734,-14.5001 75.8735,-21.5001"/>
<text text-anchor="middle" x="48" y="-21.8" font-family="Times,serif" font-size="14.00" fill="#000000">Bolus</text>
</g>
<!-- Output -->
<!-- Central&#45;&gt;Output -->
<g id="edge1" class="edge">
<title>Central&#45;&gt;Output</title>
<path fill="none" stroke="#000000" d="M157.1869,-18C169.8361,-18 183.4751,-18 193.7913,-18"/>
<polygon fill="#000000" stroke="#000000" points="193.7969,-21.5001 203.7969,-18 193.7968,-14.5001 193.7969,-21.5001"/>
<text text-anchor="middle" x="180.5" y="-21.8" font-family="Times,serif" font-size="14.00" fill="#000000">K</text>
</g>
</g>
</svg>
