<?xml version="1.0" encoding="UTF-8" standalone="no"?>
<!DOCTYPE svg PUBLIC "-//W3C//DTD SVG 1.1//EN"
 "http://www.w3.org/Graphics/SVG/1.1/DTD/svg11.dtd">
<!-- Generated by graphviz version 2.43.0 (0)
 -->
<!-- Title: BST Pages: 1 -->
<svg width="1120pt" height="44pt"
 viewBox="0.00 0.00 1119.89 44.00" xmlns="http://www.w3.org/2000/svg" xmlns:xlink="http://www.w3.org/1999/xlink">
<g id="graph0" class="graph" transform="scale(1 1) rotate(0) translate(4 40)">
<title>BST</title>
<polygon fill="white" stroke="transparent" points="-4,4 -4,-40 1115.89,-40 1115.89,4 -4,4"/>
<!-- base -->
<g id="node1" class="node">
<title>base</title>
<ellipse fill="none" stroke="black" cx="30.55" cy="-18" rx="30.59" ry="18"/>
<text text-anchor="middle" x="30.55" y="-14.3" font-family="Arial" font-size="14.00">Input</text>
</g>
<!-- s0 -->
<g id="node2" class="node">
<title>s0</title>
<polygon fill="none" stroke="black" points="169.09,-36 97.09,-36 97.09,0 169.09,0 169.09,-36"/>
<text text-anchor="middle" x="133.09" y="-14.3" font-family="Arial" font-size="14.00">structural</text>
</g>
<!-- base&#45;&gt;s0 -->
<g id="edge1" class="edge">
<title>base&#45;&gt;s0</title>
<path fill="none" stroke="black" d="M61.17,-18C69.25,-18 78.19,-18 86.92,-18"/>
<polygon fill="black" stroke="black" points="87.01,-21.5 97.01,-18 87.01,-14.5 87.01,-21.5"/>
</g>
<!-- s1 -->
<g id="node3" class="node">
<title>s1</title>
<polygon fill="none" stroke="black" points="275.09,-36 205.09,-36 205.09,0 275.09,0 275.09,-36"/>
<text text-anchor="middle" x="240.09" y="-14.3" font-family="Arial" font-size="14.00">iivsearch</text>
</g>
<!-- s0&#45;&gt;s1 -->
<g id="edge2" class="edge">
<title>s0&#45;&gt;s1</title>
<path fill="none" stroke="black" d="M169.35,-18C177.48,-18 186.24,-18 194.7,-18"/>
<polygon fill="black" stroke="black" points="194.82,-21.5 204.82,-18 194.82,-14.5 194.82,-21.5"/>
</g>
<!-- s2 -->
<g id="node4" class="node">
<title>s2</title>
<polygon fill="none" stroke="black" points="375.09,-36 311.09,-36 311.09,0 375.09,0 375.09,-36"/>
<text text-anchor="middle" x="343.09" y="-14.3" font-family="Arial" font-size="14.00">residual</text>
</g>
<!-- s1&#45;&gt;s2 -->
<g id="edge3" class="edge">
<title>s1&#45;&gt;s2</title>
<path fill="none" stroke="black" d="M275.29,-18C283.51,-18 292.37,-18 300.87,-18"/>
<polygon fill="black" stroke="black" points="300.99,-21.5 310.99,-18 300.99,-14.5 300.99,-21.5"/>
</g>
<!-- s3 -->
<g id="node5" class="node">
<title>s3</title>
<polygon fill="none" stroke="black" points="485.09,-36 411.09,-36 411.09,0 485.09,0 485.09,-36"/>
<text text-anchor="middle" x="448.09" y="-14.3" font-family="Arial" font-size="14.00">iovsearch</text>
</g>
<!-- s2&#45;&gt;s3 -->
<g id="edge4" class="edge">
<title>s2&#45;&gt;s3</title>
<path fill="none" stroke="black" d="M375.28,-18C383.36,-18 392.25,-18 400.92,-18"/>
<polygon fill="black" stroke="black" points="400.96,-21.5 410.96,-18 400.96,-14.5 400.96,-21.5"/>
</g>
<!-- s4 -->
<g id="node6" class="node">
<title>s4</title>
<polygon fill="none" stroke="black" points="593.09,-36 521.09,-36 521.09,0 593.09,0 593.09,-36"/>
<text text-anchor="middle" x="557.09" y="-14.3" font-family="Arial" font-size="14.00">allometry</text>
</g>
<!-- s3&#45;&gt;s4 -->
<g id="edge5" class="edge">
<title>s3&#45;&gt;s4</title>
<path fill="none" stroke="black" d="M485.32,-18C493.51,-18 502.3,-18 510.81,-18"/>
<polygon fill="black" stroke="black" points="510.99,-21.5 520.99,-18 510.99,-14.5 510.99,-21.5"/>
</g>
<!-- s5 -->
<g id="node7" class="node">
<title>s5</title>
<polygon fill="none" stroke="black" points="707.09,-36 629.09,-36 629.09,0 707.09,0 707.09,-36"/>
<text text-anchor="middle" x="668.09" y="-14.3" font-family="Arial" font-size="14.00">covariates</text>
</g>
<!-- s4&#45;&gt;s5 -->
<g id="edge6" class="edge">
<title>s4&#45;&gt;s5</title>
<path fill="none" stroke="black" d="M593.18,-18C601.41,-18 610.32,-18 619.01,-18"/>
<polygon fill="black" stroke="black" points="619.06,-21.5 629.06,-18 619.06,-14.5 619.06,-21.5"/>
</g>
<!-- s6 -->
<g id="node8" class="node">
<title>s6</title>
<polygon fill="none" stroke="black" points="852.09,-36 743.09,-36 743.09,0 852.09,0 852.09,-36"/>
<text text-anchor="middle" x="797.59" y="-14.3" font-family="Arial" font-size="14.00">rerun_iivsearch</text>
</g>
<!-- s5&#45;&gt;s6 -->
<g id="edge7" class="edge">
<title>s5&#45;&gt;s6</title>
<path fill="none" stroke="black" d="M707.35,-18C715.36,-18 724.02,-18 732.68,-18"/>
<polygon fill="black" stroke="black" points="732.81,-21.5 742.81,-18 732.81,-14.5 732.81,-21.5"/>
</g>
<!-- s7 -->
<g id="node9" class="node">
<title>s7</title>
<polygon fill="none" stroke="black" points="1003.09,-36 888.09,-36 888.09,0 1003.09,0 1003.09,-36"/>
<text text-anchor="middle" x="945.59" y="-14.3" font-family="Arial" font-size="14.00">rerun_ruvsearch</text>
</g>
<!-- s6&#45;&gt;s7 -->
<g id="edge8" class="edge">
<title>s6&#45;&gt;s7</title>
<path fill="none" stroke="black" d="M852.13,-18C860.35,-18 868.92,-18 877.38,-18"/>
<polygon fill="black" stroke="black" points="877.63,-21.5 887.63,-18 877.63,-14.5 877.63,-21.5"/>
</g>
<!-- s8 -->
<g id="node10" class="node">
<title>s8</title>
<ellipse fill="none" stroke="black" cx="1075.49" cy="-18" rx="36.29" ry="18"/>
<text text-anchor="middle" x="1075.49" y="-14.3" font-family="Arial" font-size="14.00">results</text>
</g>
<!-- s7&#45;&gt;s8 -->
<g id="edge9" class="edge">
<title>s7&#45;&gt;s8</title>
<path fill="none" stroke="black" d="M1003.44,-18C1011.88,-18 1020.49,-18 1028.67,-18"/>
<polygon fill="black" stroke="black" points="1028.76,-21.5 1038.76,-18 1028.76,-14.5 1028.76,-21.5"/>
</g>
</g>
</svg>
