<?xml version="1.0" encoding="UTF-8" standalone="no"?>
<!DOCTYPE svg PUBLIC "-//W3C//DTD SVG 1.1//EN"
 "http://www.w3.org/Graphics/SVG/1.1/DTD/svg11.dtd">
<!-- Generated by graphviz version 2.43.0 (0)
 -->
<!-- Title: BST Pages: 1 -->
<svg width="638pt" height="116pt"
 viewBox="0.00 0.00 637.54 116.00" xmlns="http://www.w3.org/2000/svg" xmlns:xlink="http://www.w3.org/1999/xlink">
<g id="graph0" class="graph" transform="scale(1 1) rotate(0) translate(4 112)">
<title>BST</title>
<polygon fill="white" stroke="transparent" points="-4,4 -4,-112 633.54,-112 633.54,4 -4,4"/>
<!-- base -->
<g id="node1" class="node">
<title>base</title>
<ellipse fill="none" stroke="black" cx="322.99" cy="-90" rx="62.29" ry="18"/>
<text text-anchor="middle" x="322.99" y="-86.3" font-family="Arial" font-size="14.00">[CL,VC,MAT]</text>
</g>
<!-- s1 -->
<g id="node2" class="node">
<title>s1</title>
<ellipse fill="none" stroke="black" cx="77.99" cy="-18" rx="77.99" ry="18"/>
<text text-anchor="middle" x="77.99" y="-14.3" font-family="Arial" font-size="14.00">[CL]+[VC]+[MAT]</text>
</g>
<!-- base&#45;&gt;s1 -->
<g id="edge1" class="edge">
<title>base&#45;&gt;s1</title>
<path fill="none" stroke="black" d="M280.32,-76.81C240.04,-65.3 179.37,-47.97 134.97,-35.28"/>
<polygon fill="black" stroke="black" points="135.77,-31.87 125.2,-32.49 133.85,-38.6 135.77,-31.87"/>
</g>
<!-- s2 -->
<g id="node3" class="node">
<title>s2</title>
<ellipse fill="none" stroke="black" cx="243.99" cy="-18" rx="70.39" ry="18"/>
<text text-anchor="middle" x="243.99" y="-14.3" font-family="Arial" font-size="14.00">[CL,VC]+[MAT]</text>
</g>
<!-- base&#45;&gt;s2 -->
<g id="edge2" class="edge">
<title>base&#45;&gt;s2</title>
<path fill="none" stroke="black" d="M304.67,-72.76C294.37,-63.64 281.35,-52.1 270.02,-42.06"/>
<polygon fill="black" stroke="black" points="272.3,-39.4 262.49,-35.39 267.65,-44.64 272.3,-39.4"/>
</g>
<!-- s3 -->
<g id="node4" class="node">
<title>s3</title>
<ellipse fill="none" stroke="black" cx="401.99" cy="-18" rx="70.39" ry="18"/>
<text text-anchor="middle" x="401.99" y="-14.3" font-family="Arial" font-size="14.00">[CL,MAT]+[VC]</text>
</g>
<!-- base&#45;&gt;s3 -->
<g id="edge3" class="edge">
<title>base&#45;&gt;s3</title>
<path fill="none" stroke="black" d="M341.32,-72.76C351.61,-63.64 364.63,-52.1 375.97,-42.06"/>
<polygon fill="black" stroke="black" points="378.33,-44.64 383.5,-35.39 373.69,-39.4 378.33,-44.64"/>
</g>
<!-- s4 -->
<g id="node5" class="node">
<title>s4</title>
<ellipse fill="none" stroke="black" cx="559.99" cy="-18" rx="69.59" ry="18"/>
<text text-anchor="middle" x="559.99" y="-14.3" font-family="Arial" font-size="14.00">[CL]+[MAT,VC]</text>
</g>
<!-- base&#45;&gt;s4 -->
<g id="edge4" class="edge">
<title>base&#45;&gt;s4</title>
<path fill="none" stroke="black" d="M365.09,-76.57C404.46,-64.94 463.43,-47.52 506.2,-34.89"/>
<polygon fill="black" stroke="black" points="507.28,-38.22 515.88,-32.03 505.3,-31.51 507.28,-38.22"/>
</g>
</g>
</svg>
