<?xml version="1.0" encoding="UTF-8" standalone="no"?>
<!DOCTYPE svg PUBLIC "-//W3C//DTD SVG 1.1//EN"
 "http://www.w3.org/Graphics/SVG/1.1/DTD/svg11.dtd">
<!-- Generated by graphviz version 2.43.0 (0)
 -->
<!-- Title: BST Pages: 1 -->
<svg width="444pt" height="44pt"
 viewBox="0.00 0.00 444.09 44.00" xmlns="http://www.w3.org/2000/svg" xmlns:xlink="http://www.w3.org/1999/xlink">
<g id="graph0" class="graph" transform="scale(1 1) rotate(0) translate(4 40)">
<title>BST</title>
<polygon fill="white" stroke="transparent" points="-4,4 -4,-40 440.09,-40 440.09,4 -4,4"/>
<!-- base -->
<g id="node1" class="node">
<title>base</title>
<ellipse fill="none" stroke="black" cx="30.55" cy="-18" rx="30.59" ry="18"/>
<text text-anchor="middle" x="30.55" y="-14.3" font-family="Arial" font-size="14.00">Input</text>
</g>
<!-- s0 -->
<g id="node2" class="node">
<title>s0</title>
<polygon fill="none" stroke="black" points="251.09,-36 97.09,-36 97.09,0 251.09,0 251.09,-36"/>
<text text-anchor="middle" x="174.09" y="-14.3" font-family="Arial" font-size="14.00">mechanistic covariates</text>
</g>
<!-- base&#45;&gt;s0 -->
<g id="edge1" class="edge">
<title>base&#45;&gt;s0</title>
<path fill="none" stroke="black" d="M61.22,-18C69.02,-18 77.84,-18 87.02,-18"/>
<polygon fill="black" stroke="black" points="87.09,-21.5 97.09,-18 87.09,-14.5 87.09,-21.5"/>
</g>
<!-- s1 -->
<g id="node3" class="node">
<title>s1</title>
<polygon fill="none" stroke="black" points="436.09,-36 287.09,-36 287.09,0 436.09,0 436.09,-36"/>
<text text-anchor="middle" x="361.59" y="-14.3" font-family="Arial" font-size="14.00">exploratory covariates</text>
</g>
<!-- s0&#45;&gt;s1 -->
<g id="edge2" class="edge">
<title>s0&#45;&gt;s1</title>
<path fill="none" stroke="black" d="M251.35,-18C259.73,-18 268.3,-18 276.77,-18"/>
<polygon fill="black" stroke="black" points="277.03,-21.5 287.03,-18 277.03,-14.5 277.03,-21.5"/>
</g>
</g>
</svg>
