<?xml version="1.0" encoding="UTF-8" standalone="no"?>
<!DOCTYPE svg PUBLIC "-//W3C//DTD SVG 1.1//EN"
 "http://www.w3.org/Graphics/SVG/1.1/DTD/svg11.dtd">
<!-- Generated by graphviz version 2.43.0 (0)
 -->
<!-- Title: BST Pages: 1 -->
<svg width="998pt" height="44pt"
 viewBox="0.00 0.00 998.17 44.00" xmlns="http://www.w3.org/2000/svg" xmlns:xlink="http://www.w3.org/1999/xlink">
<g id="graph0" class="graph" transform="scale(1 1) rotate(0) translate(4 40)">
<title>BST</title>
<polygon fill="white" stroke="transparent" points="-4,4 -4,-40 994.17,-40 994.17,4 -4,4"/>
<!-- base -->
<g id="node1" class="node">
<title>base</title>
<ellipse fill="none" stroke="black" cx="57.19" cy="-18" rx="57.39" ry="18"/>
<text text-anchor="middle" x="57.19" y="-14.3" font-family="Arial" font-size="14.00">Input model</text>
</g>
<!-- s0 -->
<g id="node2" class="node">
<title>s0</title>
<ellipse fill="none" stroke="black" cx="269.23" cy="-18" rx="57.69" ry="18"/>
<text text-anchor="middle" x="269.23" y="-14.3" font-family="Arial" font-size="14.00">Base model</text>
</g>
<!-- base&#45;&gt;s0 -->
<g id="edge1" class="edge">
<title>base&#45;&gt;s0</title>
<path fill="none" stroke="black" d="M114.48,-18C141.11,-18 173.1,-18 200.99,-18"/>
<polygon fill="black" stroke="black" points="201.06,-21.5 211.06,-18 201.06,-14.5 201.06,-21.5"/>
<text text-anchor="middle" x="162.89" y="-21.8" font-family="Times,serif" font-size="14.00">Add IIVs</text>
</g>
<!-- s1 -->
<g id="node3" class="node">
<title>s1</title>
<polygon fill="none" stroke="black" points="531.08,-36 364.08,-36 364.08,0 531.08,0 531.08,-36"/>
<text text-anchor="middle" x="447.58" y="-14.3" font-family="Arial" font-size="14.00">Number of IIVs algorithm</text>
</g>
<!-- s0&#45;&gt;s1 -->
<g id="edge2" class="edge">
<title>s0&#45;&gt;s1</title>
<path fill="none" stroke="black" d="M327.49,-18C335.96,-18 344.88,-18 353.85,-18"/>
<polygon fill="black" stroke="black" points="353.99,-21.5 363.99,-18 353.99,-14.5 353.99,-21.5"/>
</g>
<!-- s2 -->
<g id="node4" class="node">
<title>s2</title>
<polygon fill="none" stroke="black" points="840.08,-36 695.08,-36 695.08,0 840.08,0 840.08,-36"/>
<text text-anchor="middle" x="767.58" y="-14.3" font-family="Arial" font-size="14.00">Covariance algorithm</text>
</g>
<!-- s1&#45;&gt;s2 -->
<g id="edge3" class="edge">
<title>s1&#45;&gt;s2</title>
<path fill="none" stroke="black" d="M531.3,-18C578.62,-18 637.75,-18 684.9,-18"/>
<polygon fill="black" stroke="black" points="685.07,-21.5 695.07,-18 685.07,-14.5 685.07,-21.5"/>
<text text-anchor="middle" x="613.08" y="-21.8" font-family="Times,serif" font-size="14.00">Select best model</text>
</g>
<!-- s3 -->
<g id="node5" class="node">
<title>s3</title>
<ellipse fill="none" stroke="black" cx="933.62" cy="-18" rx="56.59" ry="18"/>
<text text-anchor="middle" x="933.62" y="-14.3" font-family="Arial" font-size="14.00">Final model</text>
</g>
<!-- s2&#45;&gt;s3 -->
<g id="edge4" class="edge">
<title>s2&#45;&gt;s3</title>
<path fill="none" stroke="black" d="M840.53,-18C849.32,-18 858.26,-18 866.95,-18"/>
<polygon fill="black" stroke="black" points="867.01,-21.5 877.01,-18 867.01,-14.5 867.01,-21.5"/>
</g>
</g>
</svg>
