<?xml version="1.0" encoding="UTF-8" standalone="no"?>
<!DOCTYPE svg PUBLIC "-//W3C//DTD SVG 1.1//EN"
 "http://www.w3.org/Graphics/SVG/1.1/DTD/svg11.dtd">
<!-- Generated by graphviz version 2.43.0 (0)
 -->
<!-- Title: BST Pages: 1 -->
<svg width="941pt" height="116pt"
 viewBox="0.00 0.00 941.00 116.00" xmlns="http://www.w3.org/2000/svg" xmlns:xlink="http://www.w3.org/1999/xlink">
<g id="graph0" class="graph" transform="scale(1 1) rotate(0) translate(4 112)">
<title>BST</title>
<polygon fill="white" stroke="transparent" points="-4,4 -4,-112 937,-112 937,4 -4,4"/>
<!-- base -->
<g id="node1" class="node">
<title>base</title>
<ellipse fill="none" stroke="black" cx="439" cy="-90" rx="57.69" ry="18"/>
<text text-anchor="middle" x="439" y="-86.3" font-family="Arial" font-size="14.00">Base model</text>
</g>
<!-- s1 -->
<g id="node2" class="node">
<title>s1</title>
<polygon fill="none" stroke="black" points="68,-36 0,-36 0,0 68,0 68,-36"/>
<text text-anchor="middle" x="34" y="-14.3" font-family="Arial" font-size="14.00">Baseline</text>
</g>
<!-- base&#45;&gt;s1 -->
<g id="edge1" class="edge">
<title>base&#45;&gt;s1</title>
<path fill="none" stroke="black" d="M383.31,-84.87C313.56,-78.8 190.54,-65.19 77.85,-35.88"/>
<polygon fill="black" stroke="black" points="78.59,-32.45 68.03,-33.28 76.8,-39.22 78.59,-32.45"/>
</g>
<!-- s2 -->
<g id="node3" class="node">
<title>s2</title>
<ellipse fill="none" stroke="black" cx="166" cy="-18" rx="79.89" ry="18"/>
<text text-anchor="middle" x="166" y="-14.3" font-family="Arial" font-size="14.00">direct effect linear</text>
</g>
<!-- base&#45;&gt;s2 -->
<g id="edge2" class="edge">
<title>base&#45;&gt;s2</title>
<path fill="none" stroke="black" d="M395.74,-77.91C350.21,-66.23 278.18,-47.76 226.91,-34.62"/>
<polygon fill="black" stroke="black" points="227.51,-31.16 216.95,-32.06 225.77,-37.94 227.51,-31.16"/>
</g>
<!-- s3 -->
<g id="node4" class="node">
<title>s3</title>
<ellipse fill="none" stroke="black" cx="345" cy="-18" rx="80.69" ry="18"/>
<text text-anchor="middle" x="345" y="-14.3" font-family="Arial" font-size="14.00">direct effect emax</text>
</g>
<!-- base&#45;&gt;s3 -->
<g id="edge3" class="edge">
<title>base&#45;&gt;s3</title>
<path fill="none" stroke="black" d="M417.67,-73.12C405.2,-63.83 389.25,-51.95 375.47,-41.69"/>
<polygon fill="black" stroke="black" points="377.34,-38.72 367.23,-35.55 373.16,-44.33 377.34,-38.72"/>
</g>
<!-- s4 -->
<g id="node5" class="node">
<title>s4</title>
<ellipse fill="none" stroke="black" cx="533" cy="-18" rx="89.08" ry="18"/>
<text text-anchor="middle" x="533" y="-14.3" font-family="Arial" font-size="14.00">direct effect sigmoid</text>
</g>
<!-- base&#45;&gt;s4 -->
<g id="edge4" class="edge">
<title>base&#45;&gt;s4</title>
<path fill="none" stroke="black" d="M460.33,-73.12C472.8,-63.83 488.75,-51.95 502.53,-41.69"/>
<polygon fill="black" stroke="black" points="504.84,-44.33 510.77,-35.55 500.66,-38.72 504.84,-44.33"/>
</g>
<!-- s5 -->
<g id="node6" class="node">
<title>s5</title>
<ellipse fill="none" stroke="black" cx="751" cy="-18" rx="110.48" ry="18"/>
<text text-anchor="middle" x="751" y="-14.3" font-family="Arial" font-size="14.00">effect compartment linear</text>
</g>
<!-- base&#45;&gt;s5 -->
<g id="edge5" class="edge">
<title>base&#45;&gt;s5</title>
<path fill="none" stroke="black" d="M484.37,-78.82C535.44,-67.36 619.1,-48.59 679.1,-35.13"/>
<polygon fill="black" stroke="black" points="679.89,-38.54 688.89,-32.94 678.36,-31.71 679.89,-38.54"/>
</g>
<!-- s6 -->
<g id="node7" class="node">
<title>s6</title>
<ellipse fill="none" stroke="black" cx="906" cy="-18" rx="27" ry="18"/>
<text text-anchor="middle" x="906" y="-14.3" font-family="Arial" font-size="14.00">...</text>
</g>
<!-- base&#45;&gt;s6 -->
<g id="edge6" class="edge">
<title>base&#45;&gt;s6</title>
<path fill="none" stroke="black" d="M496.64,-87.71C580.41,-84.55 740.01,-73.63 870,-36 871.94,-35.44 873.91,-34.78 875.87,-34.06"/>
<polygon fill="black" stroke="black" points="877.61,-37.13 885.5,-30.05 874.92,-30.67 877.61,-37.13"/>
</g>
</g>
</svg>
