<?xml version="1.0" encoding="UTF-8" standalone="no"?>
<!DOCTYPE svg PUBLIC "-//W3C//DTD SVG 1.1//EN"
 "http://www.w3.org/Graphics/SVG/1.1/DTD/svg11.dtd">
<!-- Generated by graphviz version 2.43.0 (0)
 -->
<!-- Title: BST Pages: 1 -->
<svg width="499pt" height="44pt"
 viewBox="0.00 0.00 499.09 44.00" xmlns="http://www.w3.org/2000/svg" xmlns:xlink="http://www.w3.org/1999/xlink">
<g id="graph0" class="graph" transform="scale(1 1) rotate(0) translate(4 40)">
<title>BST</title>
<polygon fill="white" stroke="transparent" points="-4,4 -4,-40 495.09,-40 495.09,4 -4,4"/>
<!-- base -->
<g id="node1" class="node">
<title>base</title>
<ellipse fill="none" stroke="black" cx="30.55" cy="-18" rx="30.59" ry="18"/>
<text text-anchor="middle" x="30.55" y="-14.3" font-family="Arial" font-size="14.00">Input</text>
</g>
<!-- s0 -->
<g id="node2" class="node">
<title>s0</title>
<polygon fill="none" stroke="black" points="234.09,-36 97.09,-36 97.09,0 234.09,0 234.09,-36"/>
<text text-anchor="middle" x="165.59" y="-14.3" font-family="Arial" font-size="14.00">structural covariates</text>
</g>
<!-- base&#45;&gt;s0 -->
<g id="edge1" class="edge">
<title>base&#45;&gt;s0</title>
<path fill="none" stroke="black" d="M61.41,-18C69.14,-18 77.84,-18 86.82,-18"/>
<polygon fill="black" stroke="black" points="87.05,-21.5 97.05,-18 87.05,-14.5 87.05,-21.5"/>
</g>
<!-- s1 -->
<g id="node3" class="node">
<title>s1</title>
<polygon fill="none" stroke="black" points="365.09,-36 270.09,-36 270.09,0 365.09,0 365.09,-36"/>
<text text-anchor="middle" x="317.59" y="-14.3" font-family="Arial" font-size="14.00">modelsearch</text>
</g>
<!-- s0&#45;&gt;s1 -->
<g id="edge2" class="edge">
<title>s0&#45;&gt;s1</title>
<path fill="none" stroke="black" d="M234.13,-18C242.76,-18 251.52,-18 259.94,-18"/>
<polygon fill="black" stroke="black" points="260.03,-21.5 270.03,-18 260.03,-14.5 260.03,-21.5"/>
</g>
<!-- s2 -->
<g id="node4" class="node">
<title>s2</title>
<polygon fill="none" stroke="black" points="491.09,-36 401.09,-36 401.09,0 491.09,0 491.09,-36"/>
<text text-anchor="middle" x="446.09" y="-14.3" font-family="Arial" font-size="14.00">structsearch</text>
</g>
<!-- s1&#45;&gt;s2 -->
<g id="edge3" class="edge">
<title>s1&#45;&gt;s2</title>
<path fill="none" stroke="black" d="M365.34,-18C373.65,-18 382.36,-18 390.85,-18"/>
<polygon fill="black" stroke="black" points="391.06,-21.5 401.06,-18 391.06,-14.5 391.06,-21.5"/>
</g>
</g>
</svg>
