<?xml version="1.0" encoding="UTF-8" standalone="no"?>
<!DOCTYPE svg PUBLIC "-//W3C//DTD SVG 1.1//EN"
 "http://www.w3.org/Graphics/SVG/1.1/DTD/svg11.dtd">
<!-- Generated by graphviz version 2.43.0 (0)
 -->
<!-- Title: BST Pages: 1 -->
<svg width="979pt" height="260pt"
 viewBox="0.00 0.00 978.94 260.00" xmlns="http://www.w3.org/2000/svg" xmlns:xlink="http://www.w3.org/1999/xlink">
<g id="graph0" class="graph" transform="scale(1 1) rotate(0) translate(4 256)">
<title>BST</title>
<polygon fill="white" stroke="transparent" points="-4,4 -4,-256 974.94,-256 974.94,4 -4,4"/>
<!-- base -->
<g id="node1" class="node">
<title>base</title>
<ellipse fill="none" stroke="black" cx="539.39" cy="-234" rx="57.69" ry="18"/>
<text text-anchor="middle" x="539.39" y="-230.3" font-family="Arial" font-size="14.00">Base model</text>
</g>
<!-- foce -->
<g id="node2" class="node">
<title>foce</title>
<ellipse fill="none" stroke="black" cx="283.39" cy="-162" rx="36" ry="18"/>
<text text-anchor="middle" x="283.39" y="-158.3" font-family="Arial" font-size="14.00">FOCE</text>
</g>
<!-- base&#45;&gt;foce -->
<g id="edge1" class="edge">
<title>base&#45;&gt;foce</title>
<path fill="none" stroke="black" d="M493.28,-223.03C450.25,-213.34 384.44,-197.56 328.39,-180 325.79,-179.19 323.13,-178.3 320.45,-177.38"/>
<polygon fill="black" stroke="black" points="321.42,-174.01 310.83,-173.94 319.06,-180.6 321.42,-174.01"/>
</g>
<!-- s1 -->
<g id="node3" class="node">
<title>s1</title>
<ellipse fill="none" stroke="black" cx="399.39" cy="-162" rx="62.29" ry="18"/>
<text text-anchor="middle" x="399.39" y="-158.3" font-family="Arial" font-size="14.00">IMP+LSODA</text>
</g>
<!-- base&#45;&gt;s1 -->
<g id="edge2" class="edge">
<title>base&#45;&gt;s1</title>
<path fill="none" stroke="black" d="M510.05,-218.33C489.19,-207.9 460.96,-193.78 438.23,-182.42"/>
<polygon fill="black" stroke="black" points="439.7,-179.24 429.19,-177.9 436.57,-185.5 439.7,-179.24"/>
</g>
<!-- s2 -->
<g id="node4" class="node">
<title>s2</title>
<ellipse fill="none" stroke="black" cx="539.39" cy="-162" rx="59.29" ry="18"/>
<text text-anchor="middle" x="539.39" y="-158.3" font-family="Arial" font-size="14.00">IMP+LSODI</text>
</g>
<!-- base&#45;&gt;s2 -->
<g id="edge3" class="edge">
<title>base&#45;&gt;s2</title>
<path fill="none" stroke="black" d="M539.39,-215.7C539.39,-207.98 539.39,-198.71 539.39,-190.11"/>
<polygon fill="black" stroke="black" points="542.89,-190.1 539.39,-180.1 535.89,-190.1 542.89,-190.1"/>
</g>
<!-- s3 -->
<g id="node5" class="node">
<title>s3</title>
<ellipse fill="none" stroke="black" cx="702.39" cy="-162" rx="85.59" ry="18"/>
<text text-anchor="middle" x="702.39" y="-158.3" font-family="Arial" font-size="14.00">LAPLACE+LSODA</text>
</g>
<!-- base&#45;&gt;s3 -->
<g id="edge4" class="edge">
<title>base&#45;&gt;s3</title>
<path fill="none" stroke="black" d="M571.99,-219C596.42,-208.51 630.16,-194.02 657.2,-182.41"/>
<polygon fill="black" stroke="black" points="658.65,-185.59 666.46,-178.43 655.89,-179.16 658.65,-185.59"/>
</g>
<!-- s4 -->
<g id="node6" class="node">
<title>s4</title>
<ellipse fill="none" stroke="black" cx="888.39" cy="-162" rx="82.59" ry="18"/>
<text text-anchor="middle" x="888.39" y="-158.3" font-family="Arial" font-size="14.00">LAPLACE+LSODI</text>
</g>
<!-- base&#45;&gt;s4 -->
<g id="edge5" class="edge">
<title>base&#45;&gt;s4</title>
<path fill="none" stroke="black" d="M586.83,-223.49C646.96,-211.43 751.05,-190.55 819.83,-176.75"/>
<polygon fill="black" stroke="black" points="820.59,-180.17 829.71,-174.77 819.22,-173.31 820.59,-180.17"/>
</g>
<!-- update -->
<g id="node7" class="node">
<title>update</title>
<ellipse fill="none" stroke="black" cx="283.39" cy="-90" rx="102.08" ry="18"/>
<text text-anchor="middle" x="283.39" y="-86.3" font-family="Arial" font-size="14.00">Update initial estimates</text>
</g>
<!-- foce&#45;&gt;update -->
<g id="edge6" class="edge">
<title>foce&#45;&gt;update</title>
<path fill="none" stroke="black" d="M283.39,-143.7C283.39,-135.98 283.39,-126.71 283.39,-118.11"/>
<polygon fill="black" stroke="black" points="286.89,-118.1 283.39,-108.1 279.89,-118.1 286.89,-118.1"/>
</g>
<!-- s5 -->
<g id="node8" class="node">
<title>s5</title>
<ellipse fill="none" stroke="black" cx="62.39" cy="-18" rx="62.29" ry="18"/>
<text text-anchor="middle" x="62.39" y="-14.3" font-family="Arial" font-size="14.00">IMP+LSODA</text>
</g>
<!-- update&#45;&gt;s5 -->
<g id="edge7" class="edge">
<title>update&#45;&gt;s5</title>
<path fill="none" stroke="black" d="M235.98,-73.98C199.54,-62.44 149.33,-46.54 112.29,-34.8"/>
<polygon fill="black" stroke="black" points="113.28,-31.45 102.69,-31.76 111.17,-38.12 113.28,-31.45"/>
</g>
<!-- s6 -->
<g id="node9" class="node">
<title>s6</title>
<ellipse fill="none" stroke="black" cx="202.39" cy="-18" rx="59.29" ry="18"/>
<text text-anchor="middle" x="202.39" y="-14.3" font-family="Arial" font-size="14.00">IMP+LSODI</text>
</g>
<!-- update&#45;&gt;s6 -->
<g id="edge8" class="edge">
<title>update&#45;&gt;s6</title>
<path fill="none" stroke="black" d="M263.79,-72.05C253.39,-63.07 240.46,-51.9 229.15,-42.12"/>
<polygon fill="black" stroke="black" points="231.12,-39.2 221.26,-35.31 226.54,-44.49 231.12,-39.2"/>
</g>
<!-- s7 -->
<g id="node10" class="node">
<title>s7</title>
<ellipse fill="none" stroke="black" cx="365.39" cy="-18" rx="85.59" ry="18"/>
<text text-anchor="middle" x="365.39" y="-14.3" font-family="Arial" font-size="14.00">LAPLACE+LSODA</text>
</g>
<!-- update&#45;&gt;s7 -->
<g id="edge9" class="edge">
<title>update&#45;&gt;s7</title>
<path fill="none" stroke="black" d="M303.24,-72.05C313.8,-63.05 326.92,-51.84 338.39,-42.05"/>
<polygon fill="black" stroke="black" points="340.68,-44.7 346.01,-35.55 336.13,-39.38 340.68,-44.7"/>
</g>
<!-- s8 -->
<g id="node11" class="node">
<title>s8</title>
<ellipse fill="none" stroke="black" cx="551.39" cy="-18" rx="82.59" ry="18"/>
<text text-anchor="middle" x="551.39" y="-14.3" font-family="Arial" font-size="14.00">LAPLACE+LSODI</text>
</g>
<!-- update&#45;&gt;s8 -->
<g id="edge10" class="edge">
<title>update&#45;&gt;s8</title>
<path fill="none" stroke="black" d="M337.95,-74.75C382.29,-63.17 444.8,-46.84 490.72,-34.85"/>
<polygon fill="black" stroke="black" points="491.75,-38.2 500.54,-32.28 489.98,-31.42 491.75,-38.2"/>
</g>
</g>
</svg>
