<?xml version="1.0" encoding="UTF-8" standalone="no"?>
<!DOCTYPE svg PUBLIC "-//W3C//DTD SVG 1.1//EN"
 "http://www.w3.org/Graphics/SVG/1.1/DTD/svg11.dtd">
<!-- Generated by graphviz version 2.43.0 (0)
 -->
<!-- Title: BST Pages: 1 -->
<svg width="1205pt" height="332pt"
 viewBox="0.00 0.00 1204.63 332.00" xmlns="http://www.w3.org/2000/svg" xmlns:xlink="http://www.w3.org/1999/xlink">
<g id="graph0" class="graph" transform="scale(1 1) rotate(0) translate(4 328)">
<title>BST</title>
<polygon fill="white" stroke="transparent" points="-4,4 -4,-328 1200.63,-328 1200.63,4 -4,4"/>
<!-- base -->
<g id="node1" class="node">
<title>base</title>
<ellipse fill="none" stroke="black" cx="459.49" cy="-306" rx="57.69" ry="18"/>
<text text-anchor="middle" x="459.49" y="-302.3" font-family="Arial" font-size="14.00">Base model</text>
</g>
<!-- s0 -->
<g id="node2" class="node">
<title>s0</title>
<ellipse fill="none" stroke="black" cx="110.49" cy="-234" rx="110.48" ry="18"/>
<text text-anchor="middle" x="110.49" y="-230.3" font-family="Arial" font-size="14.00">AddEffect(CL, SEX, CAT)</text>
</g>
<!-- base&#45;&gt;s0 -->
<g id="edge1" class="edge">
<title>base&#45;&gt;s0</title>
<path fill="none" stroke="black" d="M412.06,-295.49C354.24,-283.89 255.76,-264.14 187.13,-250.37"/>
<polygon fill="black" stroke="black" points="187.73,-246.92 177.23,-248.39 186.35,-253.78 187.73,-246.92"/>
</g>
<!-- s1 -->
<g id="node3" class="node">
<title>s1</title>
<ellipse fill="none" stroke="black" cx="345.49" cy="-234" rx="106.68" ry="18"/>
<text text-anchor="middle" x="345.49" y="-230.3" font-family="Arial" font-size="14.00">AddEffect(CL, WT, EXP)</text>
</g>
<!-- base&#45;&gt;s1 -->
<g id="edge2" class="edge">
<title>base&#45;&gt;s1</title>
<path fill="none" stroke="black" d="M434.47,-289.64C418.84,-280.04 398.47,-267.53 381.17,-256.91"/>
<polygon fill="black" stroke="black" points="382.79,-253.8 372.44,-251.55 379.13,-259.76 382.79,-253.8"/>
</g>
<!-- s2 -->
<g id="node4" class="node">
<title>s2</title>
<ellipse fill="none" stroke="black" cx="574.49" cy="-234" rx="104.78" ry="18"/>
<text text-anchor="middle" x="574.49" y="-230.3" font-family="Arial" font-size="14.00">AddEffect(V, SEX, CAT)</text>
</g>
<!-- base&#45;&gt;s2 -->
<g id="edge3" class="edge">
<title>base&#45;&gt;s2</title>
<path fill="none" stroke="black" d="M484.73,-289.64C500.49,-280.04 521.04,-267.53 538.5,-256.91"/>
<polygon fill="black" stroke="black" points="540.58,-259.74 547.31,-251.55 536.94,-253.76 540.58,-259.74"/>
</g>
<!-- s3 -->
<g id="node5" class="node">
<title>s3</title>
<ellipse fill="none" stroke="black" cx="797.49" cy="-234" rx="100.98" ry="18"/>
<text text-anchor="middle" x="797.49" y="-230.3" font-family="Arial" font-size="14.00">AddEffect(V, WT, EXP)</text>
</g>
<!-- base&#45;&gt;s3 -->
<g id="edge4" class="edge">
<title>base&#45;&gt;s3</title>
<path fill="none" stroke="black" d="M506.13,-295.34C562.55,-283.66 658.17,-263.85 724.4,-250.14"/>
<polygon fill="black" stroke="black" points="725.28,-253.53 734.36,-248.07 723.86,-246.67 725.28,-253.53"/>
</g>
<!-- s4 -->
<g id="node6" class="node">
<title>s4</title>
<ellipse fill="none" stroke="black" cx="562.49" cy="-162" rx="110.48" ry="18"/>
<text text-anchor="middle" x="562.49" y="-158.3" font-family="Arial" font-size="14.00">AddEffect(CL, SEX, CAT)</text>
</g>
<!-- s3&#45;&gt;s4 -->
<g id="edge5" class="edge">
<title>s3&#45;&gt;s4</title>
<path fill="none" stroke="black" d="M747.94,-218.24C711.44,-207.37 661.62,-192.53 622.8,-180.97"/>
<polygon fill="black" stroke="black" points="623.77,-177.6 613.19,-178.1 621.77,-184.31 623.77,-177.6"/>
</g>
<!-- s5 -->
<g id="node7" class="node">
<title>s5</title>
<ellipse fill="none" stroke="black" cx="797.49" cy="-162" rx="106.68" ry="18"/>
<text text-anchor="middle" x="797.49" y="-158.3" font-family="Arial" font-size="14.00">AddEffect(CL, WT, EXP)</text>
</g>
<!-- s3&#45;&gt;s5 -->
<g id="edge6" class="edge">
<title>s3&#45;&gt;s5</title>
<path fill="none" stroke="black" d="M797.49,-215.7C797.49,-207.98 797.49,-198.71 797.49,-190.11"/>
<polygon fill="black" stroke="black" points="800.99,-190.1 797.49,-180.1 793.99,-190.1 800.99,-190.1"/>
</g>
<!-- s6 -->
<g id="node8" class="node">
<title>s6</title>
<ellipse fill="none" stroke="black" cx="1026.49" cy="-162" rx="104.78" ry="18"/>
<text text-anchor="middle" x="1026.49" y="-158.3" font-family="Arial" font-size="14.00">AddEffect(V, SEX, CAT)</text>
</g>
<!-- s3&#45;&gt;s6 -->
<g id="edge7" class="edge">
<title>s3&#45;&gt;s6</title>
<path fill="none" stroke="black" d="M846.06,-218.15C881.61,-207.29 930.03,-192.49 967.76,-180.95"/>
<polygon fill="black" stroke="black" points="969.06,-184.21 977.6,-177.94 967.01,-177.52 969.06,-184.21"/>
</g>
<!-- s7 -->
<g id="node9" class="node">
<title>s7</title>
<ellipse fill="none" stroke="black" cx="333.49" cy="-90" rx="106.68" ry="18"/>
<text text-anchor="middle" x="333.49" y="-86.3" font-family="Arial" font-size="14.00">AddEffect(CL, WT, EXP)</text>
</g>
<!-- s4&#45;&gt;s7 -->
<g id="edge8" class="edge">
<title>s4&#45;&gt;s7</title>
<path fill="none" stroke="black" d="M513.08,-145.9C477.72,-135.09 429.95,-120.48 392.57,-109.06"/>
<polygon fill="black" stroke="black" points="393.4,-105.65 382.81,-106.08 391.35,-112.35 393.4,-105.65"/>
</g>
<!-- s8 -->
<g id="node10" class="node">
<title>s8</title>
<ellipse fill="none" stroke="black" cx="562.49" cy="-90" rx="104.78" ry="18"/>
<text text-anchor="middle" x="562.49" y="-86.3" font-family="Arial" font-size="14.00">AddEffect(V, SEX, CAT)</text>
</g>
<!-- s4&#45;&gt;s8 -->
<g id="edge9" class="edge">
<title>s4&#45;&gt;s8</title>
<path fill="none" stroke="black" d="M562.49,-143.7C562.49,-135.98 562.49,-126.71 562.49,-118.11"/>
<polygon fill="black" stroke="black" points="565.99,-118.1 562.49,-108.1 558.99,-118.1 565.99,-118.1"/>
</g>
<!-- s9 -->
<g id="node11" class="node">
<title>s9</title>
<ellipse fill="none" stroke="black" cx="802.49" cy="-90" rx="117.78" ry="18"/>
<text text-anchor="middle" x="802.49" y="-86.3" font-family="Arial" font-size="14.00">Forward search best model</text>
</g>
<!-- s4&#45;&gt;s9 -->
<g id="edge10" class="edge">
<title>s4&#45;&gt;s9</title>
<path fill="none" stroke="black" d="M613.98,-145.98C651.05,-135.17 701.25,-120.53 740.53,-109.07"/>
<polygon fill="black" stroke="black" points="741.64,-112.39 750.26,-106.23 739.68,-105.67 741.64,-112.39"/>
</g>
<!-- s10 -->
<g id="node12" class="node">
<title>s10</title>
<ellipse fill="none" stroke="black" cx="538.49" cy="-18" rx="118.08" ry="18"/>
<text text-anchor="middle" x="538.49" y="-14.3" font-family="Arial" font-size="14.00">RemoveEffect(V, WT, EXP)</text>
</g>
<!-- s9&#45;&gt;s10 -->
<g id="edge11" class="edge">
<title>s9&#45;&gt;s10</title>
<path fill="none" stroke="black" d="M746.5,-74.15C704.99,-63.15 648.27,-48.11 604.54,-36.51"/>
<polygon fill="black" stroke="black" points="605.41,-33.12 594.85,-33.94 603.62,-39.89 605.41,-33.12"/>
</g>
<!-- s11 -->
<g id="node13" class="node">
<title>s11</title>
<ellipse fill="none" stroke="black" cx="802.49" cy="-18" rx="128.08" ry="18"/>
<text text-anchor="middle" x="802.49" y="-14.3" font-family="Arial" font-size="14.00">RemoveEffect(CL, SEX, CAT)</text>
</g>
<!-- s9&#45;&gt;s11 -->
<g id="edge12" class="edge">
<title>s9&#45;&gt;s11</title>
<path fill="none" stroke="black" d="M802.49,-71.7C802.49,-63.98 802.49,-54.71 802.49,-46.11"/>
<polygon fill="black" stroke="black" points="805.99,-46.1 802.49,-36.1 798.99,-46.1 805.99,-46.1"/>
</g>
<!-- s12 -->
<g id="node14" class="node">
<title>s12</title>
<ellipse fill="none" stroke="black" cx="1072.49" cy="-18" rx="124.28" ry="18"/>
<text text-anchor="middle" x="1072.49" y="-14.3" font-family="Arial" font-size="14.00">Backward search best model</text>
</g>
<!-- s9&#45;&gt;s12 -->
<g id="edge13" class="edge">
<title>s9&#45;&gt;s12</title>
<path fill="none" stroke="black" d="M859.42,-74.24C901.85,-63.24 959.96,-48.17 1004.78,-36.55"/>
<polygon fill="black" stroke="black" points="1005.91,-39.88 1014.71,-33.98 1004.15,-33.1 1005.91,-39.88"/>
</g>
</g>
</svg>
