<?xml version="1.0" encoding="UTF-8" standalone="no"?>
<!DOCTYPE svg PUBLIC "-//W3C//DTD SVG 1.1//EN"
 "http://www.w3.org/Graphics/SVG/1.1/DTD/svg11.dtd">
<!-- Generated by graphviz version 2.43.0 (0)
 -->
<!-- Title: BST Pages: 1 -->
<svg width="829pt" height="44pt"
 viewBox="0.00 0.00 829.00 44.00" xmlns="http://www.w3.org/2000/svg" xmlns:xlink="http://www.w3.org/1999/xlink">
<g id="graph0" class="graph" transform="scale(1 1) rotate(0) translate(4 40)">
<title>BST</title>
<polygon fill="white" stroke="transparent" points="-4,4 -4,-40 825,-40 825,4 -4,4"/>
<!-- base -->
<g id="node1" class="node">
<title>base</title>
<text text-anchor="middle" x="27" y="-14.3" font-family="Arial" font-size="14.00">Dose</text>
</g>
<!-- s0 -->
<g id="node2" class="node">
<title>s0</title>
<polygon fill="none" stroke="black" points="145,-36 91,-36 91,0 145,0 145,-36"/>
<text text-anchor="middle" x="118" y="-14.3" font-family="Arial" font-size="14.00">T0</text>
</g>
<!-- base&#45;&gt;s0 -->
<g id="edge1" class="edge">
<title>base&#45;&gt;s0</title>
<path fill="none" stroke="black" d="M54.22,-18C62.55,-18 71.91,-18 80.82,-18"/>
<polygon fill="black" stroke="black" points="80.97,-21.5 90.97,-18 80.97,-14.5 80.97,-21.5"/>
</g>
<!-- s1 -->
<g id="node3" class="node">
<title>s1</title>
<polygon fill="none" stroke="black" points="257,-36 203,-36 203,0 257,0 257,-36"/>
<text text-anchor="middle" x="230" y="-14.3" font-family="Arial" font-size="14.00">T1</text>
</g>
<!-- s0&#45;&gt;s1 -->
<g id="edge2" class="edge">
<title>s0&#45;&gt;s1</title>
<path fill="none" stroke="black" d="M145.07,-18C159.21,-18 176.92,-18 192.43,-18"/>
<polygon fill="black" stroke="black" points="192.74,-21.5 202.74,-18 192.74,-14.5 192.74,-21.5"/>
<text text-anchor="middle" x="174" y="-21.8" font-family="Times,serif" font-size="14.00">ktr</text>
</g>
<!-- s2 -->
<g id="node4" class="node">
<title>s2</title>
<text text-anchor="middle" x="342" y="-14.3" font-family="Arial" font-size="14.00">...</text>
</g>
<!-- s1&#45;&gt;s2 -->
<g id="edge3" class="edge">
<title>s1&#45;&gt;s2</title>
<path fill="none" stroke="black" d="M257.07,-18C271.21,-18 288.92,-18 304.43,-18"/>
<polygon fill="black" stroke="black" points="304.74,-21.5 314.74,-18 304.74,-14.5 304.74,-21.5"/>
<text text-anchor="middle" x="286" y="-21.8" font-family="Times,serif" font-size="14.00">ktr</text>
</g>
<!-- s3 -->
<g id="node5" class="node">
<title>s3</title>
<polygon fill="none" stroke="black" points="481,-36 427,-36 427,0 481,0 481,-36"/>
<text text-anchor="middle" x="454" y="-14.3" font-family="Arial" font-size="14.00">Tn&#45;1</text>
</g>
<!-- s2&#45;&gt;s3 -->
<g id="edge4" class="edge">
<title>s2&#45;&gt;s3</title>
<path fill="none" stroke="black" d="M369.07,-18C383.21,-18 400.92,-18 416.43,-18"/>
<polygon fill="black" stroke="black" points="416.74,-21.5 426.74,-18 416.74,-14.5 416.74,-21.5"/>
<text text-anchor="middle" x="398" y="-21.8" font-family="Times,serif" font-size="14.00">ktr</text>
</g>
<!-- s4 -->
<g id="node6" class="node">
<title>s4</title>
<polygon fill="none" stroke="black" points="593,-36 539,-36 539,0 593,0 593,-36"/>
<text text-anchor="middle" x="566" y="-14.3" font-family="Arial" font-size="14.00">Tn</text>
</g>
<!-- s3&#45;&gt;s4 -->
<g id="edge5" class="edge">
<title>s3&#45;&gt;s4</title>
<path fill="none" stroke="black" d="M481.07,-18C495.21,-18 512.92,-18 528.43,-18"/>
<polygon fill="black" stroke="black" points="528.74,-21.5 538.74,-18 528.74,-14.5 528.74,-21.5"/>
<text text-anchor="middle" x="510" y="-21.8" font-family="Times,serif" font-size="14.00">ktr</text>
</g>
<!-- s5 -->
<g id="node7" class="node">
<title>s5</title>
<polygon fill="none" stroke="black" points="711,-36 651,-36 651,0 711,0 711,-36"/>
<text text-anchor="middle" x="681" y="-14.3" font-family="Arial" font-size="14.00">Central</text>
</g>
<!-- s4&#45;&gt;s5 -->
<g id="edge6" class="edge">
<title>s4&#45;&gt;s5</title>
<path fill="none" stroke="black" d="M593.21,-18C607.19,-18 624.69,-18 640.31,-18"/>
<polygon fill="black" stroke="black" points="640.75,-21.5 650.75,-18 640.75,-14.5 640.75,-21.5"/>
<text text-anchor="middle" x="622" y="-21.8" font-family="Times,serif" font-size="14.00">ktr</text>
</g>
<!-- s6 -->
<g id="node8" class="node">
<title>s6</title>
</g>
<!-- s5&#45;&gt;s6 -->
<g id="edge7" class="edge">
<title>s5&#45;&gt;s6</title>
<path fill="none" stroke="black" d="M711.16,-18C725.02,-18 741.72,-18 756.41,-18"/>
<polygon fill="black" stroke="black" points="756.69,-21.5 766.69,-18 756.69,-14.5 756.69,-21.5"/>
<text text-anchor="middle" x="739" y="-21.8" font-family="Times,serif" font-size="14.00">CL</text>
</g>
</g>
</svg>
