<?xml version="1.0" encoding="UTF-8" standalone="no"?>
<!DOCTYPE svg PUBLIC "-//W3C//DTD SVG 1.1//EN"
 "http://www.w3.org/Graphics/SVG/1.1/DTD/svg11.dtd">
<!-- Generated by graphviz version 2.43.0 (0)
 -->
<!-- Title: BST Pages: 1 -->
<svg width="395pt" height="44pt"
 viewBox="0.00 0.00 395.09 44.00" xmlns="http://www.w3.org/2000/svg" xmlns:xlink="http://www.w3.org/1999/xlink">
<g id="graph0" class="graph" transform="scale(1 1) rotate(0) translate(4 40)">
<title>BST</title>
<polygon fill="white" stroke="transparent" points="-4,4 -4,-40 391.09,-40 391.09,4 -4,4"/>
<!-- base -->
<g id="node1" class="node">
<title>base</title>
<ellipse fill="none" stroke="black" cx="30.55" cy="-18" rx="30.59" ry="18"/>
<text text-anchor="middle" x="30.55" y="-14.3" font-family="Arial" font-size="14.00">Input</text>
</g>
<!-- s0 -->
<g id="node2" class="node">
<title>s0</title>
<polygon fill="none" stroke="black" points="261.09,-36 97.09,-36 97.09,0 261.09,0 261.09,-36"/>
<text text-anchor="middle" x="179.09" y="-14.3" font-family="Arial" font-size="14.00">add structural covariates</text>
</g>
<!-- base&#45;&gt;s0 -->
<g id="edge1" class="edge">
<title>base&#45;&gt;s0</title>
<path fill="none" stroke="black" d="M61.2,-18C68.94,-18 77.7,-18 86.86,-18"/>
<polygon fill="black" stroke="black" points="86.93,-21.5 96.93,-18 86.93,-14.5 86.93,-21.5"/>
</g>
<!-- s1 -->
<g id="node3" class="node">
<title>s1</title>
<polygon fill="none" stroke="black" points="387.09,-36 297.09,-36 297.09,0 387.09,0 387.09,-36"/>
<text text-anchor="middle" x="342.09" y="-14.3" font-family="Arial" font-size="14.00">structsearch</text>
</g>
<!-- s0&#45;&gt;s1 -->
<g id="edge2" class="edge">
<title>s0&#45;&gt;s1</title>
<path fill="none" stroke="black" d="M261.54,-18C270.09,-18 278.63,-18 286.77,-18"/>
<polygon fill="black" stroke="black" points="286.84,-21.5 296.84,-18 286.84,-14.5 286.84,-21.5"/>
</g>
</g>
</svg>
