<?xml version="1.0" encoding="UTF-8" standalone="no"?>
<!DOCTYPE svg PUBLIC "-//W3C//DTD SVG 1.1//EN"
 "http://www.w3.org/Graphics/SVG/1.1/DTD/svg11.dtd">
<!-- Generated by graphviz version 2.43.0 (0)
 -->
<!-- Title: BST Pages: 1 -->
<svg width="1139pt" height="260pt"
 viewBox="0.00 0.00 1139.13 260.00" xmlns="http://www.w3.org/2000/svg" xmlns:xlink="http://www.w3.org/1999/xlink">
<g id="graph0" class="graph" transform="scale(1 1) rotate(0) translate(4 256)">
<title>BST</title>
<polygon fill="white" stroke="transparent" points="-4,4 -4,-256 1135.13,-256 1135.13,4 -4,4"/>
<!-- base -->
<g id="node1" class="node">
<title>base</title>
<ellipse fill="none" stroke="black" cx="459.49" cy="-234" rx="57.69" ry="18"/>
<text text-anchor="middle" x="459.49" y="-230.3" font-family="Arial" font-size="14.00">Base model</text>
</g>
<!-- s0 -->
<g id="node2" class="node">
<title>s0</title>
<ellipse fill="none" stroke="black" cx="110.49" cy="-162" rx="110.48" ry="18"/>
<text text-anchor="middle" x="110.49" y="-158.3" font-family="Arial" font-size="14.00">AddEffect(CL, SEX, CAT)</text>
</g>
<!-- base&#45;&gt;s0 -->
<g id="edge1" class="edge">
<title>base&#45;&gt;s0</title>
<path fill="none" stroke="black" d="M412.06,-223.49C354.24,-211.89 255.76,-192.14 187.13,-178.37"/>
<polygon fill="black" stroke="black" points="187.73,-174.92 177.23,-176.39 186.35,-181.78 187.73,-174.92"/>
</g>
<!-- s1 -->
<g id="node3" class="node">
<title>s1</title>
<ellipse fill="none" stroke="black" cx="345.49" cy="-162" rx="106.68" ry="18"/>
<text text-anchor="middle" x="345.49" y="-158.3" font-family="Arial" font-size="14.00">AddEffect(CL, WT, EXP)</text>
</g>
<!-- base&#45;&gt;s1 -->
<g id="edge2" class="edge">
<title>base&#45;&gt;s1</title>
<path fill="none" stroke="black" d="M434.47,-217.64C418.84,-208.04 398.47,-195.53 381.17,-184.91"/>
<polygon fill="black" stroke="black" points="382.79,-181.8 372.44,-179.55 379.13,-187.76 382.79,-181.8"/>
</g>
<!-- s2 -->
<g id="node4" class="node">
<title>s2</title>
<ellipse fill="none" stroke="black" cx="574.49" cy="-162" rx="104.78" ry="18"/>
<text text-anchor="middle" x="574.49" y="-158.3" font-family="Arial" font-size="14.00">AddEffect(V, SEX, CAT)</text>
</g>
<!-- base&#45;&gt;s2 -->
<g id="edge3" class="edge">
<title>base&#45;&gt;s2</title>
<path fill="none" stroke="black" d="M484.73,-217.64C500.49,-208.04 521.04,-195.53 538.5,-184.91"/>
<polygon fill="black" stroke="black" points="540.58,-187.74 547.31,-179.55 536.94,-181.76 540.58,-187.74"/>
</g>
<!-- s3 -->
<g id="node5" class="node">
<title>s3</title>
<ellipse fill="none" stroke="black" cx="797.49" cy="-162" rx="100.98" ry="18"/>
<text text-anchor="middle" x="797.49" y="-158.3" font-family="Arial" font-size="14.00">AddEffect(V, WT, EXP)</text>
</g>
<!-- base&#45;&gt;s3 -->
<g id="edge4" class="edge">
<title>base&#45;&gt;s3</title>
<path fill="none" stroke="black" d="M506.13,-223.34C562.55,-211.66 658.17,-191.85 724.4,-178.14"/>
<polygon fill="black" stroke="black" points="725.28,-181.53 734.36,-176.07 723.86,-174.67 725.28,-181.53"/>
</g>
<!-- s4 -->
<g id="node6" class="node">
<title>s4</title>
<ellipse fill="none" stroke="black" cx="562.49" cy="-90" rx="110.48" ry="18"/>
<text text-anchor="middle" x="562.49" y="-86.3" font-family="Arial" font-size="14.00">AddEffect(CL, SEX, CAT)</text>
</g>
<!-- s3&#45;&gt;s4 -->
<g id="edge5" class="edge">
<title>s3&#45;&gt;s4</title>
<path fill="none" stroke="black" d="M747.94,-146.24C711.44,-135.37 661.62,-120.53 622.8,-108.97"/>
<polygon fill="black" stroke="black" points="623.77,-105.6 613.19,-106.1 621.77,-112.31 623.77,-105.6"/>
</g>
<!-- s5 -->
<g id="node7" class="node">
<title>s5</title>
<ellipse fill="none" stroke="black" cx="797.49" cy="-90" rx="106.68" ry="18"/>
<text text-anchor="middle" x="797.49" y="-86.3" font-family="Arial" font-size="14.00">AddEffect(CL, WT, EXP)</text>
</g>
<!-- s3&#45;&gt;s5 -->
<g id="edge6" class="edge">
<title>s3&#45;&gt;s5</title>
<path fill="none" stroke="black" d="M797.49,-143.7C797.49,-135.98 797.49,-126.71 797.49,-118.11"/>
<polygon fill="black" stroke="black" points="800.99,-118.1 797.49,-108.1 793.99,-118.1 800.99,-118.1"/>
</g>
<!-- s6 -->
<g id="node8" class="node">
<title>s6</title>
<ellipse fill="none" stroke="black" cx="1026.49" cy="-90" rx="104.78" ry="18"/>
<text text-anchor="middle" x="1026.49" y="-86.3" font-family="Arial" font-size="14.00">AddEffect(V, SEX, CAT)</text>
</g>
<!-- s3&#45;&gt;s6 -->
<g id="edge7" class="edge">
<title>s3&#45;&gt;s6</title>
<path fill="none" stroke="black" d="M846.06,-146.15C881.61,-135.29 930.03,-120.49 967.76,-108.95"/>
<polygon fill="black" stroke="black" points="969.06,-112.21 977.6,-105.94 967.01,-105.52 969.06,-112.21"/>
</g>
<!-- s7 -->
<g id="node9" class="node">
<title>s7</title>
<ellipse fill="none" stroke="black" cx="213.49" cy="-18" rx="106.68" ry="18"/>
<text text-anchor="middle" x="213.49" y="-14.3" font-family="Arial" font-size="14.00">AddEffect(CL, WT, EXP)</text>
</g>
<!-- s4&#45;&gt;s7 -->
<g id="edge8" class="edge">
<title>s4&#45;&gt;s7</title>
<path fill="none" stroke="black" d="M495.61,-75.59C436.65,-63.76 350.78,-46.54 289.29,-34.2"/>
<polygon fill="black" stroke="black" points="289.75,-30.73 279.25,-32.19 288.37,-37.59 289.75,-30.73"/>
</g>
<!-- s8 -->
<g id="node10" class="node">
<title>s8</title>
<ellipse fill="none" stroke="black" cx="442.49" cy="-18" rx="104.78" ry="18"/>
<text text-anchor="middle" x="442.49" y="-14.3" font-family="Arial" font-size="14.00">AddEffect(V, SEX, CAT)</text>
</g>
<!-- s4&#45;&gt;s8 -->
<g id="edge9" class="edge">
<title>s4&#45;&gt;s8</title>
<path fill="none" stroke="black" d="M534.36,-72.59C518.07,-63.09 497.38,-51.02 479.76,-40.74"/>
<polygon fill="black" stroke="black" points="481.27,-37.57 470.86,-35.55 477.74,-43.61 481.27,-37.57"/>
</g>
<!-- s9 -->
<g id="node11" class="node">
<title>s9</title>
<ellipse fill="none" stroke="black" cx="683.49" cy="-18" rx="118.08" ry="18"/>
<text text-anchor="middle" x="683.49" y="-14.3" font-family="Arial" font-size="14.00">RemoveEffect(V, WT, EXP)</text>
</g>
<!-- s4&#45;&gt;s9 -->
<g id="edge10" class="edge">
<title>s4&#45;&gt;s9</title>
<path fill="none" stroke="black" d="M590.86,-72.59C607.28,-63.09 628.14,-51.02 645.91,-40.74"/>
<polygon fill="black" stroke="black" points="647.98,-43.59 654.88,-35.55 644.47,-37.53 647.98,-43.59"/>
</g>
<!-- s10 -->
<g id="node12" class="node">
<title>s10</title>
<ellipse fill="none" stroke="black" cx="947.49" cy="-18" rx="128.08" ry="18"/>
<text text-anchor="middle" x="947.49" y="-14.3" font-family="Arial" font-size="14.00">RemoveEffect(CL, SEX, CAT)</text>
</g>
<!-- s4&#45;&gt;s10 -->
<g id="edge11" class="edge">
<title>s4&#45;&gt;s10</title>
<path fill="none" stroke="black" d="M633.55,-76.08C698.27,-64.31 793.93,-46.92 862.64,-34.43"/>
<polygon fill="black" stroke="black" points="863.36,-37.85 872.57,-32.62 862.1,-30.97 863.36,-37.85"/>
</g>
</g>
</svg>
