<?xml version="1.0" encoding="UTF-8" standalone="no"?>
<!DOCTYPE svg PUBLIC "-//W3C//DTD SVG 1.1//EN"
 "http://www.w3.org/Graphics/SVG/1.1/DTD/svg11.dtd">
<!-- Generated by graphviz version 2.40.1 (20161225.0304)
 -->
<!-- Title: fo Pages: 1 -->
<svg width="244pt" height="44pt"
 viewBox="0.00 0.00 244.00 44.00" xmlns="http://www.w3.org/2000/svg" xmlns:xlink="http://www.w3.org/1999/xlink">
<g id="graph0" class="graph" transform="scale(1 1) rotate(0) translate(4 40)">
<title>fo</title>
<polygon fill="#ffffff" stroke="transparent" points="-4,4 -4,-40 240,-40 240,4 -4,4"/>
<!-- S -->
<!-- Central -->
<g id="node3" class="node">
<title>Central</title>
<polygon fill="none" stroke="#000000" points="176,-36 105,-36 105,0 176,0 176,-36"/>
<text text-anchor="middle" x="140.5" y="-14.3" font-family="Times,serif" font-size="14.00" fill="#000000">Central</text>
</g>
<!-- S&#45;&gt;Central -->
<g id="edge2" class="edge">
<title>S&#45;&gt;Central</title>
<path fill="none" stroke="#000000" d="M10.1463,-18C23.974,-18 63.0373,-18 94.8232,-18"/>
<polygon fill="#000000" stroke="#000000" points="94.8464,-21.5001 104.8464,-18 94.8463,-14.5001 94.8464,-21.5001"/>
<text text-anchor="middle" x="57.5" y="-21.8" font-family="Times,serif" font-size="14.00" fill="#000000">Infusion</text>
</g>
<!-- Output -->
<!-- Central&#45;&gt;Output -->
<g id="edge1" class="edge">
<title>Central&#45;&gt;Output</title>
<path fill="none" stroke="#000000" d="M176.1869,-18C188.8361,-18 202.4751,-18 212.7913,-18"/>
<polygon fill="#000000" stroke="#000000" points="212.7969,-21.5001 222.7969,-18 212.7968,-14.5001 212.7969,-21.5001"/>
<text text-anchor="middle" x="199.5" y="-21.8" font-family="Times,serif" font-size="14.00" fill="#000000">K</text>
</g>
</g>
</svg>
