<?xml version="1.0" encoding="UTF-8" standalone="no"?>
<!DOCTYPE svg PUBLIC "-//W3C//DTD SVG 1.1//EN"
 "http://www.w3.org/Graphics/SVG/1.1/DTD/svg11.dtd">
<!-- Generated by graphviz version 2.43.0 (0)
 -->
<!-- Title: BST Pages: 1 -->
<svg width="1145pt" height="260pt"
 viewBox="0.00 0.00 1145.08 260.00" xmlns="http://www.w3.org/2000/svg" xmlns:xlink="http://www.w3.org/1999/xlink">
<g id="graph0" class="graph" transform="scale(1 1) rotate(0) translate(4 256)">
<title>BST</title>
<polygon fill="white" stroke="transparent" points="-4,4 -4,-256 1141.08,-256 1141.08,4 -4,4"/>
<!-- base -->
<g id="node1" class="node">
<title>base</title>
<ellipse fill="none" stroke="black" cx="566.04" cy="-234" rx="57.69" ry="18"/>
<text text-anchor="middle" x="566.04" y="-230.3" font-family="Arial" font-size="14.00">Base model</text>
</g>
<!-- s1 -->
<g id="node2" class="node">
<title>s1</title>
<ellipse fill="none" stroke="black" cx="279.04" cy="-162" rx="87.99" ry="18"/>
<text text-anchor="middle" x="279.04" y="-158.3" font-family="Arial" font-size="14.00">ABSORPTION(ZO)</text>
</g>
<!-- base&#45;&gt;s1 -->
<g id="edge1" class="edge">
<title>base&#45;&gt;s1</title>
<path fill="none" stroke="black" d="M521.83,-222.22C474.02,-210.55 397.36,-191.86 342.99,-178.6"/>
<polygon fill="black" stroke="black" points="343.65,-175.16 333.1,-176.19 341.99,-181.96 343.65,-175.16"/>
</g>
<!-- s2 -->
<g id="node3" class="node">
<title>s2</title>
<ellipse fill="none" stroke="black" cx="566.04" cy="-162" rx="89.08" ry="18"/>
<text text-anchor="middle" x="566.04" y="-158.3" font-family="Arial" font-size="14.00">ELIMINATION(MM)</text>
</g>
<!-- base&#45;&gt;s2 -->
<g id="edge2" class="edge">
<title>base&#45;&gt;s2</title>
<path fill="none" stroke="black" d="M566.04,-215.7C566.04,-207.98 566.04,-198.71 566.04,-190.11"/>
<polygon fill="black" stroke="black" points="569.54,-190.1 566.04,-180.1 562.54,-190.1 569.54,-190.1"/>
</g>
<!-- s3 -->
<g id="node4" class="node">
<title>s3</title>
<ellipse fill="none" stroke="black" cx="853.04" cy="-162" rx="83.39" ry="18"/>
<text text-anchor="middle" x="853.04" y="-158.3" font-family="Arial" font-size="14.00">PERIPHERALS(1)</text>
</g>
<!-- base&#45;&gt;s3 -->
<g id="edge3" class="edge">
<title>base&#45;&gt;s3</title>
<path fill="none" stroke="black" d="M610.26,-222.22C658.36,-210.48 735.67,-191.63 790.11,-178.35"/>
<polygon fill="black" stroke="black" points="791.1,-181.71 799.99,-175.94 789.45,-174.91 791.1,-181.71"/>
</g>
<!-- s4 -->
<g id="node5" class="node">
<title>s4</title>
<ellipse fill="none" stroke="black" cx="89.04" cy="-90" rx="89.08" ry="18"/>
<text text-anchor="middle" x="89.04" y="-86.3" font-family="Arial" font-size="14.00">ELIMINATION(MM)</text>
</g>
<!-- s1&#45;&gt;s4 -->
<g id="edge4" class="edge">
<title>s1&#45;&gt;s4</title>
<path fill="none" stroke="black" d="M238.28,-145.98C209.45,-135.36 170.6,-121.05 139.77,-109.69"/>
<polygon fill="black" stroke="black" points="140.66,-106.29 130.06,-106.11 138.24,-112.85 140.66,-106.29"/>
</g>
<!-- s5 -->
<g id="node6" class="node">
<title>s5</title>
<ellipse fill="none" stroke="black" cx="279.04" cy="-90" rx="83.39" ry="18"/>
<text text-anchor="middle" x="279.04" y="-86.3" font-family="Arial" font-size="14.00">PERIPHERALS(1)</text>
</g>
<!-- s1&#45;&gt;s5 -->
<g id="edge5" class="edge">
<title>s1&#45;&gt;s5</title>
<path fill="none" stroke="black" d="M279.04,-143.7C279.04,-135.98 279.04,-126.71 279.04,-118.11"/>
<polygon fill="black" stroke="black" points="282.54,-118.1 279.04,-108.1 275.54,-118.1 282.54,-118.1"/>
</g>
<!-- s6 -->
<g id="node7" class="node">
<title>s6</title>
<ellipse fill="none" stroke="black" cx="469.04" cy="-90" rx="87.99" ry="18"/>
<text text-anchor="middle" x="469.04" y="-86.3" font-family="Arial" font-size="14.00">ABSORPTION(ZO)</text>
</g>
<!-- s2&#45;&gt;s6 -->
<g id="edge6" class="edge">
<title>s2&#45;&gt;s6</title>
<path fill="none" stroke="black" d="M543.05,-144.41C530.25,-135.17 514.13,-123.54 500.2,-113.49"/>
<polygon fill="black" stroke="black" points="502.02,-110.48 491.86,-107.47 497.93,-116.16 502.02,-110.48"/>
</g>
<!-- s7 -->
<g id="node8" class="node">
<title>s7</title>
<ellipse fill="none" stroke="black" cx="658.04" cy="-90" rx="83.39" ry="18"/>
<text text-anchor="middle" x="658.04" y="-86.3" font-family="Arial" font-size="14.00">PERIPHERALS(1)</text>
</g>
<!-- s2&#45;&gt;s7 -->
<g id="edge7" class="edge">
<title>s2&#45;&gt;s7</title>
<path fill="none" stroke="black" d="M587.84,-144.41C599.88,-135.26 614.99,-123.76 628.11,-113.77"/>
<polygon fill="black" stroke="black" points="630.56,-116.31 636.4,-107.47 626.32,-110.74 630.56,-116.31"/>
</g>
<!-- s8 -->
<g id="node9" class="node">
<title>s8</title>
<ellipse fill="none" stroke="black" cx="853.04" cy="-90" rx="87.99" ry="18"/>
<text text-anchor="middle" x="853.04" y="-86.3" font-family="Arial" font-size="14.00">ABSORPTION(ZO)</text>
</g>
<!-- s3&#45;&gt;s8 -->
<g id="edge8" class="edge">
<title>s3&#45;&gt;s8</title>
<path fill="none" stroke="black" d="M853.04,-143.7C853.04,-135.98 853.04,-126.71 853.04,-118.11"/>
<polygon fill="black" stroke="black" points="856.54,-118.1 853.04,-108.1 849.54,-118.1 856.54,-118.1"/>
</g>
<!-- s9 -->
<g id="node10" class="node">
<title>s9</title>
<ellipse fill="none" stroke="black" cx="1048.04" cy="-90" rx="89.08" ry="18"/>
<text text-anchor="middle" x="1048.04" y="-86.3" font-family="Arial" font-size="14.00">ELIMINATION(MM)</text>
</g>
<!-- s3&#45;&gt;s9 -->
<g id="edge9" class="edge">
<title>s3&#45;&gt;s9</title>
<path fill="none" stroke="black" d="M894.4,-146.15C924.29,-135.43 964.85,-120.86 996.8,-109.4"/>
<polygon fill="black" stroke="black" points="998.18,-112.62 1006.41,-105.94 995.82,-106.03 998.18,-112.62"/>
</g>
<!-- s10 -->
<g id="node11" class="node">
<title>s10</title>
<ellipse fill="none" stroke="black" cx="89.04" cy="-18" rx="83.39" ry="18"/>
<text text-anchor="middle" x="89.04" y="-14.3" font-family="Arial" font-size="14.00">PERIPHERALS(1)</text>
</g>
<!-- s4&#45;&gt;s10 -->
<g id="edge10" class="edge">
<title>s4&#45;&gt;s10</title>
<path fill="none" stroke="black" d="M89.04,-71.7C89.04,-63.98 89.04,-54.71 89.04,-46.11"/>
<polygon fill="black" stroke="black" points="92.54,-46.1 89.04,-36.1 85.54,-46.1 92.54,-46.1"/>
</g>
<!-- s11 -->
<g id="node12" class="node">
<title>s11</title>
<ellipse fill="none" stroke="black" cx="279.04" cy="-18" rx="89.08" ry="18"/>
<text text-anchor="middle" x="279.04" y="-14.3" font-family="Arial" font-size="14.00">ELIMINATION(MM)</text>
</g>
<!-- s5&#45;&gt;s11 -->
<g id="edge11" class="edge">
<title>s5&#45;&gt;s11</title>
<path fill="none" stroke="black" d="M279.04,-71.7C279.04,-63.98 279.04,-54.71 279.04,-46.11"/>
<polygon fill="black" stroke="black" points="282.54,-46.1 279.04,-36.1 275.54,-46.1 282.54,-46.1"/>
</g>
<!-- s12 -->
<g id="node13" class="node">
<title>s12</title>
<ellipse fill="none" stroke="black" cx="469.04" cy="-18" rx="83.39" ry="18"/>
<text text-anchor="middle" x="469.04" y="-14.3" font-family="Arial" font-size="14.00">PERIPHERALS(1)</text>
</g>
<!-- s6&#45;&gt;s12 -->
<g id="edge12" class="edge">
<title>s6&#45;&gt;s12</title>
<path fill="none" stroke="black" d="M469.04,-71.7C469.04,-63.98 469.04,-54.71 469.04,-46.11"/>
<polygon fill="black" stroke="black" points="472.54,-46.1 469.04,-36.1 465.54,-46.1 472.54,-46.1"/>
</g>
<!-- s13 -->
<g id="node14" class="node">
<title>s13</title>
<ellipse fill="none" stroke="black" cx="658.04" cy="-18" rx="87.99" ry="18"/>
<text text-anchor="middle" x="658.04" y="-14.3" font-family="Arial" font-size="14.00">ABSORPTION(ZO)</text>
</g>
<!-- s7&#45;&gt;s13 -->
<g id="edge13" class="edge">
<title>s7&#45;&gt;s13</title>
<path fill="none" stroke="black" d="M658.04,-71.7C658.04,-63.98 658.04,-54.71 658.04,-46.11"/>
<polygon fill="black" stroke="black" points="661.54,-46.1 658.04,-36.1 654.54,-46.1 661.54,-46.1"/>
</g>
<!-- s14 -->
<g id="node15" class="node">
<title>s14</title>
<ellipse fill="none" stroke="black" cx="853.04" cy="-18" rx="89.08" ry="18"/>
<text text-anchor="middle" x="853.04" y="-14.3" font-family="Arial" font-size="14.00">ELIMINATION(MM)</text>
</g>
<!-- s8&#45;&gt;s14 -->
<g id="edge14" class="edge">
<title>s8&#45;&gt;s14</title>
<path fill="none" stroke="black" d="M853.04,-71.7C853.04,-63.98 853.04,-54.71 853.04,-46.11"/>
<polygon fill="black" stroke="black" points="856.54,-46.1 853.04,-36.1 849.54,-46.1 856.54,-46.1"/>
</g>
<!-- s15 -->
<g id="node16" class="node">
<title>s15</title>
<ellipse fill="none" stroke="black" cx="1048.04" cy="-18" rx="87.99" ry="18"/>
<text text-anchor="middle" x="1048.04" y="-14.3" font-family="Arial" font-size="14.00">ABSORPTION(ZO)</text>
</g>
<!-- s9&#45;&gt;s15 -->
<g id="edge15" class="edge">
<title>s9&#45;&gt;s15</title>
<path fill="none" stroke="black" d="M1048.04,-71.7C1048.04,-63.98 1048.04,-54.71 1048.04,-46.11"/>
<polygon fill="black" stroke="black" points="1051.54,-46.1 1048.04,-36.1 1044.54,-46.1 1051.54,-46.1"/>
</g>
</g>
</svg>
