<?xml version="1.0" encoding="UTF-8" standalone="no"?>
<!DOCTYPE svg PUBLIC "-//W3C//DTD SVG 1.1//EN"
 "http://www.w3.org/Graphics/SVG/1.1/DTD/svg11.dtd">
<!-- Generated by graphviz version 2.43.0 (0)
 -->
<!-- Title: G Pages: 1 -->
<svg width="363pt" height="188pt"
 viewBox="0.00 0.00 363.00 188.00" xmlns="http://www.w3.org/2000/svg" xmlns:xlink="http://www.w3.org/1999/xlink">
<g id="graph0" class="graph" transform="scale(1 1) rotate(0) translate(4 184)">
<title>G</title>
<polygon fill="white" stroke="transparent" points="-4,4 -4,-184 359,-184 359,4 -4,4"/>
<g id="clust1" class="cluster">
<title>cluster</title>
</g>
<!-- central -->
<g id="node1" class="node">
<title>central</title>
<polygon fill="none" stroke="black" points="83.5,-108 16.5,-108 16.5,-72 83.5,-72 83.5,-108"/>
<text text-anchor="middle" x="50" y="-86.3" font-family="Times,serif" font-size="14.00">central</text>
</g>
<!-- plus -->
<g id="node2" class="node">
<title>plus</title>
<text text-anchor="middle" x="116" y="-86.3" font-family="Times,serif" font-size="14.00">+</text>
</g>
<!-- central&#45;&gt;plus -->
<g id="edge1" class="edge">
<title>central&#45;&gt;plus</title>
<path fill="none" stroke="transparent" d="M83.52,-90C86.01,-90 88.51,-90 91.01,-90"/>
<polygon fill="transparent" stroke="transparent" points="91.28,-93.5 101.28,-90 91.28,-86.5 91.28,-93.5"/>
</g>
<!-- kel -->
<g id="node5" class="node">
<title>kel</title>
<text text-anchor="middle" x="50" y="-14.3" font-family="Times,serif" font-size="14.00">kel</text>
</g>
<!-- central&#45;&gt;kel -->
<g id="edge5" class="edge">
<title>central&#45;&gt;kel</title>
<path fill="none" stroke="black" d="M50,-71.7C50,-63.98 50,-54.71 50,-46.11"/>
<polygon fill="black" stroke="black" points="53.5,-46.1 50,-36.1 46.5,-46.1 53.5,-46.1"/>
</g>
<!-- target -->
<g id="node3" class="node">
<title>target</title>
<polygon fill="none" stroke="black" points="209.5,-108 148.5,-108 148.5,-72 209.5,-72 209.5,-108"/>
<text text-anchor="middle" x="179" y="-86.3" font-family="Times,serif" font-size="14.00">target</text>
</g>
<!-- plus&#45;&gt;target -->
<g id="edge2" class="edge">
<title>plus&#45;&gt;target</title>
<path fill="none" stroke="transparent" d="M130.77,-90C133.26,-90 135.75,-90 138.24,-90"/>
<polygon fill="transparent" stroke="transparent" points="138.48,-93.5 148.48,-90 138.48,-86.5 138.48,-93.5"/>
</g>
<!-- complex -->
<g id="node4" class="node">
<title>complex</title>
<polygon fill="none" stroke="black" points="339,-108 263,-108 263,-72 339,-72 339,-108"/>
<text text-anchor="middle" x="301" y="-86.3" font-family="Times,serif" font-size="14.00">complex</text>
</g>
<!-- target&#45;&gt;complex -->
<g id="edge4" class="edge">
<title>target&#45;&gt;complex</title>
<path fill="none" stroke="black" d="M209.98,-100.23C224.32,-103.36 238.67,-104.24 253.02,-102.88"/>
<polygon fill="black" stroke="black" points="253.49,-106.35 262.96,-101.59 252.59,-99.41 253.49,-106.35"/>
<text text-anchor="middle" x="240.96" y="-121.39" font-family="Times,serif" font-size="14.00">kon &#160;&#160;&#160;</text>
</g>
<!-- kdeg -->
<g id="node8" class="node">
<title>kdeg</title>
<text text-anchor="middle" x="179" y="-14.3" font-family="Times,serif" font-size="14.00">kdeg</text>
</g>
<!-- target&#45;&gt;kdeg -->
<g id="edge7" class="edge">
<title>target&#45;&gt;kdeg</title>
<path fill="none" stroke="black" d="M179,-71.7C179,-63.98 179,-54.71 179,-46.11"/>
<polygon fill="black" stroke="black" points="182.5,-46.1 179,-36.1 175.5,-46.1 182.5,-46.1"/>
</g>
<!-- complex&#45;&gt;target -->
<g id="edge3" class="edge">
<title>complex&#45;&gt;target</title>
<path fill="none" stroke="black" d="M262.96,-78.41C248.61,-76.02 234.26,-75.87 219.91,-77.96"/>
<polygon fill="black" stroke="black" points="219.19,-74.54 209.98,-79.77 220.44,-81.43 219.19,-74.54"/>
<text text-anchor="middle" x="232.48" y="-52.57" font-family="Times,serif" font-size="14.00"> &#160;&#160;&#160;koff</text>
</g>
<!-- kint -->
<g id="node7" class="node">
<title>kint</title>
<text text-anchor="middle" x="301" y="-14.3" font-family="Times,serif" font-size="14.00">kint</text>
</g>
<!-- complex&#45;&gt;kint -->
<g id="edge8" class="edge">
<title>complex&#45;&gt;kint</title>
<path fill="none" stroke="black" d="M301,-71.7C301,-63.98 301,-54.71 301,-46.11"/>
<polygon fill="black" stroke="black" points="304.5,-46.1 301,-36.1 297.5,-46.1 304.5,-46.1"/>
</g>
<!-- ksyn -->
<g id="node6" class="node">
<title>ksyn</title>
<text text-anchor="middle" x="179" y="-158.3" font-family="Times,serif" font-size="14.00">ksyn</text>
</g>
<!-- ksyn&#45;&gt;target -->
<g id="edge6" class="edge">
<title>ksyn&#45;&gt;target</title>
<path fill="none" stroke="black" d="M179,-143.7C179,-135.98 179,-126.71 179,-118.11"/>
<polygon fill="black" stroke="black" points="182.5,-118.1 179,-108.1 175.5,-118.1 182.5,-118.1"/>
</g>
</g>
</svg>
