<?xml version="1.0" encoding="UTF-8" standalone="no"?>
<!DOCTYPE svg PUBLIC "-//W3C//DTD SVG 1.1//EN"
 "http://www.w3.org/Graphics/SVG/1.1/DTD/svg11.dtd">
<!-- Generated by graphviz version 2.43.0 (0)
 -->
<!-- Title: BST Pages: 1 -->
<svg width="642pt" height="116pt"
 viewBox="0.00 0.00 641.94 116.00" xmlns="http://www.w3.org/2000/svg" xmlns:xlink="http://www.w3.org/1999/xlink">
<g id="graph0" class="graph" transform="scale(1 1) rotate(0) translate(4 112)">
<title>BST</title>
<polygon fill="white" stroke="transparent" points="-4,4 -4,-112 637.94,-112 637.94,4 -4,4"/>
<!-- base -->
<g id="node1" class="node">
<title>base</title>
<ellipse fill="none" stroke="black" cx="283.39" cy="-90" rx="57.69" ry="18"/>
<text text-anchor="middle" x="283.39" y="-86.3" font-family="Arial" font-size="14.00">Base model</text>
</g>
<!-- s1 -->
<g id="node2" class="node">
<title>s1</title>
<ellipse fill="none" stroke="black" cx="62.39" cy="-18" rx="62.29" ry="18"/>
<text text-anchor="middle" x="62.39" y="-14.3" font-family="Arial" font-size="14.00">IMP+LSODA</text>
</g>
<!-- base&#45;&gt;s1 -->
<g id="edge1" class="edge">
<title>base&#45;&gt;s1</title>
<path fill="none" stroke="black" d="M244.39,-76.65C207.65,-65.01 152.41,-47.51 112.43,-34.85"/>
<polygon fill="black" stroke="black" points="113.46,-31.5 102.87,-31.82 111.35,-38.18 113.46,-31.5"/>
</g>
<!-- s2 -->
<g id="node3" class="node">
<title>s2</title>
<ellipse fill="none" stroke="black" cx="202.39" cy="-18" rx="59.29" ry="18"/>
<text text-anchor="middle" x="202.39" y="-14.3" font-family="Arial" font-size="14.00">IMP+LSODI</text>
</g>
<!-- base&#45;&gt;s2 -->
<g id="edge2" class="edge">
<title>base&#45;&gt;s2</title>
<path fill="none" stroke="black" d="M264.61,-72.76C253.98,-63.58 240.51,-51.94 228.83,-41.84"/>
<polygon fill="black" stroke="black" points="230.93,-39.04 221.08,-35.15 226.36,-44.33 230.93,-39.04"/>
</g>
<!-- s3 -->
<g id="node4" class="node">
<title>s3</title>
<ellipse fill="none" stroke="black" cx="365.39" cy="-18" rx="85.59" ry="18"/>
<text text-anchor="middle" x="365.39" y="-14.3" font-family="Arial" font-size="14.00">LAPLACE+LSODA</text>
</g>
<!-- base&#45;&gt;s3 -->
<g id="edge3" class="edge">
<title>base&#45;&gt;s3</title>
<path fill="none" stroke="black" d="M302.41,-72.76C313.02,-63.71 326.42,-52.27 338.13,-42.28"/>
<polygon fill="black" stroke="black" points="340.58,-44.79 345.91,-35.63 336.03,-39.46 340.58,-44.79"/>
</g>
<!-- s4 -->
<g id="node5" class="node">
<title>s4</title>
<ellipse fill="none" stroke="black" cx="551.39" cy="-18" rx="82.59" ry="18"/>
<text text-anchor="middle" x="551.39" y="-14.3" font-family="Arial" font-size="14.00">LAPLACE+LSODI</text>
</g>
<!-- base&#45;&gt;s4 -->
<g id="edge4" class="edge">
<title>base&#45;&gt;s4</title>
<path fill="none" stroke="black" d="M326.16,-77.83C370.63,-66.21 440.64,-47.93 490.8,-34.83"/>
<polygon fill="black" stroke="black" points="491.76,-38.19 500.55,-32.28 489.99,-31.42 491.76,-38.19"/>
</g>
</g>
</svg>
