<?xml version="1.0" encoding="UTF-8" standalone="no"?>
<!DOCTYPE svg PUBLIC "-//W3C//DTD SVG 1.1//EN"
 "http://www.w3.org/Graphics/SVG/1.1/DTD/svg11.dtd">
<!-- Generated by graphviz version 2.43.0 (0)
 -->
<!-- Title: fo Pages: 1 -->
<svg width="223pt" height="44pt"
 viewBox="0.00 0.00 223.00 44.00" xmlns="http://www.w3.org/2000/svg" xmlns:xlink="http://www.w3.org/1999/xlink">
<g id="graph0" class="graph" transform="scale(1 1) rotate(0) translate(4 40)">
<title>fo</title>
<polygon fill="white" stroke="transparent" points="-4,4 -4,-40 219,-40 219,4 -4,4"/>
<!-- S -->
<!-- Central -->
<g id="node3" class="node">
<title>Central</title>
<polygon fill="none" stroke="black" points="156,-36 86,-36 86,0 156,0 156,-36"/>
<text text-anchor="middle" x="121" y="-14.3" font-family="Times,serif" font-size="14.00">Central</text>
</g>
<!-- S&#45;&gt;Central -->
<g id="edge2" class="edge">
<title>S&#45;&gt;Central</title>
<path fill="none" stroke="black" d="M10.06,-18C20.59,-18 49.75,-18 75.39,-18"/>
<polygon fill="black" stroke="black" points="75.73,-21.5 85.73,-18 75.73,-14.5 75.73,-21.5"/>
<text text-anchor="middle" x="48" y="-21.8" font-family="Times,serif" font-size="14.00">Bolus</text>
</g>
<!-- Output -->
<!-- Central&#45;&gt;Output -->
<g id="edge1" class="edge">
<title>Central&#45;&gt;Output</title>
<path fill="none" stroke="black" d="M156.48,-18C168.98,-18 182.47,-18 192.51,-18"/>
<polygon fill="black" stroke="black" points="192.75,-21.5 202.75,-18 192.75,-14.5 192.75,-21.5"/>
<text text-anchor="middle" x="179.5" y="-21.8" font-family="Times,serif" font-size="14.00">K</text>
</g>
</g>
</svg>
