<?xml version="1.0" encoding="UTF-8" standalone="no"?>
<!DOCTYPE svg PUBLIC "-//W3C//DTD SVG 1.1//EN"
 "http://www.w3.org/Graphics/SVG/1.1/DTD/svg11.dtd">
<!-- Generated by graphviz version 2.43.0 (0)
 -->
<!-- Title: BST Pages: 1 -->
<svg width="2149pt" height="116pt"
 viewBox="0.00 0.00 2148.83 116.00" xmlns="http://www.w3.org/2000/svg" xmlns:xlink="http://www.w3.org/1999/xlink">
<g id="graph0" class="graph" transform="scale(1 1) rotate(0) translate(4 112)">
<title>BST</title>
<polygon fill="white" stroke="transparent" points="-4,4 -4,-112 2144.83,-112 2144.83,4 -4,4"/>
<!-- base -->
<g id="node1" class="node">
<title>base</title>
<ellipse fill="none" stroke="black" cx="796.74" cy="-90" rx="57.69" ry="18"/>
<text text-anchor="middle" x="796.74" y="-86.3" font-family="Arial" font-size="14.00">Base model</text>
</g>
<!-- s1 -->
<g id="node2" class="node">
<title>s1</title>
<ellipse fill="none" stroke="black" cx="87.74" cy="-18" rx="87.99" ry="18"/>
<text text-anchor="middle" x="87.74" y="-14.3" font-family="Arial" font-size="14.00">ABSORPTION(FO)</text>
</g>
<!-- base&#45;&gt;s1 -->
<g id="edge1" class="edge">
<title>base&#45;&gt;s1</title>
<path fill="none" stroke="black" d="M740.36,-85.81C632.13,-79.31 387.88,-62.85 183.74,-36 175.87,-34.96 167.66,-33.74 159.49,-32.42"/>
<polygon fill="black" stroke="black" points="160.02,-28.96 149.59,-30.79 158.88,-35.87 160.02,-28.96"/>
</g>
<!-- s2 -->
<g id="node3" class="node">
<title>s2</title>
<ellipse fill="none" stroke="black" cx="280.74" cy="-18" rx="87.99" ry="18"/>
<text text-anchor="middle" x="280.74" y="-14.3" font-family="Arial" font-size="14.00">ABSORPTION(ZO)</text>
</g>
<!-- base&#45;&gt;s2 -->
<g id="edge2" class="edge">
<title>base&#45;&gt;s2</title>
<path fill="none" stroke="black" d="M743.05,-83.04C663.23,-73.99 508.61,-55.73 377.74,-36 370.08,-34.84 362.08,-33.56 354.11,-32.24"/>
<polygon fill="black" stroke="black" points="354.51,-28.76 344.07,-30.55 353.35,-35.66 354.51,-28.76"/>
</g>
<!-- s3 -->
<g id="node4" class="node">
<title>s3</title>
<ellipse fill="none" stroke="black" cx="472.74" cy="-18" rx="85.59" ry="18"/>
<text text-anchor="middle" x="472.74" y="-14.3" font-family="Arial" font-size="14.00">ELIMINATION(FO)</text>
</g>
<!-- base&#45;&gt;s3 -->
<g id="edge3" class="edge">
<title>base&#45;&gt;s3</title>
<path fill="none" stroke="black" d="M750.67,-79.05C695.61,-67.15 603.04,-47.15 539.99,-33.53"/>
<polygon fill="black" stroke="black" points="540.65,-30.09 530.13,-31.4 539.17,-36.93 540.65,-30.09"/>
</g>
<!-- s4 -->
<g id="node5" class="node">
<title>s4</title>
<ellipse fill="none" stroke="black" cx="662.74" cy="-18" rx="85.59" ry="18"/>
<text text-anchor="middle" x="662.74" y="-14.3" font-family="Arial" font-size="14.00">ELIMINATION(ZO)</text>
</g>
<!-- base&#45;&gt;s4 -->
<g id="edge4" class="edge">
<title>base&#45;&gt;s4</title>
<path fill="none" stroke="black" d="M768.32,-74.15C749.18,-64.16 723.67,-50.83 702.52,-39.78"/>
<polygon fill="black" stroke="black" points="703.94,-36.57 693.45,-35.04 700.7,-42.78 703.94,-36.57"/>
</g>
<!-- s5 -->
<g id="node6" class="node">
<title>s5</title>
<ellipse fill="none" stroke="black" cx="931.74" cy="-18" rx="165.17" ry="18"/>
<text text-anchor="middle" x="931.74" y="-14.3" font-family="Arial" font-size="14.00">ABSORPTION(FO);ELIMINATION(FO)</text>
</g>
<!-- base&#45;&gt;s5 -->
<g id="edge5" class="edge">
<title>base&#45;&gt;s5</title>
<path fill="none" stroke="black" d="M825.37,-74.15C844.25,-64.37 869.28,-51.39 890.32,-40.48"/>
<polygon fill="black" stroke="black" points="892.1,-43.5 899.36,-35.79 888.87,-37.29 892.1,-43.5"/>
</g>
<!-- s6 -->
<g id="node7" class="node">
<title>s6</title>
<ellipse fill="none" stroke="black" cx="1279.74" cy="-18" rx="165.17" ry="18"/>
<text text-anchor="middle" x="1279.74" y="-14.3" font-family="Arial" font-size="14.00">ABSORPTION(FO);ELIMINATION(ZO)</text>
</g>
<!-- base&#45;&gt;s6 -->
<g id="edge6" class="edge">
<title>base&#45;&gt;s6</title>
<path fill="none" stroke="black" d="M847.97,-81.58C925.39,-70.35 1073.86,-48.84 1174.84,-34.2"/>
<polygon fill="black" stroke="black" points="1175.37,-37.66 1184.77,-32.76 1174.37,-30.73 1175.37,-37.66"/>
</g>
<!-- s7 -->
<g id="node8" class="node">
<title>s7</title>
<ellipse fill="none" stroke="black" cx="1627.74" cy="-18" rx="165.17" ry="18"/>
<text text-anchor="middle" x="1627.74" y="-14.3" font-family="Arial" font-size="14.00">ABSORPTION(ZO);ELIMINATION(FO)</text>
</g>
<!-- base&#45;&gt;s7 -->
<g id="edge7" class="edge">
<title>base&#45;&gt;s7</title>
<path fill="none" stroke="black" d="M852.58,-84.82C965.94,-76.25 1231.19,-55.85 1453.74,-36 1468.75,-34.66 1484.47,-33.2 1500.08,-31.72"/>
<polygon fill="black" stroke="black" points="1500.68,-35.18 1510.3,-30.75 1500.02,-28.21 1500.68,-35.18"/>
</g>
<!-- s8 -->
<g id="node9" class="node">
<title>s8</title>
<ellipse fill="none" stroke="black" cx="1975.74" cy="-18" rx="165.17" ry="18"/>
<text text-anchor="middle" x="1975.74" y="-14.3" font-family="Arial" font-size="14.00">ABSORPTION(ZO);ELIMINATION(ZO)</text>
</g>
<!-- base&#45;&gt;s8 -->
<g id="edge8" class="edge">
<title>base&#45;&gt;s8</title>
<path fill="none" stroke="black" d="M853.74,-86.89C1007.11,-81.01 1441.3,-63.1 1801.74,-36 1817.53,-34.81 1834.11,-33.4 1850.51,-31.91"/>
<polygon fill="black" stroke="black" points="1851.05,-35.38 1860.68,-30.97 1850.4,-28.41 1851.05,-35.38"/>
</g>
</g>
</svg>
