<?xml version="1.0" encoding="UTF-8" standalone="no"?>
<!DOCTYPE svg PUBLIC "-//W3C//DTD SVG 1.1//EN"
 "http://www.w3.org/Graphics/SVG/1.1/DTD/svg11.dtd">
<!-- Generated by graphviz version 2.43.0 (0)
 -->
<!-- Title: BST Pages: 1 -->
<svg width="716pt" height="260pt"
 viewBox="0.00 0.00 716.39 260.00" xmlns="http://www.w3.org/2000/svg" xmlns:xlink="http://www.w3.org/1999/xlink">
<g id="graph0" class="graph" transform="scale(1 1) rotate(0) translate(4 256)">
<title>BST</title>
<polygon fill="white" stroke="transparent" points="-4,4 -4,-256 712.39,-256 712.39,4 -4,4"/>
<!-- s1 -->
<g id="node1" class="node">
<title>s1</title>
<ellipse fill="none" stroke="black" cx="419.49" cy="-234" rx="27" ry="18"/>
<text text-anchor="middle" x="419.49" y="-230.3" font-family="Arial" font-size="14.00">[CL]</text>
</g>
<!-- s2 -->
<g id="node2" class="node">
<title>s2</title>
<ellipse fill="none" stroke="black" cx="369.49" cy="-162" rx="35.19" ry="18"/>
<text text-anchor="middle" x="369.49" y="-158.3" font-family="Arial" font-size="14.00">[CL,V]</text>
</g>
<!-- s1&#45;&gt;s2 -->
<g id="edge1" class="edge">
<title>s1&#45;&gt;s2</title>
<path fill="none" stroke="black" d="M408.4,-217.46C402.17,-208.74 394.25,-197.65 387.18,-187.76"/>
<polygon fill="black" stroke="black" points="389.92,-185.57 381.26,-179.47 384.22,-189.64 389.92,-185.57"/>
</g>
<!-- s3 -->
<g id="node3" class="node">
<title>s3</title>
<ellipse fill="none" stroke="black" cx="470.49" cy="-162" rx="48.19" ry="18"/>
<text text-anchor="middle" x="470.49" y="-158.3" font-family="Arial" font-size="14.00">[CL,MAT]</text>
</g>
<!-- s1&#45;&gt;s3 -->
<g id="edge2" class="edge">
<title>s1&#45;&gt;s3</title>
<path fill="none" stroke="black" d="M430.81,-217.46C437.17,-208.74 445.25,-197.65 452.45,-187.76"/>
<polygon fill="black" stroke="black" points="455.44,-189.61 458.5,-179.47 449.78,-185.49 455.44,-189.61"/>
</g>
<!-- s4 -->
<g id="node4" class="node">
<title>s4</title>
<ellipse fill="none" stroke="black" cx="369.49" cy="-90" rx="55.79" ry="18"/>
<text text-anchor="middle" x="369.49" y="-86.3" font-family="Arial" font-size="14.00">[CL,V,MAT]</text>
</g>
<!-- s2&#45;&gt;s4 -->
<g id="edge3" class="edge">
<title>s2&#45;&gt;s4</title>
<path fill="none" stroke="black" d="M369.49,-143.7C369.49,-135.98 369.49,-126.71 369.49,-118.11"/>
<polygon fill="black" stroke="black" points="372.99,-118.1 369.49,-108.1 365.99,-118.1 372.99,-118.1"/>
</g>
<!-- s5 -->
<g id="node5" class="node">
<title>s5</title>
<ellipse fill="none" stroke="black" cx="71.49" cy="-18" rx="71.49" ry="18"/>
<text text-anchor="middle" x="71.49" y="-14.3" font-family="Arial" font-size="14.00">[CL]+[V]+[MAT]</text>
</g>
<!-- s4&#45;&gt;s5 -->
<g id="edge4" class="edge">
<title>s4&#45;&gt;s5</title>
<path fill="none" stroke="black" d="M325.84,-78.75C274.68,-66.73 189.58,-46.74 132.05,-33.22"/>
<polygon fill="black" stroke="black" points="132.53,-29.74 122,-30.86 130.93,-36.56 132.53,-29.74"/>
</g>
<!-- s6 -->
<g id="node6" class="node">
<title>s6</title>
<ellipse fill="none" stroke="black" cx="224.49" cy="-18" rx="63.89" ry="18"/>
<text text-anchor="middle" x="224.49" y="-14.3" font-family="Arial" font-size="14.00">[CL,V]+[MAT]</text>
</g>
<!-- s4&#45;&gt;s6 -->
<g id="edge5" class="edge">
<title>s4&#45;&gt;s6</title>
<path fill="none" stroke="black" d="M339.8,-74.67C318,-64.14 288.16,-49.74 264.3,-38.22"/>
<polygon fill="black" stroke="black" points="265.67,-34.99 255.15,-33.8 262.63,-41.3 265.67,-34.99"/>
</g>
<!-- s7 -->
<g id="node7" class="node">
<title>s7</title>
<ellipse fill="none" stroke="black" cx="369.49" cy="-18" rx="63.89" ry="18"/>
<text text-anchor="middle" x="369.49" y="-14.3" font-family="Arial" font-size="14.00">[CL,MAT]+[V]</text>
</g>
<!-- s4&#45;&gt;s7 -->
<g id="edge6" class="edge">
<title>s4&#45;&gt;s7</title>
<path fill="none" stroke="black" d="M369.49,-71.7C369.49,-63.98 369.49,-54.71 369.49,-46.11"/>
<polygon fill="black" stroke="black" points="372.99,-46.1 369.49,-36.1 365.99,-46.1 372.99,-46.1"/>
</g>
<!-- s8 -->
<g id="node8" class="node">
<title>s8</title>
<ellipse fill="none" stroke="black" cx="514.49" cy="-18" rx="63.89" ry="18"/>
<text text-anchor="middle" x="514.49" y="-14.3" font-family="Arial" font-size="14.00">[V,MAT]+[CL]</text>
</g>
<!-- s4&#45;&gt;s8 -->
<g id="edge7" class="edge">
<title>s4&#45;&gt;s8</title>
<path fill="none" stroke="black" d="M399.19,-74.67C420.98,-64.14 450.82,-49.74 474.69,-38.22"/>
<polygon fill="black" stroke="black" points="476.36,-41.3 483.84,-33.8 473.31,-34.99 476.36,-41.3"/>
</g>
<!-- s9 -->
<g id="node9" class="node">
<title>s9</title>
<ellipse fill="none" stroke="black" cx="652.49" cy="-18" rx="55.79" ry="18"/>
<text text-anchor="middle" x="652.49" y="-14.3" font-family="Arial" font-size="14.00">[CL,V,MAT]</text>
</g>
<!-- s4&#45;&gt;s9 -->
<g id="edge8" class="edge">
<title>s4&#45;&gt;s9</title>
<path fill="none" stroke="black" d="M412.98,-78.66C457.02,-68.14 527.07,-51.25 587.49,-36 591.81,-34.91 596.28,-33.77 600.77,-32.61"/>
<polygon fill="black" stroke="black" points="601.76,-35.97 610.56,-30.08 600,-29.2 601.76,-35.97"/>
</g>
</g>
</svg>
