<?xml version="1.0" encoding="UTF-8" standalone="no"?>
<!DOCTYPE svg PUBLIC "-//W3C//DTD SVG 1.1//EN"
 "http://www.w3.org/Graphics/SVG/1.1/DTD/svg11.dtd">
<!-- Generated by graphviz version 2.43.0 (0)
 -->
<!-- Title: BST Pages: 1 -->
<svg width="726pt" height="188pt"
 viewBox="0.00 0.00 726.39 188.00" xmlns="http://www.w3.org/2000/svg" xmlns:xlink="http://www.w3.org/1999/xlink">
<g id="graph0" class="graph" transform="scale(1 1) rotate(0) translate(4 184)">
<title>BST</title>
<polygon fill="white" stroke="transparent" points="-4,4 -4,-184 722.39,-184 722.39,4 -4,4"/>
<!-- base -->
<g id="node1" class="node">
<title>base</title>
<ellipse fill="none" stroke="black" cx="359.19" cy="-162" rx="57.69" ry="18"/>
<text text-anchor="middle" x="359.19" y="-158.3" font-family="Arial" font-size="14.00">Base model</text>
</g>
<!-- s1 -->
<g id="node2" class="node">
<title>s1</title>
<polygon fill="none" stroke="black" points="324.19,-108 210.19,-108 210.19,-72 324.19,-72 324.19,-108"/>
<text text-anchor="middle" x="267.19" y="-86.3" font-family="Arial" font-size="14.00">Base metabolite</text>
</g>
<!-- base&#45;&gt;s1 -->
<g id="edge1" class="edge">
<title>base&#45;&gt;s1</title>
<path fill="none" stroke="black" d="M338.32,-145.12C326.29,-135.96 310.95,-124.29 297.6,-114.14"/>
<polygon fill="black" stroke="black" points="299.67,-111.31 289.59,-108.04 295.43,-116.88 299.67,-111.31"/>
</g>
<!-- s4 -->
<g id="node5" class="node">
<title>s4</title>
<ellipse fill="none" stroke="black" cx="451.19" cy="-90" rx="102.88" ry="18"/>
<text text-anchor="middle" x="451.19" y="-86.3" font-family="Arial" font-size="14.00">Presystemic metabolite</text>
</g>
<!-- base&#45;&gt;s4 -->
<g id="edge4" class="edge">
<title>base&#45;&gt;s4</title>
<path fill="none" stroke="black" d="M380.07,-145.12C392.19,-135.9 407.66,-124.12 421.08,-113.91"/>
<polygon fill="black" stroke="black" points="423.28,-116.64 429.12,-107.8 419.04,-111.07 423.28,-116.64"/>
</g>
<!-- s2 -->
<g id="node3" class="node">
<title>s2</title>
<ellipse fill="none" stroke="black" cx="83.19" cy="-18" rx="83.39" ry="18"/>
<text text-anchor="middle" x="83.19" y="-14.3" font-family="Arial" font-size="14.00">PERIPHERALS(0)</text>
</g>
<!-- s1&#45;&gt;s2 -->
<g id="edge2" class="edge">
<title>s1&#45;&gt;s2</title>
<path fill="none" stroke="black" d="M222.18,-71.88C194.87,-61.48 160,-48.22 132.02,-37.58"/>
<polygon fill="black" stroke="black" points="133.03,-34.21 122.44,-33.93 130.54,-40.76 133.03,-34.21"/>
</g>
<!-- s3 -->
<g id="node4" class="node">
<title>s3</title>
<ellipse fill="none" stroke="black" cx="267.19" cy="-18" rx="83.39" ry="18"/>
<text text-anchor="middle" x="267.19" y="-14.3" font-family="Arial" font-size="14.00">PERIPHERALS(1)</text>
</g>
<!-- s1&#45;&gt;s3 -->
<g id="edge3" class="edge">
<title>s1&#45;&gt;s3</title>
<path fill="none" stroke="black" d="M267.19,-71.7C267.19,-63.98 267.19,-54.71 267.19,-46.11"/>
<polygon fill="black" stroke="black" points="270.69,-46.1 267.19,-36.1 263.69,-46.1 270.69,-46.1"/>
</g>
<!-- s5 -->
<g id="node6" class="node">
<title>s5</title>
<ellipse fill="none" stroke="black" cx="451.19" cy="-18" rx="83.39" ry="18"/>
<text text-anchor="middle" x="451.19" y="-14.3" font-family="Arial" font-size="14.00">PERIPHERALS(0)</text>
</g>
<!-- s4&#45;&gt;s5 -->
<g id="edge5" class="edge">
<title>s4&#45;&gt;s5</title>
<path fill="none" stroke="black" d="M451.19,-71.7C451.19,-63.98 451.19,-54.71 451.19,-46.11"/>
<polygon fill="black" stroke="black" points="454.69,-46.1 451.19,-36.1 447.69,-46.1 454.69,-46.1"/>
</g>
<!-- s6 -->
<g id="node7" class="node">
<title>s6</title>
<ellipse fill="none" stroke="black" cx="635.19" cy="-18" rx="83.39" ry="18"/>
<text text-anchor="middle" x="635.19" y="-14.3" font-family="Arial" font-size="14.00">PERIPHERALS(1)</text>
</g>
<!-- s4&#45;&gt;s6 -->
<g id="edge6" class="edge">
<title>s4&#45;&gt;s6</title>
<path fill="none" stroke="black" d="M492.03,-73.46C519.9,-62.86 556.96,-48.76 586.38,-37.57"/>
<polygon fill="black" stroke="black" points="587.95,-40.72 596.05,-33.89 585.46,-34.18 587.95,-40.72"/>
</g>
</g>
</svg>
