<?xml version="1.0" encoding="UTF-8" standalone="no"?>
<!DOCTYPE svg PUBLIC "-//W3C//DTD SVG 1.1//EN"
 "http://www.w3.org/Graphics/SVG/1.1/DTD/svg11.dtd">
<!-- Generated by graphviz version 2.40.1 (20161225.0304)
 -->
<!-- Title: fo Pages: 1 -->
<svg width="339pt" height="44pt"
 viewBox="0.00 0.00 339.00 44.00" xmlns="http://www.w3.org/2000/svg" xmlns:xlink="http://www.w3.org/1999/xlink">
<g id="graph0" class="graph" transform="scale(1 1) rotate(0) translate(4 40)">
<title>fo</title>
<polygon fill="#ffffff" stroke="transparent" points="-4,4 -4,-40 335,-40 335,4 -4,4"/>
<!-- S -->
<!-- Depot -->
<g id="node3" class="node">
<title>Depot</title>
<polygon fill="none" stroke="#000000" points="145,-36 86,-36 86,0 145,0 145,-36"/>
<text text-anchor="middle" x="115.5" y="-14.3" font-family="Times,serif" font-size="14.00" fill="#000000">Depot</text>
</g>
<!-- S&#45;&gt;Depot -->
<g id="edge3" class="edge">
<title>S&#45;&gt;Depot</title>
<path fill="none" stroke="#000000" d="M10.0351,-18C21.5614,-18 50.7802,-18 75.5472,-18"/>
<polygon fill="#000000" stroke="#000000" points="75.8245,-21.5001 85.8245,-18 75.8244,-14.5001 75.8245,-21.5001"/>
<text text-anchor="middle" x="48" y="-21.8" font-family="Times,serif" font-size="14.00" fill="#000000">Bolus</text>
</g>
<!-- Output -->
<!-- Central -->
<g id="node4" class="node">
<title>Central</title>
<polygon fill="none" stroke="#000000" points="271,-36 200,-36 200,0 271,0 271,-36"/>
<text text-anchor="middle" x="235.5" y="-14.3" font-family="Times,serif" font-size="14.00" fill="#000000">Central</text>
</g>
<!-- Depot&#45;&gt;Central -->
<g id="edge1" class="edge">
<title>Depot&#45;&gt;Central</title>
<path fill="none" stroke="#000000" d="M145.1629,-18C158.5841,-18 174.7536,-18 189.6809,-18"/>
<polygon fill="#000000" stroke="#000000" points="189.7677,-21.5001 199.7677,-18 189.7677,-14.5001 189.7677,-21.5001"/>
<text text-anchor="middle" x="172.5" y="-21.8" font-family="Times,serif" font-size="14.00" fill="#000000">Ka</text>
</g>
<!-- Central&#45;&gt;Output -->
<g id="edge2" class="edge">
<title>Central&#45;&gt;Output</title>
<path fill="none" stroke="#000000" d="M271.1869,-18C283.8361,-18 297.4751,-18 307.7913,-18"/>
<polygon fill="#000000" stroke="#000000" points="307.7969,-21.5001 317.7969,-18 307.7968,-14.5001 307.7969,-21.5001"/>
<text text-anchor="middle" x="294.5" y="-21.8" font-family="Times,serif" font-size="14.00" fill="#000000">K</text>
</g>
</g>
</svg>
