<?xml version="1.0" encoding="UTF-8" standalone="no"?>
<!DOCTYPE svg PUBLIC "-//W3C//DTD SVG 1.1//EN"
 "http://www.w3.org/Graphics/SVG/1.1/DTD/svg11.dtd">
<!-- Generated by graphviz version 2.43.0 (0)
 -->
<!-- Title: BST Pages: 1 -->
<svg width="797pt" height="116pt"
 viewBox="0.00 0.00 796.64 116.00" xmlns="http://www.w3.org/2000/svg" xmlns:xlink="http://www.w3.org/1999/xlink">
<g id="graph0" class="graph" transform="scale(1 1) rotate(0) translate(4 112)">
<title>BST</title>
<polygon fill="white" stroke="transparent" points="-4,4 -4,-112 792.64,-112 792.64,4 -4,4"/>
<!-- base -->
<g id="node1" class="node">
<title>base</title>
<ellipse fill="none" stroke="black" cx="363.74" cy="-90" rx="57.69" ry="18"/>
<text text-anchor="middle" x="363.74" y="-86.3" font-family="Arial" font-size="14.00">Base model</text>
</g>
<!-- s0 -->
<g id="node2" class="node">
<title>s0</title>
<ellipse fill="none" stroke="black" cx="61.74" cy="-18" rx="61.99" ry="18"/>
<text text-anchor="middle" x="61.74" y="-14.3" font-family="Arial" font-size="14.00">Naive pooled</text>
</g>
<!-- base&#45;&gt;s0 -->
<g id="edge1" class="edge">
<title>base&#45;&gt;s0</title>
<path fill="none" stroke="black" d="M318.13,-78.67C271.51,-68.08 197.04,-51.07 132.74,-36 127.86,-34.85 122.78,-33.66 117.69,-32.45"/>
<polygon fill="black" stroke="black" points="118.48,-29.04 107.94,-30.13 116.86,-35.85 118.48,-29.04"/>
</g>
<!-- s1 -->
<g id="node3" class="node">
<title>s1</title>
<ellipse fill="none" stroke="black" cx="168.74" cy="-18" rx="27" ry="18"/>
<text text-anchor="middle" x="168.74" y="-14.3" font-family="Arial" font-size="14.00">[CL]</text>
</g>
<!-- base&#45;&gt;s1 -->
<g id="edge2" class="edge">
<title>base&#45;&gt;s1</title>
<path fill="none" stroke="black" d="M323.41,-77.02C290.98,-67.04 244.44,-51.92 204.74,-36 202.92,-35.27 201.05,-34.49 199.17,-33.68"/>
<polygon fill="black" stroke="black" points="200.43,-30.41 189.88,-29.49 197.56,-36.79 200.43,-30.41"/>
</g>
<!-- s2 -->
<g id="node4" class="node">
<title>s2</title>
<ellipse fill="none" stroke="black" cx="240.74" cy="-18" rx="27" ry="18"/>
<text text-anchor="middle" x="240.74" y="-14.3" font-family="Arial" font-size="14.00">[V]</text>
</g>
<!-- base&#45;&gt;s2 -->
<g id="edge3" class="edge">
<title>base&#45;&gt;s2</title>
<path fill="none" stroke="black" d="M337.06,-73.81C317.08,-62.44 289.8,-46.92 269.37,-35.29"/>
<polygon fill="black" stroke="black" points="270.94,-32.16 260.52,-30.26 267.48,-38.24 270.94,-32.16"/>
</g>
<!-- s3 -->
<g id="node5" class="node">
<title>s3</title>
<ellipse fill="none" stroke="black" cx="319.74" cy="-18" rx="34.39" ry="18"/>
<text text-anchor="middle" x="319.74" y="-14.3" font-family="Arial" font-size="14.00">[MAT]</text>
</g>
<!-- base&#45;&gt;s3 -->
<g id="edge4" class="edge">
<title>base&#45;&gt;s3</title>
<path fill="none" stroke="black" d="M353.09,-72.05C347.77,-63.59 341.24,-53.19 335.36,-43.84"/>
<polygon fill="black" stroke="black" points="338.28,-41.91 329.99,-35.31 332.35,-45.64 338.28,-41.91"/>
</g>
<!-- s4 -->
<g id="node6" class="node">
<title>s4</title>
<ellipse fill="none" stroke="black" cx="407.74" cy="-18" rx="35.19" ry="18"/>
<text text-anchor="middle" x="407.74" y="-14.3" font-family="Arial" font-size="14.00">[CL,V]</text>
</g>
<!-- base&#45;&gt;s4 -->
<g id="edge5" class="edge">
<title>base&#45;&gt;s4</title>
<path fill="none" stroke="black" d="M374.4,-72.05C379.72,-63.59 386.25,-53.19 392.13,-43.84"/>
<polygon fill="black" stroke="black" points="395.14,-45.64 397.49,-35.31 389.21,-41.91 395.14,-45.64"/>
</g>
<!-- s5 -->
<g id="node7" class="node">
<title>s5</title>
<ellipse fill="none" stroke="black" cx="508.74" cy="-18" rx="48.19" ry="18"/>
<text text-anchor="middle" x="508.74" y="-14.3" font-family="Arial" font-size="14.00">[CL,MAT]</text>
</g>
<!-- base&#45;&gt;s5 -->
<g id="edge6" class="edge">
<title>base&#45;&gt;s5</title>
<path fill="none" stroke="black" d="M393.79,-74.5C416.2,-63.68 446.96,-48.83 471.03,-37.21"/>
<polygon fill="black" stroke="black" points="472.73,-40.27 480.22,-32.77 469.69,-33.97 472.73,-40.27"/>
</g>
<!-- s6 -->
<g id="node8" class="node">
<title>s6</title>
<ellipse fill="none" stroke="black" cx="616.74" cy="-18" rx="42.49" ry="18"/>
<text text-anchor="middle" x="616.74" y="-14.3" font-family="Arial" font-size="14.00">[V,MAT]</text>
</g>
<!-- base&#45;&gt;s6 -->
<g id="edge7" class="edge">
<title>base&#45;&gt;s6</title>
<path fill="none" stroke="black" d="M408.11,-78.24C449.19,-68.07 511.88,-52.03 565.74,-36 568.88,-35.07 572.1,-34.07 575.34,-33.05"/>
<polygon fill="black" stroke="black" points="576.57,-36.33 585.02,-29.93 574.42,-29.67 576.57,-36.33"/>
</g>
<!-- s7 -->
<g id="node9" class="node">
<title>s7</title>
<ellipse fill="none" stroke="black" cx="732.74" cy="-18" rx="55.79" ry="18"/>
<text text-anchor="middle" x="732.74" y="-14.3" font-family="Arial" font-size="14.00">[CL,V,MAT]</text>
</g>
<!-- base&#45;&gt;s7 -->
<g id="edge8" class="edge">
<title>base&#45;&gt;s7</title>
<path fill="none" stroke="black" d="M414.83,-81.42C475.44,-72.13 579.4,-55.22 667.74,-36 672.35,-35 677.11,-33.89 681.88,-32.73"/>
<polygon fill="black" stroke="black" points="682.75,-36.12 691.61,-30.31 681.06,-29.33 682.75,-36.12"/>
</g>
</g>
</svg>
