<?xml version="1.0" encoding="UTF-8" standalone="no"?>
<!DOCTYPE svg PUBLIC "-//W3C//DTD SVG 1.1//EN"
 "http://www.w3.org/Graphics/SVG/1.1/DTD/svg11.dtd">
<!-- Generated by graphviz version 2.43.0 (0)
 -->
<!-- Title: BST Pages: 1 -->
<svg width="772pt" height="188pt"
 viewBox="0.00 0.00 772.19 188.00" xmlns="http://www.w3.org/2000/svg" xmlns:xlink="http://www.w3.org/1999/xlink">
<g id="graph0" class="graph" transform="scale(1 1) rotate(0) translate(4 184)">
<title>BST</title>
<polygon fill="white" stroke="transparent" points="-4,4 -4,-184 768.19,-184 768.19,4 -4,4"/>
<!-- base -->
<g id="node1" class="node">
<title>base</title>
<ellipse fill="none" stroke="black" cx="279" cy="-162" rx="83.39" ry="18"/>
<text text-anchor="middle" x="279" y="-158.3" font-family="Arial" font-size="14.00">[CL,VC,MAT,MDT]</text>
</g>
<!-- s1 -->
<g id="node2" class="node">
<title>s1</title>
<ellipse fill="none" stroke="black" cx="27" cy="-90" rx="27" ry="18"/>
<text text-anchor="middle" x="27" y="-86.3" font-family="Arial" font-size="14.00">[CL]</text>
</g>
<!-- base&#45;&gt;s1 -->
<g id="edge1" class="edge">
<title>base&#45;&gt;s1</title>
<path fill="none" stroke="black" d="M218.46,-149.54C174.63,-140.43 114.31,-126.2 63,-108 61.09,-107.32 59.15,-106.58 57.21,-105.79"/>
<polygon fill="black" stroke="black" points="58.21,-102.41 47.64,-101.61 55.4,-108.82 58.21,-102.41"/>
</g>
<!-- s2 -->
<g id="node3" class="node">
<title>s2</title>
<ellipse fill="none" stroke="black" cx="114" cy="-90" rx="41.69" ry="18"/>
<text text-anchor="middle" x="114" y="-86.3" font-family="Arial" font-size="14.00">[CL,VC]</text>
</g>
<!-- base&#45;&gt;s2 -->
<g id="edge2" class="edge">
<title>base&#45;&gt;s2</title>
<path fill="none" stroke="black" d="M242.79,-145.64C215.89,-134.23 179.28,-118.7 151.97,-107.11"/>
<polygon fill="black" stroke="black" points="153.3,-103.87 142.73,-103.19 150.57,-110.32 153.3,-103.87"/>
</g>
<!-- s3 -->
<g id="node4" class="node">
<title>s3</title>
<ellipse fill="none" stroke="black" cx="222" cy="-90" rx="48.19" ry="18"/>
<text text-anchor="middle" x="222" y="-86.3" font-family="Arial" font-size="14.00">[CL,MAT]</text>
</g>
<!-- base&#45;&gt;s3 -->
<g id="edge3" class="edge">
<title>base&#45;&gt;s3</title>
<path fill="none" stroke="black" d="M265.2,-144.05C258.17,-135.42 249.49,-124.76 241.76,-115.27"/>
<polygon fill="black" stroke="black" points="244.31,-112.85 235.28,-107.31 238.88,-117.27 244.31,-112.85"/>
</g>
<!-- s4 -->
<g id="node5" class="node">
<title>s4</title>
<ellipse fill="none" stroke="black" cx="337" cy="-90" rx="48.99" ry="18"/>
<text text-anchor="middle" x="337" y="-86.3" font-family="Arial" font-size="14.00">[CL,MDT]</text>
</g>
<!-- base&#45;&gt;s4 -->
<g id="edge4" class="edge">
<title>base&#45;&gt;s4</title>
<path fill="none" stroke="black" d="M293.04,-144.05C300.2,-135.42 309.03,-124.76 316.89,-115.27"/>
<polygon fill="black" stroke="black" points="319.8,-117.24 323.49,-107.31 314.41,-112.77 319.8,-117.24"/>
</g>
<!-- s5 -->
<g id="node6" class="node">
<title>s5</title>
<ellipse fill="none" stroke="black" cx="466" cy="-90" rx="62.29" ry="18"/>
<text text-anchor="middle" x="466" y="-86.3" font-family="Arial" font-size="14.00">[CL,VC,MAT]</text>
</g>
<!-- base&#45;&gt;s5 -->
<g id="edge5" class="edge">
<title>base&#45;&gt;s5</title>
<path fill="none" stroke="black" d="M318.66,-146.15C348.26,-135.07 388.79,-119.9 419.84,-108.28"/>
<polygon fill="black" stroke="black" points="421.43,-111.42 429.57,-104.64 418.98,-104.86 421.43,-111.42"/>
</g>
<!-- s6 -->
<g id="node7" class="node">
<title>s6</title>
<ellipse fill="none" stroke="black" cx="610" cy="-90" rx="63.89" ry="18"/>
<text text-anchor="middle" x="610" y="-86.3" font-family="Arial" font-size="14.00">[CL,VC,MDT]</text>
</g>
<!-- base&#45;&gt;s6 -->
<g id="edge6" class="edge">
<title>base&#45;&gt;s6</title>
<path fill="none" stroke="black" d="M338.27,-149.28C390.62,-138.82 468.99,-122.9 537,-108 542.24,-106.85 547.69,-105.63 553.14,-104.39"/>
<polygon fill="black" stroke="black" points="553.95,-107.8 562.92,-102.16 552.39,-100.98 553.95,-107.8"/>
</g>
<!-- s7 -->
<g id="node8" class="node">
<title>s7</title>
<ellipse fill="none" stroke="black" cx="224" cy="-18" rx="77.99" ry="18"/>
<text text-anchor="middle" x="224" y="-14.3" font-family="Arial" font-size="14.00">[CL]+[VC]+[MAT]</text>
</g>
<!-- s5&#45;&gt;s7 -->
<g id="edge7" class="edge">
<title>s5&#45;&gt;s7</title>
<path fill="none" stroke="black" d="M423.57,-76.73C383.75,-65.21 323.92,-47.9 280.15,-35.24"/>
<polygon fill="black" stroke="black" points="281.09,-31.87 270.51,-32.45 279.15,-38.6 281.09,-31.87"/>
</g>
<!-- s8 -->
<g id="node9" class="node">
<title>s8</title>
<ellipse fill="none" stroke="black" cx="390" cy="-18" rx="70.39" ry="18"/>
<text text-anchor="middle" x="390" y="-14.3" font-family="Arial" font-size="14.00">[CL,VC]+[MAT]</text>
</g>
<!-- s5&#45;&gt;s8 -->
<g id="edge8" class="edge">
<title>s5&#45;&gt;s8</title>
<path fill="none" stroke="black" d="M447.99,-72.41C438.24,-63.43 426.04,-52.19 415.34,-42.34"/>
<polygon fill="black" stroke="black" points="417.61,-39.67 407.88,-35.47 412.87,-44.82 417.61,-39.67"/>
</g>
<!-- s9 -->
<g id="node10" class="node">
<title>s9</title>
<ellipse fill="none" stroke="black" cx="542" cy="-18" rx="63.89" ry="18"/>
<text text-anchor="middle" x="542" y="-14.3" font-family="Arial" font-size="14.00">[CL,MAT]+[V]</text>
</g>
<!-- s5&#45;&gt;s9 -->
<g id="edge9" class="edge">
<title>s5&#45;&gt;s9</title>
<path fill="none" stroke="black" d="M484.01,-72.41C493.76,-63.43 505.96,-52.19 516.66,-42.34"/>
<polygon fill="black" stroke="black" points="519.13,-44.82 524.12,-35.47 514.39,-39.67 519.13,-44.82"/>
</g>
<!-- s10 -->
<g id="node11" class="node">
<title>s10</title>
<ellipse fill="none" stroke="black" cx="694" cy="-18" rx="70.39" ry="18"/>
<text text-anchor="middle" x="694" y="-14.3" font-family="Arial" font-size="14.00">[VC,MAT]+[CL]</text>
</g>
<!-- s5&#45;&gt;s10 -->
<g id="edge10" class="edge">
<title>s5&#45;&gt;s10</title>
<path fill="none" stroke="black" d="M507.03,-76.4C544.45,-64.91 599.99,-47.86 640.81,-35.33"/>
<polygon fill="black" stroke="black" points="642.06,-38.61 650.59,-32.33 640,-31.92 642.06,-38.61"/>
</g>
</g>
</svg>
