<?xml version="1.0" encoding="UTF-8" standalone="no"?>
<!DOCTYPE svg PUBLIC "-//W3C//DTD SVG 1.1//EN"
 "http://www.w3.org/Graphics/SVG/1.1/DTD/svg11.dtd">
<!-- Generated by graphviz version 2.43.0 (0)
 -->
<!-- Title: G Pages: 1 -->
<svg width="250pt" height="188pt"
 viewBox="0.00 0.00 250.00 188.00" xmlns="http://www.w3.org/2000/svg" xmlns:xlink="http://www.w3.org/1999/xlink">
<g id="graph0" class="graph" transform="scale(1 1) rotate(0) translate(4 184)">
<title>G</title>
<polygon fill="white" stroke="transparent" points="-4,4 -4,-184 246,-184 246,4 -4,4"/>
<!-- draw -->
<g id="node1" class="node">
<title>draw</title>
<polygon fill="none" stroke="black" points="172.5,-180 69.5,-180 69.5,-144 172.5,-144 172.5,-180"/>
<text text-anchor="middle" x="121" y="-158.3" font-family="Times,serif" font-size="14.00">Input model</text>
</g>
<!-- allometry -->
<g id="node2" class="node">
<title>allometry</title>
<polygon fill="none" stroke="black" points="242,-108 0,-108 0,-72 242,-72 242,-108"/>
<text text-anchor="middle" x="121" y="-86.3" font-family="Times,serif" font-size="14.00">Add allometric scaling to model</text>
</g>
<!-- draw&#45;&gt;allometry -->
<g id="edge1" class="edge">
<title>draw&#45;&gt;allometry</title>
<path fill="none" stroke="black" d="M121,-143.7C121,-135.98 121,-126.71 121,-118.11"/>
<polygon fill="black" stroke="black" points="124.5,-118.1 121,-108.1 117.5,-118.1 124.5,-118.1"/>
</g>
<!-- run -->
<g id="node3" class="node">
<title>run</title>
<polygon fill="none" stroke="black" points="148,-36 94,-36 94,0 148,0 148,-36"/>
<text text-anchor="middle" x="121" y="-14.3" font-family="Times,serif" font-size="14.00">Run</text>
</g>
<!-- allometry&#45;&gt;run -->
<g id="edge2" class="edge">
<title>allometry&#45;&gt;run</title>
<path fill="none" stroke="black" d="M121,-71.7C121,-63.98 121,-54.71 121,-46.11"/>
<polygon fill="black" stroke="black" points="124.5,-46.1 121,-36.1 117.5,-46.1 124.5,-46.1"/>
</g>
</g>
</svg>
