<?xml version="1.0" encoding="UTF-8" standalone="no"?>
<!DOCTYPE svg PUBLIC "-//W3C//DTD SVG 1.1//EN"
 "http://www.w3.org/Graphics/SVG/1.1/DTD/svg11.dtd">
<!-- Generated by graphviz version 2.43.0 (0)
 -->
<!-- Title: BST Pages: 1 -->
<svg width="1008pt" height="188pt"
 viewBox="0.00 0.00 1007.88 188.00" xmlns="http://www.w3.org/2000/svg" xmlns:xlink="http://www.w3.org/1999/xlink">
<g id="graph0" class="graph" transform="scale(1 1) rotate(0) translate(4 184)">
<title>BST</title>
<polygon fill="white" stroke="transparent" points="-4,4 -4,-184 1003.88,-184 1003.88,4 -4,4"/>
<!-- base -->
<g id="node1" class="node">
<title>base</title>
<ellipse fill="none" stroke="black" cx="628.09" cy="-162" rx="57.69" ry="18"/>
<text text-anchor="middle" x="628.09" y="-158.3" font-family="Arial" font-size="14.00">Base model</text>
</g>
<!-- s1_1 -->
<g id="node2" class="node">
<title>s1_1</title>
<ellipse fill="none" stroke="black" stroke-width="2" cx="339.09" cy="-90" rx="87.99" ry="18"/>
<text text-anchor="middle" x="339.09" y="-86.3" font-family="Arial" font-size="14.00">ABSORPTION(FO)</text>
</g>
<!-- base&#45;&gt;s1_1 -->
<g id="edge1" class="edge">
<title>base&#45;&gt;s1_1</title>
<path fill="none" stroke="black" d="M583.88,-150.29C535.72,-138.63 458.25,-119.86 403.37,-106.57"/>
<polygon fill="black" stroke="black" points="403.94,-103.11 393.39,-104.15 402.29,-109.91 403.94,-103.11"/>
</g>
<!-- s1_2 -->
<g id="node3" class="node">
<title>s1_2</title>
<ellipse fill="none" stroke="black" cx="532.09" cy="-90" rx="87.99" ry="18"/>
<text text-anchor="middle" x="532.09" y="-86.3" font-family="Arial" font-size="14.00">ABSORPTION(ZO)</text>
</g>
<!-- base&#45;&gt;s1_2 -->
<g id="edge2" class="edge">
<title>base&#45;&gt;s1_2</title>
<path fill="none" stroke="black" d="M606.3,-145.12C593.57,-135.83 577.28,-123.95 563.21,-113.69"/>
<polygon fill="black" stroke="black" points="564.93,-110.62 554.78,-107.55 560.8,-116.27 564.93,-110.62"/>
</g>
<!-- s1_3 -->
<g id="node4" class="node">
<title>s1_3</title>
<ellipse fill="none" stroke="black" cx="724.09" cy="-90" rx="85.59" ry="18"/>
<text text-anchor="middle" x="724.09" y="-86.3" font-family="Arial" font-size="14.00">ELIMINATION(FO)</text>
</g>
<!-- base&#45;&gt;s1_3 -->
<g id="edge3" class="edge">
<title>base&#45;&gt;s1_3</title>
<path fill="none" stroke="black" d="M649.87,-145.12C662.61,-135.83 678.89,-123.95 692.96,-113.69"/>
<polygon fill="black" stroke="black" points="695.37,-116.27 701.39,-107.55 691.24,-110.62 695.37,-116.27"/>
</g>
<!-- s1_4 -->
<g id="node5" class="node">
<title>s1_4</title>
<ellipse fill="none" stroke="black" cx="914.09" cy="-90" rx="85.59" ry="18"/>
<text text-anchor="middle" x="914.09" y="-86.3" font-family="Arial" font-size="14.00">ELIMINATION(ZO)</text>
</g>
<!-- base&#45;&gt;s1_4 -->
<g id="edge4" class="edge">
<title>base&#45;&gt;s1_4</title>
<path fill="none" stroke="black" d="M672.15,-150.22C719.87,-138.54 796.42,-119.8 850.62,-106.53"/>
<polygon fill="black" stroke="black" points="851.58,-109.9 860.46,-104.12 849.92,-103.1 851.58,-109.9"/>
</g>
<!-- s2_2 -->
<g id="node6" class="node">
<title>s2_2</title>
<ellipse fill="none" stroke="black" stroke-width="2" cx="165.09" cy="-18" rx="165.17" ry="18"/>
<text text-anchor="middle" x="165.09" y="-14.3" font-family="Arial" font-size="14.00">ABSORPTION(FO);ELIMINATION(FO)</text>
</g>
<!-- s1_1&#45;&gt;s2_2 -->
<g id="edge5" class="edge">
<title>s1_1&#45;&gt;s2_2</title>
<path fill="none" stroke="black" d="M300.9,-73.64C275.84,-63.56 242.8,-50.26 215.58,-39.31"/>
<polygon fill="black" stroke="black" points="216.8,-36.03 206.22,-35.55 214.19,-42.53 216.8,-36.03"/>
</g>
<!-- s2_3 -->
<g id="node7" class="node">
<title>s2_3</title>
<ellipse fill="none" stroke="black" cx="513.09" cy="-18" rx="165.17" ry="18"/>
<text text-anchor="middle" x="513.09" y="-14.3" font-family="Arial" font-size="14.00">ABSORPTION(FO);ELIMINATION(ZO)</text>
</g>
<!-- s1_1&#45;&gt;s2_3 -->
<g id="edge6" class="edge">
<title>s1_1&#45;&gt;s2_3</title>
<path fill="none" stroke="black" d="M377.27,-73.64C402.33,-63.56 435.37,-50.26 462.59,-39.31"/>
<polygon fill="black" stroke="black" points="463.98,-42.53 471.95,-35.55 461.37,-36.03 463.98,-42.53"/>
</g>
</g>
</svg>
