<?xml version="1.0" encoding="UTF-8" standalone="no"?>
<!DOCTYPE svg PUBLIC "-//W3C//DTD SVG 1.1//EN"
 "http://www.w3.org/Graphics/SVG/1.1/DTD/svg11.dtd">
<!-- Generated by graphviz version 2.43.0 (0)
 -->
<!-- Title: G Pages: 1 -->
<svg width="562pt" height="277pt"
 viewBox="0.00 0.00 561.93 277.00" xmlns="http://www.w3.org/2000/svg" xmlns:xlink="http://www.w3.org/1999/xlink">
<g id="graph0" class="graph" transform="scale(1 1) rotate(0) translate(4 273)">
<title>G</title>
<polygon fill="white" stroke="transparent" points="-4,4 -4,-273 557.93,-273 557.93,4 -4,4"/>
<!-- input_model -->
<g id="node1" class="node">
<title>input_model</title>
<ellipse fill="none" stroke="black" cx="122.93" cy="-251" rx="66.89" ry="18"/>
<text text-anchor="middle" x="122.93" y="-247.3" font-family="Times,serif" font-size="14.00">Input model</text>
</g>
<!-- input_ss -->
<g id="node3" class="node">
<title>input_ss</title>
<ellipse fill="none" stroke="black" cx="200.93" cy="-178" rx="109.38" ry="18"/>
<text text-anchor="middle" x="200.93" y="-174.3" font-family="Times,serif" font-size="14.00">Input + search space</text>
</g>
<!-- input_model&#45;&gt;input_ss -->
<g id="edge1" class="edge">
<title>input_model&#45;&gt;input_ss</title>
<path fill="none" stroke="black" d="M141.02,-233.53C151.12,-224.35 163.86,-212.75 175,-202.61"/>
<polygon fill="black" stroke="black" points="177.36,-205.19 182.4,-195.87 172.65,-200.01 177.36,-205.19"/>
</g>
<!-- search_space -->
<g id="node2" class="node">
<title>search_space</title>
<ellipse fill="none" stroke="black" cx="279.93" cy="-251" rx="72.29" ry="18"/>
<text text-anchor="middle" x="279.93" y="-247.3" font-family="Times,serif" font-size="14.00">Search space</text>
</g>
<!-- search_space&#45;&gt;input_ss -->
<g id="edge2" class="edge">
<title>search_space&#45;&gt;input_ss</title>
<path fill="none" stroke="black" d="M261.61,-233.53C251.39,-224.35 238.48,-212.75 227.2,-202.61"/>
<polygon fill="black" stroke="black" points="229.48,-199.95 219.7,-195.87 224.8,-205.16 229.48,-199.95"/>
</g>
<!-- filter_model -->
<g id="node4" class="node">
<title>filter_model</title>
<ellipse fill="none" stroke="black" cx="196.93" cy="-18" rx="196.87" ry="18"/>
<text text-anchor="middle" x="196.93" y="-14.3" font-family="Times,serif" font-size="14.00">Filter model features from search space</text>
</g>
<!-- input_ss&#45;&gt;filter_model -->
<g id="edge5" class="edge">
<title>input_ss&#45;&gt;filter_model</title>
<path fill="none" stroke="black" d="M197.3,-159.96C192.58,-136.5 184.93,-98.5 184.93,-98.5 184.93,-98.5 189.25,-69.56 192.7,-46.38"/>
<polygon fill="black" stroke="black" points="196.2,-46.67 194.21,-36.27 189.27,-45.64 196.2,-46.67"/>
<text text-anchor="middle" x="284.43" y="-87.3" font-family="Times,serif" font-size="14.00">Input model ∈ search space</text>
</g>
<!-- create_base -->
<g id="node5" class="node">
<title>create_base</title>
<ellipse fill="none" stroke="black" cx="476.93" cy="-91" rx="74.99" ry="18"/>
<text text-anchor="middle" x="476.93" y="-87.3" font-family="Times,serif" font-size="14.00">Create a base</text>
</g>
<!-- input_ss&#45;&gt;create_base -->
<g id="edge3" class="edge">
<title>input_ss&#45;&gt;create_base</title>
<path fill="none" stroke="black" d="M249.96,-161.9C298.61,-146.92 372.98,-124.02 423.21,-108.55"/>
<polygon fill="black" stroke="black" points="424.39,-111.84 432.92,-105.56 422.33,-105.15 424.39,-111.84"/>
<text text-anchor="middle" x="454.43" y="-130.8" font-family="Times,serif" font-size="14.00">Input model ∉ search space</text>
</g>
<!-- create_base&#45;&gt;filter_model -->
<g id="edge4" class="edge">
<title>create_base&#45;&gt;filter_model</title>
<path fill="none" stroke="black" d="M427.52,-77.47C383.88,-66.4 319.66,-50.12 270.07,-37.54"/>
<polygon fill="black" stroke="black" points="270.91,-34.15 260.35,-35.08 269.19,-40.93 270.91,-34.15"/>
</g>
</g>
</svg>
