<?xml version="1.0" encoding="UTF-8" standalone="no"?>
<!DOCTYPE svg PUBLIC "-//W3C//DTD SVG 1.1//EN"
 "http://www.w3.org/Graphics/SVG/1.1/DTD/svg11.dtd">
<!-- Generated by graphviz version 2.43.0 (0)
 -->
<!-- Title: G Pages: 1 -->
<svg width="641pt" height="721pt"
 viewBox="0.00 0.00 641.00 721.00" xmlns="http://www.w3.org/2000/svg" xmlns:xlink="http://www.w3.org/1999/xlink">
<g id="graph0" class="graph" transform="scale(1 1) rotate(0) translate(4 717)">
<title>G</title>
<polygon fill="white" stroke="transparent" points="-4,4 -4,-717 637,-717 637,4 -4,4"/>
<!-- draw -->
<g id="node1" class="node">
<title>draw</title>
<polygon fill="none" stroke="black" points="291,-713 188,-713 188,-677 291,-677 291,-713"/>
<text text-anchor="middle" x="239.5" y="-691.3" font-family="Times,serif" font-size="14.00">Input model</text>
</g>
<!-- add_iov -->
<g id="node2" class="node">
<title>add_iov</title>
<polygon fill="none" stroke="black" points="457,-640 22,-640 22,-604 457,-604 457,-640"/>
<text text-anchor="middle" x="239.5" y="-618.3" font-family="Times,serif" font-size="14.00">Add IOV to all given parameters or all parameters with IIV</text>
</g>
<!-- draw&#45;&gt;add_iov -->
<g id="edge1" class="edge">
<title>draw&#45;&gt;add_iov</title>
<path fill="none" stroke="black" d="M239.5,-676.81C239.5,-668.79 239.5,-659.05 239.5,-650.07"/>
<polygon fill="black" stroke="black" points="243,-650.03 239.5,-640.03 236,-650.03 243,-650.03"/>
</g>
<!-- remove_iov -->
<g id="node3" class="node">
<title>remove_iov</title>
<polygon fill="none" stroke="black" points="479,-553 0,-553 0,-517 479,-517 479,-553"/>
<text text-anchor="middle" x="239.5" y="-531.3" font-family="Times,serif" font-size="14.00">Create candidates where each possible subset of IOV is removed</text>
</g>
<!-- add_iov&#45;&gt;remove_iov -->
<g id="edge2" class="edge">
<title>add_iov&#45;&gt;remove_iov</title>
<path fill="none" stroke="black" d="M239.5,-603.8C239.5,-592.16 239.5,-576.55 239.5,-563.24"/>
<polygon fill="black" stroke="black" points="243,-563.18 239.5,-553.18 236,-563.18 243,-563.18"/>
<text text-anchor="middle" x="274" y="-574.8" font-family="Times,serif" font-size="14.00">Fit model</text>
</g>
<!-- better_iov -->
<g id="node4" class="node">
<title>better_iov</title>
<polygon fill="none" stroke="black" points="366,-466 113,-466 113,-430 366,-430 366,-466"/>
<text text-anchor="middle" x="239.5" y="-444.3" font-family="Times,serif" font-size="14.00">Any candidate better than input?</text>
</g>
<!-- remove_iov&#45;&gt;better_iov -->
<g id="edge3" class="edge">
<title>remove_iov&#45;&gt;better_iov</title>
<path fill="none" stroke="black" d="M239.5,-516.8C239.5,-505.16 239.5,-489.55 239.5,-476.24"/>
<polygon fill="black" stroke="black" points="243,-476.18 239.5,-466.18 236,-476.18 243,-476.18"/>
<text text-anchor="middle" x="277.5" y="-487.8" font-family="Times,serif" font-size="14.00">Fit models</text>
</g>
<!-- best_model_iov_no -->
<g id="node5" class="node">
<title>best_model_iov_no</title>
<polygon fill="none" stroke="black" points="277,-325 126,-325 126,-289 277,-289 277,-325"/>
<text text-anchor="middle" x="201.5" y="-303.3" font-family="Times,serif" font-size="14.00">Select input model</text>
</g>
<!-- better_iov&#45;&gt;best_model_iov_no -->
<g id="edge5" class="edge">
<title>better_iov&#45;&gt;best_model_iov_no</title>
<path fill="none" stroke="black" d="M234.84,-429.96C228.37,-406.3 216.61,-363.26 208.92,-335.15"/>
<polygon fill="black" stroke="black" points="212.21,-333.91 206.2,-325.18 205.46,-335.75 212.21,-333.91"/>
<text text-anchor="middle" x="241" y="-400.8" font-family="Times,serif" font-size="14.00">No</text>
</g>
<!-- best_model_iov_yes -->
<g id="node6" class="node">
<title>best_model_iov_yes</title>
<polygon fill="none" stroke="black" points="471.5,-379 253.5,-379 253.5,-343 471.5,-343 471.5,-379"/>
<text text-anchor="middle" x="362.5" y="-357.3" font-family="Times,serif" font-size="14.00">Select best candidate model</text>
</g>
<!-- better_iov&#45;&gt;best_model_iov_yes -->
<g id="edge4" class="edge">
<title>better_iov&#45;&gt;best_model_iov_yes</title>
<path fill="none" stroke="black" d="M264.39,-429.8C283.06,-416.9 308.81,-399.1 329.25,-384.98"/>
<polygon fill="black" stroke="black" points="331.41,-387.74 337.65,-379.18 327.43,-381.98 331.41,-387.74"/>
<text text-anchor="middle" x="321" y="-400.8" font-family="Times,serif" font-size="14.00">Yes</text>
</g>
<!-- done -->
<g id="node11" class="node">
<title>done</title>
<polygon fill="none" stroke="black" points="355,-36 258,-36 258,0 355,0 355,-36"/>
<text text-anchor="middle" x="306.5" y="-14.3" font-family="Times,serif" font-size="14.00">Best model</text>
</g>
<!-- best_model_iov_no&#45;&gt;done -->
<g id="edge6" class="edge">
<title>best_model_iov_no&#45;&gt;done</title>
<path fill="none" stroke="black" d="M191.55,-288.84C182.16,-271 169.5,-241.96 169.5,-215 169.5,-215 169.5,-215 169.5,-90 169.5,-52.37 210.74,-34.66 247.96,-26.34"/>
<polygon fill="black" stroke="black" points="248.72,-29.76 257.81,-24.33 247.31,-22.9 248.72,-29.76"/>
</g>
<!-- remove_iiv -->
<g id="node7" class="node">
<title>remove_iiv</title>
<polygon fill="none" stroke="black" points="544,-271 197,-271 197,-233 544,-233 544,-271"/>
<text text-anchor="middle" x="370.5" y="-255.8" font-family="Times,serif" font-size="14.00">Create candidates where each possible subset</text>
<text text-anchor="middle" x="370.5" y="-240.8" font-family="Times,serif" font-size="14.00"> of IIVs connected to IIV is removed</text>
</g>
<!-- best_model_iov_yes&#45;&gt;remove_iiv -->
<g id="edge7" class="edge">
<title>best_model_iov_yes&#45;&gt;remove_iiv</title>
<path fill="none" stroke="black" d="M363.79,-342.81C365.02,-326.26 366.92,-300.94 368.38,-281.39"/>
<polygon fill="black" stroke="black" points="371.88,-281.46 369.14,-271.22 364.9,-280.93 371.88,-281.46"/>
<text text-anchor="middle" x="405.5" y="-303.3" font-family="Times,serif" font-size="14.00">Fit models</text>
</g>
<!-- better_iiv -->
<g id="node8" class="node">
<title>better_iiv</title>
<polygon fill="none" stroke="black" points="509,-196 232,-196 232,-160 509,-160 509,-196"/>
<text text-anchor="middle" x="370.5" y="-174.3" font-family="Times,serif" font-size="14.00">Any candidate better than previous?</text>
</g>
<!-- remove_iiv&#45;&gt;better_iiv -->
<g id="edge8" class="edge">
<title>remove_iiv&#45;&gt;better_iiv</title>
<path fill="none" stroke="black" d="M370.5,-232.83C370.5,-224.89 370.5,-215.41 370.5,-206.63"/>
<polygon fill="black" stroke="black" points="374,-206.42 370.5,-196.42 367,-206.42 374,-206.42"/>
</g>
<!-- best_model_iiv_yes -->
<g id="node9" class="node">
<title>best_model_iiv_yes</title>
<polygon fill="none" stroke="black" points="415.5,-109 197.5,-109 197.5,-73 415.5,-73 415.5,-109"/>
<text text-anchor="middle" x="306.5" y="-87.3" font-family="Times,serif" font-size="14.00">Select best candidate model</text>
</g>
<!-- better_iiv&#45;&gt;best_model_iiv_yes -->
<g id="edge9" class="edge">
<title>better_iiv&#45;&gt;best_model_iiv_yes</title>
<path fill="none" stroke="black" d="M357.55,-159.8C348.35,-147.59 335.86,-130.99 325.53,-117.28"/>
<polygon fill="black" stroke="black" points="328.24,-115.06 319.43,-109.18 322.65,-119.27 328.24,-115.06"/>
<text text-anchor="middle" x="355" y="-130.8" font-family="Times,serif" font-size="14.00">Yes</text>
</g>
<!-- best_model_iiv_no -->
<g id="node10" class="node">
<title>best_model_iiv_no</title>
<polygon fill="none" stroke="black" points="633,-109 434,-109 434,-73 633,-73 633,-109"/>
<text text-anchor="middle" x="533.5" y="-87.3" font-family="Times,serif" font-size="14.00">Select model with all IIVs</text>
</g>
<!-- better_iiv&#45;&gt;best_model_iiv_no -->
<g id="edge10" class="edge">
<title>better_iiv&#45;&gt;best_model_iiv_no</title>
<path fill="none" stroke="black" d="M403.49,-159.8C428.98,-146.51 464.42,-128.02 491.87,-113.71"/>
<polygon fill="black" stroke="black" points="493.59,-116.76 500.84,-109.03 490.36,-110.55 493.59,-116.76"/>
<text text-anchor="middle" x="472" y="-130.8" font-family="Times,serif" font-size="14.00">No</text>
</g>
<!-- best_model_iiv_yes&#45;&gt;done -->
<g id="edge11" class="edge">
<title>best_model_iiv_yes&#45;&gt;done</title>
<path fill="none" stroke="black" d="M306.5,-72.81C306.5,-64.79 306.5,-55.05 306.5,-46.07"/>
<polygon fill="black" stroke="black" points="310,-46.03 306.5,-36.03 303,-46.03 310,-46.03"/>
</g>
<!-- best_model_iiv_no&#45;&gt;done -->
<g id="edge12" class="edge">
<title>best_model_iiv_no&#45;&gt;done</title>
<path fill="none" stroke="black" d="M479.13,-72.99C444.6,-62.19 399.94,-48.23 364.7,-37.2"/>
<polygon fill="black" stroke="black" points="365.61,-33.82 355.02,-34.18 363.52,-40.5 365.61,-33.82"/>
</g>
</g>
</svg>
