<?xml version="1.0" encoding="UTF-8" standalone="no"?>
<!DOCTYPE svg PUBLIC "-//W3C//DTD SVG 1.1//EN"
 "http://www.w3.org/Graphics/SVG/1.1/DTD/svg11.dtd">
<!-- Generated by graphviz version 2.43.0 (0)
 -->
<!-- Title: BST Pages: 1 -->
<svg width="560pt" height="188pt"
 viewBox="0.00 0.00 559.84 188.00" xmlns="http://www.w3.org/2000/svg" xmlns:xlink="http://www.w3.org/1999/xlink">
<g id="graph0" class="graph" transform="scale(1 1) rotate(0) translate(4 184)">
<title>BST</title>
<polygon fill="white" stroke="transparent" points="-4,4 -4,-184 555.84,-184 555.84,4 -4,4"/>
<!-- s1 -->
<g id="node1" class="node">
<title>s1</title>
<ellipse fill="none" stroke="black" cx="304.39" cy="-162" rx="27" ry="18"/>
<text text-anchor="middle" x="304.39" y="-158.3" font-family="Arial" font-size="14.00">[CL]</text>
</g>
<!-- s2 -->
<g id="node2" class="node">
<title>s2</title>
<ellipse fill="none" stroke="black" cx="130.39" cy="-90" rx="41.69" ry="18"/>
<text text-anchor="middle" x="130.39" y="-86.3" font-family="Arial" font-size="14.00">[CL,VC]</text>
</g>
<!-- s1&#45;&gt;s2 -->
<g id="edge1" class="edge">
<title>s1&#45;&gt;s2</title>
<path fill="none" stroke="black" d="M281.65,-151.85C253.1,-140.37 203.71,-120.49 169.16,-106.59"/>
<polygon fill="black" stroke="black" points="170.42,-103.33 159.83,-102.84 167.8,-109.82 170.42,-103.33"/>
</g>
<!-- s3 -->
<g id="node3" class="node">
<title>s3</title>
<ellipse fill="none" stroke="black" cx="244.39" cy="-90" rx="53.89" ry="18"/>
<text text-anchor="middle" x="244.39" y="-86.3" font-family="Arial" font-size="14.00">[CL] + [VC]</text>
</g>
<!-- s1&#45;&gt;s3 -->
<g id="edge2" class="edge">
<title>s1&#45;&gt;s3</title>
<path fill="none" stroke="black" d="M291.37,-145.81C283.76,-136.93 273.97,-125.5 265.3,-115.39"/>
<polygon fill="black" stroke="black" points="267.81,-112.94 258.65,-107.63 262.5,-117.5 267.81,-112.94"/>
</g>
<!-- s4 -->
<g id="node4" class="node">
<title>s4</title>
<ellipse fill="none" stroke="black" cx="364.39" cy="-90" rx="48.19" ry="18"/>
<text text-anchor="middle" x="364.39" y="-86.3" font-family="Arial" font-size="14.00">[CL,MAT]</text>
</g>
<!-- s1&#45;&gt;s4 -->
<g id="edge3" class="edge">
<title>s1&#45;&gt;s4</title>
<path fill="none" stroke="black" d="M317.41,-145.81C325.03,-136.93 334.82,-125.5 343.49,-115.39"/>
<polygon fill="black" stroke="black" points="346.29,-117.5 350.14,-107.63 340.98,-112.94 346.29,-117.5"/>
</g>
<!-- s5 -->
<g id="node5" class="node">
<title>s5</title>
<ellipse fill="none" stroke="black" cx="491.39" cy="-90" rx="60.39" ry="18"/>
<text text-anchor="middle" x="491.39" y="-86.3" font-family="Arial" font-size="14.00">[CL] + [MAT]</text>
</g>
<!-- s1&#45;&gt;s5 -->
<g id="edge4" class="edge">
<title>s1&#45;&gt;s5</title>
<path fill="none" stroke="black" d="M327.32,-152.42C356.6,-141.46 407.94,-122.24 445.41,-108.21"/>
<polygon fill="black" stroke="black" points="446.96,-111.37 455.1,-104.58 444.51,-104.81 446.96,-111.37"/>
</g>
<!-- s6 -->
<g id="node6" class="node">
<title>s6</title>
<ellipse fill="none" stroke="black" cx="75.39" cy="-18" rx="75.29" ry="18"/>
<text text-anchor="middle" x="75.39" y="-14.3" font-family="Arial" font-size="14.00">[CL,MAT] + [VC]</text>
</g>
<!-- s3&#45;&gt;s6 -->
<g id="edge5" class="edge">
<title>s3&#45;&gt;s6</title>
<path fill="none" stroke="black" d="M211.81,-75.5C185.96,-64.8 149.52,-49.7 120.8,-37.81"/>
<polygon fill="black" stroke="black" points="121.97,-34.5 111.39,-33.91 119.29,-40.97 121.97,-34.5"/>
</g>
<!-- s7 -->
<g id="node7" class="node">
<title>s7</title>
<ellipse fill="none" stroke="black" cx="244.39" cy="-18" rx="75.29" ry="18"/>
<text text-anchor="middle" x="244.39" y="-14.3" font-family="Arial" font-size="14.00">[CL] + [VC,MAT]</text>
</g>
<!-- s3&#45;&gt;s7 -->
<g id="edge6" class="edge">
<title>s3&#45;&gt;s7</title>
<path fill="none" stroke="black" d="M244.39,-71.7C244.39,-63.98 244.39,-54.71 244.39,-46.11"/>
<polygon fill="black" stroke="black" points="247.89,-46.1 244.39,-36.1 240.89,-46.1 247.89,-46.1"/>
</g>
<!-- s8 -->
<g id="node8" class="node">
<title>s8</title>
<ellipse fill="none" stroke="black" cx="425.39" cy="-18" rx="87.99" ry="18"/>
<text text-anchor="middle" x="425.39" y="-14.3" font-family="Arial" font-size="14.00">[CL] + [VC] + [MAT]</text>
</g>
<!-- s3&#45;&gt;s8 -->
<g id="edge7" class="edge">
<title>s3&#45;&gt;s8</title>
<path fill="none" stroke="black" d="M278.44,-75.83C306.19,-65.1 345.72,-49.81 376.8,-37.79"/>
<polygon fill="black" stroke="black" points="378.09,-41.05 386.15,-34.18 375.56,-34.52 378.09,-41.05"/>
</g>
</g>
</svg>
