<?xml version="1.0" encoding="UTF-8" standalone="no"?>
<!DOCTYPE svg PUBLIC "-//W3C//DTD SVG 1.1//EN"
 "http://www.w3.org/Graphics/SVG/1.1/DTD/svg11.dtd">
<!-- Generated by graphviz version 2.43.0 (0)
 -->
<!-- Title: BST Pages: 1 -->
<svg width="492pt" height="44pt"
 viewBox="0.00 0.00 491.89 44.00" xmlns="http://www.w3.org/2000/svg" xmlns:xlink="http://www.w3.org/1999/xlink">
<g id="graph0" class="graph" transform="scale(1 1) rotate(0) translate(4 40)">
<title>BST</title>
<polygon fill="white" stroke="transparent" points="-4,4 -4,-40 487.89,-40 487.89,4 -4,4"/>
<!-- base -->
<g id="node1" class="node">
<title>base</title>
<ellipse fill="none" stroke="black" cx="30.55" cy="-18" rx="30.59" ry="18"/>
<text text-anchor="middle" x="30.55" y="-14.3" font-family="Arial" font-size="14.00">Input</text>
</g>
<!-- s0 -->
<g id="node2" class="node">
<title>s0</title>
<polygon fill="none" stroke="black" points="161.09,-36 97.09,-36 97.09,0 161.09,0 161.09,-36"/>
<text text-anchor="middle" x="129.09" y="-14.3" font-family="Arial" font-size="14.00">residual</text>
</g>
<!-- base&#45;&gt;s0 -->
<g id="edge1" class="edge">
<title>base&#45;&gt;s0</title>
<path fill="none" stroke="black" d="M61.3,-18C69.34,-18 78.18,-18 86.73,-18"/>
<polygon fill="black" stroke="black" points="86.93,-21.5 96.93,-18 86.93,-14.5 86.93,-21.5"/>
</g>
<!-- s1 -->
<g id="node3" class="node">
<title>s1</title>
<polygon fill="none" stroke="black" points="269.09,-36 197.09,-36 197.09,0 269.09,0 269.09,-36"/>
<text text-anchor="middle" x="233.09" y="-14.3" font-family="Arial" font-size="14.00">structural</text>
</g>
<!-- s0&#45;&gt;s1 -->
<g id="edge2" class="edge">
<title>s0&#45;&gt;s1</title>
<path fill="none" stroke="black" d="M161.25,-18C169.25,-18 178.02,-18 186.58,-18"/>
<polygon fill="black" stroke="black" points="186.85,-21.5 196.85,-18 186.85,-14.5 186.85,-21.5"/>
</g>
<!-- s2 -->
<g id="node4" class="node">
<title>s2</title>
<polygon fill="none" stroke="black" points="375.09,-36 305.09,-36 305.09,0 375.09,0 375.09,-36"/>
<text text-anchor="middle" x="340.09" y="-14.3" font-family="Arial" font-size="14.00">iivsearch</text>
</g>
<!-- s1&#45;&gt;s2 -->
<g id="edge3" class="edge">
<title>s1&#45;&gt;s2</title>
<path fill="none" stroke="black" d="M269.35,-18C277.48,-18 286.24,-18 294.7,-18"/>
<polygon fill="black" stroke="black" points="294.82,-21.5 304.82,-18 294.82,-14.5 294.82,-21.5"/>
</g>
<!-- s3 -->
<g id="node5" class="node">
<title>s3</title>
<ellipse fill="none" stroke="black" cx="447.49" cy="-18" rx="36.29" ry="18"/>
<text text-anchor="middle" x="447.49" y="-14.3" font-family="Arial" font-size="14.00">results</text>
</g>
<!-- s2&#45;&gt;s3 -->
<g id="edge4" class="edge">
<title>s2&#45;&gt;s3</title>
<path fill="none" stroke="black" d="M375.31,-18C383.43,-18 392.22,-18 400.76,-18"/>
<polygon fill="black" stroke="black" points="401,-21.5 411,-18 401,-14.5 401,-21.5"/>
</g>
</g>
</svg>
