<?xml version="1.0" encoding="UTF-8" standalone="no"?>
<!DOCTYPE svg PUBLIC "-//W3C//DTD SVG 1.1//EN"
 "http://www.w3.org/Graphics/SVG/1.1/DTD/svg11.dtd">
<!-- Generated by graphviz version 2.43.0 (0)
 -->
<!-- Title: BST Pages: 1 -->
<svg width="835pt" height="44pt"
 viewBox="0.00 0.00 835.48 44.00" xmlns="http://www.w3.org/2000/svg" xmlns:xlink="http://www.w3.org/1999/xlink">
<g id="graph0" class="graph" transform="scale(1 1) rotate(0) translate(4 40)">
<title>BST</title>
<polygon fill="white" stroke="transparent" points="-4,4 -4,-40 831.48,-40 831.48,4 -4,4"/>
<!-- base -->
<g id="node1" class="node">
<title>base</title>
<ellipse fill="none" stroke="black" cx="107.24" cy="-18" rx="107.48" ry="18"/>
<text text-anchor="middle" x="107.24" y="-14.3" font-family="Arial" font-size="14.00">Input PK model / dataset</text>
</g>
<!-- s0 -->
<g id="node2" class="node">
<title>s0</title>
<polygon fill="none" stroke="black" points="363.48,-36 250.48,-36 250.48,0 363.48,0 363.48,-36"/>
<text text-anchor="middle" x="306.98" y="-14.3" font-family="Arial" font-size="14.00">AMD &#45; basic_pk</text>
</g>
<!-- base&#45;&gt;s0 -->
<g id="edge1" class="edge">
<title>base&#45;&gt;s0</title>
<path fill="none" stroke="black" d="M214.64,-18C223.31,-18 231.91,-18 240.16,-18"/>
<polygon fill="black" stroke="black" points="240.41,-21.5 250.41,-18 240.41,-14.5 240.41,-21.5"/>
</g>
<!-- s1 -->
<g id="node3" class="node">
<title>s1</title>
<polygon fill="none" stroke="black" points="486.48,-36 399.48,-36 399.48,0 486.48,0 486.48,-36"/>
<text text-anchor="middle" x="442.98" y="-14.3" font-family="Arial" font-size="14.00">Final model</text>
</g>
<!-- s0&#45;&gt;s1 -->
<g id="edge2" class="edge">
<title>s0&#45;&gt;s1</title>
<path fill="none" stroke="black" d="M363.64,-18C372.13,-18 380.87,-18 389.29,-18"/>
<polygon fill="black" stroke="black" points="389.36,-21.5 399.36,-18 389.36,-14.5 389.36,-21.5"/>
</g>
<!-- s2 -->
<g id="node4" class="node">
<title>s2</title>
<polygon fill="none" stroke="black" points="702.48,-36 522.48,-36 522.48,0 702.48,0 702.48,-36"/>
<text text-anchor="middle" x="612.48" y="-14.3" font-family="Arial" font-size="14.00">Final model + pkpd dataset</text>
</g>
<!-- s1&#45;&gt;s2 -->
<g id="edge3" class="edge">
<title>s1&#45;&gt;s2</title>
<path fill="none" stroke="black" d="M486.68,-18C494.64,-18 503.25,-18 512.11,-18"/>
<polygon fill="black" stroke="black" points="512.19,-21.5 522.19,-18 512.19,-14.5 512.19,-21.5"/>
</g>
<!-- s3 -->
<g id="node5" class="node">
<title>s3</title>
<polygon fill="none" stroke="black" points="827.48,-36 738.48,-36 738.48,0 827.48,0 827.48,-36"/>
<text text-anchor="middle" x="782.98" y="-14.3" font-family="Arial" font-size="14.00">AMD &#45; pkpd</text>
</g>
<!-- s2&#45;&gt;s3 -->
<g id="edge4" class="edge">
<title>s2&#45;&gt;s3</title>
<path fill="none" stroke="black" d="M702.66,-18C711.32,-18 719.91,-18 728.06,-18"/>
<polygon fill="black" stroke="black" points="728.13,-21.5 738.13,-18 728.13,-14.5 728.13,-21.5"/>
</g>
</g>
</svg>
