<?xml version="1.0" encoding="UTF-8" standalone="no"?>
<!DOCTYPE svg PUBLIC "-//W3C//DTD SVG 1.1//EN"
 "http://www.w3.org/Graphics/SVG/1.1/DTD/svg11.dtd">
<!-- Generated by graphviz version 2.43.0 (0)
 -->
<!-- Title: BST Pages: 1 -->
<svg width="682pt" height="116pt"
 viewBox="0.00 0.00 681.69 116.00" xmlns="http://www.w3.org/2000/svg" xmlns:xlink="http://www.w3.org/1999/xlink">
<g id="graph0" class="graph" transform="scale(1 1) rotate(0) translate(4 112)">
<title>BST</title>
<polygon fill="white" stroke="transparent" points="-4,4 -4,-112 677.69,-112 677.69,4 -4,4"/>
<!-- base -->
<g id="node1" class="node">
<title>base</title>
<ellipse fill="none" stroke="black" cx="279" cy="-90" rx="83.39" ry="18"/>
<text text-anchor="middle" x="279" y="-86.3" font-family="Arial" font-size="14.00">[CL,VC,MAT,MDT]</text>
</g>
<!-- s1 -->
<g id="node2" class="node">
<title>s1</title>
<ellipse fill="none" stroke="black" cx="27" cy="-18" rx="27" ry="18"/>
<text text-anchor="middle" x="27" y="-14.3" font-family="Arial" font-size="14.00">[CL]</text>
</g>
<!-- base&#45;&gt;s1 -->
<g id="edge1" class="edge">
<title>base&#45;&gt;s1</title>
<path fill="none" stroke="black" d="M218.46,-77.54C174.63,-68.43 114.31,-54.2 63,-36 61.09,-35.32 59.15,-34.58 57.21,-33.79"/>
<polygon fill="black" stroke="black" points="58.21,-30.41 47.64,-29.61 55.4,-36.82 58.21,-30.41"/>
</g>
<!-- s2 -->
<g id="node3" class="node">
<title>s2</title>
<ellipse fill="none" stroke="black" cx="114" cy="-18" rx="41.69" ry="18"/>
<text text-anchor="middle" x="114" y="-14.3" font-family="Arial" font-size="14.00">[CL,VC]</text>
</g>
<!-- base&#45;&gt;s2 -->
<g id="edge2" class="edge">
<title>base&#45;&gt;s2</title>
<path fill="none" stroke="black" d="M242.79,-73.64C215.89,-62.23 179.28,-46.7 151.97,-35.11"/>
<polygon fill="black" stroke="black" points="153.3,-31.87 142.73,-31.19 150.57,-38.32 153.3,-31.87"/>
</g>
<!-- s3 -->
<g id="node4" class="node">
<title>s3</title>
<ellipse fill="none" stroke="black" cx="222" cy="-18" rx="48.19" ry="18"/>
<text text-anchor="middle" x="222" y="-14.3" font-family="Arial" font-size="14.00">[CL,MAT]</text>
</g>
<!-- base&#45;&gt;s3 -->
<g id="edge3" class="edge">
<title>base&#45;&gt;s3</title>
<path fill="none" stroke="black" d="M265.2,-72.05C258.17,-63.42 249.49,-52.76 241.76,-43.27"/>
<polygon fill="black" stroke="black" points="244.31,-40.85 235.28,-35.31 238.88,-45.27 244.31,-40.85"/>
</g>
<!-- s4 -->
<g id="node5" class="node">
<title>s4</title>
<ellipse fill="none" stroke="black" cx="337" cy="-18" rx="48.99" ry="18"/>
<text text-anchor="middle" x="337" y="-14.3" font-family="Arial" font-size="14.00">[CL,MDT]</text>
</g>
<!-- base&#45;&gt;s4 -->
<g id="edge4" class="edge">
<title>base&#45;&gt;s4</title>
<path fill="none" stroke="black" d="M293.04,-72.05C300.2,-63.42 309.03,-52.76 316.89,-43.27"/>
<polygon fill="black" stroke="black" points="319.8,-45.24 323.49,-35.31 314.41,-40.77 319.8,-45.24"/>
</g>
<!-- s5 -->
<g id="node6" class="node">
<title>s5</title>
<ellipse fill="none" stroke="black" cx="466" cy="-18" rx="62.29" ry="18"/>
<text text-anchor="middle" x="466" y="-14.3" font-family="Arial" font-size="14.00">[CL,VC,MAT]</text>
</g>
<!-- base&#45;&gt;s5 -->
<g id="edge5" class="edge">
<title>base&#45;&gt;s5</title>
<path fill="none" stroke="black" d="M318.66,-74.15C348.26,-63.07 388.79,-47.9 419.84,-36.28"/>
<polygon fill="black" stroke="black" points="421.43,-39.42 429.57,-32.64 418.98,-32.86 421.43,-39.42"/>
</g>
<!-- s6 -->
<g id="node7" class="node">
<title>s6</title>
<ellipse fill="none" stroke="black" cx="610" cy="-18" rx="63.89" ry="18"/>
<text text-anchor="middle" x="610" y="-14.3" font-family="Arial" font-size="14.00">[CL,VC,MDT]</text>
</g>
<!-- base&#45;&gt;s6 -->
<g id="edge6" class="edge">
<title>base&#45;&gt;s6</title>
<path fill="none" stroke="black" d="M338.27,-77.28C390.62,-66.82 468.99,-50.9 537,-36 542.24,-34.85 547.69,-33.63 553.14,-32.39"/>
<polygon fill="black" stroke="black" points="553.95,-35.8 562.92,-30.16 552.39,-28.98 553.95,-35.8"/>
</g>
</g>
</svg>
