<?xml version="1.0" encoding="UTF-8" standalone="no"?>
<!DOCTYPE svg PUBLIC "-//W3C//DTD SVG 1.1//EN"
 "http://www.w3.org/Graphics/SVG/1.1/DTD/svg11.dtd">
<!-- Generated by graphviz version 2.43.0 (0)
 -->
<!-- Title: BST Pages: 1 -->
<svg width="716pt" height="116pt"
 viewBox="0.00 0.00 716.39 116.00" xmlns="http://www.w3.org/2000/svg" xmlns:xlink="http://www.w3.org/1999/xlink">
<g id="graph0" class="graph" transform="scale(1 1) rotate(0) translate(4 112)">
<title>BST</title>
<polygon fill="white" stroke="transparent" points="-4,4 -4,-112 712.39,-112 712.39,4 -4,4"/>
<!-- base -->
<g id="node1" class="node">
<title>base</title>
<ellipse fill="none" stroke="black" cx="369.49" cy="-90" rx="57.69" ry="18"/>
<text text-anchor="middle" x="369.49" y="-86.3" font-family="Arial" font-size="14.00">Base model</text>
</g>
<!-- s0 -->
<g id="node2" class="node">
<title>s0</title>
<ellipse fill="none" stroke="black" cx="71.49" cy="-18" rx="71.49" ry="18"/>
<text text-anchor="middle" x="71.49" y="-14.3" font-family="Arial" font-size="14.00">[CL]+[V]+[MAT]</text>
</g>
<!-- base&#45;&gt;s0 -->
<g id="edge1" class="edge">
<title>base&#45;&gt;s0</title>
<path fill="none" stroke="black" d="M324.88,-78.52C273.57,-66.47 189.06,-46.62 131.89,-33.19"/>
<polygon fill="black" stroke="black" points="132.44,-29.72 121.9,-30.84 130.84,-36.53 132.44,-29.72"/>
</g>
<!-- s1 -->
<g id="node3" class="node">
<title>s1</title>
<ellipse fill="none" stroke="black" cx="224.49" cy="-18" rx="63.89" ry="18"/>
<text text-anchor="middle" x="224.49" y="-14.3" font-family="Arial" font-size="14.00">[CL,V]+[MAT]</text>
</g>
<!-- base&#45;&gt;s1 -->
<g id="edge2" class="edge">
<title>base&#45;&gt;s1</title>
<path fill="none" stroke="black" d="M339.45,-74.5C317.77,-64.03 288.28,-49.79 264.59,-38.36"/>
<polygon fill="black" stroke="black" points="266.03,-35.16 255.5,-33.97 262.98,-41.47 266.03,-35.16"/>
</g>
<!-- s2 -->
<g id="node4" class="node">
<title>s2</title>
<ellipse fill="none" stroke="black" cx="369.49" cy="-18" rx="63.89" ry="18"/>
<text text-anchor="middle" x="369.49" y="-14.3" font-family="Arial" font-size="14.00">[CL,MAT]+[V]</text>
</g>
<!-- base&#45;&gt;s2 -->
<g id="edge3" class="edge">
<title>base&#45;&gt;s2</title>
<path fill="none" stroke="black" d="M369.49,-71.7C369.49,-63.98 369.49,-54.71 369.49,-46.11"/>
<polygon fill="black" stroke="black" points="372.99,-46.1 369.49,-36.1 365.99,-46.1 372.99,-46.1"/>
</g>
<!-- s3 -->
<g id="node5" class="node">
<title>s3</title>
<ellipse fill="none" stroke="black" cx="514.49" cy="-18" rx="63.89" ry="18"/>
<text text-anchor="middle" x="514.49" y="-14.3" font-family="Arial" font-size="14.00">[V,MAT]+[CL]</text>
</g>
<!-- base&#45;&gt;s3 -->
<g id="edge4" class="edge">
<title>base&#45;&gt;s3</title>
<path fill="none" stroke="black" d="M399.54,-74.5C421.21,-64.03 450.71,-49.79 474.39,-38.36"/>
<polygon fill="black" stroke="black" points="476,-41.47 483.49,-33.97 472.96,-35.16 476,-41.47"/>
</g>
<!-- s4 -->
<g id="node6" class="node">
<title>s4</title>
<ellipse fill="none" stroke="black" cx="652.49" cy="-18" rx="55.79" ry="18"/>
<text text-anchor="middle" x="652.49" y="-14.3" font-family="Arial" font-size="14.00">[CL,V,MAT]</text>
</g>
<!-- base&#45;&gt;s4 -->
<g id="edge5" class="edge">
<title>base&#45;&gt;s4</title>
<path fill="none" stroke="black" d="M414.22,-78.36C458.33,-67.82 527.63,-51.1 587.49,-36 591.81,-34.91 596.28,-33.77 600.77,-32.61"/>
<polygon fill="black" stroke="black" points="601.76,-35.97 610.56,-30.08 600,-29.2 601.76,-35.97"/>
</g>
</g>
</svg>
