<?xml version="1.0" encoding="UTF-8" standalone="no"?>
<!DOCTYPE svg PUBLIC "-//W3C//DTD SVG 1.1//EN"
 "http://www.w3.org/Graphics/SVG/1.1/DTD/svg11.dtd">
<!-- Generated by graphviz version 2.43.0 (0)
 -->
<!-- Title: BST Pages: 1 -->
<svg width="2111pt" height="116pt"
 viewBox="0.00 0.00 2110.82 116.00" xmlns="http://www.w3.org/2000/svg" xmlns:xlink="http://www.w3.org/1999/xlink">
<g id="graph0" class="graph" transform="scale(1 1) rotate(0) translate(4 112)">
<title>BST</title>
<polygon fill="white" stroke="transparent" points="-4,4 -4,-112 2106.82,-112 2106.82,4 -4,4"/>
<!-- base -->
<g id="node1" class="node">
<title>base</title>
<ellipse fill="none" stroke="black" cx="742.74" cy="-90" rx="57.69" ry="18"/>
<text text-anchor="middle" x="742.74" y="-86.3" font-family="Arial" font-size="14.00">Base model</text>
</g>
<!-- s1 -->
<g id="node2" class="node">
<title>s1</title>
<ellipse fill="none" stroke="black" cx="87.74" cy="-18" rx="87.99" ry="18"/>
<text text-anchor="middle" x="87.74" y="-14.3" font-family="Arial" font-size="14.00">ABSORPTION(ZO)</text>
</g>
<!-- base&#45;&gt;s1 -->
<g id="edge1" class="edge">
<title>base&#45;&gt;s1</title>
<path fill="none" stroke="black" d="M686.74,-85.15C586.02,-77.9 367.73,-60.69 184.74,-36 176.79,-34.93 168.5,-33.68 160.25,-32.35"/>
<polygon fill="black" stroke="black" points="160.68,-28.87 150.24,-30.7 159.54,-35.78 160.68,-28.87"/>
</g>
<!-- s2 -->
<g id="node3" class="node">
<title>s2</title>
<ellipse fill="none" stroke="black" cx="282.74" cy="-18" rx="89.08" ry="18"/>
<text text-anchor="middle" x="282.74" y="-14.3" font-family="Arial" font-size="14.00">ELIMINATION(MM)</text>
</g>
<!-- base&#45;&gt;s2 -->
<g id="edge2" class="edge">
<title>base&#45;&gt;s2</title>
<path fill="none" stroke="black" d="M690.82,-81.84C620.47,-72.03 490.97,-53.63 380.74,-36 373.13,-34.78 365.19,-33.47 357.27,-32.14"/>
<polygon fill="black" stroke="black" points="357.72,-28.67 347.28,-30.44 356.55,-35.57 357.72,-28.67"/>
</g>
<!-- s3 -->
<g id="node4" class="node">
<title>s3</title>
<ellipse fill="none" stroke="black" cx="472.74" cy="-18" rx="83.39" ry="18"/>
<text text-anchor="middle" x="472.74" y="-14.3" font-family="Arial" font-size="14.00">PERIPHERALS(1)</text>
</g>
<!-- base&#45;&gt;s3 -->
<g id="edge3" class="edge">
<title>base&#45;&gt;s3</title>
<path fill="none" stroke="black" d="M699.66,-77.83C654.86,-66.21 584.33,-47.93 533.79,-34.83"/>
<polygon fill="black" stroke="black" points="534.52,-31.4 523.97,-32.28 532.77,-38.18 534.52,-31.4"/>
</g>
<!-- s4 -->
<g id="node5" class="node">
<title>s4</title>
<ellipse fill="none" stroke="black" cx="742.74" cy="-18" rx="168.17" ry="18"/>
<text text-anchor="middle" x="742.74" y="-14.3" font-family="Arial" font-size="14.00">ABSORPTION(ZO);ELIMINATION(MM)</text>
</g>
<!-- base&#45;&gt;s4 -->
<g id="edge4" class="edge">
<title>base&#45;&gt;s4</title>
<path fill="none" stroke="black" d="M742.74,-71.7C742.74,-63.98 742.74,-54.71 742.74,-46.11"/>
<polygon fill="black" stroke="black" points="746.24,-46.1 742.74,-36.1 739.24,-46.1 746.24,-46.1"/>
</g>
<!-- s5 -->
<g id="node6" class="node">
<title>s5</title>
<ellipse fill="none" stroke="black" cx="1091.74" cy="-18" rx="162.47" ry="18"/>
<text text-anchor="middle" x="1091.74" y="-14.3" font-family="Arial" font-size="14.00">ABSORPTION(ZO);PERIPHERALS(1)</text>
</g>
<!-- base&#45;&gt;s5 -->
<g id="edge5" class="edge">
<title>base&#45;&gt;s5</title>
<path fill="none" stroke="black" d="M790.17,-79.49C845.77,-68.33 938.97,-49.64 1007.06,-35.98"/>
<polygon fill="black" stroke="black" points="1007.81,-39.41 1016.92,-34.01 1006.43,-32.54 1007.81,-39.41"/>
</g>
<!-- s6 -->
<g id="node7" class="node">
<title>s6</title>
<ellipse fill="none" stroke="black" cx="1435.74" cy="-18" rx="163.27" ry="18"/>
<text text-anchor="middle" x="1435.74" y="-14.3" font-family="Arial" font-size="14.00">ELIMINATION(MM);PERIPHERALS(1)</text>
</g>
<!-- base&#45;&gt;s6 -->
<g id="edge6" class="edge">
<title>base&#45;&gt;s6</title>
<path fill="none" stroke="black" d="M796.83,-83.54C906.29,-72.48 1156.58,-47.2 1309.39,-31.76"/>
<polygon fill="black" stroke="black" points="1310.16,-35.2 1319.76,-30.72 1309.46,-28.24 1310.16,-35.2"/>
</g>
<!-- s7 -->
<g id="node8" class="node">
<title>s7</title>
<ellipse fill="none" stroke="black" cx="1859.74" cy="-18" rx="243.16" ry="18"/>
<text text-anchor="middle" x="1859.74" y="-14.3" font-family="Arial" font-size="14.00">ABSORPTION(ZO);ELIMINATION(MM);PERIPHERALS(1)</text>
</g>
<!-- base&#45;&gt;s7 -->
<g id="edge7" class="edge">
<title>base&#45;&gt;s7</title>
<path fill="none" stroke="black" d="M798.92,-85.68C936.73,-77.5 1302.57,-55.64 1607.74,-36 1630.33,-34.55 1654.06,-32.99 1677.55,-31.42"/>
<polygon fill="black" stroke="black" points="1677.85,-34.91 1687.59,-30.76 1677.38,-27.93 1677.85,-34.91"/>
</g>
</g>
</svg>
