<?xml version="1.0" encoding="UTF-8" standalone="no"?>
<!DOCTYPE svg PUBLIC "-//W3C//DTD SVG 1.1//EN"
 "http://www.w3.org/Graphics/SVG/1.1/DTD/svg11.dtd">
<!-- Generated by graphviz version 2.43.0 (0)
 -->
<!-- Title: G Pages: 1 -->
<svg width="506pt" height="277pt"
 viewBox="0.00 0.00 505.94 277.00" xmlns="http://www.w3.org/2000/svg" xmlns:xlink="http://www.w3.org/1999/xlink">
<g id="graph0" class="graph" transform="scale(1 1) rotate(0) translate(4 273)">
<title>G</title>
<polygon fill="white" stroke="transparent" points="-4,4 -4,-273 501.94,-273 501.94,4 -4,4"/>
<!-- input_model -->
<g id="node1" class="node">
<title>input_model</title>
<ellipse fill="none" stroke="black" cx="66.94" cy="-251" rx="66.89" ry="18"/>
<text text-anchor="middle" x="66.94" y="-247.3" font-family="Times,serif" font-size="14.00">Input model</text>
</g>
<!-- input_ss -->
<g id="node3" class="node">
<title>input_ss</title>
<ellipse fill="none" stroke="black" cx="144.94" cy="-178" rx="109.38" ry="18"/>
<text text-anchor="middle" x="144.94" y="-174.3" font-family="Times,serif" font-size="14.00">Input + search space</text>
</g>
<!-- input_model&#45;&gt;input_ss -->
<g id="edge1" class="edge">
<title>input_model&#45;&gt;input_ss</title>
<path fill="none" stroke="black" d="M85.03,-233.53C95.13,-224.35 107.87,-212.75 119.01,-202.61"/>
<polygon fill="black" stroke="black" points="121.37,-205.19 126.41,-195.87 116.66,-200.01 121.37,-205.19"/>
</g>
<!-- search_space -->
<g id="node2" class="node">
<title>search_space</title>
<ellipse fill="none" stroke="black" cx="223.94" cy="-251" rx="72.29" ry="18"/>
<text text-anchor="middle" x="223.94" y="-247.3" font-family="Times,serif" font-size="14.00">Search space</text>
</g>
<!-- search_space&#45;&gt;input_ss -->
<g id="edge2" class="edge">
<title>search_space&#45;&gt;input_ss</title>
<path fill="none" stroke="black" d="M205.62,-233.53C195.4,-224.35 182.49,-212.75 171.21,-202.61"/>
<polygon fill="black" stroke="black" points="173.49,-199.95 163.72,-195.87 168.81,-205.16 173.49,-199.95"/>
</g>
<!-- filter_model -->
<g id="node4" class="node">
<title>filter_model</title>
<ellipse fill="none" stroke="black" cx="140.94" cy="-18" rx="115.88" ry="18"/>
<text text-anchor="middle" x="140.94" y="-14.3" font-family="Times,serif" font-size="14.00">Start model for search</text>
</g>
<!-- input_ss&#45;&gt;filter_model -->
<g id="edge5" class="edge">
<title>input_ss&#45;&gt;filter_model</title>
<path fill="none" stroke="black" d="M141.31,-159.96C136.59,-136.5 128.94,-98.5 128.94,-98.5 128.94,-98.5 133.26,-69.56 136.71,-46.38"/>
<polygon fill="black" stroke="black" points="140.21,-46.67 138.22,-36.27 133.28,-45.64 140.21,-46.67"/>
<text text-anchor="middle" x="228.44" y="-87.3" font-family="Times,serif" font-size="14.00">Input model ∈ search space</text>
</g>
<!-- create_base -->
<g id="node5" class="node">
<title>create_base</title>
<ellipse fill="none" stroke="black" cx="420.94" cy="-91" rx="74.99" ry="18"/>
<text text-anchor="middle" x="420.94" y="-87.3" font-family="Times,serif" font-size="14.00">Create a base</text>
</g>
<!-- input_ss&#45;&gt;create_base -->
<g id="edge3" class="edge">
<title>input_ss&#45;&gt;create_base</title>
<path fill="none" stroke="black" d="M193.97,-161.9C242.62,-146.92 316.99,-124.02 367.22,-108.55"/>
<polygon fill="black" stroke="black" points="368.4,-111.84 376.93,-105.56 366.34,-105.15 368.4,-111.84"/>
<text text-anchor="middle" x="398.44" y="-130.8" font-family="Times,serif" font-size="14.00">Input model ∉ search space</text>
</g>
<!-- create_base&#45;&gt;filter_model -->
<g id="edge4" class="edge">
<title>create_base&#45;&gt;filter_model</title>
<path fill="none" stroke="black" d="M371.53,-77.47C326.2,-65.97 258.66,-48.85 208.38,-36.1"/>
<polygon fill="black" stroke="black" points="209.12,-32.68 198.56,-33.61 207.4,-39.46 209.12,-32.68"/>
</g>
</g>
</svg>
