<?xml version="1.0" encoding="UTF-8" standalone="no"?>
<!DOCTYPE svg PUBLIC "-//W3C//DTD SVG 1.1//EN"
 "http://www.w3.org/Graphics/SVG/1.1/DTD/svg11.dtd">
<!-- Generated by graphviz version 2.43.0 (0)
 -->
<!-- Title: G Pages: 1 -->
<svg width="496pt" height="496pt"
 viewBox="0.00 0.00 496.24 496.00" xmlns="http://www.w3.org/2000/svg" xmlns:xlink="http://www.w3.org/1999/xlink">
<g id="graph0" class="graph" transform="scale(1 1) rotate(0) translate(4 492)">
<title>G</title>
<polygon fill="white" stroke="transparent" points="-4,4 -4,-492 492.24,-492 492.24,4 -4,4"/>
<!-- input -->
<g id="node1" class="node">
<title>input</title>
<ellipse fill="none" stroke="black" cx="256.24" cy="-470" rx="99.38" ry="18"/>
<text text-anchor="middle" x="256.24" y="-466.3" font-family="Times,serif" font-size="14.00">Models and results</text>
</g>
<!-- s0 -->
<g id="node2" class="node">
<title>s0</title>
<polygon fill="none" stroke="black" points="431.24,-415 81.24,-415 81.24,-379 431.24,-379 431.24,-415"/>
<text text-anchor="middle" x="256.24" y="-393.3" font-family="Times,serif" font-size="14.00">Filter models based on strictness without RSE</text>
</g>
<!-- input&#45;&gt;s0 -->
<g id="edge1" class="edge">
<title>input&#45;&gt;s0</title>
<path fill="none" stroke="black" d="M256.24,-451.81C256.24,-443.79 256.24,-434.05 256.24,-425.07"/>
<polygon fill="black" stroke="black" points="259.74,-425.03 256.24,-415.03 252.74,-425.03 259.74,-425.03"/>
</g>
<!-- s1 -->
<g id="node3" class="node">
<title>s1</title>
<polygon fill="none" stroke="black" points="310.24,-342 202.24,-342 202.24,-306 310.24,-306 310.24,-342"/>
<text text-anchor="middle" x="256.24" y="-320.3" font-family="Times,serif" font-size="14.00">Rank models</text>
</g>
<!-- s0&#45;&gt;s1 -->
<g id="edge2" class="edge">
<title>s0&#45;&gt;s1</title>
<path fill="none" stroke="black" d="M256.24,-378.81C256.24,-370.79 256.24,-361.05 256.24,-352.07"/>
<polygon fill="black" stroke="black" points="259.74,-352.03 256.24,-342.03 252.74,-352.03 259.74,-352.03"/>
</g>
<!-- s2 -->
<g id="node4" class="node">
<title>s2</title>
<ellipse fill="none" stroke="black" cx="256.24" cy="-251" rx="93.68" ry="18"/>
<text text-anchor="middle" x="256.24" y="-247.3" font-family="Times,serif" font-size="14.00">Top ranked model</text>
</g>
<!-- s1&#45;&gt;s2 -->
<g id="edge3" class="edge">
<title>s1&#45;&gt;s2</title>
<path fill="none" stroke="black" d="M256.24,-305.81C256.24,-297.79 256.24,-288.05 256.24,-279.07"/>
<polygon fill="black" stroke="black" points="259.74,-279.03 256.24,-269.03 252.74,-279.03 259.74,-279.03"/>
</g>
<!-- s3 -->
<g id="node5" class="node">
<title>s3</title>
<polygon fill="none" stroke="black" points="376.24,-196 136.24,-196 136.24,-160 376.24,-160 376.24,-196"/>
<text text-anchor="middle" x="256.24" y="-174.3" font-family="Times,serif" font-size="14.00">Run model with estimated RSE</text>
</g>
<!-- s2&#45;&gt;s3 -->
<g id="edge4" class="edge">
<title>s2&#45;&gt;s3</title>
<path fill="none" stroke="black" d="M256.24,-232.81C256.24,-224.79 256.24,-215.05 256.24,-206.07"/>
<polygon fill="black" stroke="black" points="259.74,-206.03 256.24,-196.03 252.74,-206.03 259.74,-206.03"/>
</g>
<!-- s4 -->
<g id="node6" class="node">
<title>s4</title>
<polygon fill="none" stroke="black" points="308.74,-123 27.74,-123 27.74,-87 308.74,-87 308.74,-123"/>
<text text-anchor="middle" x="168.24" y="-101.3" font-family="Times,serif" font-size="14.00">Model passes full strictness criteria?</text>
</g>
<!-- s3&#45;&gt;s4 -->
<g id="edge5" class="edge">
<title>s3&#45;&gt;s4</title>
<path fill="none" stroke="black" d="M234.94,-159.81C223.59,-150.66 209.46,-139.26 197.14,-129.32"/>
<polygon fill="black" stroke="black" points="199.33,-126.58 189.35,-123.03 194.93,-132.03 199.33,-126.58"/>
</g>
<!-- s5 -->
<g id="node7" class="node">
<title>s5</title>
<ellipse fill="none" stroke="black" cx="345.24" cy="-18" rx="87.18" ry="18"/>
<text text-anchor="middle" x="345.24" y="-14.3" font-family="Times,serif" font-size="14.00">Next best model</text>
</g>
<!-- s4&#45;&gt;s5 -->
<g id="edge6" class="edge">
<title>s4&#45;&gt;s5</title>
<path fill="none" stroke="black" d="M204.06,-86.8C232.8,-72.99 273.21,-53.59 303.43,-39.08"/>
<polygon fill="black" stroke="black" points="304.96,-42.23 312.46,-34.74 301.93,-35.92 304.96,-42.23"/>
<text text-anchor="middle" x="277.74" y="-57.8" font-family="Times,serif" font-size="14.00">No</text>
</g>
<!-- final -->
<g id="node8" class="node">
<title>final</title>
<ellipse fill="none" stroke="black" cx="120.24" cy="-18" rx="120.48" ry="18"/>
<text text-anchor="middle" x="120.24" y="-14.3" font-family="Times,serif" font-size="14.00">Final model and results</text>
</g>
<!-- s4&#45;&gt;final -->
<g id="edge8" class="edge">
<title>s4&#45;&gt;final</title>
<path fill="none" stroke="black" d="M158.53,-86.8C151.76,-74.82 142.61,-58.62 134.95,-45.06"/>
<polygon fill="black" stroke="black" points="137.9,-43.16 129.94,-36.18 131.81,-46.6 137.9,-43.16"/>
<text text-anchor="middle" x="158.74" y="-57.8" font-family="Times,serif" font-size="14.00">Yes</text>
</g>
<!-- s5&#45;&gt;s3 -->
<g id="edge7" class="edge">
<title>s5&#45;&gt;s3</title>
<path fill="none" stroke="black" d="M343.92,-36.05C341.58,-57.71 335.22,-95.56 318.24,-123 311.13,-134.49 300.79,-144.87 290.6,-153.39"/>
<polygon fill="black" stroke="black" points="288.17,-150.85 282.51,-159.8 292.52,-156.33 288.17,-150.85"/>
<text text-anchor="middle" x="410.74" y="-101.3" font-family="Times,serif" font-size="14.00">Until no more models</text>
</g>
</g>
</svg>
