<?xml version="1.0" encoding="UTF-8" standalone="no"?>
<!DOCTYPE svg PUBLIC "-//W3C//DTD SVG 1.1//EN"
 "http://www.w3.org/Graphics/SVG/1.1/DTD/svg11.dtd">
<!-- Generated by graphviz version 2.43.0 (0)
 -->
<!-- Title: inheritance7089845ed6 Pages: 1 -->
<svg width="576pt" height="130pt"
 viewBox="0.00 0.00 576.00 129.84" xmlns="http://www.w3.org/2000/svg" xmlns:xlink="http://www.w3.org/1999/xlink">
<g id="graph0" class="graph" transform="scale(2.77 2.77) rotate(0) translate(4 356)">
<title>inheritance7089845ed6</title>
<!-- collections.abc.Collection -->
<g id="node1" class="node">
<title>collections.abc.Collection</title>
<polygon fill="white" stroke="#7f7f7f" stroke-width="0.5" points="600.5,-56 459.5,-56 459.5,-37 600.5,-37 600.5,-56"/>
<text text-anchor="middle" x="530" y="-44" font-family="Vera Sans, DejaVu Sans, Liberation Sans, Arial, Helvetica, sans" font-size="10.00">collections.abc.Collection</text>
</g>
<!-- collections.abc.Set -->
<g id="node6" class="node">
<title>collections.abc.Set</title>
<g id="a_node6"><a xlink:title="A set is a finite, iterable container.">
<polygon fill="white" stroke="#7f7f7f" stroke-width="0.5" points="794.5,-56 686.5,-56 686.5,-37 794.5,-37 794.5,-56"/>
<text text-anchor="middle" x="740.5" y="-44" font-family="Vera Sans, DejaVu Sans, Liberation Sans, Arial, Helvetica, sans" font-size="10.00">collections.abc.Set</text>
</a>
</g>
</g>
<!-- collections.abc.Collection&#45;&gt;collections.abc.Set -->
<g id="edge5" class="edge">
<title>collections.abc.Collection&#45;&gt;collections.abc.Set</title>
<path fill="none" stroke="maroon" stroke-width="0.5" d="M600.72,-46.5C626.8,-46.5 656.14,-46.5 681.09,-46.5"/>
<polygon fill="maroon" stroke="maroon" stroke-width="0.5" points="681.35,-48.25 686.35,-46.5 681.35,-44.75 681.35,-48.25"/>
</g>
<!-- collections.abc.Sized -->
<g id="node2" class="node">
<title>collections.abc.Sized</title>
<polygon fill="white" stroke="#7f7f7f" stroke-width="0.5" points="249.5,-93 130.5,-93 130.5,-74 249.5,-74 249.5,-93"/>
<text text-anchor="middle" x="190" y="-81" font-family="Vera Sans, DejaVu Sans, Liberation Sans, Arial, Helvetica, sans" font-size="10.00">collections.abc.Sized</text>
</g>
<!-- collections.abc.Sized&#45;&gt;collections.abc.Collection -->
<g id="edge1" class="edge">
<title>collections.abc.Sized&#45;&gt;collections.abc.Collection</title>
<path fill="none" stroke="maroon" stroke-width="0.5" d="M249.77,-77.9C287.09,-74.26 336.41,-69.32 380,-64.5 404.18,-61.82 430.54,-58.71 454.27,-55.82"/>
<polygon fill="maroon" stroke="maroon" stroke-width="0.5" points="454.54,-57.55 459.3,-55.21 454.12,-54.08 454.54,-57.55"/>
</g>
<!-- collections.abc.Iterable -->
<g id="node3" class="node">
<title>collections.abc.Iterable</title>
<polygon fill="white" stroke="#7f7f7f" stroke-width="0.5" points="255,-56 125,-56 125,-37 255,-37 255,-56"/>
<text text-anchor="middle" x="190" y="-44" font-family="Vera Sans, DejaVu Sans, Liberation Sans, Arial, Helvetica, sans" font-size="10.00">collections.abc.Iterable</text>
</g>
<!-- collections.abc.Iterable&#45;&gt;collections.abc.Collection -->
<g id="edge2" class="edge">
<title>collections.abc.Iterable&#45;&gt;collections.abc.Collection</title>
<path fill="none" stroke="maroon" stroke-width="0.5" d="M255.37,-46.5C311.99,-46.5 394.43,-46.5 454.01,-46.5"/>
<polygon fill="maroon" stroke="maroon" stroke-width="0.5" points="454.34,-48.25 459.34,-46.5 454.34,-44.75 454.34,-48.25"/>
</g>
<!-- collections.abc.Container -->
<g id="node4" class="node">
<title>collections.abc.Container</title>
<polygon fill="white" stroke="#7f7f7f" stroke-width="0.5" points="260,-19 120,-19 120,0 260,0 260,-19"/>
<text text-anchor="middle" x="190" y="-7" font-family="Vera Sans, DejaVu Sans, Liberation Sans, Arial, Helvetica, sans" font-size="10.00">collections.abc.Container</text>
</g>
<!-- collections.abc.Container&#45;&gt;collections.abc.Collection -->
<g id="edge3" class="edge">
<title>collections.abc.Container&#45;&gt;collections.abc.Collection</title>
<path fill="none" stroke="maroon" stroke-width="0.5" d="M260.18,-15.56C295.97,-18.82 340.36,-23.09 380,-27.5 404.2,-30.19 430.56,-33.45 454.29,-36.5"/>
<polygon fill="maroon" stroke="maroon" stroke-width="0.5" points="454.13,-38.24 459.32,-37.15 454.58,-34.77 454.13,-38.24"/>
</g>
<!-- collections.abc.MutableSet -->
<g id="node5" class="node">
<title>collections.abc.MutableSet</title>
<g id="a_node5"><a xlink:title="A mutable set is a finite, iterable container.">
<polygon fill="white" stroke="#7f7f7f" stroke-width="0.5" points="994.5,-56 846.5,-56 846.5,-37 994.5,-37 994.5,-56"/>
<text text-anchor="middle" x="920.5" y="-44" font-family="Vera Sans, DejaVu Sans, Liberation Sans, Arial, Helvetica, sans" font-size="10.00">collections.abc.MutableSet</text>
</a>
</g>
</g>
<!-- pharmpy.data_structures.OrderedSet -->
<g id="node8" class="node">
<title>pharmpy.data_structures.OrderedSet</title>
<g id="a_node8"><a xlink:href="../pharmpy.data_structures.html#pharmpy.data_structures.OrderedSet" xlink:title="pharmpy.data_structures.OrderedSet" target="_top">
<polygon fill="white" stroke="#7f7f7f" stroke-width="0.5" points="1275,-56 1080,-56 1080,-37 1275,-37 1275,-56"/>
<text text-anchor="middle" x="1177.5" y="-44" font-family="Vera Sans, DejaVu Sans, Liberation Sans, Arial, Helvetica, sans" font-size="10.00">pharmpy.data_structures.OrderedSet</text>
</a>
</g>
</g>
<!-- collections.abc.MutableSet&#45;&gt;pharmpy.data_structures.OrderedSet -->
<g id="edge6" class="edge">
<title>collections.abc.MutableSet&#45;&gt;pharmpy.data_structures.OrderedSet</title>
<path fill="none" stroke="maroon" stroke-width="0.5" d="M994.57,-46.5C1019.41,-46.5 1047.64,-46.5 1074.32,-46.5"/>
<polygon fill="maroon" stroke="maroon" stroke-width="0.5" points="1074.64,-48.25 1079.64,-46.5 1074.64,-44.75 1074.64,-48.25"/>
</g>
<!-- collections.abc.Set&#45;&gt;collections.abc.MutableSet -->
<g id="edge4" class="edge">
<title>collections.abc.Set&#45;&gt;collections.abc.MutableSet</title>
<path fill="none" stroke="maroon" stroke-width="0.5" d="M794.91,-46.5C809.44,-46.5 825.5,-46.5 841.11,-46.5"/>
<polygon fill="maroon" stroke="maroon" stroke-width="0.5" points="841.38,-48.25 846.38,-46.5 841.38,-44.75 841.38,-48.25"/>
</g>
<!-- enum.Enum -->
<g id="node7" class="node">
<title>enum.Enum</title>
<g id="a_node7"><a xlink:title="Generic enumeration.">
<polygon fill="white" stroke="#7f7f7f" stroke-width="0.5" points="227.5,-130 152.5,-130 152.5,-111 227.5,-111 227.5,-130"/>
<text text-anchor="middle" x="190" y="-118" font-family="Vera Sans, DejaVu Sans, Liberation Sans, Arial, Helvetica, sans" font-size="10.00">enum.Enum</text>
</a>
</g>
</g>
<!-- pharmpy.random_variables.VariabilityLevel -->
<g id="node16" class="node">
<title>pharmpy.random_variables.VariabilityLevel</title>
<g id="a_node16"><a xlink:href="../reference/pharmpy.random_variables.html#pharmpy.random_variables.VariabilityLevel" xlink:title="Representation of a variability level" target="_top">
<polygon fill="white" stroke="#7f7f7f" stroke-width="0.5" points="644,-130 416,-130 416,-111 644,-111 644,-130"/>
<text text-anchor="middle" x="530" y="-118" font-family="Vera Sans, DejaVu Sans, Liberation Sans, Arial, Helvetica, sans" font-size="10.00">pharmpy.random_variables.VariabilityLevel</text>
</a>
</g>
</g>
<!-- enum.Enum&#45;&gt;pharmpy.random_variables.VariabilityLevel -->
<g id="edge9" class="edge">
<title>enum.Enum&#45;&gt;pharmpy.random_variables.VariabilityLevel</title>
<path fill="none" stroke="maroon" stroke-width="0.5" d="M227.82,-120.5C271.42,-120.5 346.23,-120.5 410.38,-120.5"/>
<polygon fill="maroon" stroke="maroon" stroke-width="0.5" points="410.76,-122.25 415.76,-120.5 410.76,-118.75 410.76,-122.25"/>
</g>
<!-- pharmpy.random_variables.RandomVariables -->
<g id="node15" class="node">
<title>pharmpy.random_variables.RandomVariables</title>
<g id="a_node15"><a xlink:href="../reference/pharmpy.random_variables.html#pharmpy.random_variables.RandomVariables" xlink:title="An ordered set of random variables" target="_top">
<polygon fill="white" stroke="#7f7f7f" stroke-width="0.5" points="1589,-56 1351,-56 1351,-37 1589,-37 1589,-56"/>
<text text-anchor="middle" x="1470" y="-44" font-family="Vera Sans, DejaVu Sans, Liberation Sans, Arial, Helvetica, sans" font-size="10.00">pharmpy.random_variables.RandomVariables</text>
</a>
</g>
</g>
<!-- pharmpy.data_structures.OrderedSet&#45;&gt;pharmpy.random_variables.RandomVariables -->
<g id="edge8" class="edge">
<title>pharmpy.data_structures.OrderedSet&#45;&gt;pharmpy.random_variables.RandomVariables</title>
<path fill="none" stroke="maroon" stroke-width="0.5" d="M1275.23,-46.5C1297.88,-46.5 1322.31,-46.5 1345.94,-46.5"/>
<polygon fill="maroon" stroke="maroon" stroke-width="0.5" points="1345.97,-48.25 1350.97,-46.5 1345.97,-44.75 1345.97,-48.25"/>
</g>
<!-- pharmpy.random_variables.JointDistributionSeparate -->
<g id="node9" class="node">
<title>pharmpy.random_variables.JointDistributionSeparate</title>
<g id="a_node9"><a xlink:href="../reference/pharmpy.random_variables.html#pharmpy.random_variables.JointDistributionSeparate" xlink:title="One random variable in a joint distribution" target="_top">
<polygon fill="white" stroke="#7f7f7f" stroke-width="0.5" points="1315,-185 1040,-185 1040,-166 1315,-166 1315,-185"/>
<text text-anchor="middle" x="1177.5" y="-173" font-family="Vera Sans, DejaVu Sans, Liberation Sans, Arial, Helvetica, sans" font-size="10.00">pharmpy.random_variables.JointDistributionSeparate</text>
</a>
</g>
</g>
<!-- sympy.stats.rv.RandomSymbol -->
<g id="node10" class="node">
<title>sympy.stats.rv.RandomSymbol</title>
<g id="a_node10"><a xlink:title="Random Symbols represent ProbabilitySpaces in SymPy Expressions">
<polygon fill="white" stroke="#7f7f7f" stroke-width="0.5" points="1004,-185 837,-185 837,-166 1004,-166 1004,-185"/>
<text text-anchor="middle" x="920.5" y="-173" font-family="Vera Sans, DejaVu Sans, Liberation Sans, Arial, Helvetica, sans" font-size="10.00">sympy.stats.rv.RandomSymbol</text>
</a>
</g>
</g>
<!-- sympy.stats.rv.RandomSymbol&#45;&gt;pharmpy.random_variables.JointDistributionSeparate -->
<g id="edge7" class="edge">
<title>sympy.stats.rv.RandomSymbol&#45;&gt;pharmpy.random_variables.JointDistributionSeparate</title>
<path fill="none" stroke="maroon" stroke-width="0.5" d="M1004.29,-175.5C1014.16,-175.5 1024.45,-175.5 1034.86,-175.5"/>
<polygon fill="maroon" stroke="maroon" stroke-width="0.5" points="1034.98,-177.25 1039.98,-175.5 1034.98,-173.75 1034.98,-177.25"/>
</g>
<!-- pharmpy.random_variables.MultivariateNormalParametrizationCovariance -->
<g id="node11" class="node">
<title>pharmpy.random_variables.MultivariateNormalParametrizationCovariance</title>
<g id="a_node11"><a xlink:href="../reference/pharmpy.random_variables.html#pharmpy.random_variables.MultivariateNormalParametrizationCovariance" xlink:title="pharmpy.random_variables.MultivariateNormalParametrizationCovariance" target="_top">
<polygon fill="white" stroke="#7f7f7f" stroke-width="0.5" points="380,-241 0,-241 0,-222 380,-222 380,-241"/>
<text text-anchor="middle" x="190" y="-229" font-family="Vera Sans, DejaVu Sans, Liberation Sans, Arial, Helvetica, sans" font-size="10.00">pharmpy.random_variables.MultivariateNormalParametrizationCovariance</text>
</a>
</g>
</g>
<!-- pharmpy.random_variables.MultivariateNormalParametrizationSdCorr -->
<g id="node12" class="node">
<title>pharmpy.random_variables.MultivariateNormalParametrizationSdCorr</title>
<g id="a_node12"><a xlink:href="../reference/pharmpy.random_variables.html#pharmpy.random_variables.MultivariateNormalParametrizationSdCorr" xlink:title="pharmpy.random_variables.MultivariateNormalParametrizationSdCorr" target="_top">
<polygon fill="white" stroke="#7f7f7f" stroke-width="0.5" points="368.5,-278 11.5,-278 11.5,-259 368.5,-259 368.5,-278"/>
<text text-anchor="middle" x="190" y="-266" font-family="Vera Sans, DejaVu Sans, Liberation Sans, Arial, Helvetica, sans" font-size="10.00">pharmpy.random_variables.MultivariateNormalParametrizationSdCorr</text>
</a>
</g>
</g>
<!-- pharmpy.random_variables.NormalParametrizationSd -->
<g id="node13" class="node">
<title>pharmpy.random_variables.NormalParametrizationSd</title>
<g id="a_node13"><a xlink:href="../reference/pharmpy.random_variables.html#pharmpy.random_variables.NormalParametrizationSd" xlink:title="pharmpy.random_variables.NormalParametrizationSd" target="_top">
<polygon fill="white" stroke="#7f7f7f" stroke-width="0.5" points="329,-315 51,-315 51,-296 329,-296 329,-315"/>
<text text-anchor="middle" x="190" y="-303" font-family="Vera Sans, DejaVu Sans, Liberation Sans, Arial, Helvetica, sans" font-size="10.00">pharmpy.random_variables.NormalParametrizationSd</text>
</a>
</g>
</g>
<!-- pharmpy.random_variables.NormalParametrizationVariance -->
<g id="node14" class="node">
<title>pharmpy.random_variables.NormalParametrizationVariance</title>
<g id="a_node14"><a xlink:href="../reference/pharmpy.random_variables.html#pharmpy.random_variables.NormalParametrizationVariance" xlink:title="pharmpy.random_variables.NormalParametrizationVariance" target="_top">
<polygon fill="white" stroke="#7f7f7f" stroke-width="0.5" points="344,-352 36,-352 36,-333 344,-333 344,-352"/>
<text text-anchor="middle" x="190" y="-340" font-family="Vera Sans, DejaVu Sans, Liberation Sans, Arial, Helvetica, sans" font-size="10.00">pharmpy.random_variables.NormalParametrizationVariance</text>
</a>
</g>
</g>
<!-- sympy.core.basic.Basic -->
<g id="node17" class="node">
<title>sympy.core.basic.Basic</title>
<g id="a_node17"><a xlink:title="Base class for all SymPy objects.">
<polygon fill="white" stroke="#7f7f7f" stroke-width="0.5" points="595,-204 465,-204 465,-185 595,-185 595,-204"/>
<text text-anchor="middle" x="530" y="-192" font-family="Vera Sans, DejaVu Sans, Liberation Sans, Arial, Helvetica, sans" font-size="10.00">sympy.core.basic.Basic</text>
</a>
</g>
</g>
<!-- sympy.core.expr.Expr -->
<g id="node20" class="node">
<title>sympy.core.expr.Expr</title>
<g id="a_node20"><a xlink:title="Base class for algebraic expressions.">
<polygon fill="white" stroke="#7f7f7f" stroke-width="0.5" points="801,-185 680,-185 680,-166 801,-166 801,-185"/>
<text text-anchor="middle" x="740.5" y="-173" font-family="Vera Sans, DejaVu Sans, Liberation Sans, Arial, Helvetica, sans" font-size="10.00">sympy.core.expr.Expr</text>
</a>
</g>
</g>
<!-- sympy.core.basic.Basic&#45;&gt;sympy.core.expr.Expr -->
<g id="edge11" class="edge">
<title>sympy.core.basic.Basic&#45;&gt;sympy.core.expr.Expr</title>
<path fill="none" stroke="maroon" stroke-width="0.5" d="M595.26,-188.64C620.5,-186.34 649.42,-183.71 674.71,-181.4"/>
<polygon fill="maroon" stroke="maroon" stroke-width="0.5" points="674.9,-183.14 679.72,-180.95 674.58,-179.66 674.9,-183.14"/>
</g>
<!-- sympy.printing.defaults.Printable -->
<g id="node18" class="node">
<title>sympy.printing.defaults.Printable</title>
<g id="a_node18"><a xlink:title="The default implementation of printing for SymPy classes.">
<polygon fill="white" stroke="#7f7f7f" stroke-width="0.5" points="279,-204 101,-204 101,-185 279,-185 279,-204"/>
<text text-anchor="middle" x="190" y="-192" font-family="Vera Sans, DejaVu Sans, Liberation Sans, Arial, Helvetica, sans" font-size="10.00">sympy.printing.defaults.Printable</text>
</a>
</g>
</g>
<!-- sympy.printing.defaults.Printable&#45;&gt;sympy.core.basic.Basic -->
<g id="edge10" class="edge">
<title>sympy.printing.defaults.Printable&#45;&gt;sympy.core.basic.Basic</title>
<path fill="none" stroke="maroon" stroke-width="0.5" d="M279.36,-194.5C335.62,-194.5 407.45,-194.5 459.61,-194.5"/>
<polygon fill="maroon" stroke="maroon" stroke-width="0.5" points="459.91,-196.25 464.91,-194.5 459.91,-192.75 459.91,-196.25"/>
</g>
<!-- sympy.core.evalf.EvalfMixin -->
<g id="node19" class="node">
<title>sympy.core.evalf.EvalfMixin</title>
<g id="a_node19"><a xlink:title="Mixin class adding evalf capabililty.">
<polygon fill="white" stroke="#7f7f7f" stroke-width="0.5" points="607,-167 453,-167 453,-148 607,-148 607,-167"/>
<text text-anchor="middle" x="530" y="-155" font-family="Vera Sans, DejaVu Sans, Liberation Sans, Arial, Helvetica, sans" font-size="10.00">sympy.core.evalf.EvalfMixin</text>
</a>
</g>
</g>
<!-- sympy.core.evalf.EvalfMixin&#45;&gt;sympy.core.expr.Expr -->
<g id="edge12" class="edge">
<title>sympy.core.evalf.EvalfMixin&#45;&gt;sympy.core.expr.Expr</title>
<path fill="none" stroke="maroon" stroke-width="0.5" d="M607.16,-164.07C629.34,-165.99 653.36,-168.06 674.77,-169.91"/>
<polygon fill="maroon" stroke="maroon" stroke-width="0.5" points="674.74,-171.67 679.87,-170.35 675.04,-168.18 674.74,-171.67"/>
</g>
<!-- sympy.core.expr.Expr&#45;&gt;sympy.stats.rv.RandomSymbol -->
<g id="edge13" class="edge">
<title>sympy.core.expr.Expr&#45;&gt;sympy.stats.rv.RandomSymbol</title>
<path fill="none" stroke="maroon" stroke-width="0.5" d="M801.27,-175.5C811.07,-175.5 821.42,-175.5 831.73,-175.5"/>
<polygon fill="maroon" stroke="maroon" stroke-width="0.5" points="831.79,-177.25 836.79,-175.5 831.79,-173.75 831.79,-177.25"/>
</g>
</g>
</svg>
