<?xml version="1.0" encoding="UTF-8" standalone="no"?>
<!DOCTYPE svg PUBLIC "-//W3C//DTD SVG 1.1//EN"
 "http://www.w3.org/Graphics/SVG/1.1/DTD/svg11.dtd">
<!-- Generated by graphviz version 2.43.0 (0)
 -->
<!-- Title: inheritanceb713c20658 Pages: 1 -->
<svg width="576pt" height="343pt"
 viewBox="0.00 0.00 576.00 343.35" xmlns="http://www.w3.org/2000/svg" xmlns:xlink="http://www.w3.org/1999/xlink">
<g id="graph0" class="graph" transform="scale(1.16 1.16) rotate(0) translate(4 393)">
<title>inheritanceb713c20658</title>
<!-- Assignment -->
<g id="node1" class="node">
<title>Assignment</title>
<g id="a_node1"><a xlink:href="../api/pharmpy.Assignment.html#pharmpy.Assignment" xlink:title="Representation of variable assignment" target="_top">
<polygon fill="white" stroke="#7f7f7f" stroke-width="0.5" points="93.5,-19 19.5,-19 19.5,0 93.5,0 93.5,-19"/>
<text text-anchor="middle" x="56.5" y="-7" font-family="Vera Sans, DejaVu Sans, Liberation Sans, Arial, Helvetica, sans" font-size="10.00">Assignment</text>
</a>
</g>
</g>
<!-- Bolus -->
<g id="node2" class="node">
<title>Bolus</title>
<g id="a_node2"><a xlink:href="../api/pharmpy.Bolus.html#pharmpy.Bolus" xlink:title="A Bolus dose" target="_top">
<polygon fill="white" stroke="#7f7f7f" stroke-width="0.5" points="83.5,-56 29.5,-56 29.5,-37 83.5,-37 83.5,-56"/>
<text text-anchor="middle" x="56.5" y="-44" font-family="Vera Sans, DejaVu Sans, Liberation Sans, Arial, Helvetica, sans" font-size="10.00">Bolus</text>
</a>
</g>
</g>
<!-- Collection -->
<g id="node3" class="node">
<title>Collection</title>
<polygon fill="white" stroke="#7f7f7f" stroke-width="0.5" points="246.5,-130 181.5,-130 181.5,-111 246.5,-111 246.5,-130"/>
<text text-anchor="middle" x="214" y="-118" font-family="Vera Sans, DejaVu Sans, Liberation Sans, Arial, Helvetica, sans" font-size="10.00">Collection</text>
</g>
<!-- Sequence -->
<g id="node14" class="node">
<title>Sequence</title>
<g id="a_node14"><a xlink:title="All the operations on a read&#45;only sequence.">
<polygon fill="white" stroke="#7f7f7f" stroke-width="0.5" points="379,-111 315,-111 315,-92 379,-92 379,-111"/>
<text text-anchor="middle" x="347" y="-99" font-family="Vera Sans, DejaVu Sans, Liberation Sans, Arial, Helvetica, sans" font-size="10.00">Sequence</text>
</a>
</g>
</g>
<!-- Collection&#45;&gt;Sequence -->
<g id="edge12" class="edge">
<title>Collection&#45;&gt;Sequence</title>
<path fill="none" stroke="maroon" stroke-width="0.5" d="M246.71,-115.9C265.62,-113.16 289.7,-109.67 309.41,-106.81"/>
<polygon fill="maroon" stroke="maroon" stroke-width="0.5" points="309.88,-108.51 314.58,-106.06 309.38,-105.04 309.88,-108.51"/>
</g>
<!-- Sized -->
<g id="node4" class="node">
<title>Sized</title>
<polygon fill="white" stroke="#7f7f7f" stroke-width="0.5" points="83.5,-167 29.5,-167 29.5,-148 83.5,-148 83.5,-167"/>
<text text-anchor="middle" x="56.5" y="-155" font-family="Vera Sans, DejaVu Sans, Liberation Sans, Arial, Helvetica, sans" font-size="10.00">Sized</text>
</g>
<!-- Sized&#45;&gt;Collection -->
<g id="edge1" class="edge">
<title>Sized&#45;&gt;Collection</title>
<path fill="none" stroke="maroon" stroke-width="0.5" d="M83.53,-151.31C108.84,-145.28 147.54,-136.08 176.04,-129.29"/>
<polygon fill="maroon" stroke="maroon" stroke-width="0.5" points="176.78,-130.92 181.24,-128.06 175.97,-127.51 176.78,-130.92"/>
</g>
<!-- Iterable -->
<g id="node5" class="node">
<title>Iterable</title>
<polygon fill="white" stroke="#7f7f7f" stroke-width="0.5" points="83.5,-93 29.5,-93 29.5,-74 83.5,-74 83.5,-93"/>
<text text-anchor="middle" x="56.5" y="-81" font-family="Vera Sans, DejaVu Sans, Liberation Sans, Arial, Helvetica, sans" font-size="10.00">Iterable</text>
</g>
<!-- Iterable&#45;&gt;Collection -->
<g id="edge2" class="edge">
<title>Iterable&#45;&gt;Collection</title>
<path fill="none" stroke="maroon" stroke-width="0.5" d="M83.53,-89.69C108.84,-95.72 147.54,-104.92 176.04,-111.71"/>
<polygon fill="maroon" stroke="maroon" stroke-width="0.5" points="175.97,-113.49 181.24,-112.94 176.78,-110.08 175.97,-113.49"/>
</g>
<!-- Reversible -->
<g id="node19" class="node">
<title>Reversible</title>
<polygon fill="white" stroke="#7f7f7f" stroke-width="0.5" points="248,-93 180,-93 180,-74 248,-74 248,-93"/>
<text text-anchor="middle" x="214" y="-81" font-family="Vera Sans, DejaVu Sans, Liberation Sans, Arial, Helvetica, sans" font-size="10.00">Reversible</text>
</g>
<!-- Iterable&#45;&gt;Reversible -->
<g id="edge10" class="edge">
<title>Iterable&#45;&gt;Reversible</title>
<path fill="none" stroke="maroon" stroke-width="0.5" d="M83.53,-83.5C108.43,-83.5 146.3,-83.5 174.66,-83.5"/>
<polygon fill="maroon" stroke="maroon" stroke-width="0.5" points="174.84,-85.25 179.84,-83.5 174.84,-81.75 174.84,-85.25"/>
</g>
<!-- Container -->
<g id="node6" class="node">
<title>Container</title>
<polygon fill="white" stroke="#7f7f7f" stroke-width="0.5" points="88.5,-130 24.5,-130 24.5,-111 88.5,-111 88.5,-130"/>
<text text-anchor="middle" x="56.5" y="-118" font-family="Vera Sans, DejaVu Sans, Liberation Sans, Arial, Helvetica, sans" font-size="10.00">Container</text>
</g>
<!-- Container&#45;&gt;Collection -->
<g id="edge3" class="edge">
<title>Container&#45;&gt;Collection</title>
<path fill="none" stroke="maroon" stroke-width="0.5" d="M88.59,-120.5C113.85,-120.5 149.54,-120.5 176.22,-120.5"/>
<polygon fill="maroon" stroke="maroon" stroke-width="0.5" points="176.43,-122.25 181.43,-120.5 176.43,-118.75 176.43,-122.25"/>
</g>
<!-- Compartment -->
<g id="node7" class="node">
<title>Compartment</title>
<g id="a_node7"><a xlink:href="../api/pharmpy.Compartment.html#pharmpy.Compartment" xlink:title="Compartment for a compartmental system" target="_top">
<polygon fill="white" stroke="#7f7f7f" stroke-width="0.5" points="98.5,-204 14.5,-204 14.5,-185 98.5,-185 98.5,-204"/>
<text text-anchor="middle" x="56.5" y="-192" font-family="Vera Sans, DejaVu Sans, Liberation Sans, Arial, Helvetica, sans" font-size="10.00">Compartment</text>
</a>
</g>
</g>
<!-- CompartmentalSystem -->
<g id="node8" class="node">
<title>CompartmentalSystem</title>
<g id="a_node8"><a xlink:href="../api/pharmpy.CompartmentalSystem.html#pharmpy.CompartmentalSystem" xlink:title="System of ODEs descibed as a compartmental system" target="_top">
<polygon fill="white" stroke="#7f7f7f" stroke-width="0.5" points="279,-259 149,-259 149,-240 279,-240 279,-259"/>
<text text-anchor="middle" x="214" y="-247" font-family="Vera Sans, DejaVu Sans, Liberation Sans, Arial, Helvetica, sans" font-size="10.00">CompartmentalSystem</text>
</a>
</g>
</g>
<!-- ODESystem -->
<g id="node9" class="node">
<title>ODESystem</title>
<g id="a_node9"><a xlink:href="../api/pharmpy.ODESystem.html#pharmpy.ODESystem" xlink:title="Base class and placeholder for ODE systems of different forms" target="_top">
<polygon fill="white" stroke="#7f7f7f" stroke-width="0.5" points="93.5,-241 19.5,-241 19.5,-222 93.5,-222 93.5,-241"/>
<text text-anchor="middle" x="56.5" y="-229" font-family="Vera Sans, DejaVu Sans, Liberation Sans, Arial, Helvetica, sans" font-size="10.00">ODESystem</text>
</a>
</g>
</g>
<!-- ODESystem&#45;&gt;CompartmentalSystem -->
<g id="edge4" class="edge">
<title>ODESystem&#45;&gt;CompartmentalSystem</title>
<path fill="none" stroke="maroon" stroke-width="0.5" d="M93.57,-235.67C108.45,-237.4 126.22,-239.45 143.44,-241.45"/>
<polygon fill="maroon" stroke="maroon" stroke-width="0.5" points="143.6,-243.23 148.77,-242.07 144,-239.75 143.6,-243.23"/>
</g>
<!-- ExplicitODESystem -->
<g id="node10" class="node">
<title>ExplicitODESystem</title>
<g id="a_node10"><a xlink:href="../api/pharmpy.ExplicitODESystem.html#pharmpy.ExplicitODESystem" xlink:title="System of ODEs described explicitly" target="_top">
<polygon fill="white" stroke="#7f7f7f" stroke-width="0.5" points="269,-222 159,-222 159,-203 269,-203 269,-222"/>
<text text-anchor="middle" x="214" y="-210" font-family="Vera Sans, DejaVu Sans, Liberation Sans, Arial, Helvetica, sans" font-size="10.00">ExplicitODESystem</text>
</a>
</g>
</g>
<!-- ODESystem&#45;&gt;ExplicitODESystem -->
<g id="edge5" class="edge">
<title>ODESystem&#45;&gt;ExplicitODESystem</title>
<path fill="none" stroke="maroon" stroke-width="0.5" d="M93.57,-227.09C111.43,-224.91 133.47,-222.22 153.72,-219.74"/>
<polygon fill="maroon" stroke="maroon" stroke-width="0.5" points="154.08,-221.46 158.83,-219.12 153.66,-217.99 154.08,-221.46"/>
</g>
<!-- Infusion -->
<g id="node11" class="node">
<title>Infusion</title>
<g id="a_node11"><a xlink:href="../api/pharmpy.Infusion.html#pharmpy.Infusion" xlink:title="An infusion dose" target="_top">
<polygon fill="white" stroke="#7f7f7f" stroke-width="0.5" points="84.5,-278 28.5,-278 28.5,-259 84.5,-259 84.5,-278"/>
<text text-anchor="middle" x="56.5" y="-266" font-family="Vera Sans, DejaVu Sans, Liberation Sans, Arial, Helvetica, sans" font-size="10.00">Infusion</text>
</a>
</g>
</g>
<!-- ModelStatements -->
<g id="node12" class="node">
<title>ModelStatements</title>
<g id="a_node12"><a xlink:href="../api/pharmpy.ModelStatements.html#pharmpy.ModelStatements" xlink:title="A sequence of symbolic statements describing the model" target="_top">
<polygon fill="white" stroke="#7f7f7f" stroke-width="0.5" points="658,-148 555,-148 555,-129 658,-129 658,-148"/>
<text text-anchor="middle" x="606.5" y="-136" font-family="Vera Sans, DejaVu Sans, Liberation Sans, Arial, Helvetica, sans" font-size="10.00">ModelStatements</text>
</a>
</g>
</g>
<!-- MutableSequence -->
<g id="node13" class="node">
<title>MutableSequence</title>
<polygon fill="white" stroke="#7f7f7f" stroke-width="0.5" points="519,-111 415,-111 415,-92 519,-92 519,-111"/>
<text text-anchor="middle" x="467" y="-99" font-family="Vera Sans, DejaVu Sans, Liberation Sans, Arial, Helvetica, sans" font-size="10.00">MutableSequence</text>
</g>
<!-- MutableSequence&#45;&gt;ModelStatements -->
<g id="edge6" class="edge">
<title>MutableSequence&#45;&gt;ModelStatements</title>
<path fill="none" stroke="maroon" stroke-width="0.5" d="M503.41,-111.03C522.19,-116.08 545.35,-122.31 564.86,-127.56"/>
<polygon fill="maroon" stroke="maroon" stroke-width="0.5" points="564.45,-129.27 569.73,-128.88 565.36,-125.89 564.45,-129.27"/>
</g>
<!-- Parameters -->
<g id="node16" class="node">
<title>Parameters</title>
<g id="a_node16"><a xlink:href="../api/pharmpy.Parameters.html#pharmpy.Parameters" xlink:title="A collection of parameters" target="_top">
<polygon fill="white" stroke="#7f7f7f" stroke-width="0.5" points="642.5,-111 570.5,-111 570.5,-92 642.5,-92 642.5,-111"/>
<text text-anchor="middle" x="606.5" y="-99" font-family="Vera Sans, DejaVu Sans, Liberation Sans, Arial, Helvetica, sans" font-size="10.00">Parameters</text>
</a>
</g>
</g>
<!-- MutableSequence&#45;&gt;Parameters -->
<g id="edge8" class="edge">
<title>MutableSequence&#45;&gt;Parameters</title>
<path fill="none" stroke="maroon" stroke-width="0.5" d="M519.2,-101.5C534.3,-101.5 550.6,-101.5 564.93,-101.5"/>
<polygon fill="maroon" stroke="maroon" stroke-width="0.5" points="565.12,-103.25 570.12,-101.5 565.12,-99.75 565.12,-103.25"/>
</g>
<!-- RandomVariables -->
<g id="node18" class="node">
<title>RandomVariables</title>
<g id="a_node18"><a xlink:href="../api/pharmpy.RandomVariables.html#pharmpy.RandomVariables" xlink:title="A collection of random variables" target="_top">
<polygon fill="white" stroke="#7f7f7f" stroke-width="0.5" points="657.5,-74 555.5,-74 555.5,-55 657.5,-55 657.5,-74"/>
<text text-anchor="middle" x="606.5" y="-62" font-family="Vera Sans, DejaVu Sans, Liberation Sans, Arial, Helvetica, sans" font-size="10.00">RandomVariables</text>
</a>
</g>
</g>
<!-- MutableSequence&#45;&gt;RandomVariables -->
<g id="edge9" class="edge">
<title>MutableSequence&#45;&gt;RandomVariables</title>
<path fill="none" stroke="maroon" stroke-width="0.5" d="M503.41,-91.97C522.19,-86.92 545.35,-80.69 564.86,-75.44"/>
<polygon fill="maroon" stroke="maroon" stroke-width="0.5" points="565.36,-77.11 569.73,-74.12 564.45,-73.73 565.36,-77.11"/>
</g>
<!-- Sequence&#45;&gt;MutableSequence -->
<g id="edge7" class="edge">
<title>Sequence&#45;&gt;MutableSequence</title>
<path fill="none" stroke="maroon" stroke-width="0.5" d="M379,-101.5C388.39,-101.5 399.01,-101.5 409.53,-101.5"/>
<polygon fill="maroon" stroke="maroon" stroke-width="0.5" points="409.67,-103.25 414.67,-101.5 409.67,-99.75 409.67,-103.25"/>
</g>
<!-- Parameter -->
<g id="node15" class="node">
<title>Parameter</title>
<g id="a_node15"><a xlink:href="../api/pharmpy.Parameter.html#pharmpy.Parameter" xlink:title="A single parameter" target="_top">
<polygon fill="white" stroke="#7f7f7f" stroke-width="0.5" points="90,-315 23,-315 23,-296 90,-296 90,-315"/>
<text text-anchor="middle" x="56.5" y="-303" font-family="Vera Sans, DejaVu Sans, Liberation Sans, Arial, Helvetica, sans" font-size="10.00">Parameter</text>
</a>
</g>
</g>
<!-- RandomVariable -->
<g id="node17" class="node">
<title>RandomVariable</title>
<g id="a_node17"><a xlink:href="../api/pharmpy.RandomVariable.html#pharmpy.RandomVariable" xlink:title="A single random variable" target="_top">
<polygon fill="white" stroke="#7f7f7f" stroke-width="0.5" points="105,-352 8,-352 8,-333 105,-333 105,-352"/>
<text text-anchor="middle" x="56.5" y="-340" font-family="Vera Sans, DejaVu Sans, Liberation Sans, Arial, Helvetica, sans" font-size="10.00">RandomVariable</text>
</a>
</g>
</g>
<!-- Reversible&#45;&gt;Sequence -->
<g id="edge11" class="edge">
<title>Reversible&#45;&gt;Sequence</title>
<path fill="none" stroke="maroon" stroke-width="0.5" d="M248.06,-88.04C266.76,-90.61 290.19,-93.83 309.45,-96.48"/>
<polygon fill="maroon" stroke="maroon" stroke-width="0.5" points="309.57,-98.26 314.76,-97.21 310.04,-94.79 309.57,-98.26"/>
</g>
<!-- VariabilityHierarchy -->
<g id="node20" class="node">
<title>VariabilityHierarchy</title>
<g id="a_node20"><a xlink:href="../api/pharmpy.VariabilityHierarchy.html#pharmpy.VariabilityHierarchy" xlink:title="Description of a variability hierarchy" target="_top">
<polygon fill="white" stroke="#7f7f7f" stroke-width="0.5" points="113,-389 0,-389 0,-370 113,-370 113,-389"/>
<text text-anchor="middle" x="56.5" y="-377" font-family="Vera Sans, DejaVu Sans, Liberation Sans, Arial, Helvetica, sans" font-size="10.00">VariabilityHierarchy</text>
</a>
</g>
</g>
</g>
</svg>
