<?xml version="1.0" encoding="UTF-8" standalone="no"?>
<!DOCTYPE svg PUBLIC "-//W3C//DTD SVG 1.1//EN"
 "http://www.w3.org/Graphics/SVG/1.1/DTD/svg11.dtd">
<!-- Generated by graphviz version 2.43.0 (0)
 -->
<!-- Title: inheritancec582670a9e Pages: 1 -->
<svg width="576pt" height="117pt"
 viewBox="0.00 0.00 576.00 117.19" xmlns="http://www.w3.org/2000/svg" xmlns:xlink="http://www.w3.org/1999/xlink">
<g id="graph0" class="graph" transform="scale(1.81 1.81) rotate(0) translate(4 208)">
<title>inheritancec582670a9e</title>
<!-- collections.abc.Collection -->
<g id="node1" class="node">
<title>collections.abc.Collection</title>
<polygon fill="white" stroke="#7f7f7f" stroke-width="0.5" points="365,-56 224,-56 224,-37 365,-37 365,-56"/>
<text text-anchor="middle" x="294.5" y="-44" font-family="Vera Sans, DejaVu Sans, Liberation Sans, Arial, Helvetica, sans" font-size="10.00">collections.abc.Collection</text>
</g>
<!-- collections.abc.Sequence -->
<g id="node6" class="node">
<title>collections.abc.Sequence</title>
<g id="a_node6"><a xlink:title="All the operations on a read&#45;only sequence.">
<polygon fill="white" stroke="#7f7f7f" stroke-width="0.5" points="570,-37 430,-37 430,-18 570,-18 570,-37"/>
<text text-anchor="middle" x="500" y="-25" font-family="Vera Sans, DejaVu Sans, Liberation Sans, Arial, Helvetica, sans" font-size="10.00">collections.abc.Sequence</text>
</a>
</g>
</g>
<!-- collections.abc.Collection&#45;&gt;collections.abc.Sequence -->
<g id="edge7" class="edge">
<title>collections.abc.Collection&#45;&gt;collections.abc.Sequence</title>
<path fill="none" stroke="maroon" stroke-width="0.5" d="M365.25,-39.99C384.28,-38.21 404.98,-36.28 424.28,-34.48"/>
<polygon fill="maroon" stroke="maroon" stroke-width="0.5" points="424.87,-36.18 429.69,-33.97 424.55,-32.69 424.87,-36.18"/>
</g>
<!-- collections.abc.Sized -->
<g id="node2" class="node">
<title>collections.abc.Sized</title>
<polygon fill="white" stroke="#7f7f7f" stroke-width="0.5" points="139,-93 20,-93 20,-74 139,-74 139,-93"/>
<text text-anchor="middle" x="79.5" y="-81" font-family="Vera Sans, DejaVu Sans, Liberation Sans, Arial, Helvetica, sans" font-size="10.00">collections.abc.Sized</text>
</g>
<!-- collections.abc.Sized&#45;&gt;collections.abc.Collection -->
<g id="edge1" class="edge">
<title>collections.abc.Sized&#45;&gt;collections.abc.Collection</title>
<path fill="none" stroke="maroon" stroke-width="0.5" d="M135.35,-73.97C165.3,-68.77 202.43,-62.32 233.19,-56.98"/>
<polygon fill="maroon" stroke="maroon" stroke-width="0.5" points="233.84,-58.64 238.46,-56.06 233.24,-55.19 233.84,-58.64"/>
</g>
<!-- collections.abc.Iterable -->
<g id="node3" class="node">
<title>collections.abc.Iterable</title>
<polygon fill="white" stroke="#7f7f7f" stroke-width="0.5" points="144.5,-19 14.5,-19 14.5,0 144.5,0 144.5,-19"/>
<text text-anchor="middle" x="79.5" y="-7" font-family="Vera Sans, DejaVu Sans, Liberation Sans, Arial, Helvetica, sans" font-size="10.00">collections.abc.Iterable</text>
</g>
<!-- collections.abc.Iterable&#45;&gt;collections.abc.Collection -->
<g id="edge2" class="edge">
<title>collections.abc.Iterable&#45;&gt;collections.abc.Collection</title>
<path fill="none" stroke="maroon" stroke-width="0.5" d="M135.35,-19.03C165.3,-24.23 202.43,-30.68 233.19,-36.02"/>
<polygon fill="maroon" stroke="maroon" stroke-width="0.5" points="233.24,-37.81 238.46,-36.94 233.84,-34.36 233.24,-37.81"/>
</g>
<!-- collections.abc.Reversible -->
<g id="node7" class="node">
<title>collections.abc.Reversible</title>
<polygon fill="white" stroke="#7f7f7f" stroke-width="0.5" points="366.5,-19 222.5,-19 222.5,0 366.5,0 366.5,-19"/>
<text text-anchor="middle" x="294.5" y="-7" font-family="Vera Sans, DejaVu Sans, Liberation Sans, Arial, Helvetica, sans" font-size="10.00">collections.abc.Reversible</text>
</g>
<!-- collections.abc.Iterable&#45;&gt;collections.abc.Reversible -->
<g id="edge5" class="edge">
<title>collections.abc.Iterable&#45;&gt;collections.abc.Reversible</title>
<path fill="none" stroke="maroon" stroke-width="0.5" d="M144.7,-9.5C167.57,-9.5 193.55,-9.5 217.33,-9.5"/>
<polygon fill="maroon" stroke="maroon" stroke-width="0.5" points="217.37,-11.25 222.37,-9.5 217.37,-7.75 217.37,-11.25"/>
</g>
<!-- collections.abc.Container -->
<g id="node4" class="node">
<title>collections.abc.Container</title>
<polygon fill="white" stroke="#7f7f7f" stroke-width="0.5" points="149.5,-56 9.5,-56 9.5,-37 149.5,-37 149.5,-56"/>
<text text-anchor="middle" x="79.5" y="-44" font-family="Vera Sans, DejaVu Sans, Liberation Sans, Arial, Helvetica, sans" font-size="10.00">collections.abc.Container</text>
</g>
<!-- collections.abc.Container&#45;&gt;collections.abc.Collection -->
<g id="edge3" class="edge">
<title>collections.abc.Container&#45;&gt;collections.abc.Collection</title>
<path fill="none" stroke="maroon" stroke-width="0.5" d="M149.65,-46.5C171.79,-46.5 196.39,-46.5 218.89,-46.5"/>
<polygon fill="maroon" stroke="maroon" stroke-width="0.5" points="218.96,-48.25 223.96,-46.5 218.96,-44.75 218.96,-48.25"/>
</g>
<!-- collections.abc.MutableSequence -->
<g id="node5" class="node">
<title>collections.abc.MutableSequence</title>
<polygon fill="white" stroke="#7f7f7f" stroke-width="0.5" points="785,-37 606,-37 606,-18 785,-18 785,-37"/>
<text text-anchor="middle" x="695.5" y="-25" font-family="Vera Sans, DejaVu Sans, Liberation Sans, Arial, Helvetica, sans" font-size="10.00">collections.abc.MutableSequence</text>
</g>
<!-- pharmpy.results.ChainedModelfitResults -->
<g id="node11" class="node">
<title>pharmpy.results.ChainedModelfitResults</title>
<g id="a_node11"><a xlink:href="../reference/pharmpy.results.html#pharmpy.results.ChainedModelfitResults" xlink:title="A sequence of modelfit results given in order from first to final" target="_top">
<polygon fill="white" stroke="#7f7f7f" stroke-width="0.5" points="1034,-55 821,-55 821,-36 1034,-36 1034,-55"/>
<text text-anchor="middle" x="927.5" y="-43" font-family="Vera Sans, DejaVu Sans, Liberation Sans, Arial, Helvetica, sans" font-size="10.00">pharmpy.results.ChainedModelfitResults</text>
</a>
</g>
</g>
<!-- collections.abc.MutableSequence&#45;&gt;pharmpy.results.ChainedModelfitResults -->
<g id="edge8" class="edge">
<title>collections.abc.MutableSequence&#45;&gt;pharmpy.results.ChainedModelfitResults</title>
<path fill="none" stroke="maroon" stroke-width="0.5" d="M785.1,-34.43C795.1,-35.22 805.39,-36.02 815.63,-36.82"/>
<polygon fill="maroon" stroke="maroon" stroke-width="0.5" points="815.53,-38.57 820.65,-37.22 815.81,-35.08 815.53,-38.57"/>
</g>
<!-- collections.abc.Sequence&#45;&gt;collections.abc.MutableSequence -->
<g id="edge4" class="edge">
<title>collections.abc.Sequence&#45;&gt;collections.abc.MutableSequence</title>
<path fill="none" stroke="maroon" stroke-width="0.5" d="M570.04,-27.5C580.02,-27.5 590.43,-27.5 600.79,-27.5"/>
<polygon fill="maroon" stroke="maroon" stroke-width="0.5" points="600.87,-29.25 605.87,-27.5 600.87,-25.75 600.87,-29.25"/>
</g>
<!-- collections.abc.Reversible&#45;&gt;collections.abc.Sequence -->
<g id="edge6" class="edge">
<title>collections.abc.Reversible&#45;&gt;collections.abc.Sequence</title>
<path fill="none" stroke="maroon" stroke-width="0.5" d="M366.67,-15.8C385.43,-17.45 405.71,-19.25 424.63,-20.92"/>
<polygon fill="maroon" stroke="maroon" stroke-width="0.5" points="424.79,-22.69 429.92,-21.39 425.1,-19.21 424.79,-22.69"/>
</g>
<!-- json.decoder.JSONDecoder -->
<g id="node8" class="node">
<title>json.decoder.JSONDecoder</title>
<g id="a_node8"><a xlink:title="Simple JSON &lt;http://json.org&gt; decoder">
<polygon fill="white" stroke="#7f7f7f" stroke-width="0.5" points="152.5,-130 6.5,-130 6.5,-111 152.5,-111 152.5,-130"/>
<text text-anchor="middle" x="79.5" y="-118" font-family="Vera Sans, DejaVu Sans, Liberation Sans, Arial, Helvetica, sans" font-size="10.00">json.decoder.JSONDecoder</text>
</a>
</g>
</g>
<!-- pharmpy.results.ResultsJSONDecoder -->
<g id="node15" class="node">
<title>pharmpy.results.ResultsJSONDecoder</title>
<g id="a_node15"><a xlink:href="../reference/pharmpy.results.html#pharmpy.results.ResultsJSONDecoder" xlink:title="pharmpy.results.ResultsJSONDecoder" target="_top">
<polygon fill="white" stroke="#7f7f7f" stroke-width="0.5" points="393.5,-130 195.5,-130 195.5,-111 393.5,-111 393.5,-130"/>
<text text-anchor="middle" x="294.5" y="-118" font-family="Vera Sans, DejaVu Sans, Liberation Sans, Arial, Helvetica, sans" font-size="10.00">pharmpy.results.ResultsJSONDecoder</text>
</a>
</g>
</g>
<!-- json.decoder.JSONDecoder&#45;&gt;pharmpy.results.ResultsJSONDecoder -->
<g id="edge12" class="edge">
<title>json.decoder.JSONDecoder&#45;&gt;pharmpy.results.ResultsJSONDecoder</title>
<path fill="none" stroke="maroon" stroke-width="0.5" d="M152.61,-120.5C164.76,-120.5 177.57,-120.5 190.32,-120.5"/>
<polygon fill="maroon" stroke="maroon" stroke-width="0.5" points="190.4,-122.25 195.4,-120.5 190.4,-118.75 190.4,-122.25"/>
</g>
<!-- json.encoder.JSONEncoder -->
<g id="node9" class="node">
<title>json.encoder.JSONEncoder</title>
<g id="a_node9"><a xlink:title="Extensible JSON &lt;http://json.org&gt; encoder for Python data structures.">
<polygon fill="white" stroke="#7f7f7f" stroke-width="0.5" points="151.5,-167 7.5,-167 7.5,-148 151.5,-148 151.5,-167"/>
<text text-anchor="middle" x="79.5" y="-155" font-family="Vera Sans, DejaVu Sans, Liberation Sans, Arial, Helvetica, sans" font-size="10.00">json.encoder.JSONEncoder</text>
</a>
</g>
</g>
<!-- pharmpy.results.ResultsJSONEncoder -->
<g id="node16" class="node">
<title>pharmpy.results.ResultsJSONEncoder</title>
<g id="a_node16"><a xlink:href="../reference/pharmpy.results.html#pharmpy.results.ResultsJSONEncoder" xlink:title="pharmpy.results.ResultsJSONEncoder" target="_top">
<polygon fill="white" stroke="#7f7f7f" stroke-width="0.5" points="393,-167 196,-167 196,-148 393,-148 393,-167"/>
<text text-anchor="middle" x="294.5" y="-155" font-family="Vera Sans, DejaVu Sans, Liberation Sans, Arial, Helvetica, sans" font-size="10.00">pharmpy.results.ResultsJSONEncoder</text>
</a>
</g>
</g>
<!-- json.encoder.JSONEncoder&#45;&gt;pharmpy.results.ResultsJSONEncoder -->
<g id="edge13" class="edge">
<title>json.encoder.JSONEncoder&#45;&gt;pharmpy.results.ResultsJSONEncoder</title>
<path fill="none" stroke="maroon" stroke-width="0.5" d="M151.72,-157.5C164.21,-157.5 177.44,-157.5 190.58,-157.5"/>
<polygon fill="maroon" stroke="maroon" stroke-width="0.5" points="190.81,-159.25 195.81,-157.5 190.81,-155.75 190.81,-159.25"/>
</g>
<!-- pharmpy.config.Configuration -->
<g id="node10" class="node">
<title>pharmpy.config.Configuration</title>
<g id="a_node10"><a xlink:href="../pharmpy.config.html#pharmpy.config.Configuration" xlink:title="pharmpy.config.Configuration" target="_top">
<polygon fill="white" stroke="#7f7f7f" stroke-width="0.5" points="159,-204 0,-204 0,-185 159,-185 159,-204"/>
<text text-anchor="middle" x="79.5" y="-192" font-family="Vera Sans, DejaVu Sans, Liberation Sans, Arial, Helvetica, sans" font-size="10.00">pharmpy.config.Configuration</text>
</a>
</g>
</g>
<!-- pharmpy.results.ResultsConfiguration -->
<g id="node14" class="node">
<title>pharmpy.results.ResultsConfiguration</title>
<g id="a_node14"><a xlink:href="../reference/pharmpy.results.html#pharmpy.results.ResultsConfiguration" xlink:title="pharmpy.results.ResultsConfiguration" target="_top">
<polygon fill="white" stroke="#7f7f7f" stroke-width="0.5" points="394,-204 195,-204 195,-185 394,-185 394,-204"/>
<text text-anchor="middle" x="294.5" y="-192" font-family="Vera Sans, DejaVu Sans, Liberation Sans, Arial, Helvetica, sans" font-size="10.00">pharmpy.results.ResultsConfiguration</text>
</a>
</g>
</g>
<!-- pharmpy.config.Configuration&#45;&gt;pharmpy.results.ResultsConfiguration -->
<g id="edge11" class="edge">
<title>pharmpy.config.Configuration&#45;&gt;pharmpy.results.ResultsConfiguration</title>
<path fill="none" stroke="maroon" stroke-width="0.5" d="M159.21,-194.5C169.19,-194.5 179.52,-194.5 189.81,-194.5"/>
<polygon fill="maroon" stroke="maroon" stroke-width="0.5" points="189.86,-196.25 194.86,-194.5 189.86,-192.75 189.86,-196.25"/>
</g>
<!-- pharmpy.results.ModelfitResults -->
<g id="node12" class="node">
<title>pharmpy.results.ModelfitResults</title>
<g id="a_node12"><a xlink:href="../reference/pharmpy.results.html#pharmpy.results.ModelfitResults" xlink:title="Base class for results from a modelfit operation" target="_top">
<polygon fill="white" stroke="#7f7f7f" stroke-width="0.5" points="782,-74 609,-74 609,-55 782,-55 782,-74"/>
<text text-anchor="middle" x="695.5" y="-62" font-family="Vera Sans, DejaVu Sans, Liberation Sans, Arial, Helvetica, sans" font-size="10.00">pharmpy.results.ModelfitResults</text>
</a>
</g>
</g>
<!-- pharmpy.results.ModelfitResults&#45;&gt;pharmpy.results.ChainedModelfitResults -->
<g id="edge9" class="edge">
<title>pharmpy.results.ModelfitResults&#45;&gt;pharmpy.results.ChainedModelfitResults</title>
<path fill="none" stroke="maroon" stroke-width="0.5" d="M782.14,-57.43C793.11,-56.52 804.45,-55.58 815.75,-54.65"/>
<polygon fill="maroon" stroke="maroon" stroke-width="0.5" points="816.09,-56.38 820.93,-54.22 815.8,-52.89 816.09,-56.38"/>
</g>
<!-- pharmpy.results.Results -->
<g id="node13" class="node">
<title>pharmpy.results.Results</title>
<g id="a_node13"><a xlink:href="../reference/pharmpy.results.html#pharmpy.results.Results" xlink:title="Base class for all result classes" target="_top">
<polygon fill="white" stroke="#7f7f7f" stroke-width="0.5" points="567,-74 433,-74 433,-55 567,-55 567,-74"/>
<text text-anchor="middle" x="500" y="-62" font-family="Vera Sans, DejaVu Sans, Liberation Sans, Arial, Helvetica, sans" font-size="10.00">pharmpy.results.Results</text>
</a>
</g>
</g>
<!-- pharmpy.results.Results&#45;&gt;pharmpy.results.ModelfitResults -->
<g id="edge10" class="edge">
<title>pharmpy.results.Results&#45;&gt;pharmpy.results.ModelfitResults</title>
<path fill="none" stroke="maroon" stroke-width="0.5" d="M567.05,-64.5C578.83,-64.5 591.29,-64.5 603.63,-64.5"/>
<polygon fill="maroon" stroke="maroon" stroke-width="0.5" points="603.9,-66.25 608.9,-64.5 603.9,-62.75 603.9,-66.25"/>
</g>
</g>
</svg>
