<?xml version="1.0" encoding="UTF-8" standalone="no"?>
<!DOCTYPE svg PUBLIC "-//W3C//DTD SVG 1.1//EN"
 "http://www.w3.org/Graphics/SVG/1.1/DTD/svg11.dtd">
<!-- Generated by graphviz version 2.43.0 (0)
 -->
<!-- Title: inheritance59db821a26 Pages: 1 -->
<svg width="576pt" height="84pt"
 viewBox="0.00 0.00 576.00 83.67" xmlns="http://www.w3.org/2000/svg" xmlns:xlink="http://www.w3.org/1999/xlink">
<g id="graph0" class="graph" transform="scale(1.65 1.65) rotate(0) translate(4 134)">
<title>inheritance59db821a26</title>
<!-- collections.abc.Collection -->
<g id="node1" class="node">
<title>collections.abc.Collection</title>
<polygon fill="white" stroke="#7f7f7f" stroke-width="0.5" points="343.5,-56 202.5,-56 202.5,-37 343.5,-37 343.5,-56"/>
<text text-anchor="middle" x="273" y="-44" font-family="Vera Sans, DejaVu Sans, Liberation Sans, Arial, Helvetica, sans" font-size="10.00">collections.abc.Collection</text>
</g>
<!-- collections.abc.Sequence -->
<g id="node6" class="node">
<title>collections.abc.Sequence</title>
<g id="a_node6"><a xlink:title="All the operations on a read&#45;only sequence.">
<polygon fill="white" stroke="#7f7f7f" stroke-width="0.5" points="521,-37 381,-37 381,-18 521,-18 521,-37"/>
<text text-anchor="middle" x="451" y="-25" font-family="Vera Sans, DejaVu Sans, Liberation Sans, Arial, Helvetica, sans" font-size="10.00">collections.abc.Sequence</text>
</a>
</g>
</g>
<!-- collections.abc.Collection&#45;&gt;collections.abc.Sequence -->
<g id="edge7" class="edge">
<title>collections.abc.Collection&#45;&gt;collections.abc.Sequence</title>
<path fill="none" stroke="maroon" stroke-width="0.5" d="M343.56,-38.99C354.13,-37.85 365.07,-36.67 375.73,-35.52"/>
<polygon fill="maroon" stroke="maroon" stroke-width="0.5" points="376.16,-37.23 380.95,-34.95 375.79,-33.75 376.16,-37.23"/>
</g>
<!-- collections.abc.Sized -->
<g id="node2" class="node">
<title>collections.abc.Sized</title>
<polygon fill="white" stroke="#7f7f7f" stroke-width="0.5" points="142,-93 23,-93 23,-74 142,-74 142,-93"/>
<text text-anchor="middle" x="82.5" y="-81" font-family="Vera Sans, DejaVu Sans, Liberation Sans, Arial, Helvetica, sans" font-size="10.00">collections.abc.Sized</text>
</g>
<!-- collections.abc.Sized&#45;&gt;collections.abc.Collection -->
<g id="edge1" class="edge">
<title>collections.abc.Sized&#45;&gt;collections.abc.Collection</title>
<path fill="none" stroke="maroon" stroke-width="0.5" d="M132.04,-73.97C158.44,-68.79 191.14,-62.37 218.29,-57.04"/>
<polygon fill="maroon" stroke="maroon" stroke-width="0.5" points="218.72,-58.74 223.29,-56.06 218.05,-55.31 218.72,-58.74"/>
</g>
<!-- collections.abc.Iterable -->
<g id="node3" class="node">
<title>collections.abc.Iterable</title>
<polygon fill="white" stroke="#7f7f7f" stroke-width="0.5" points="147.5,-19 17.5,-19 17.5,0 147.5,0 147.5,-19"/>
<text text-anchor="middle" x="82.5" y="-7" font-family="Vera Sans, DejaVu Sans, Liberation Sans, Arial, Helvetica, sans" font-size="10.00">collections.abc.Iterable</text>
</g>
<!-- collections.abc.Iterable&#45;&gt;collections.abc.Collection -->
<g id="edge2" class="edge">
<title>collections.abc.Iterable&#45;&gt;collections.abc.Collection</title>
<path fill="none" stroke="maroon" stroke-width="0.5" d="M132.04,-19.03C158.44,-24.21 191.14,-30.63 218.29,-35.96"/>
<polygon fill="maroon" stroke="maroon" stroke-width="0.5" points="218.05,-37.69 223.29,-36.94 218.72,-34.26 218.05,-37.69"/>
</g>
<!-- collections.abc.Reversible -->
<g id="node7" class="node">
<title>collections.abc.Reversible</title>
<polygon fill="white" stroke="#7f7f7f" stroke-width="0.5" points="345,-19 201,-19 201,0 345,0 345,-19"/>
<text text-anchor="middle" x="273" y="-7" font-family="Vera Sans, DejaVu Sans, Liberation Sans, Arial, Helvetica, sans" font-size="10.00">collections.abc.Reversible</text>
</g>
<!-- collections.abc.Iterable&#45;&gt;collections.abc.Reversible -->
<g id="edge5" class="edge">
<title>collections.abc.Iterable&#45;&gt;collections.abc.Reversible</title>
<path fill="none" stroke="maroon" stroke-width="0.5" d="M147.58,-9.5C163.02,-9.5 179.66,-9.5 195.6,-9.5"/>
<polygon fill="maroon" stroke="maroon" stroke-width="0.5" points="195.98,-11.25 200.98,-9.5 195.98,-7.75 195.98,-11.25"/>
</g>
<!-- collections.abc.Container -->
<g id="node4" class="node">
<title>collections.abc.Container</title>
<polygon fill="white" stroke="#7f7f7f" stroke-width="0.5" points="152.5,-56 12.5,-56 12.5,-37 152.5,-37 152.5,-56"/>
<text text-anchor="middle" x="82.5" y="-44" font-family="Vera Sans, DejaVu Sans, Liberation Sans, Arial, Helvetica, sans" font-size="10.00">collections.abc.Container</text>
</g>
<!-- collections.abc.Container&#45;&gt;collections.abc.Collection -->
<g id="edge3" class="edge">
<title>collections.abc.Container&#45;&gt;collections.abc.Collection</title>
<path fill="none" stroke="maroon" stroke-width="0.5" d="M152.62,-46.5C167.03,-46.5 182.29,-46.5 196.9,-46.5"/>
<polygon fill="maroon" stroke="maroon" stroke-width="0.5" points="197.26,-48.25 202.26,-46.5 197.26,-44.75 197.26,-48.25"/>
</g>
<!-- collections.abc.MutableSequence -->
<g id="node5" class="node">
<title>collections.abc.MutableSequence</title>
<polygon fill="white" stroke="#7f7f7f" stroke-width="0.5" points="736,-37 557,-37 557,-18 736,-18 736,-37"/>
<text text-anchor="middle" x="646.5" y="-25" font-family="Vera Sans, DejaVu Sans, Liberation Sans, Arial, Helvetica, sans" font-size="10.00">collections.abc.MutableSequence</text>
</g>
<!-- pharmpy.parameter.Parameters -->
<g id="node9" class="node">
<title>pharmpy.parameter.Parameters</title>
<g id="a_node9"><a xlink:href="../reference/pharmpy.parameter.html#pharmpy.parameter.Parameters" xlink:title="A collection of parameters" target="_top">
<polygon fill="white" stroke="#7f7f7f" stroke-width="0.5" points="942,-37 772,-37 772,-18 942,-18 942,-37"/>
<text text-anchor="middle" x="857" y="-25" font-family="Vera Sans, DejaVu Sans, Liberation Sans, Arial, Helvetica, sans" font-size="10.00">pharmpy.parameter.Parameters</text>
</a>
</g>
</g>
<!-- collections.abc.MutableSequence&#45;&gt;pharmpy.parameter.Parameters -->
<g id="edge8" class="edge">
<title>collections.abc.MutableSequence&#45;&gt;pharmpy.parameter.Parameters</title>
<path fill="none" stroke="maroon" stroke-width="0.5" d="M736.23,-27.5C746.32,-27.5 756.62,-27.5 766.73,-27.5"/>
<polygon fill="maroon" stroke="maroon" stroke-width="0.5" points="766.99,-29.25 771.99,-27.5 766.99,-25.75 766.99,-29.25"/>
</g>
<!-- collections.abc.Sequence&#45;&gt;collections.abc.MutableSequence -->
<g id="edge4" class="edge">
<title>collections.abc.Sequence&#45;&gt;collections.abc.MutableSequence</title>
<path fill="none" stroke="maroon" stroke-width="0.5" d="M521.04,-27.5C531.02,-27.5 541.43,-27.5 551.79,-27.5"/>
<polygon fill="maroon" stroke="maroon" stroke-width="0.5" points="551.87,-29.25 556.87,-27.5 551.87,-25.75 551.87,-29.25"/>
</g>
<!-- collections.abc.Reversible&#45;&gt;collections.abc.Sequence -->
<g id="edge6" class="edge">
<title>collections.abc.Reversible&#45;&gt;collections.abc.Sequence</title>
<path fill="none" stroke="maroon" stroke-width="0.5" d="M345.08,-16.77C355.25,-17.81 365.72,-18.88 375.95,-19.93"/>
<polygon fill="maroon" stroke="maroon" stroke-width="0.5" points="375.79,-21.67 380.94,-20.44 376.15,-18.19 375.79,-21.67"/>
</g>
<!-- pharmpy.parameter.Parameter -->
<g id="node8" class="node">
<title>pharmpy.parameter.Parameter</title>
<g id="a_node8"><a xlink:href="../reference/pharmpy.parameter.html#pharmpy.parameter.Parameter" xlink:title="A single parameter" target="_top">
<polygon fill="white" stroke="#7f7f7f" stroke-width="0.5" points="165,-130 0,-130 0,-111 165,-111 165,-130"/>
<text text-anchor="middle" x="82.5" y="-118" font-family="Vera Sans, DejaVu Sans, Liberation Sans, Arial, Helvetica, sans" font-size="10.00">pharmpy.parameter.Parameter</text>
</a>
</g>
</g>
</g>
</svg>
