<?xml version="1.0" encoding="UTF-8" standalone="no"?>
<!DOCTYPE svg PUBLIC "-//W3C//DTD SVG 1.1//EN"
 "http://www.w3.org/Graphics/SVG/1.1/DTD/svg11.dtd">
<!-- Generated by graphviz version 2.43.0 (0)
 -->
<!-- Title: inheritancef5bb744db4 Pages: 1 -->
<svg width="576pt" height="160pt"
 viewBox="0.00 0.00 576.00 159.56" xmlns="http://www.w3.org/2000/svg" xmlns:xlink="http://www.w3.org/1999/xlink">
<g id="graph0" class="graph" transform="scale(2.02 2.02) rotate(0) translate(4 319)">
<title>inheritancef5bb744db4</title>
<!-- enum.Enum -->
<g id="node1" class="node">
<title>enum.Enum</title>
<g id="a_node1"><a xlink:title="Generic enumeration.">
<polygon fill="white" stroke="#7f7f7f" stroke-width="0.5" points="161.5,-19 86.5,-19 86.5,0 161.5,0 161.5,-19"/>
<text text-anchor="middle" x="124" y="-7" font-family="Vera Sans, DejaVu Sans, Liberation Sans, Arial, Helvetica, sans" font-size="10.00">enum.Enum</text>
</a>
</g>
</g>
<!-- pharmpy.data.data_frame.ColumnType -->
<g id="node8" class="node">
<title>pharmpy.data.data_frame.ColumnType</title>
<g id="a_node8"><a xlink:href="../reference/pharmpy.data.data_frame.html#pharmpy.data.data_frame.ColumnType" xlink:title="The type of the data in a column" target="_top">
<polygon fill="white" stroke="#7f7f7f" stroke-width="0.5" points="490,-19 284,-19 284,0 490,0 490,-19"/>
<text text-anchor="middle" x="387" y="-7" font-family="Vera Sans, DejaVu Sans, Liberation Sans, Arial, Helvetica, sans" font-size="10.00">pharmpy.data.data_frame.ColumnType</text>
</a>
</g>
</g>
<!-- enum.Enum&#45;&gt;pharmpy.data.data_frame.ColumnType -->
<g id="edge6" class="edge">
<title>enum.Enum&#45;&gt;pharmpy.data.data_frame.ColumnType</title>
<path fill="none" stroke="maroon" stroke-width="0.5" d="M161.57,-9.5C192.03,-9.5 237.03,-9.5 278.76,-9.5"/>
<polygon fill="maroon" stroke="maroon" stroke-width="0.5" points="278.83,-11.25 283.83,-9.5 278.83,-7.75 278.83,-11.25"/>
</g>
<!-- pandas.core.accessor.DirNamesMixin -->
<g id="node2" class="node">
<title>pandas.core.accessor.DirNamesMixin</title>
<polygon fill="white" stroke="#7f7f7f" stroke-width="0.5" points="224,-130 24,-130 24,-111 224,-111 224,-130"/>
<text text-anchor="middle" x="124" y="-118" font-family="Vera Sans, DejaVu Sans, Liberation Sans, Arial, Helvetica, sans" font-size="10.00">pandas.core.accessor.DirNamesMixin</text>
</g>
<!-- pandas.core.base.PandasObject -->
<g id="node3" class="node">
<title>pandas.core.base.PandasObject</title>
<g id="a_node3"><a xlink:title="Baseclass for various pandas objects.">
<polygon fill="white" stroke="#7f7f7f" stroke-width="0.5" points="472.5,-130 301.5,-130 301.5,-111 472.5,-111 472.5,-130"/>
<text text-anchor="middle" x="387" y="-118" font-family="Vera Sans, DejaVu Sans, Liberation Sans, Arial, Helvetica, sans" font-size="10.00">pandas.core.base.PandasObject</text>
</a>
</g>
</g>
<!-- pandas.core.accessor.DirNamesMixin&#45;&gt;pandas.core.base.PandasObject -->
<g id="edge1" class="edge">
<title>pandas.core.accessor.DirNamesMixin&#45;&gt;pandas.core.base.PandasObject</title>
<path fill="none" stroke="maroon" stroke-width="0.5" d="M224.05,-120.5C247.64,-120.5 272.7,-120.5 295.87,-120.5"/>
<polygon fill="maroon" stroke="maroon" stroke-width="0.5" points="296.09,-122.25 301.09,-120.5 296.09,-118.75 296.09,-122.25"/>
</g>
<!-- pandas.core.generic.NDFrame -->
<g id="node6" class="node">
<title>pandas.core.generic.NDFrame</title>
<g id="a_node6"><a xlink:title="N&#45;dimensional analogue of DataFrame. Store multi&#45;dimensional in a">
<polygon fill="white" stroke="#7f7f7f" stroke-width="0.5" points="690,-93 526,-93 526,-74 690,-74 690,-93"/>
<text text-anchor="middle" x="608" y="-81" font-family="Vera Sans, DejaVu Sans, Liberation Sans, Arial, Helvetica, sans" font-size="10.00">pandas.core.generic.NDFrame</text>
</a>
</g>
</g>
<!-- pandas.core.base.PandasObject&#45;&gt;pandas.core.generic.NDFrame -->
<g id="edge3" class="edge">
<title>pandas.core.base.PandasObject&#45;&gt;pandas.core.generic.NDFrame</title>
<path fill="none" stroke="maroon" stroke-width="0.5" d="M444.4,-110.97C475.31,-105.75 513.68,-99.27 545.38,-93.91"/>
<polygon fill="maroon" stroke="maroon" stroke-width="0.5" points="545.77,-95.62 550.41,-93.06 545.19,-92.17 545.77,-95.62"/>
</g>
<!-- pandas.core.base.SelectionMixin -->
<g id="node4" class="node">
<title>pandas.core.base.SelectionMixin</title>
<g id="a_node4"><a xlink:title="mixin implementing the selection &amp; aggregation interface on a group&#45;like">
<polygon fill="white" stroke="#7f7f7f" stroke-width="0.5" points="475.5,-93 298.5,-93 298.5,-74 475.5,-74 475.5,-93"/>
<text text-anchor="middle" x="387" y="-81" font-family="Vera Sans, DejaVu Sans, Liberation Sans, Arial, Helvetica, sans" font-size="10.00">pandas.core.base.SelectionMixin</text>
</a>
</g>
</g>
<!-- pandas.core.base.SelectionMixin&#45;&gt;pandas.core.generic.NDFrame -->
<g id="edge4" class="edge">
<title>pandas.core.base.SelectionMixin&#45;&gt;pandas.core.generic.NDFrame</title>
<path fill="none" stroke="maroon" stroke-width="0.5" d="M475.81,-83.5C490.55,-83.5 505.82,-83.5 520.52,-83.5"/>
<polygon fill="maroon" stroke="maroon" stroke-width="0.5" points="520.91,-85.25 525.91,-83.5 520.91,-81.75 520.91,-85.25"/>
</g>
<!-- pandas.core.frame.DataFrame -->
<g id="node5" class="node">
<title>pandas.core.frame.DataFrame</title>
<g id="a_node5"><a xlink:title="Two&#45;dimensional, size&#45;mutable, potentially heterogeneous tabular data.">
<polygon fill="white" stroke="#7f7f7f" stroke-width="0.5" points="891,-93 726,-93 726,-74 891,-74 891,-93"/>
<text text-anchor="middle" x="808.5" y="-81" font-family="Vera Sans, DejaVu Sans, Liberation Sans, Arial, Helvetica, sans" font-size="10.00">pandas.core.frame.DataFrame</text>
</a>
</g>
</g>
<!-- pharmpy.data.data_frame.PharmDataFrame -->
<g id="node14" class="node">
<title>pharmpy.data.data_frame.PharmDataFrame</title>
<g id="a_node14"><a xlink:href="../reference/pharmpy.data.data_frame.html#pharmpy.data.data_frame.PharmDataFrame" xlink:title="A DataFrame with additional metadata." target="_top">
<polygon fill="white" stroke="#7f7f7f" stroke-width="0.5" points="1158,-93 927,-93 927,-74 1158,-74 1158,-93"/>
<text text-anchor="middle" x="1042.5" y="-81" font-family="Vera Sans, DejaVu Sans, Liberation Sans, Arial, Helvetica, sans" font-size="10.00">pharmpy.data.data_frame.PharmDataFrame</text>
</a>
</g>
</g>
<!-- pandas.core.frame.DataFrame&#45;&gt;pharmpy.data.data_frame.PharmDataFrame -->
<g id="edge7" class="edge">
<title>pandas.core.frame.DataFrame&#45;&gt;pharmpy.data.data_frame.PharmDataFrame</title>
<path fill="none" stroke="maroon" stroke-width="0.5" d="M891.29,-83.5C901.16,-83.5 911.39,-83.5 921.66,-83.5"/>
<polygon fill="maroon" stroke="maroon" stroke-width="0.5" points="921.7,-85.25 926.7,-83.5 921.7,-81.75 921.7,-85.25"/>
</g>
<!-- pandas.core.generic.NDFrame&#45;&gt;pandas.core.frame.DataFrame -->
<g id="edge2" class="edge">
<title>pandas.core.generic.NDFrame&#45;&gt;pandas.core.frame.DataFrame</title>
<path fill="none" stroke="maroon" stroke-width="0.5" d="M690.02,-83.5C700.07,-83.5 710.37,-83.5 720.49,-83.5"/>
<polygon fill="maroon" stroke="maroon" stroke-width="0.5" points="720.77,-85.25 725.77,-83.5 720.77,-81.75 720.77,-85.25"/>
</g>
<!-- pandas.core.indexing.IndexingMixin -->
<g id="node7" class="node">
<title>pandas.core.indexing.IndexingMixin</title>
<g id="a_node7"><a xlink:title="Mixin for adding .loc/.iloc/.at/.iat to Dataframes and Series.">
<polygon fill="white" stroke="#7f7f7f" stroke-width="0.5" points="483.5,-56 290.5,-56 290.5,-37 483.5,-37 483.5,-56"/>
<text text-anchor="middle" x="387" y="-44" font-family="Vera Sans, DejaVu Sans, Liberation Sans, Arial, Helvetica, sans" font-size="10.00">pandas.core.indexing.IndexingMixin</text>
</a>
</g>
</g>
<!-- pandas.core.indexing.IndexingMixin&#45;&gt;pandas.core.generic.NDFrame -->
<g id="edge5" class="edge">
<title>pandas.core.indexing.IndexingMixin&#45;&gt;pandas.core.generic.NDFrame</title>
<path fill="none" stroke="maroon" stroke-width="0.5" d="M444.4,-56.03C475.31,-61.25 513.68,-67.73 545.38,-73.09"/>
<polygon fill="maroon" stroke="maroon" stroke-width="0.5" points="545.19,-74.83 550.41,-73.94 545.77,-71.38 545.19,-74.83"/>
</g>
<!-- pharmpy.data.data_frame.ColumnTypeIndexer -->
<g id="node9" class="node">
<title>pharmpy.data.data_frame.ColumnTypeIndexer</title>
<g id="a_node9"><a xlink:href="../reference/pharmpy.data.data_frame.html#pharmpy.data.data_frame.ColumnTypeIndexer" xlink:title="Indexing a PharmDataFrame to get or set column types" target="_top">
<polygon fill="white" stroke="#7f7f7f" stroke-width="0.5" points="245,-167 3,-167 3,-148 245,-148 245,-167"/>
<text text-anchor="middle" x="124" y="-155" font-family="Vera Sans, DejaVu Sans, Liberation Sans, Arial, Helvetica, sans" font-size="10.00">pharmpy.data.data_frame.ColumnTypeIndexer</text>
</a>
</g>
</g>
<!-- pharmpy.data.data_frame.DataFrameAccessor -->
<g id="node10" class="node">
<title>pharmpy.data.data_frame.DataFrameAccessor</title>
<g id="a_node10"><a xlink:href="../reference/pharmpy.data.data_frame.html#pharmpy.data.data_frame.DataFrameAccessor" xlink:title="pharmpy.data.data_frame.DataFrameAccessor" target="_top">
<polygon fill="white" stroke="#7f7f7f" stroke-width="0.5" points="245.5,-204 2.5,-204 2.5,-185 245.5,-185 245.5,-204"/>
<text text-anchor="middle" x="124" y="-192" font-family="Vera Sans, DejaVu Sans, Liberation Sans, Arial, Helvetica, sans" font-size="10.00">pharmpy.data.data_frame.DataFrameAccessor</text>
</a>
</g>
</g>
<!-- pharmpy.data.data_frame.DatasetError -->
<g id="node11" class="node">
<title>pharmpy.data.data_frame.DatasetError</title>
<g id="a_node11"><a xlink:href="../reference/pharmpy.data.data_frame.html#pharmpy.data.data_frame.DatasetError" xlink:title="pharmpy.data.data_frame.DatasetError" target="_top">
<polygon fill="white" stroke="#7f7f7f" stroke-width="0.5" points="227.5,-241 20.5,-241 20.5,-222 227.5,-222 227.5,-241"/>
<text text-anchor="middle" x="124" y="-229" font-family="Vera Sans, DejaVu Sans, Liberation Sans, Arial, Helvetica, sans" font-size="10.00">pharmpy.data.data_frame.DatasetError</text>
</a>
</g>
</g>
<!-- pharmpy.data.data_frame.DatasetWarning -->
<g id="node12" class="node">
<title>pharmpy.data.data_frame.DatasetWarning</title>
<g id="a_node12"><a xlink:href="../reference/pharmpy.data.data_frame.html#pharmpy.data.data_frame.DatasetWarning" xlink:title="pharmpy.data.data_frame.DatasetWarning" target="_top">
<polygon fill="white" stroke="#7f7f7f" stroke-width="0.5" points="236,-278 12,-278 12,-259 236,-259 236,-278"/>
<text text-anchor="middle" x="124" y="-266" font-family="Vera Sans, DejaVu Sans, Liberation Sans, Arial, Helvetica, sans" font-size="10.00">pharmpy.data.data_frame.DatasetWarning</text>
</a>
</g>
</g>
<!-- pharmpy.data.data_frame.LabelsByTypeIndexer -->
<g id="node13" class="node">
<title>pharmpy.data.data_frame.LabelsByTypeIndexer</title>
<g id="a_node13"><a xlink:href="../reference/pharmpy.data.data_frame.html#pharmpy.data.data_frame.LabelsByTypeIndexer" xlink:title="Indexing a PharmDataFrame to get labels from ColumnTypes" target="_top">
<polygon fill="white" stroke="#7f7f7f" stroke-width="0.5" points="248,-315 0,-315 0,-296 248,-296 248,-315"/>
<text text-anchor="middle" x="124" y="-303" font-family="Vera Sans, DejaVu Sans, Liberation Sans, Arial, Helvetica, sans" font-size="10.00">pharmpy.data.data_frame.LabelsByTypeIndexer</text>
</a>
</g>
</g>
</g>
</svg>
