<?xml version="1.0" encoding="UTF-8" standalone="no"?>
<!DOCTYPE svg PUBLIC "-//W3C//DTD SVG 1.1//EN"
 "http://www.w3.org/Graphics/SVG/1.1/DTD/svg11.dtd">
<!-- Generated by graphviz version 2.40.1 (20161225.0304)
 -->
<!-- Title: inheritance59db821a26 Pages: 1 -->
<svg width="576pt" height="71pt"
 viewBox="0.00 0.00 576.00 70.66" xmlns="http://www.w3.org/2000/svg" xmlns:xlink="http://www.w3.org/1999/xlink">
<g id="graph0" class="graph" transform="scale(.512 .512) rotate(0) translate(4 134)">
<title>inheritance59db821a26</title>
<!-- collections.abc.Collection -->
<g id="node1" class="node">
<title>collections.abc.Collection</title>
<polygon fill="#ffffff" stroke="#7f7f7f" stroke-width=".5" points="342,-56 201,-56 201,-37 342,-37 342,-56"/>
<text text-anchor="middle" x="271.5" y="-44" font-family="Vera Sans, DejaVu Sans, Liberation Sans, Arial, Helvetica, sans" font-size="10.00" fill="#000000">collections.abc.Collection</text>
</g>
<!-- collections.abc.Set -->
<g id="node6" class="node">
<title>collections.abc.Set</title>
<g id="a_node6"><a xlink:title="A set is a finite, iterable container.">
<polygon fill="#ffffff" stroke="#7f7f7f" stroke-width=".5" points="486,-56 378,-56 378,-37 486,-37 486,-56"/>
<text text-anchor="middle" x="432" y="-44" font-family="Vera Sans, DejaVu Sans, Liberation Sans, Arial, Helvetica, sans" font-size="10.00" fill="#000000">collections.abc.Set</text>
</a>
</g>
</g>
<!-- collections.abc.Collection&#45;&gt;collections.abc.Set -->
<g id="edge5" class="edge">
<title>collections.abc.Collection&#45;&gt;collections.abc.Set</title>
<path fill="none" stroke="#b03060" stroke-width=".5" d="M342.3648,-46.5C352.5194,-46.5 362.8772,-46.5 372.7758,-46.5"/>
<polygon fill="#b03060" stroke="#b03060" stroke-width=".5" points="372.9068,-48.2501 377.9067,-46.5 372.9067,-44.7501 372.9068,-48.2501"/>
</g>
<!-- collections.abc.Sized -->
<g id="node2" class="node">
<title>collections.abc.Sized</title>
<polygon fill="#ffffff" stroke="#7f7f7f" stroke-width=".5" points="142,-93 23,-93 23,-74 142,-74 142,-93"/>
<text text-anchor="middle" x="82.5" y="-81" font-family="Vera Sans, DejaVu Sans, Liberation Sans, Arial, Helvetica, sans" font-size="10.00" fill="#000000">collections.abc.Sized</text>
</g>
<!-- collections.abc.Sized&#45;&gt;collections.abc.Collection -->
<g id="edge1" class="edge">
<title>collections.abc.Sized&#45;&gt;collections.abc.Collection</title>
<path fill="none" stroke="#b03060" stroke-width=".5" d="M131.1722,-73.9716C157.6342,-68.7912 190.422,-62.3724 217.6484,-57.0424"/>
<polygon fill="#b03060" stroke="#b03060" stroke-width=".5" points="218.094,-58.7384 222.6646,-56.0604 217.4215,-55.3036 218.094,-58.7384"/>
</g>
<!-- collections.abc.Iterable -->
<g id="node3" class="node">
<title>collections.abc.Iterable</title>
<polygon fill="#ffffff" stroke="#7f7f7f" stroke-width=".5" points="147.5,-56 17.5,-56 17.5,-37 147.5,-37 147.5,-56"/>
<text text-anchor="middle" x="82.5" y="-44" font-family="Vera Sans, DejaVu Sans, Liberation Sans, Arial, Helvetica, sans" font-size="10.00" fill="#000000">collections.abc.Iterable</text>
</g>
<!-- collections.abc.Iterable&#45;&gt;collections.abc.Collection -->
<g id="edge2" class="edge">
<title>collections.abc.Iterable&#45;&gt;collections.abc.Collection</title>
<path fill="none" stroke="#b03060" stroke-width=".5" d="M147.5431,-46.5C162.9885,-46.5 179.6005,-46.5 195.487,-46.5"/>
<polygon fill="#b03060" stroke="#b03060" stroke-width=".5" points="195.8441,-48.2501 200.8441,-46.5 195.8441,-44.7501 195.8441,-48.2501"/>
</g>
<!-- collections.abc.Container -->
<g id="node4" class="node">
<title>collections.abc.Container</title>
<polygon fill="#ffffff" stroke="#7f7f7f" stroke-width=".5" points="152.5,-19 12.5,-19 12.5,0 152.5,0 152.5,-19"/>
<text text-anchor="middle" x="82.5" y="-7" font-family="Vera Sans, DejaVu Sans, Liberation Sans, Arial, Helvetica, sans" font-size="10.00" fill="#000000">collections.abc.Container</text>
</g>
<!-- collections.abc.Container&#45;&gt;collections.abc.Collection -->
<g id="edge3" class="edge">
<title>collections.abc.Container&#45;&gt;collections.abc.Collection</title>
<path fill="none" stroke="#b03060" stroke-width=".5" d="M131.1722,-19.0284C157.6342,-24.2088 190.422,-30.6276 217.6484,-35.9576"/>
<polygon fill="#b03060" stroke="#b03060" stroke-width=".5" points="217.4215,-37.6964 222.6646,-36.9396 218.094,-34.2616 217.4215,-37.6964"/>
</g>
<!-- collections.abc.MutableSet -->
<g id="node5" class="node">
<title>collections.abc.MutableSet</title>
<g id="a_node5"><a xlink:title="A mutable set is a finite, iterable container.">
<polygon fill="#ffffff" stroke="#7f7f7f" stroke-width=".5" points="669,-56 522,-56 522,-37 669,-37 669,-56"/>
<text text-anchor="middle" x="595.5" y="-44" font-family="Vera Sans, DejaVu Sans, Liberation Sans, Arial, Helvetica, sans" font-size="10.00" fill="#000000">collections.abc.MutableSet</text>
</a>
</g>
</g>
<!-- pharmpy.data_structures.OrderedSet -->
<g id="node7" class="node">
<title>pharmpy.data_structures.OrderedSet</title>
<g id="a_node7"><a xlink:href="../pharmpy.data_structures.html#pharmpy.data_structures.OrderedSet" xlink:title="pharmpy.data_structures.OrderedSet" target="_top">
<polygon fill="#ffffff" stroke="#7f7f7f" stroke-width=".5" points="900,-56 705,-56 705,-37 900,-37 900,-56"/>
<text text-anchor="middle" x="802.5" y="-44" font-family="Vera Sans, DejaVu Sans, Liberation Sans, Arial, Helvetica, sans" font-size="10.00" fill="#000000">pharmpy.data_structures.OrderedSet</text>
</a>
</g>
</g>
<!-- collections.abc.MutableSet&#45;&gt;pharmpy.data_structures.OrderedSet -->
<g id="edge6" class="edge">
<title>collections.abc.MutableSet&#45;&gt;pharmpy.data_structures.OrderedSet</title>
<path fill="none" stroke="#b03060" stroke-width=".5" d="M669.0633,-46.5C679.0498,-46.5 689.4431,-46.5 699.8254,-46.5"/>
<polygon fill="#b03060" stroke="#b03060" stroke-width=".5" points="699.9195,-48.2501 704.9194,-46.5 699.9194,-44.7501 699.9195,-48.2501"/>
</g>
<!-- collections.abc.Set&#45;&gt;collections.abc.MutableSet -->
<g id="edge4" class="edge">
<title>collections.abc.Set&#45;&gt;collections.abc.MutableSet</title>
<path fill="none" stroke="#b03060" stroke-width=".5" d="M486.4431,-46.5C496.1826,-46.5 506.5063,-46.5 516.7665,-46.5"/>
<polygon fill="#b03060" stroke="#b03060" stroke-width=".5" points="516.7954,-48.2501 521.7954,-46.5 516.7954,-44.7501 516.7954,-48.2501"/>
</g>
<!-- pharmpy.parameter.ParameterSet -->
<g id="node9" class="node">
<title>pharmpy.parameter.ParameterSet</title>
<g id="a_node9"><a xlink:href="../reference/pharmpy.parameter.html#pharmpy.parameter.ParameterSet" xlink:title="A set of parameters" target="_top">
<polygon fill="#ffffff" stroke="#7f7f7f" stroke-width=".5" points="1117,-56 936,-56 936,-37 1117,-37 1117,-56"/>
<text text-anchor="middle" x="1026.5" y="-44" font-family="Vera Sans, DejaVu Sans, Liberation Sans, Arial, Helvetica, sans" font-size="10.00" fill="#000000">pharmpy.parameter.ParameterSet</text>
</a>
</g>
</g>
<!-- pharmpy.data_structures.OrderedSet&#45;&gt;pharmpy.parameter.ParameterSet -->
<g id="edge7" class="edge">
<title>pharmpy.data_structures.OrderedSet&#45;&gt;pharmpy.parameter.ParameterSet</title>
<path fill="none" stroke="#b03060" stroke-width=".5" d="M900.098,-46.5C910.2381,-46.5 920.5384,-46.5 930.6588,-46.5"/>
<polygon fill="#b03060" stroke="#b03060" stroke-width=".5" points="930.933,-48.2501 935.9329,-46.5 930.9329,-44.7501 930.933,-48.2501"/>
</g>
<!-- pharmpy.parameter.Parameter -->
<g id="node8" class="node">
<title>pharmpy.parameter.Parameter</title>
<g id="a_node8"><a xlink:href="../reference/pharmpy.parameter.html#pharmpy.parameter.Parameter" xlink:title="A single parameter" target="_top">
<polygon fill="#ffffff" stroke="#7f7f7f" stroke-width=".5" points="165,-130 0,-130 0,-111 165,-111 165,-130"/>
<text text-anchor="middle" x="82.5" y="-118" font-family="Vera Sans, DejaVu Sans, Liberation Sans, Arial, Helvetica, sans" font-size="10.00" fill="#000000">pharmpy.parameter.Parameter</text>
</a>
</g>
</g>
</g>
</svg>
