<?xml version="1.0" encoding="UTF-8" standalone="no"?>
<!DOCTYPE svg PUBLIC "-//W3C//DTD SVG 1.1//EN"
 "http://www.w3.org/Graphics/SVG/1.1/DTD/svg11.dtd">
<!-- Generated by graphviz version 2.43.0 (0)
 -->
<!-- Title: inheritancea434cc0e04 Pages: 1 -->
<svg width="576pt" height="237pt"
 viewBox="0.00 0.00 576.00 237.46" xmlns="http://www.w3.org/2000/svg" xmlns:xlink="http://www.w3.org/1999/xlink">
<g id="graph0" class="graph" transform="scale(1.05 1.05) rotate(0) translate(4 245)">
<title>inheritancea434cc0e04</title>
<!-- Assignment -->
<g id="node1" class="node">
<title>Assignment</title>
<g id="a_node1"><a xlink:href="../api/pharmpy.Assignment.html#pharmpy.Assignment" xlink:title="Representation of variable assignment" target="_top">
<polygon fill="white" stroke="#7f7f7f" stroke-width="0.5" points="93.5,-19 19.5,-19 19.5,0 93.5,0 93.5,-19"/>
<text text-anchor="middle" x="56.5" y="-7" font-family="Vera Sans, DejaVu Sans, Liberation Sans, Arial, Helvetica, sans" font-size="10.00">Assignment</text>
</a>
</g>
</g>
<!-- Collection -->
<g id="node2" class="node">
<title>Collection</title>
<polygon fill="white" stroke="#7f7f7f" stroke-width="0.5" points="215.5,-93 150.5,-93 150.5,-74 215.5,-74 215.5,-93"/>
<text text-anchor="middle" x="183" y="-81" font-family="Vera Sans, DejaVu Sans, Liberation Sans, Arial, Helvetica, sans" font-size="10.00">Collection</text>
</g>
<!-- Sequence -->
<g id="node8" class="node">
<title>Sequence</title>
<g id="a_node8"><a xlink:title="All the operations on a read&#45;only sequence.">
<polygon fill="white" stroke="#7f7f7f" stroke-width="0.5" points="317,-74 253,-74 253,-55 317,-55 317,-74"/>
<text text-anchor="middle" x="285" y="-62" font-family="Vera Sans, DejaVu Sans, Liberation Sans, Arial, Helvetica, sans" font-size="10.00">Sequence</text>
</a>
</g>
</g>
<!-- Collection&#45;&gt;Sequence -->
<g id="edge10" class="edge">
<title>Collection&#45;&gt;Sequence</title>
<path fill="none" stroke="maroon" stroke-width="0.5" d="M215.64,-77.49C225.87,-75.54 237.29,-73.38 247.82,-71.37"/>
<polygon fill="maroon" stroke="maroon" stroke-width="0.5" points="248.32,-73.06 252.91,-70.41 247.67,-69.62 248.32,-73.06"/>
</g>
<!-- Sized -->
<g id="node3" class="node">
<title>Sized</title>
<polygon fill="white" stroke="#7f7f7f" stroke-width="0.5" points="83.5,-130 29.5,-130 29.5,-111 83.5,-111 83.5,-130"/>
<text text-anchor="middle" x="56.5" y="-118" font-family="Vera Sans, DejaVu Sans, Liberation Sans, Arial, Helvetica, sans" font-size="10.00">Sized</text>
</g>
<!-- Sized&#45;&gt;Collection -->
<g id="edge1" class="edge">
<title>Sized&#45;&gt;Collection</title>
<path fill="none" stroke="maroon" stroke-width="0.5" d="M83.6,-112.74C101.48,-107.43 125.45,-100.31 145.25,-94.42"/>
<polygon fill="maroon" stroke="maroon" stroke-width="0.5" points="145.9,-96.06 150.19,-92.95 144.9,-92.7 145.9,-96.06"/>
</g>
<!-- Iterable -->
<g id="node4" class="node">
<title>Iterable</title>
<polygon fill="white" stroke="#7f7f7f" stroke-width="0.5" points="83.5,-56 29.5,-56 29.5,-37 83.5,-37 83.5,-56"/>
<text text-anchor="middle" x="56.5" y="-44" font-family="Vera Sans, DejaVu Sans, Liberation Sans, Arial, Helvetica, sans" font-size="10.00">Iterable</text>
</g>
<!-- Iterable&#45;&gt;Collection -->
<g id="edge2" class="edge">
<title>Iterable&#45;&gt;Collection</title>
<path fill="none" stroke="maroon" stroke-width="0.5" d="M83.6,-54.26C101.48,-59.57 125.45,-66.69 145.25,-72.58"/>
<polygon fill="maroon" stroke="maroon" stroke-width="0.5" points="144.9,-74.3 150.19,-74.05 145.9,-70.94 144.9,-74.3"/>
</g>
<!-- Reversible -->
<g id="node13" class="node">
<title>Reversible</title>
<polygon fill="white" stroke="#7f7f7f" stroke-width="0.5" points="217,-56 149,-56 149,-37 217,-37 217,-56"/>
<text text-anchor="middle" x="183" y="-44" font-family="Vera Sans, DejaVu Sans, Liberation Sans, Arial, Helvetica, sans" font-size="10.00">Reversible</text>
</g>
<!-- Iterable&#45;&gt;Reversible -->
<g id="edge8" class="edge">
<title>Iterable&#45;&gt;Reversible</title>
<path fill="none" stroke="maroon" stroke-width="0.5" d="M83.6,-46.5C100.94,-46.5 124,-46.5 143.44,-46.5"/>
<polygon fill="maroon" stroke="maroon" stroke-width="0.5" points="143.82,-48.25 148.82,-46.5 143.82,-44.75 143.82,-48.25"/>
</g>
<!-- Container -->
<g id="node5" class="node">
<title>Container</title>
<polygon fill="white" stroke="#7f7f7f" stroke-width="0.5" points="88.5,-93 24.5,-93 24.5,-74 88.5,-74 88.5,-93"/>
<text text-anchor="middle" x="56.5" y="-81" font-family="Vera Sans, DejaVu Sans, Liberation Sans, Arial, Helvetica, sans" font-size="10.00">Container</text>
</g>
<!-- Container&#45;&gt;Collection -->
<g id="edge3" class="edge">
<title>Container&#45;&gt;Collection</title>
<path fill="none" stroke="maroon" stroke-width="0.5" d="M88.6,-83.5C105.7,-83.5 127.02,-83.5 144.98,-83.5"/>
<polygon fill="maroon" stroke="maroon" stroke-width="0.5" points="145.44,-85.25 150.44,-83.5 145.44,-81.75 145.44,-85.25"/>
</g>
<!-- ModelStatements -->
<g id="node6" class="node">
<title>ModelStatements</title>
<g id="a_node6"><a xlink:href="../api/pharmpy.ModelStatements.html#pharmpy.ModelStatements" xlink:title="A list of sympy statements describing the model" target="_top">
<polygon fill="white" stroke="#7f7f7f" stroke-width="0.5" points="596,-111 493,-111 493,-92 596,-92 596,-111"/>
<text text-anchor="middle" x="544.5" y="-99" font-family="Vera Sans, DejaVu Sans, Liberation Sans, Arial, Helvetica, sans" font-size="10.00">ModelStatements</text>
</a>
</g>
</g>
<!-- MutableSequence -->
<g id="node7" class="node">
<title>MutableSequence</title>
<polygon fill="white" stroke="#7f7f7f" stroke-width="0.5" points="457,-74 353,-74 353,-55 457,-55 457,-74"/>
<text text-anchor="middle" x="405" y="-62" font-family="Vera Sans, DejaVu Sans, Liberation Sans, Arial, Helvetica, sans" font-size="10.00">MutableSequence</text>
</g>
<!-- MutableSequence&#45;&gt;ModelStatements -->
<g id="edge4" class="edge">
<title>MutableSequence&#45;&gt;ModelStatements</title>
<path fill="none" stroke="maroon" stroke-width="0.5" d="M441.41,-74.03C460.19,-79.08 483.35,-85.31 502.86,-90.56"/>
<polygon fill="maroon" stroke="maroon" stroke-width="0.5" points="502.45,-92.27 507.73,-91.88 503.36,-88.89 502.45,-92.27"/>
</g>
<!-- Parameters -->
<g id="node10" class="node">
<title>Parameters</title>
<g id="a_node10"><a xlink:href="../api/pharmpy.Parameters.html#pharmpy.Parameters" xlink:title="A collection of parameters" target="_top">
<polygon fill="white" stroke="#7f7f7f" stroke-width="0.5" points="580.5,-74 508.5,-74 508.5,-55 580.5,-55 580.5,-74"/>
<text text-anchor="middle" x="544.5" y="-62" font-family="Vera Sans, DejaVu Sans, Liberation Sans, Arial, Helvetica, sans" font-size="10.00">Parameters</text>
</a>
</g>
</g>
<!-- MutableSequence&#45;&gt;Parameters -->
<g id="edge6" class="edge">
<title>MutableSequence&#45;&gt;Parameters</title>
<path fill="none" stroke="maroon" stroke-width="0.5" d="M457.2,-64.5C472.3,-64.5 488.6,-64.5 502.93,-64.5"/>
<polygon fill="maroon" stroke="maroon" stroke-width="0.5" points="503.12,-66.25 508.12,-64.5 503.12,-62.75 503.12,-66.25"/>
</g>
<!-- RandomVariables -->
<g id="node12" class="node">
<title>RandomVariables</title>
<g id="a_node12"><a xlink:href="../api/pharmpy.RandomVariables.html#pharmpy.RandomVariables" xlink:title="A collection of random variables" target="_top">
<polygon fill="white" stroke="#7f7f7f" stroke-width="0.5" points="595.5,-37 493.5,-37 493.5,-18 595.5,-18 595.5,-37"/>
<text text-anchor="middle" x="544.5" y="-25" font-family="Vera Sans, DejaVu Sans, Liberation Sans, Arial, Helvetica, sans" font-size="10.00">RandomVariables</text>
</a>
</g>
</g>
<!-- MutableSequence&#45;&gt;RandomVariables -->
<g id="edge7" class="edge">
<title>MutableSequence&#45;&gt;RandomVariables</title>
<path fill="none" stroke="maroon" stroke-width="0.5" d="M441.41,-54.97C460.19,-49.92 483.35,-43.69 502.86,-38.44"/>
<polygon fill="maroon" stroke="maroon" stroke-width="0.5" points="503.36,-40.11 507.73,-37.12 502.45,-36.73 503.36,-40.11"/>
</g>
<!-- Sequence&#45;&gt;MutableSequence -->
<g id="edge5" class="edge">
<title>Sequence&#45;&gt;MutableSequence</title>
<path fill="none" stroke="maroon" stroke-width="0.5" d="M317,-64.5C326.39,-64.5 337.01,-64.5 347.53,-64.5"/>
<polygon fill="maroon" stroke="maroon" stroke-width="0.5" points="347.67,-66.25 352.67,-64.5 347.67,-62.75 347.67,-66.25"/>
</g>
<!-- Parameter -->
<g id="node9" class="node">
<title>Parameter</title>
<g id="a_node9"><a xlink:href="../api/pharmpy.Parameter.html#pharmpy.Parameter" xlink:title="A single parameter" target="_top">
<polygon fill="white" stroke="#7f7f7f" stroke-width="0.5" points="90,-167 23,-167 23,-148 90,-148 90,-167"/>
<text text-anchor="middle" x="56.5" y="-155" font-family="Vera Sans, DejaVu Sans, Liberation Sans, Arial, Helvetica, sans" font-size="10.00">Parameter</text>
</a>
</g>
</g>
<!-- RandomVariable -->
<g id="node11" class="node">
<title>RandomVariable</title>
<g id="a_node11"><a xlink:href="../api/pharmpy.RandomVariable.html#pharmpy.RandomVariable" xlink:title="A single random variable" target="_top">
<polygon fill="white" stroke="#7f7f7f" stroke-width="0.5" points="105,-204 8,-204 8,-185 105,-185 105,-204"/>
<text text-anchor="middle" x="56.5" y="-192" font-family="Vera Sans, DejaVu Sans, Liberation Sans, Arial, Helvetica, sans" font-size="10.00">RandomVariable</text>
</a>
</g>
</g>
<!-- Reversible&#45;&gt;Sequence -->
<g id="edge9" class="edge">
<title>Reversible&#45;&gt;Sequence</title>
<path fill="none" stroke="maroon" stroke-width="0.5" d="M217.02,-52.44C226.81,-54.21 237.58,-56.14 247.57,-57.94"/>
<polygon fill="maroon" stroke="maroon" stroke-width="0.5" points="247.48,-59.7 252.71,-58.87 248.1,-56.26 247.48,-59.7"/>
</g>
<!-- VariabilityHierarchy -->
<g id="node14" class="node">
<title>VariabilityHierarchy</title>
<g id="a_node14"><a xlink:href="../api/pharmpy.VariabilityHierarchy.html#pharmpy.VariabilityHierarchy" xlink:title="Description of a variability hierarchy" target="_top">
<polygon fill="white" stroke="#7f7f7f" stroke-width="0.5" points="113,-241 0,-241 0,-222 113,-222 113,-241"/>
<text text-anchor="middle" x="56.5" y="-229" font-family="Vera Sans, DejaVu Sans, Liberation Sans, Arial, Helvetica, sans" font-size="10.00">VariabilityHierarchy</text>
</a>
</g>
</g>
</g>
</svg>
