<?xml version="1.0" encoding="UTF-8" standalone="no"?>
<!DOCTYPE svg PUBLIC "-//W3C//DTD SVG 1.1//EN"
 "http://www.w3.org/Graphics/SVG/1.1/DTD/svg11.dtd">
<!-- Generated by graphviz version 2.43.0 (0)
 -->
<!-- Title: inheritance8a0c48e568 Pages: 1 -->
<svg width="576pt" height="165pt"
 viewBox="0.00 0.00 576.00 165.38" xmlns="http://www.w3.org/2000/svg" xmlns:xlink="http://www.w3.org/1999/xlink">
<g id="graph0" class="graph" transform="scale(1.95 1.95) rotate(0) translate(4 319)">
<title>inheritance8a0c48e568</title>
<!-- collections.abc.Collection -->
<g id="node1" class="node">
<title>collections.abc.Collection</title>
<polygon fill="white" stroke="#7f7f7f" stroke-width="0.5" points="411,-56 270,-56 270,-37 411,-37 411,-56"/>
<text text-anchor="middle" x="340.5" y="-44" font-family="Vera Sans, DejaVu Sans, Liberation Sans, Arial, Helvetica, sans" font-size="10.00">collections.abc.Collection</text>
</g>
<!-- collections.abc.Sequence -->
<g id="node6" class="node">
<title>collections.abc.Sequence</title>
<g id="a_node6"><a xlink:title="All the operations on a read&#45;only sequence.">
<polygon fill="white" stroke="#7f7f7f" stroke-width="0.5" points="646.5,-38 506.5,-38 506.5,-19 646.5,-19 646.5,-38"/>
<text text-anchor="middle" x="576.5" y="-26" font-family="Vera Sans, DejaVu Sans, Liberation Sans, Arial, Helvetica, sans" font-size="10.00">collections.abc.Sequence</text>
</a>
</g>
</g>
<!-- collections.abc.Collection&#45;&gt;collections.abc.Sequence -->
<g id="edge7" class="edge">
<title>collections.abc.Collection&#45;&gt;collections.abc.Sequence</title>
<path fill="none" stroke="maroon" stroke-width="0.5" d="M411.07,-41.15C439.36,-38.97 472.09,-36.45 500.87,-34.24"/>
<polygon fill="maroon" stroke="maroon" stroke-width="0.5" points="501.34,-35.96 506.19,-33.83 501.07,-32.47 501.34,-35.96"/>
</g>
<!-- collections.abc.Sized -->
<g id="node2" class="node">
<title>collections.abc.Sized</title>
<polygon fill="white" stroke="#7f7f7f" stroke-width="0.5" points="153.5,-93 34.5,-93 34.5,-74 153.5,-74 153.5,-93"/>
<text text-anchor="middle" x="94" y="-81" font-family="Vera Sans, DejaVu Sans, Liberation Sans, Arial, Helvetica, sans" font-size="10.00">collections.abc.Sized</text>
</g>
<!-- collections.abc.Sized&#45;&gt;collections.abc.Collection -->
<g id="edge1" class="edge">
<title>collections.abc.Sized&#45;&gt;collections.abc.Collection</title>
<path fill="none" stroke="maroon" stroke-width="0.5" d="M153.56,-74.64C189.12,-69.26 234.66,-62.37 271.76,-56.75"/>
<polygon fill="maroon" stroke="maroon" stroke-width="0.5" points="272.03,-58.48 276.71,-56 271.5,-55.02 272.03,-58.48"/>
</g>
<!-- collections.abc.Iterable -->
<g id="node3" class="node">
<title>collections.abc.Iterable</title>
<polygon fill="white" stroke="#7f7f7f" stroke-width="0.5" points="159,-19 29,-19 29,0 159,0 159,-19"/>
<text text-anchor="middle" x="94" y="-7" font-family="Vera Sans, DejaVu Sans, Liberation Sans, Arial, Helvetica, sans" font-size="10.00">collections.abc.Iterable</text>
</g>
<!-- collections.abc.Iterable&#45;&gt;collections.abc.Collection -->
<g id="edge2" class="edge">
<title>collections.abc.Iterable&#45;&gt;collections.abc.Collection</title>
<path fill="none" stroke="maroon" stroke-width="0.5" d="M157.96,-19.03C192.62,-24.27 235.67,-30.79 271.15,-36.16"/>
<polygon fill="maroon" stroke="maroon" stroke-width="0.5" points="271.12,-37.92 276.32,-36.94 271.64,-34.46 271.12,-37.92"/>
</g>
<!-- collections.abc.Reversible -->
<g id="node7" class="node">
<title>collections.abc.Reversible</title>
<polygon fill="white" stroke="#7f7f7f" stroke-width="0.5" points="412.5,-19 268.5,-19 268.5,0 412.5,0 412.5,-19"/>
<text text-anchor="middle" x="340.5" y="-7" font-family="Vera Sans, DejaVu Sans, Liberation Sans, Arial, Helvetica, sans" font-size="10.00">collections.abc.Reversible</text>
</g>
<!-- collections.abc.Iterable&#45;&gt;collections.abc.Reversible -->
<g id="edge5" class="edge">
<title>collections.abc.Iterable&#45;&gt;collections.abc.Reversible</title>
<path fill="none" stroke="maroon" stroke-width="0.5" d="M159.24,-9.5C191.07,-9.5 229.73,-9.5 263.07,-9.5"/>
<polygon fill="maroon" stroke="maroon" stroke-width="0.5" points="263.38,-11.25 268.38,-9.5 263.37,-7.75 263.38,-11.25"/>
</g>
<!-- collections.abc.Container -->
<g id="node4" class="node">
<title>collections.abc.Container</title>
<polygon fill="white" stroke="#7f7f7f" stroke-width="0.5" points="164,-56 24,-56 24,-37 164,-37 164,-56"/>
<text text-anchor="middle" x="94" y="-44" font-family="Vera Sans, DejaVu Sans, Liberation Sans, Arial, Helvetica, sans" font-size="10.00">collections.abc.Container</text>
</g>
<!-- collections.abc.Container&#45;&gt;collections.abc.Collection -->
<g id="edge3" class="edge">
<title>collections.abc.Container&#45;&gt;collections.abc.Collection</title>
<path fill="none" stroke="maroon" stroke-width="0.5" d="M164.08,-46.5C195.45,-46.5 232.61,-46.5 264.64,-46.5"/>
<polygon fill="maroon" stroke="maroon" stroke-width="0.5" points="264.74,-48.25 269.74,-46.5 264.74,-44.75 264.74,-48.25"/>
</g>
<!-- collections.abc.MutableSequence -->
<g id="node5" class="node">
<title>collections.abc.MutableSequence</title>
<polygon fill="white" stroke="#7f7f7f" stroke-width="0.5" points="875,-38 696,-38 696,-19 875,-19 875,-38"/>
<text text-anchor="middle" x="785.5" y="-26" font-family="Vera Sans, DejaVu Sans, Liberation Sans, Arial, Helvetica, sans" font-size="10.00">collections.abc.MutableSequence</text>
</g>
<!-- pharmpy.statements.ModelStatements -->
<g id="node15" class="node">
<title>pharmpy.statements.ModelStatements</title>
<g id="a_node15"><a xlink:href="../reference/pharmpy.statements.html#pharmpy.statements.ModelStatements" xlink:title="A list of sympy statements describing the model" target="_top">
<polygon fill="white" stroke="#7f7f7f" stroke-width="0.5" points="1117,-38 911,-38 911,-19 1117,-19 1117,-38"/>
<text text-anchor="middle" x="1014" y="-26" font-family="Vera Sans, DejaVu Sans, Liberation Sans, Arial, Helvetica, sans" font-size="10.00">pharmpy.statements.ModelStatements</text>
</a>
</g>
</g>
<!-- collections.abc.MutableSequence&#45;&gt;pharmpy.statements.ModelStatements -->
<g id="edge10" class="edge">
<title>collections.abc.MutableSequence&#45;&gt;pharmpy.statements.ModelStatements</title>
<path fill="none" stroke="maroon" stroke-width="0.5" d="M875.04,-28.5C885.17,-28.5 895.58,-28.5 905.92,-28.5"/>
<polygon fill="maroon" stroke="maroon" stroke-width="0.5" points="905.99,-30.25 910.99,-28.5 905.99,-26.75 905.99,-30.25"/>
</g>
<!-- collections.abc.Sequence&#45;&gt;collections.abc.MutableSequence -->
<g id="edge4" class="edge">
<title>collections.abc.Sequence&#45;&gt;collections.abc.MutableSequence</title>
<path fill="none" stroke="maroon" stroke-width="0.5" d="M646.72,-28.5C660.87,-28.5 675.98,-28.5 690.82,-28.5"/>
<polygon fill="maroon" stroke="maroon" stroke-width="0.5" points="690.84,-30.25 695.84,-28.5 690.84,-26.75 690.84,-30.25"/>
</g>
<!-- collections.abc.Reversible&#45;&gt;collections.abc.Sequence -->
<g id="edge6" class="edge">
<title>collections.abc.Reversible&#45;&gt;collections.abc.Sequence</title>
<path fill="none" stroke="maroon" stroke-width="0.5" d="M412.66,-15.28C440.64,-17.55 472.76,-20.16 501.05,-22.45"/>
<polygon fill="maroon" stroke="maroon" stroke-width="0.5" points="501.16,-24.22 506.28,-22.88 501.44,-20.73 501.16,-24.22"/>
</g>
<!-- pharmpy.statements.Assignment -->
<g id="node8" class="node">
<title>pharmpy.statements.Assignment</title>
<g id="a_node8"><a xlink:href="../reference/pharmpy.statements.html#pharmpy.statements.Assignment" xlink:title="Representation of variable assignment, similar to :class:`sympy.codegen.Assignment`" target="_top">
<polygon fill="white" stroke="#7f7f7f" stroke-width="0.5" points="183,-130 5,-130 5,-111 183,-111 183,-130"/>
<text text-anchor="middle" x="94" y="-118" font-family="Vera Sans, DejaVu Sans, Liberation Sans, Arial, Helvetica, sans" font-size="10.00">pharmpy.statements.Assignment</text>
</a>
</g>
</g>
<!-- pharmpy.statements.Bolus -->
<g id="node9" class="node">
<title>pharmpy.statements.Bolus</title>
<g id="a_node9"><a xlink:href="../reference/pharmpy.statements.html#pharmpy.statements.Bolus" xlink:title="pharmpy.statements.Bolus" target="_top">
<polygon fill="white" stroke="#7f7f7f" stroke-width="0.5" points="167.5,-167 20.5,-167 20.5,-148 167.5,-148 167.5,-167"/>
<text text-anchor="middle" x="94" y="-155" font-family="Vera Sans, DejaVu Sans, Liberation Sans, Arial, Helvetica, sans" font-size="10.00">pharmpy.statements.Bolus</text>
</a>
</g>
</g>
<!-- pharmpy.statements.Compartment -->
<g id="node10" class="node">
<title>pharmpy.statements.Compartment</title>
<g id="a_node10"><a xlink:href="../reference/pharmpy.statements.html#pharmpy.statements.Compartment" xlink:title="pharmpy.statements.Compartment" target="_top">
<polygon fill="white" stroke="#7f7f7f" stroke-width="0.5" points="188,-204 0,-204 0,-185 188,-185 188,-204"/>
<text text-anchor="middle" x="94" y="-192" font-family="Vera Sans, DejaVu Sans, Liberation Sans, Arial, Helvetica, sans" font-size="10.00">pharmpy.statements.Compartment</text>
</a>
</g>
</g>
<!-- pharmpy.statements.CompartmentalSystem -->
<g id="node11" class="node">
<title>pharmpy.statements.CompartmentalSystem</title>
<g id="a_node11"><a xlink:href="../reference/pharmpy.statements.html#pharmpy.statements.CompartmentalSystem" xlink:title="System of ODEs descibed as a compartmental system" target="_top">
<polygon fill="white" stroke="#7f7f7f" stroke-width="0.5" points="457,-259 224,-259 224,-240 457,-240 457,-259"/>
<text text-anchor="middle" x="340.5" y="-247" font-family="Vera Sans, DejaVu Sans, Liberation Sans, Arial, Helvetica, sans" font-size="10.00">pharmpy.statements.CompartmentalSystem</text>
</a>
</g>
</g>
<!-- pharmpy.statements.ODESystem -->
<g id="node12" class="node">
<title>pharmpy.statements.ODESystem</title>
<g id="a_node12"><a xlink:href="../reference/pharmpy.statements.html#pharmpy.statements.ODESystem" xlink:title="Base class and placeholder for ODE systems of different forms" target="_top">
<polygon fill="white" stroke="#7f7f7f" stroke-width="0.5" points="183,-241 5,-241 5,-222 183,-222 183,-241"/>
<text text-anchor="middle" x="94" y="-229" font-family="Vera Sans, DejaVu Sans, Liberation Sans, Arial, Helvetica, sans" font-size="10.00">pharmpy.statements.ODESystem</text>
</a>
</g>
</g>
<!-- pharmpy.statements.ODESystem&#45;&gt;pharmpy.statements.CompartmentalSystem -->
<g id="edge8" class="edge">
<title>pharmpy.statements.ODESystem&#45;&gt;pharmpy.statements.CompartmentalSystem</title>
<path fill="none" stroke="maroon" stroke-width="0.5" d="M183.27,-238C194.76,-238.84 206.69,-239.72 218.59,-240.6"/>
<polygon fill="maroon" stroke="maroon" stroke-width="0.5" points="218.58,-242.35 223.69,-240.97 218.84,-238.86 218.58,-242.35"/>
</g>
<!-- pharmpy.statements.ExplicitODESystem -->
<g id="node13" class="node">
<title>pharmpy.statements.ExplicitODESystem</title>
<g id="a_node13"><a xlink:href="../reference/pharmpy.statements.html#pharmpy.statements.ExplicitODESystem" xlink:title="System of ODEs described explicitly" target="_top">
<polygon fill="white" stroke="#7f7f7f" stroke-width="0.5" points="447.5,-222 233.5,-222 233.5,-203 447.5,-203 447.5,-222"/>
<text text-anchor="middle" x="340.5" y="-210" font-family="Vera Sans, DejaVu Sans, Liberation Sans, Arial, Helvetica, sans" font-size="10.00">pharmpy.statements.ExplicitODESystem</text>
</a>
</g>
</g>
<!-- pharmpy.statements.ODESystem&#45;&gt;pharmpy.statements.ExplicitODESystem -->
<g id="edge9" class="edge">
<title>pharmpy.statements.ODESystem&#45;&gt;pharmpy.statements.ExplicitODESystem</title>
<path fill="none" stroke="maroon" stroke-width="0.5" d="M183.27,-224.64C197.89,-223.5 213.22,-222.31 228.33,-221.14"/>
<polygon fill="maroon" stroke="maroon" stroke-width="0.5" points="228.59,-222.87 233.44,-220.74 228.32,-219.38 228.59,-222.87"/>
</g>
<!-- pharmpy.statements.Infusion -->
<g id="node14" class="node">
<title>pharmpy.statements.Infusion</title>
<g id="a_node14"><a xlink:href="../reference/pharmpy.statements.html#pharmpy.statements.Infusion" xlink:title="pharmpy.statements.Infusion" target="_top">
<polygon fill="white" stroke="#7f7f7f" stroke-width="0.5" points="173.5,-278 14.5,-278 14.5,-259 173.5,-259 173.5,-278"/>
<text text-anchor="middle" x="94" y="-266" font-family="Vera Sans, DejaVu Sans, Liberation Sans, Arial, Helvetica, sans" font-size="10.00">pharmpy.statements.Infusion</text>
</a>
</g>
</g>
<!-- pharmpy.statements.MyPrinter -->
<g id="node16" class="node">
<title>pharmpy.statements.MyPrinter</title>
<g id="a_node16"><a xlink:href="../reference/pharmpy.statements.html#pharmpy.statements.MyPrinter" xlink:title="pharmpy.statements.MyPrinter" target="_top">
<polygon fill="white" stroke="#7f7f7f" stroke-width="0.5" points="660,-315 493,-315 493,-296 660,-296 660,-315"/>
<text text-anchor="middle" x="576.5" y="-303" font-family="Vera Sans, DejaVu Sans, Liberation Sans, Arial, Helvetica, sans" font-size="10.00">pharmpy.statements.MyPrinter</text>
</a>
</g>
</g>
<!-- sympy.printing.str.StrPrinter -->
<g id="node17" class="node">
<title>sympy.printing.str.StrPrinter</title>
<polygon fill="white" stroke="#7f7f7f" stroke-width="0.5" points="416.5,-315 264.5,-315 264.5,-296 416.5,-296 416.5,-315"/>
<text text-anchor="middle" x="340.5" y="-303" font-family="Vera Sans, DejaVu Sans, Liberation Sans, Arial, Helvetica, sans" font-size="10.00">sympy.printing.str.StrPrinter</text>
</g>
<!-- sympy.printing.str.StrPrinter&#45;&gt;pharmpy.statements.MyPrinter -->
<g id="edge11" class="edge">
<title>sympy.printing.str.StrPrinter&#45;&gt;pharmpy.statements.MyPrinter</title>
<path fill="none" stroke="maroon" stroke-width="0.5" d="M416.5,-305.5C439.12,-305.5 464.16,-305.5 487.54,-305.5"/>
<polygon fill="maroon" stroke="maroon" stroke-width="0.5" points="487.81,-307.25 492.81,-305.5 487.81,-303.75 487.81,-307.25"/>
</g>
<!-- sympy.printing.printer.Printer -->
<g id="node18" class="node">
<title>sympy.printing.printer.Printer</title>
<g id="a_node18"><a xlink:title="Generic printer">
<polygon fill="white" stroke="#7f7f7f" stroke-width="0.5" points="173,-315 15,-315 15,-296 173,-296 173,-315"/>
<text text-anchor="middle" x="94" y="-303" font-family="Vera Sans, DejaVu Sans, Liberation Sans, Arial, Helvetica, sans" font-size="10.00">sympy.printing.printer.Printer</text>
</a>
</g>
</g>
<!-- sympy.printing.printer.Printer&#45;&gt;sympy.printing.str.StrPrinter -->
<g id="edge12" class="edge">
<title>sympy.printing.printer.Printer&#45;&gt;sympy.printing.str.StrPrinter</title>
<path fill="none" stroke="maroon" stroke-width="0.5" d="M173.03,-305.5C200.53,-305.5 231.48,-305.5 259.16,-305.5"/>
<polygon fill="maroon" stroke="maroon" stroke-width="0.5" points="259.29,-307.25 264.29,-305.5 259.29,-303.75 259.29,-307.25"/>
</g>
</g>
</svg>
