<?xml version="1.0" encoding="UTF-8" standalone="no"?>
<!DOCTYPE svg PUBLIC "-//W3C//DTD SVG 1.1//EN"
 "http://www.w3.org/Graphics/SVG/1.1/DTD/svg11.dtd">
<!-- Generated by graphviz version 2.40.1 (20161225.0304)
 -->
<!-- Title: inheritance279931d535 Pages: 1 -->
<svg width="576pt" height="66pt"
 viewBox="0.00 0.00 576.00 65.88" xmlns="http://www.w3.org/2000/svg" xmlns:xlink="http://www.w3.org/1999/xlink">
<g id="graph0" class="graph" transform="scale(.6523 .6523) rotate(0) translate(4 97)">
<title>inheritance279931d535</title>
<!-- collections.abc.Collection -->
<g id="node1" class="node">
<title>collections.abc.Collection</title>
<polygon fill="#ffffff" stroke="#7f7f7f" stroke-width=".5" points="317,-56 176,-56 176,-37 317,-37 317,-56"/>
<text text-anchor="middle" x="246.5" y="-44" font-family="Vera Sans, DejaVu Sans, Liberation Sans, Arial, Helvetica, sans" font-size="10.00" fill="#000000">collections.abc.Collection</text>
</g>
<!-- collections.abc.Set -->
<g id="node6" class="node">
<title>collections.abc.Set</title>
<g id="a_node6"><a xlink:title="A set is a finite, iterable container.">
<polygon fill="#ffffff" stroke="#7f7f7f" stroke-width=".5" points="461,-56 353,-56 353,-37 461,-37 461,-56"/>
<text text-anchor="middle" x="407" y="-44" font-family="Vera Sans, DejaVu Sans, Liberation Sans, Arial, Helvetica, sans" font-size="10.00" fill="#000000">collections.abc.Set</text>
</a>
</g>
</g>
<!-- collections.abc.Collection&#45;&gt;collections.abc.Set -->
<g id="edge5" class="edge">
<title>collections.abc.Collection&#45;&gt;collections.abc.Set</title>
<path fill="none" stroke="#b03060" stroke-width=".5" d="M317.3648,-46.5C327.5194,-46.5 337.8772,-46.5 347.7758,-46.5"/>
<polygon fill="#b03060" stroke="#b03060" stroke-width=".5" points="347.9068,-48.2501 352.9067,-46.5 347.9067,-44.7501 347.9068,-48.2501"/>
</g>
<!-- collections.abc.Sized -->
<g id="node2" class="node">
<title>collections.abc.Sized</title>
<polygon fill="#ffffff" stroke="#7f7f7f" stroke-width=".5" points="129.5,-93 10.5,-93 10.5,-74 129.5,-74 129.5,-93"/>
<text text-anchor="middle" x="70" y="-81" font-family="Vera Sans, DejaVu Sans, Liberation Sans, Arial, Helvetica, sans" font-size="10.00" fill="#000000">collections.abc.Sized</text>
</g>
<!-- collections.abc.Sized&#45;&gt;collections.abc.Collection -->
<g id="edge1" class="edge">
<title>collections.abc.Sized&#45;&gt;collections.abc.Collection</title>
<path fill="none" stroke="#b03060" stroke-width=".5" d="M115.4531,-73.9716C140.0625,-68.8127 170.5303,-62.4257 195.8932,-57.1088"/>
<polygon fill="#b03060" stroke="#b03060" stroke-width=".5" points="196.3599,-58.7991 200.8945,-56.0604 195.6418,-55.3735 196.3599,-58.7991"/>
</g>
<!-- collections.abc.Iterable -->
<g id="node3" class="node">
<title>collections.abc.Iterable</title>
<polygon fill="#ffffff" stroke="#7f7f7f" stroke-width=".5" points="135,-56 5,-56 5,-37 135,-37 135,-56"/>
<text text-anchor="middle" x="70" y="-44" font-family="Vera Sans, DejaVu Sans, Liberation Sans, Arial, Helvetica, sans" font-size="10.00" fill="#000000">collections.abc.Iterable</text>
</g>
<!-- collections.abc.Iterable&#45;&gt;collections.abc.Collection -->
<g id="edge2" class="edge">
<title>collections.abc.Iterable&#45;&gt;collections.abc.Collection</title>
<path fill="none" stroke="#b03060" stroke-width=".5" d="M135.2206,-46.5C146.8205,-46.5 158.9911,-46.5 170.8516,-46.5"/>
<polygon fill="#b03060" stroke="#b03060" stroke-width=".5" points="170.9132,-48.2501 175.9132,-46.5 170.9131,-44.7501 170.9132,-48.2501"/>
</g>
<!-- collections.abc.Container -->
<g id="node4" class="node">
<title>collections.abc.Container</title>
<polygon fill="#ffffff" stroke="#7f7f7f" stroke-width=".5" points="140,-19 0,-19 0,0 140,0 140,-19"/>
<text text-anchor="middle" x="70" y="-7" font-family="Vera Sans, DejaVu Sans, Liberation Sans, Arial, Helvetica, sans" font-size="10.00" fill="#000000">collections.abc.Container</text>
</g>
<!-- collections.abc.Container&#45;&gt;collections.abc.Collection -->
<g id="edge3" class="edge">
<title>collections.abc.Container&#45;&gt;collections.abc.Collection</title>
<path fill="none" stroke="#b03060" stroke-width=".5" d="M115.4531,-19.0284C140.0625,-24.1873 170.5303,-30.5743 195.8932,-35.8912"/>
<polygon fill="#b03060" stroke="#b03060" stroke-width=".5" points="195.6418,-37.6265 200.8945,-36.9396 196.3599,-34.2009 195.6418,-37.6265"/>
</g>
<!-- collections.abc.MutableSet -->
<g id="node5" class="node">
<title>collections.abc.MutableSet</title>
<g id="a_node5"><a xlink:title="A mutable set is a finite, iterable container.">
<polygon fill="#ffffff" stroke="#7f7f7f" stroke-width=".5" points="644,-56 497,-56 497,-37 644,-37 644,-56"/>
<text text-anchor="middle" x="570.5" y="-44" font-family="Vera Sans, DejaVu Sans, Liberation Sans, Arial, Helvetica, sans" font-size="10.00" fill="#000000">collections.abc.MutableSet</text>
</a>
</g>
</g>
<!-- pharmpy.data_structures.OrderedSet -->
<g id="node7" class="node">
<title>pharmpy.data_structures.OrderedSet</title>
<g id="a_node7"><a xlink:href="../reference/pharmpy.data_structures.html#pharmpy.data_structures.OrderedSet" xlink:title="pharmpy.data_structures.OrderedSet" target="_top">
<polygon fill="#ffffff" stroke="#7f7f7f" stroke-width=".5" points="875,-56 680,-56 680,-37 875,-37 875,-56"/>
<text text-anchor="middle" x="777.5" y="-44" font-family="Vera Sans, DejaVu Sans, Liberation Sans, Arial, Helvetica, sans" font-size="10.00" fill="#000000">pharmpy.data_structures.OrderedSet</text>
</a>
</g>
</g>
<!-- collections.abc.MutableSet&#45;&gt;pharmpy.data_structures.OrderedSet -->
<g id="edge6" class="edge">
<title>collections.abc.MutableSet&#45;&gt;pharmpy.data_structures.OrderedSet</title>
<path fill="none" stroke="#b03060" stroke-width=".5" d="M644.0633,-46.5C654.0498,-46.5 664.4431,-46.5 674.8254,-46.5"/>
<polygon fill="#b03060" stroke="#b03060" stroke-width=".5" points="674.9195,-48.2501 679.9194,-46.5 674.9194,-44.7501 674.9195,-48.2501"/>
</g>
<!-- collections.abc.Set&#45;&gt;collections.abc.MutableSet -->
<g id="edge4" class="edge">
<title>collections.abc.Set&#45;&gt;collections.abc.MutableSet</title>
<path fill="none" stroke="#b03060" stroke-width=".5" d="M461.4431,-46.5C471.1826,-46.5 481.5063,-46.5 491.7665,-46.5"/>
<polygon fill="#b03060" stroke="#b03060" stroke-width=".5" points="491.7954,-48.2501 496.7954,-46.5 491.7954,-44.7501 491.7954,-48.2501"/>
</g>
</g>
</svg>
