<?xml version="1.0" encoding="UTF-8" standalone="no"?>
<!DOCTYPE svg PUBLIC "-//W3C//DTD SVG 1.1//EN"
 "http://www.w3.org/Graphics/SVG/1.1/DTD/svg11.dtd">
<!-- Generated by graphviz version 2.40.1 (20161225.0304)
 -->
<!-- Title: inheritance7089845ed6 Pages: 1 -->
<svg width="576pt" height="130pt"
 viewBox="0.00 0.00 576.00 129.92" xmlns="http://www.w3.org/2000/svg" xmlns:xlink="http://www.w3.org/1999/xlink">
<g id="graph0" class="graph" transform="scale(.3609 .3609) rotate(0) translate(4 356)">
<title>inheritance7089845ed6</title>
<!-- collections.abc.Collection -->
<g id="node1" class="node">
<title>collections.abc.Collection</title>
<polygon fill="#ffffff" stroke="#7f7f7f" stroke-width=".5" points="599.5,-56 458.5,-56 458.5,-37 599.5,-37 599.5,-56"/>
<text text-anchor="middle" x="529" y="-44" font-family="Vera Sans, DejaVu Sans, Liberation Sans, Arial, Helvetica, sans" font-size="10.00" fill="#000000">collections.abc.Collection</text>
</g>
<!-- collections.abc.Set -->
<g id="node6" class="node">
<title>collections.abc.Set</title>
<g id="a_node6"><a xlink:title="A set is a finite, iterable container.">
<polygon fill="#ffffff" stroke="#7f7f7f" stroke-width=".5" points="793.5,-56 685.5,-56 685.5,-37 793.5,-37 793.5,-56"/>
<text text-anchor="middle" x="739.5" y="-44" font-family="Vera Sans, DejaVu Sans, Liberation Sans, Arial, Helvetica, sans" font-size="10.00" fill="#000000">collections.abc.Set</text>
</a>
</g>
</g>
<!-- collections.abc.Collection&#45;&gt;collections.abc.Set -->
<g id="edge5" class="edge">
<title>collections.abc.Collection&#45;&gt;collections.abc.Set</title>
<path fill="none" stroke="#b03060" stroke-width=".5" d="M599.679,-46.5C625.7717,-46.5 655.0532,-46.5 680.052,-46.5"/>
<polygon fill="#b03060" stroke="#b03060" stroke-width=".5" points="680.3188,-48.2501 685.3188,-46.5 680.3188,-44.7501 680.3188,-48.2501"/>
</g>
<!-- collections.abc.Sized -->
<g id="node2" class="node">
<title>collections.abc.Sized</title>
<polygon fill="#ffffff" stroke="#7f7f7f" stroke-width=".5" points="249,-93 130,-93 130,-74 249,-74 249,-93"/>
<text text-anchor="middle" x="189.5" y="-81" font-family="Vera Sans, DejaVu Sans, Liberation Sans, Arial, Helvetica, sans" font-size="10.00" fill="#000000">collections.abc.Sized</text>
</g>
<!-- collections.abc.Sized&#45;&gt;collections.abc.Collection -->
<g id="edge1" class="edge">
<title>collections.abc.Sized&#45;&gt;collections.abc.Collection</title>
<path fill="none" stroke="#b03060" stroke-width=".5" d="M249.2749,-77.8077C286.5909,-74.1796 335.6174,-69.2773 379,-64.5 403.2179,-61.8331 429.6106,-58.7316 453.4111,-55.862"/>
<polygon fill="#b03060" stroke="#b03060" stroke-width=".5" points="453.6948,-57.5906 458.4488,-55.2535 453.2749,-54.1158 453.6948,-57.5906"/>
</g>
<!-- collections.abc.Iterable -->
<g id="node3" class="node">
<title>collections.abc.Iterable</title>
<polygon fill="#ffffff" stroke="#7f7f7f" stroke-width=".5" points="254.5,-56 124.5,-56 124.5,-37 254.5,-37 254.5,-56"/>
<text text-anchor="middle" x="189.5" y="-44" font-family="Vera Sans, DejaVu Sans, Liberation Sans, Arial, Helvetica, sans" font-size="10.00" fill="#000000">collections.abc.Iterable</text>
</g>
<!-- collections.abc.Iterable&#45;&gt;collections.abc.Collection -->
<g id="edge2" class="edge">
<title>collections.abc.Iterable&#45;&gt;collections.abc.Collection</title>
<path fill="none" stroke="#b03060" stroke-width=".5" d="M254.5573,-46.5C311.1872,-46.5 393.321,-46.5 452.9687,-46.5"/>
<polygon fill="#b03060" stroke="#b03060" stroke-width=".5" points="453.3067,-48.2501 458.3066,-46.5 453.3066,-44.7501 453.3067,-48.2501"/>
</g>
<!-- collections.abc.Container -->
<g id="node4" class="node">
<title>collections.abc.Container</title>
<polygon fill="#ffffff" stroke="#7f7f7f" stroke-width=".5" points="259.5,-19 119.5,-19 119.5,0 259.5,0 259.5,-19"/>
<text text-anchor="middle" x="189.5" y="-7" font-family="Vera Sans, DejaVu Sans, Liberation Sans, Arial, Helvetica, sans" font-size="10.00" fill="#000000">collections.abc.Container</text>
</g>
<!-- collections.abc.Container&#45;&gt;collections.abc.Collection -->
<g id="edge3" class="edge">
<title>collections.abc.Container&#45;&gt;collections.abc.Collection</title>
<path fill="none" stroke="#b03060" stroke-width=".5" d="M259.7488,-15.645C295.4827,-18.9047 339.5843,-23.1328 379,-27.5 403.2358,-30.1853 429.6333,-33.4235 453.4328,-36.4598"/>
<polygon fill="#b03060" stroke="#b03060" stroke-width=".5" points="453.2885,-38.2055 458.4702,-37.1044 453.7328,-34.7339 453.2885,-38.2055"/>
</g>
<!-- collections.abc.MutableSet -->
<g id="node5" class="node">
<title>collections.abc.MutableSet</title>
<g id="a_node5"><a xlink:title="A mutable set is a finite, iterable container.">
<polygon fill="#ffffff" stroke="#7f7f7f" stroke-width=".5" points="993,-56 846,-56 846,-37 993,-37 993,-56"/>
<text text-anchor="middle" x="919.5" y="-44" font-family="Vera Sans, DejaVu Sans, Liberation Sans, Arial, Helvetica, sans" font-size="10.00" fill="#000000">collections.abc.MutableSet</text>
</a>
</g>
</g>
<!-- pharmpy.data_structures.OrderedSet -->
<g id="node8" class="node">
<title>pharmpy.data_structures.OrderedSet</title>
<g id="a_node8"><a xlink:href="../pharmpy.data_structures.html#pharmpy.data_structures.OrderedSet" xlink:title="pharmpy.data_structures.OrderedSet" target="_top">
<polygon fill="#ffffff" stroke="#7f7f7f" stroke-width=".5" points="1274,-56 1079,-56 1079,-37 1274,-37 1274,-56"/>
<text text-anchor="middle" x="1176.5" y="-44" font-family="Vera Sans, DejaVu Sans, Liberation Sans, Arial, Helvetica, sans" font-size="10.00" fill="#000000">pharmpy.data_structures.OrderedSet</text>
</a>
</g>
</g>
<!-- collections.abc.MutableSet&#45;&gt;pharmpy.data_structures.OrderedSet -->
<g id="edge6" class="edge">
<title>collections.abc.MutableSet&#45;&gt;pharmpy.data_structures.OrderedSet</title>
<path fill="none" stroke="#b03060" stroke-width=".5" d="M993.1459,-46.5C1018.2802,-46.5 1046.8615,-46.5 1073.8549,-46.5"/>
<polygon fill="#b03060" stroke="#b03060" stroke-width=".5" points="1073.8755,-48.2501 1078.8755,-46.5 1073.8755,-44.7501 1073.8755,-48.2501"/>
</g>
<!-- collections.abc.Set&#45;&gt;collections.abc.MutableSet -->
<g id="edge4" class="edge">
<title>collections.abc.Set&#45;&gt;collections.abc.MutableSet</title>
<path fill="none" stroke="#b03060" stroke-width=".5" d="M793.5059,-46.5C808.2989,-46.5 824.6452,-46.5 840.5265,-46.5"/>
<polygon fill="#b03060" stroke="#b03060" stroke-width=".5" points="840.8916,-48.2501 845.8915,-46.5 840.8915,-44.7501 840.8916,-48.2501"/>
</g>
<!-- enum.Enum -->
<g id="node7" class="node">
<title>enum.Enum</title>
<g id="a_node7"><a xlink:title="Generic enumeration.">
<polygon fill="#ffffff" stroke="#7f7f7f" stroke-width=".5" points="227,-130 152,-130 152,-111 227,-111 227,-130"/>
<text text-anchor="middle" x="189.5" y="-118" font-family="Vera Sans, DejaVu Sans, Liberation Sans, Arial, Helvetica, sans" font-size="10.00" fill="#000000">enum.Enum</text>
</a>
</g>
</g>
<!-- pharmpy.random_variables.VariabilityLevel -->
<g id="node16" class="node">
<title>pharmpy.random_variables.VariabilityLevel</title>
<g id="a_node16"><a xlink:href="../reference/pharmpy.random_variables.html#pharmpy.random_variables.VariabilityLevel" xlink:title="Representation of a variability level" target="_top">
<polygon fill="#ffffff" stroke="#7f7f7f" stroke-width=".5" points="643,-130 415,-130 415,-111 643,-111 643,-130"/>
<text text-anchor="middle" x="529" y="-118" font-family="Vera Sans, DejaVu Sans, Liberation Sans, Arial, Helvetica, sans" font-size="10.00" fill="#000000">pharmpy.random_variables.VariabilityLevel</text>
</a>
</g>
</g>
<!-- enum.Enum&#45;&gt;pharmpy.random_variables.VariabilityLevel -->
<g id="edge9" class="edge">
<title>enum.Enum&#45;&gt;pharmpy.random_variables.VariabilityLevel</title>
<path fill="none" stroke="#b03060" stroke-width=".5" d="M227.1296,-120.5C270.9572,-120.5 345.5361,-120.5 409.5969,-120.5"/>
<polygon fill="#b03060" stroke="#b03060" stroke-width=".5" points="409.9738,-122.2501 414.9737,-120.5 409.9737,-118.7501 409.9738,-122.2501"/>
</g>
<!-- pharmpy.random_variables.RandomVariables -->
<g id="node15" class="node">
<title>pharmpy.random_variables.RandomVariables</title>
<g id="a_node15"><a xlink:href="../reference/pharmpy.random_variables.html#pharmpy.random_variables.RandomVariables" xlink:title="An ordered set of random variables" target="_top">
<polygon fill="#ffffff" stroke="#7f7f7f" stroke-width=".5" points="1588,-56 1350,-56 1350,-37 1588,-37 1588,-56"/>
<text text-anchor="middle" x="1469" y="-44" font-family="Vera Sans, DejaVu Sans, Liberation Sans, Arial, Helvetica, sans" font-size="10.00" fill="#000000">pharmpy.random_variables.RandomVariables</text>
</a>
</g>
</g>
<!-- pharmpy.data_structures.OrderedSet&#45;&gt;pharmpy.random_variables.RandomVariables -->
<g id="edge8" class="edge">
<title>pharmpy.data_structures.OrderedSet&#45;&gt;pharmpy.random_variables.RandomVariables</title>
<path fill="none" stroke="#b03060" stroke-width=".5" d="M1274.3049,-46.5C1296.9421,-46.5 1321.325,-46.5 1344.9197,-46.5"/>
<polygon fill="#b03060" stroke="#b03060" stroke-width=".5" points="1344.9418,-48.2501 1349.9417,-46.5 1344.9417,-44.7501 1344.9418,-48.2501"/>
</g>
<!-- pharmpy.random_variables.JointDistributionSeparate -->
<g id="node9" class="node">
<title>pharmpy.random_variables.JointDistributionSeparate</title>
<g id="a_node9"><a xlink:href="../reference/pharmpy.random_variables.html#pharmpy.random_variables.JointDistributionSeparate" xlink:title="One random variable in a joint distribution" target="_top">
<polygon fill="#ffffff" stroke="#7f7f7f" stroke-width=".5" points="1314,-185 1039,-185 1039,-166 1314,-166 1314,-185"/>
<text text-anchor="middle" x="1176.5" y="-173" font-family="Vera Sans, DejaVu Sans, Liberation Sans, Arial, Helvetica, sans" font-size="10.00" fill="#000000">pharmpy.random_variables.JointDistributionSeparate</text>
</a>
</g>
</g>
<!-- sympy.stats.rv.RandomSymbol -->
<g id="node10" class="node">
<title>sympy.stats.rv.RandomSymbol</title>
<g id="a_node10"><a xlink:title="Random Symbols represent ProbabilitySpaces in SymPy Expressions">
<polygon fill="#ffffff" stroke="#7f7f7f" stroke-width=".5" points="1003,-185 836,-185 836,-166 1003,-166 1003,-185"/>
<text text-anchor="middle" x="919.5" y="-173" font-family="Vera Sans, DejaVu Sans, Liberation Sans, Arial, Helvetica, sans" font-size="10.00" fill="#000000">sympy.stats.rv.RandomSymbol</text>
</a>
</g>
</g>
<!-- sympy.stats.rv.RandomSymbol&#45;&gt;pharmpy.random_variables.JointDistributionSeparate -->
<g id="edge7" class="edge">
<title>sympy.stats.rv.RandomSymbol&#45;&gt;pharmpy.random_variables.JointDistributionSeparate</title>
<path fill="none" stroke="#b03060" stroke-width=".5" d="M1003.2958,-175.5C1013.1145,-175.5 1023.331,-175.5 1033.6729,-175.5"/>
<polygon fill="#b03060" stroke="#b03060" stroke-width=".5" points="1033.7587,-177.2501 1038.7587,-175.5 1033.7587,-173.7501 1033.7587,-177.2501"/>
</g>
<!-- pharmpy.random_variables.MultivariateNormalParametrizationCovariance -->
<g id="node11" class="node">
<title>pharmpy.random_variables.MultivariateNormalParametrizationCovariance</title>
<g id="a_node11"><a xlink:href="../reference/pharmpy.random_variables.html#pharmpy.random_variables.MultivariateNormalParametrizationCovariance" xlink:title="pharmpy.random_variables.MultivariateNormalParametrizationCovariance" target="_top">
<polygon fill="#ffffff" stroke="#7f7f7f" stroke-width=".5" points="379,-241 0,-241 0,-222 379,-222 379,-241"/>
<text text-anchor="middle" x="189.5" y="-229" font-family="Vera Sans, DejaVu Sans, Liberation Sans, Arial, Helvetica, sans" font-size="10.00" fill="#000000">pharmpy.random_variables.MultivariateNormalParametrizationCovariance</text>
</a>
</g>
</g>
<!-- pharmpy.random_variables.MultivariateNormalParametrizationSdCorr -->
<g id="node12" class="node">
<title>pharmpy.random_variables.MultivariateNormalParametrizationSdCorr</title>
<g id="a_node12"><a xlink:href="../reference/pharmpy.random_variables.html#pharmpy.random_variables.MultivariateNormalParametrizationSdCorr" xlink:title="pharmpy.random_variables.MultivariateNormalParametrizationSdCorr" target="_top">
<polygon fill="#ffffff" stroke="#7f7f7f" stroke-width=".5" points="367.5,-278 11.5,-278 11.5,-259 367.5,-259 367.5,-278"/>
<text text-anchor="middle" x="189.5" y="-266" font-family="Vera Sans, DejaVu Sans, Liberation Sans, Arial, Helvetica, sans" font-size="10.00" fill="#000000">pharmpy.random_variables.MultivariateNormalParametrizationSdCorr</text>
</a>
</g>
</g>
<!-- pharmpy.random_variables.NormalParametrizationSd -->
<g id="node13" class="node">
<title>pharmpy.random_variables.NormalParametrizationSd</title>
<g id="a_node13"><a xlink:href="../reference/pharmpy.random_variables.html#pharmpy.random_variables.NormalParametrizationSd" xlink:title="pharmpy.random_variables.NormalParametrizationSd" target="_top">
<polygon fill="#ffffff" stroke="#7f7f7f" stroke-width=".5" points="328.5,-315 50.5,-315 50.5,-296 328.5,-296 328.5,-315"/>
<text text-anchor="middle" x="189.5" y="-303" font-family="Vera Sans, DejaVu Sans, Liberation Sans, Arial, Helvetica, sans" font-size="10.00" fill="#000000">pharmpy.random_variables.NormalParametrizationSd</text>
</a>
</g>
</g>
<!-- pharmpy.random_variables.NormalParametrizationVariance -->
<g id="node14" class="node">
<title>pharmpy.random_variables.NormalParametrizationVariance</title>
<g id="a_node14"><a xlink:href="../reference/pharmpy.random_variables.html#pharmpy.random_variables.NormalParametrizationVariance" xlink:title="pharmpy.random_variables.NormalParametrizationVariance" target="_top">
<polygon fill="#ffffff" stroke="#7f7f7f" stroke-width=".5" points="343.5,-352 35.5,-352 35.5,-333 343.5,-333 343.5,-352"/>
<text text-anchor="middle" x="189.5" y="-340" font-family="Vera Sans, DejaVu Sans, Liberation Sans, Arial, Helvetica, sans" font-size="10.00" fill="#000000">pharmpy.random_variables.NormalParametrizationVariance</text>
</a>
</g>
</g>
<!-- sympy.core.basic.Basic -->
<g id="node17" class="node">
<title>sympy.core.basic.Basic</title>
<g id="a_node17"><a xlink:title="Base class for all SymPy objects.">
<polygon fill="#ffffff" stroke="#7f7f7f" stroke-width=".5" points="594,-204 464,-204 464,-185 594,-185 594,-204"/>
<text text-anchor="middle" x="529" y="-192" font-family="Vera Sans, DejaVu Sans, Liberation Sans, Arial, Helvetica, sans" font-size="10.00" fill="#000000">sympy.core.basic.Basic</text>
</a>
</g>
</g>
<!-- sympy.core.expr.Expr -->
<g id="node20" class="node">
<title>sympy.core.expr.Expr</title>
<g id="a_node20"><a xlink:title="Base class for algebraic expressions.">
<polygon fill="#ffffff" stroke="#7f7f7f" stroke-width=".5" points="800,-185 679,-185 679,-166 800,-166 800,-185"/>
<text text-anchor="middle" x="739.5" y="-173" font-family="Vera Sans, DejaVu Sans, Liberation Sans, Arial, Helvetica, sans" font-size="10.00" fill="#000000">sympy.core.expr.Expr</text>
</a>
</g>
</g>
<!-- sympy.core.basic.Basic&#45;&gt;sympy.core.expr.Expr -->
<g id="edge11" class="edge">
<title>sympy.core.basic.Basic&#45;&gt;sympy.core.expr.Expr</title>
<path fill="none" stroke="#b03060" stroke-width=".5" d="M594.1619,-188.6184C619.5185,-186.3297 648.5247,-183.7115 673.921,-181.4192"/>
<polygon fill="#b03060" stroke="#b03060" stroke-width=".5" points="674.1276,-183.1578 678.95,-180.9653 673.8129,-179.672 674.1276,-183.1578"/>
</g>
<!-- sympy.printing.defaults.Printable -->
<g id="node18" class="node">
<title>sympy.printing.defaults.Printable</title>
<g id="a_node18"><a xlink:title="The default implementation of printing for SymPy classes.">
<polygon fill="#ffffff" stroke="#7f7f7f" stroke-width=".5" points="278.5,-204 100.5,-204 100.5,-185 278.5,-185 278.5,-204"/>
<text text-anchor="middle" x="189.5" y="-192" font-family="Vera Sans, DejaVu Sans, Liberation Sans, Arial, Helvetica, sans" font-size="10.00" fill="#000000">sympy.printing.defaults.Printable</text>
</a>
</g>
</g>
<!-- sympy.printing.defaults.Printable&#45;&gt;sympy.core.basic.Basic -->
<g id="edge10" class="edge">
<title>sympy.printing.defaults.Printable&#45;&gt;sympy.core.basic.Basic</title>
<path fill="none" stroke="#b03060" stroke-width=".5" d="M278.6996,-194.5C334.9212,-194.5 406.4894,-194.5 458.6851,-194.5"/>
<polygon fill="#b03060" stroke="#b03060" stroke-width=".5" points="458.9929,-196.2501 463.9928,-194.5 458.9928,-192.7501 458.9929,-196.2501"/>
</g>
<!-- sympy.core.evalf.EvalfMixin -->
<g id="node19" class="node">
<title>sympy.core.evalf.EvalfMixin</title>
<g id="a_node19"><a xlink:title="Mixin class adding evalf capabililty.">
<polygon fill="#ffffff" stroke="#7f7f7f" stroke-width=".5" points="605.5,-167 452.5,-167 452.5,-148 605.5,-148 605.5,-167"/>
<text text-anchor="middle" x="529" y="-155" font-family="Vera Sans, DejaVu Sans, Liberation Sans, Arial, Helvetica, sans" font-size="10.00" fill="#000000">sympy.core.evalf.EvalfMixin</text>
</a>
</g>
</g>
<!-- sympy.core.evalf.EvalfMixin&#45;&gt;sympy.core.expr.Expr -->
<g id="edge12" class="edge">
<title>sympy.core.evalf.EvalfMixin&#45;&gt;sympy.core.expr.Expr</title>
<path fill="none" stroke="#b03060" stroke-width=".5" d="M605.5908,-164.0493C627.9006,-165.9571 652.0701,-168.0238 673.6553,-169.8696"/>
<polygon fill="#b03060" stroke="#b03060" stroke-width=".5" points="673.6636,-171.6266 678.7945,-170.309 673.9618,-168.1393 673.6636,-171.6266"/>
</g>
<!-- sympy.core.expr.Expr&#45;&gt;sympy.stats.rv.RandomSymbol -->
<g id="edge13" class="edge">
<title>sympy.core.expr.Expr&#45;&gt;sympy.stats.rv.RandomSymbol</title>
<path fill="none" stroke="#b03060" stroke-width=".5" d="M800.1888,-175.5C810.0123,-175.5 820.3589,-175.5 830.6846,-175.5"/>
<polygon fill="#b03060" stroke="#b03060" stroke-width=".5" points="830.7495,-177.2501 835.7495,-175.5 830.7495,-173.7501 830.7495,-177.2501"/>
</g>
</g>
</svg>
