<?xml version="1.0" encoding="UTF-8" standalone="no"?>
<!DOCTYPE svg PUBLIC "-//W3C//DTD SVG 1.1//EN"
 "http://www.w3.org/Graphics/SVG/1.1/DTD/svg11.dtd">
<!-- Generated by graphviz version 2.43.0 (0)
 -->
<!-- Title: inheritancef5bb744db4 Pages: 1 -->
<svg width="576pt" height="159pt"
 viewBox="0.00 0.00 576.00 158.74" xmlns="http://www.w3.org/2000/svg" xmlns:xlink="http://www.w3.org/1999/xlink">
<g id="graph0" class="graph" transform="scale(2.03 2.03) rotate(0) translate(4 319)">
<title>inheritancef5bb744db4</title>
<!-- enum.Enum -->
<g id="node1" class="node">
<title>enum.Enum</title>
<g id="a_node1"><a xlink:title="Generic enumeration.">
<polygon fill="white" stroke="#7f7f7f" stroke-width="0.5" points="161.5,-19 86.5,-19 86.5,0 161.5,0 161.5,-19"/>
<text text-anchor="middle" x="124" y="-7" font-family="Vera Sans, DejaVu Sans, Liberation Sans, Arial, Helvetica, sans" font-size="10.00">enum.Enum</text>
</a>
</g>
</g>
<!-- pharmpy.data.data_frame.ColumnType -->
<g id="node9" class="node">
<title>pharmpy.data.data_frame.ColumnType</title>
<g id="a_node9"><a xlink:href="../reference/pharmpy.data.data_frame.html#pharmpy.data.data_frame.ColumnType" xlink:title="The type of the data in a column" target="_top">
<polygon fill="white" stroke="#7f7f7f" stroke-width="0.5" points="490,-19 284,-19 284,0 490,0 490,-19"/>
<text text-anchor="middle" x="387" y="-7" font-family="Vera Sans, DejaVu Sans, Liberation Sans, Arial, Helvetica, sans" font-size="10.00">pharmpy.data.data_frame.ColumnType</text>
</a>
</g>
</g>
<!-- enum.Enum&#45;&gt;pharmpy.data.data_frame.ColumnType -->
<g id="edge7" class="edge">
<title>enum.Enum&#45;&gt;pharmpy.data.data_frame.ColumnType</title>
<path fill="none" stroke="maroon" stroke-width="0.5" d="M161.57,-9.5C192.03,-9.5 237.03,-9.5 278.76,-9.5"/>
<polygon fill="maroon" stroke="maroon" stroke-width="0.5" points="278.83,-11.25 283.83,-9.5 278.83,-7.75 278.83,-11.25"/>
</g>
<!-- pandas.core.accessor.DirNamesMixin -->
<g id="node2" class="node">
<title>pandas.core.accessor.DirNamesMixin</title>
<polygon fill="white" stroke="#7f7f7f" stroke-width="0.5" points="224,-130 24,-130 24,-111 224,-111 224,-130"/>
<text text-anchor="middle" x="124" y="-118" font-family="Vera Sans, DejaVu Sans, Liberation Sans, Arial, Helvetica, sans" font-size="10.00">pandas.core.accessor.DirNamesMixin</text>
</g>
<!-- pandas.core.base.PandasObject -->
<g id="node4" class="node">
<title>pandas.core.base.PandasObject</title>
<g id="a_node4"><a xlink:title="Baseclass for various pandas objects.">
<polygon fill="white" stroke="#7f7f7f" stroke-width="0.5" points="472.5,-130 301.5,-130 301.5,-111 472.5,-111 472.5,-130"/>
<text text-anchor="middle" x="387" y="-118" font-family="Vera Sans, DejaVu Sans, Liberation Sans, Arial, Helvetica, sans" font-size="10.00">pandas.core.base.PandasObject</text>
</a>
</g>
</g>
<!-- pandas.core.accessor.DirNamesMixin&#45;&gt;pandas.core.base.PandasObject -->
<g id="edge1" class="edge">
<title>pandas.core.accessor.DirNamesMixin&#45;&gt;pandas.core.base.PandasObject</title>
<path fill="none" stroke="maroon" stroke-width="0.5" d="M224.05,-120.5C247.64,-120.5 272.7,-120.5 295.87,-120.5"/>
<polygon fill="maroon" stroke="maroon" stroke-width="0.5" points="296.09,-122.25 301.09,-120.5 296.09,-118.75 296.09,-122.25"/>
</g>
<!-- pandas.core.arraylike.OpsMixin -->
<g id="node3" class="node">
<title>pandas.core.arraylike.OpsMixin</title>
<polygon fill="white" stroke="#7f7f7f" stroke-width="0.5" points="696,-56 526,-56 526,-37 696,-37 696,-56"/>
<text text-anchor="middle" x="611" y="-44" font-family="Vera Sans, DejaVu Sans, Liberation Sans, Arial, Helvetica, sans" font-size="10.00">pandas.core.arraylike.OpsMixin</text>
</g>
<!-- pandas.core.frame.DataFrame -->
<g id="node6" class="node">
<title>pandas.core.frame.DataFrame</title>
<g id="a_node6"><a xlink:title="Two&#45;dimensional, size&#45;mutable, potentially heterogeneous tabular data.">
<polygon fill="white" stroke="#7f7f7f" stroke-width="0.5" points="897,-74 732,-74 732,-55 897,-55 897,-74"/>
<text text-anchor="middle" x="814.5" y="-62" font-family="Vera Sans, DejaVu Sans, Liberation Sans, Arial, Helvetica, sans" font-size="10.00">pandas.core.frame.DataFrame</text>
</a>
</g>
</g>
<!-- pandas.core.arraylike.OpsMixin&#45;&gt;pandas.core.frame.DataFrame -->
<g id="edge3" class="edge">
<title>pandas.core.arraylike.OpsMixin&#45;&gt;pandas.core.frame.DataFrame</title>
<path fill="none" stroke="maroon" stroke-width="0.5" d="M696.29,-54.03C706.3,-54.92 716.53,-55.84 726.58,-56.74"/>
<polygon fill="maroon" stroke="maroon" stroke-width="0.5" points="726.67,-58.5 731.81,-57.2 726.99,-55.01 726.67,-58.5"/>
</g>
<!-- pandas.core.generic.NDFrame -->
<g id="node7" class="node">
<title>pandas.core.generic.NDFrame</title>
<g id="a_node7"><a xlink:title="N&#45;dimensional analogue of DataFrame. Store multi&#45;dimensional in a">
<polygon fill="white" stroke="#7f7f7f" stroke-width="0.5" points="693,-93 529,-93 529,-74 693,-74 693,-93"/>
<text text-anchor="middle" x="611" y="-81" font-family="Vera Sans, DejaVu Sans, Liberation Sans, Arial, Helvetica, sans" font-size="10.00">pandas.core.generic.NDFrame</text>
</a>
</g>
</g>
<!-- pandas.core.base.PandasObject&#45;&gt;pandas.core.generic.NDFrame -->
<g id="edge4" class="edge">
<title>pandas.core.base.PandasObject&#45;&gt;pandas.core.generic.NDFrame</title>
<path fill="none" stroke="maroon" stroke-width="0.5" d="M445.17,-110.97C476.51,-105.75 515.41,-99.27 547.54,-93.91"/>
<polygon fill="maroon" stroke="maroon" stroke-width="0.5" points="547.99,-95.61 552.64,-93.06 547.42,-92.16 547.99,-95.61"/>
</g>
<!-- pandas.core.base.SelectionMixin -->
<g id="node5" class="node">
<title>pandas.core.base.SelectionMixin</title>
<g id="a_node5"><a xlink:title="mixin implementing the selection &amp; aggregation interface on a group&#45;like">
<polygon fill="white" stroke="#7f7f7f" stroke-width="0.5" points="475.5,-93 298.5,-93 298.5,-74 475.5,-74 475.5,-93"/>
<text text-anchor="middle" x="387" y="-81" font-family="Vera Sans, DejaVu Sans, Liberation Sans, Arial, Helvetica, sans" font-size="10.00">pandas.core.base.SelectionMixin</text>
</a>
</g>
</g>
<!-- pandas.core.base.SelectionMixin&#45;&gt;pandas.core.generic.NDFrame -->
<g id="edge5" class="edge">
<title>pandas.core.base.SelectionMixin&#45;&gt;pandas.core.generic.NDFrame</title>
<path fill="none" stroke="maroon" stroke-width="0.5" d="M475.74,-83.5C491.42,-83.5 507.75,-83.5 523.4,-83.5"/>
<polygon fill="maroon" stroke="maroon" stroke-width="0.5" points="523.67,-85.25 528.67,-83.5 523.67,-81.75 523.67,-85.25"/>
</g>
<!-- pharmpy.data.data_frame.PharmDataFrame -->
<g id="node15" class="node">
<title>pharmpy.data.data_frame.PharmDataFrame</title>
<g id="a_node15"><a xlink:href="../reference/pharmpy.data.data_frame.html#pharmpy.data.data_frame.PharmDataFrame" xlink:title="A DataFrame with additional metadata." target="_top">
<polygon fill="white" stroke="#7f7f7f" stroke-width="0.5" points="1164,-74 933,-74 933,-55 1164,-55 1164,-74"/>
<text text-anchor="middle" x="1048.5" y="-62" font-family="Vera Sans, DejaVu Sans, Liberation Sans, Arial, Helvetica, sans" font-size="10.00">pharmpy.data.data_frame.PharmDataFrame</text>
</a>
</g>
</g>
<!-- pandas.core.frame.DataFrame&#45;&gt;pharmpy.data.data_frame.PharmDataFrame -->
<g id="edge8" class="edge">
<title>pandas.core.frame.DataFrame&#45;&gt;pharmpy.data.data_frame.PharmDataFrame</title>
<path fill="none" stroke="maroon" stroke-width="0.5" d="M897.29,-64.5C907.16,-64.5 917.39,-64.5 927.66,-64.5"/>
<polygon fill="maroon" stroke="maroon" stroke-width="0.5" points="927.7,-66.25 932.7,-64.5 927.7,-62.75 927.7,-66.25"/>
</g>
<!-- pandas.core.generic.NDFrame&#45;&gt;pandas.core.frame.DataFrame -->
<g id="edge2" class="edge">
<title>pandas.core.generic.NDFrame&#45;&gt;pandas.core.frame.DataFrame</title>
<path fill="none" stroke="maroon" stroke-width="0.5" d="M693.09,-75.85C704.18,-74.81 715.61,-73.73 726.8,-72.68"/>
<polygon fill="maroon" stroke="maroon" stroke-width="0.5" points="727.11,-74.4 731.92,-72.19 726.78,-70.92 727.11,-74.4"/>
</g>
<!-- pandas.core.indexing.IndexingMixin -->
<g id="node8" class="node">
<title>pandas.core.indexing.IndexingMixin</title>
<g id="a_node8"><a xlink:title="Mixin for adding .loc/.iloc/.at/.iat to Dataframes and Series.">
<polygon fill="white" stroke="#7f7f7f" stroke-width="0.5" points="483.5,-56 290.5,-56 290.5,-37 483.5,-37 483.5,-56"/>
<text text-anchor="middle" x="387" y="-44" font-family="Vera Sans, DejaVu Sans, Liberation Sans, Arial, Helvetica, sans" font-size="10.00">pandas.core.indexing.IndexingMixin</text>
</a>
</g>
</g>
<!-- pandas.core.indexing.IndexingMixin&#45;&gt;pandas.core.generic.NDFrame -->
<g id="edge6" class="edge">
<title>pandas.core.indexing.IndexingMixin&#45;&gt;pandas.core.generic.NDFrame</title>
<path fill="none" stroke="maroon" stroke-width="0.5" d="M445.17,-56.03C476.51,-61.25 515.41,-67.73 547.54,-73.09"/>
<polygon fill="maroon" stroke="maroon" stroke-width="0.5" points="547.42,-74.84 552.64,-73.94 547.99,-71.39 547.42,-74.84"/>
</g>
<!-- pharmpy.data.data_frame.ColumnTypeIndexer -->
<g id="node10" class="node">
<title>pharmpy.data.data_frame.ColumnTypeIndexer</title>
<g id="a_node10"><a xlink:href="../reference/pharmpy.data.data_frame.html#pharmpy.data.data_frame.ColumnTypeIndexer" xlink:title="Indexing a PharmDataFrame to get or set column types" target="_top">
<polygon fill="white" stroke="#7f7f7f" stroke-width="0.5" points="245,-167 3,-167 3,-148 245,-148 245,-167"/>
<text text-anchor="middle" x="124" y="-155" font-family="Vera Sans, DejaVu Sans, Liberation Sans, Arial, Helvetica, sans" font-size="10.00">pharmpy.data.data_frame.ColumnTypeIndexer</text>
</a>
</g>
</g>
<!-- pharmpy.data.data_frame.DataFrameAccessor -->
<g id="node11" class="node">
<title>pharmpy.data.data_frame.DataFrameAccessor</title>
<g id="a_node11"><a xlink:href="../reference/pharmpy.data.data_frame.html#pharmpy.data.data_frame.DataFrameAccessor" xlink:title="pharmpy.data.data_frame.DataFrameAccessor" target="_top">
<polygon fill="white" stroke="#7f7f7f" stroke-width="0.5" points="245.5,-204 2.5,-204 2.5,-185 245.5,-185 245.5,-204"/>
<text text-anchor="middle" x="124" y="-192" font-family="Vera Sans, DejaVu Sans, Liberation Sans, Arial, Helvetica, sans" font-size="10.00">pharmpy.data.data_frame.DataFrameAccessor</text>
</a>
</g>
</g>
<!-- pharmpy.data.data_frame.DatasetError -->
<g id="node12" class="node">
<title>pharmpy.data.data_frame.DatasetError</title>
<g id="a_node12"><a xlink:href="../reference/pharmpy.data.data_frame.html#pharmpy.data.data_frame.DatasetError" xlink:title="pharmpy.data.data_frame.DatasetError" target="_top">
<polygon fill="white" stroke="#7f7f7f" stroke-width="0.5" points="227.5,-241 20.5,-241 20.5,-222 227.5,-222 227.5,-241"/>
<text text-anchor="middle" x="124" y="-229" font-family="Vera Sans, DejaVu Sans, Liberation Sans, Arial, Helvetica, sans" font-size="10.00">pharmpy.data.data_frame.DatasetError</text>
</a>
</g>
</g>
<!-- pharmpy.data.data_frame.DatasetWarning -->
<g id="node13" class="node">
<title>pharmpy.data.data_frame.DatasetWarning</title>
<g id="a_node13"><a xlink:href="../reference/pharmpy.data.data_frame.html#pharmpy.data.data_frame.DatasetWarning" xlink:title="pharmpy.data.data_frame.DatasetWarning" target="_top">
<polygon fill="white" stroke="#7f7f7f" stroke-width="0.5" points="236,-278 12,-278 12,-259 236,-259 236,-278"/>
<text text-anchor="middle" x="124" y="-266" font-family="Vera Sans, DejaVu Sans, Liberation Sans, Arial, Helvetica, sans" font-size="10.00">pharmpy.data.data_frame.DatasetWarning</text>
</a>
</g>
</g>
<!-- pharmpy.data.data_frame.LabelsByTypeIndexer -->
<g id="node14" class="node">
<title>pharmpy.data.data_frame.LabelsByTypeIndexer</title>
<g id="a_node14"><a xlink:href="../reference/pharmpy.data.data_frame.html#pharmpy.data.data_frame.LabelsByTypeIndexer" xlink:title="Indexing a PharmDataFrame to get labels from ColumnTypes" target="_top">
<polygon fill="white" stroke="#7f7f7f" stroke-width="0.5" points="248,-315 0,-315 0,-296 248,-296 248,-315"/>
<text text-anchor="middle" x="124" y="-303" font-family="Vera Sans, DejaVu Sans, Liberation Sans, Arial, Helvetica, sans" font-size="10.00">pharmpy.data.data_frame.LabelsByTypeIndexer</text>
</a>
</g>
</g>
</g>
</svg>
