<?xml version="1.0" encoding="UTF-8" standalone="no"?>
<!DOCTYPE svg PUBLIC "-//W3C//DTD SVG 1.1//EN"
 "http://www.w3.org/Graphics/SVG/1.1/DTD/svg11.dtd">
<!-- Generated by graphviz version 2.43.0 (0)
 -->
<!-- Title: inheritance0b038a06d7 Pages: 1 -->
<svg width="460pt" height="212pt"
 viewBox="0.00 0.00 460.00 212.00" xmlns="http://www.w3.org/2000/svg" xmlns:xlink="http://www.w3.org/1999/xlink">
<g id="graph0" class="graph" transform="scale(1 1) rotate(0) translate(4 208)">
<title>inheritance0b038a06d7</title>
<!-- lark.visitors.Interpreter -->
<g id="node1" class="node">
<title>lark.visitors.Interpreter</title>
<g id="a_node1"><a xlink:title="Interpreter walks the tree starting at the root.">
<polygon fill="white" stroke="#7f7f7f" stroke-width="0.5" points="164.5,-19 35.5,-19 35.5,0 164.5,0 164.5,-19"/>
<text text-anchor="middle" x="100" y="-7" font-family="Vera Sans, DejaVu Sans, Liberation Sans, Arial, Helvetica, sans" font-size="10.00">lark.visitors.Interpreter</text>
</a>
</g>
</g>
<!-- tools.modelsearch.mfl.OneArgInterpreter -->
<g id="node7" class="node">
<title>tools.modelsearch.mfl.OneArgInterpreter</title>
<g id="a_node7"><a xlink:href="../reference/pharmpy.tools.modelsearch.mfl.html#pharmpy.tools.modelsearch.mfl.OneArgInterpreter" xlink:title="tools.modelsearch.mfl.OneArgInterpreter" target="_top">
<polygon fill="white" stroke="#7f7f7f" stroke-width="0.5" points="452,-19 236,-19 236,0 452,0 452,-19"/>
<text text-anchor="middle" x="344" y="-7" font-family="Vera Sans, DejaVu Sans, Liberation Sans, Arial, Helvetica, sans" font-size="10.00">tools.modelsearch.mfl.OneArgInterpreter</text>
</a>
</g>
</g>
<!-- lark.visitors.Interpreter&#45;&gt;tools.modelsearch.mfl.OneArgInterpreter -->
<g id="edge4" class="edge">
<title>lark.visitors.Interpreter&#45;&gt;tools.modelsearch.mfl.OneArgInterpreter</title>
<path fill="none" stroke="maroon" stroke-width="0.5" d="M164.58,-9.5C184.89,-9.5 208.01,-9.5 230.72,-9.5"/>
<polygon fill="maroon" stroke="maroon" stroke-width="0.5" points="230.86,-11.25 235.86,-9.5 230.86,-7.75 230.86,-11.25"/>
</g>
<!-- tools.modelsearch.mfl.Absorption -->
<g id="node2" class="node">
<title>tools.modelsearch.mfl.Absorption</title>
<g id="a_node2"><a xlink:href="../reference/pharmpy.tools.modelsearch.mfl.html#pharmpy.tools.modelsearch.mfl.Absorption" xlink:title="tools.modelsearch.mfl.Absorption" target="_top">
<polygon fill="white" stroke="#7f7f7f" stroke-width="0.5" points="434.5,-204 253.5,-204 253.5,-185 434.5,-185 434.5,-204"/>
<text text-anchor="middle" x="344" y="-192" font-family="Vera Sans, DejaVu Sans, Liberation Sans, Arial, Helvetica, sans" font-size="10.00">tools.modelsearch.mfl.Absorption</text>
</a>
</g>
</g>
<!-- tools.modelsearch.mfl.ModelFeature -->
<g id="node3" class="node">
<title>tools.modelsearch.mfl.ModelFeature</title>
<g id="a_node3"><a xlink:href="../reference/pharmpy.tools.modelsearch.mfl.html#pharmpy.tools.modelsearch.mfl.ModelFeature" xlink:title="tools.modelsearch.mfl.ModelFeature" target="_top">
<polygon fill="white" stroke="#7f7f7f" stroke-width="0.5" points="197.5,-130 2.5,-130 2.5,-111 197.5,-111 197.5,-130"/>
<text text-anchor="middle" x="100" y="-118" font-family="Vera Sans, DejaVu Sans, Liberation Sans, Arial, Helvetica, sans" font-size="10.00">tools.modelsearch.mfl.ModelFeature</text>
</a>
</g>
</g>
<!-- tools.modelsearch.mfl.ModelFeature&#45;&gt;tools.modelsearch.mfl.Absorption -->
<g id="edge1" class="edge">
<title>tools.modelsearch.mfl.ModelFeature&#45;&gt;tools.modelsearch.mfl.Absorption</title>
<path fill="none" stroke="maroon" stroke-width="0.5" d="M176.74,-130.01C184.84,-132.49 192.76,-135.6 200,-139.5 220.2,-150.39 215.68,-165.85 236,-176.5 240.98,-179.11 246.26,-181.36 251.69,-183.29"/>
<polygon fill="maroon" stroke="maroon" stroke-width="0.5" points="251.42,-185.05 256.72,-184.98 252.54,-181.73 251.42,-185.05"/>
</g>
<!-- tools.modelsearch.mfl.Elimination -->
<g id="node4" class="node">
<title>tools.modelsearch.mfl.Elimination</title>
<g id="a_node4"><a xlink:href="../reference/pharmpy.tools.modelsearch.mfl.html#pharmpy.tools.modelsearch.mfl.Elimination" xlink:title="tools.modelsearch.mfl.Elimination" target="_top">
<polygon fill="white" stroke="#7f7f7f" stroke-width="0.5" points="436,-167 252,-167 252,-148 436,-148 436,-167"/>
<text text-anchor="middle" x="344" y="-155" font-family="Vera Sans, DejaVu Sans, Liberation Sans, Arial, Helvetica, sans" font-size="10.00">tools.modelsearch.mfl.Elimination</text>
</a>
</g>
</g>
<!-- tools.modelsearch.mfl.ModelFeature&#45;&gt;tools.modelsearch.mfl.Elimination -->
<g id="edge2" class="edge">
<title>tools.modelsearch.mfl.ModelFeature&#45;&gt;tools.modelsearch.mfl.Elimination</title>
<path fill="none" stroke="maroon" stroke-width="0.5" d="M163.32,-130.03C197.63,-135.27 240.23,-141.79 275.35,-147.16"/>
<polygon fill="maroon" stroke="maroon" stroke-width="0.5" points="275.26,-148.91 280.47,-147.94 275.79,-145.45 275.26,-148.91"/>
</g>
<!-- tools.modelsearch.mfl.Lagtime -->
<g id="node5" class="node">
<title>tools.modelsearch.mfl.Lagtime</title>
<g id="a_node5"><a xlink:href="../reference/pharmpy.tools.modelsearch.mfl.html#pharmpy.tools.modelsearch.mfl.Lagtime" xlink:title="tools.modelsearch.mfl.Lagtime" target="_top">
<polygon fill="white" stroke="#7f7f7f" stroke-width="0.5" points="428,-130 260,-130 260,-111 428,-111 428,-130"/>
<text text-anchor="middle" x="344" y="-118" font-family="Vera Sans, DejaVu Sans, Liberation Sans, Arial, Helvetica, sans" font-size="10.00">tools.modelsearch.mfl.Lagtime</text>
</a>
</g>
</g>
<!-- tools.modelsearch.mfl.ModelFeature&#45;&gt;tools.modelsearch.mfl.Lagtime -->
<g id="edge3" class="edge">
<title>tools.modelsearch.mfl.ModelFeature&#45;&gt;tools.modelsearch.mfl.Lagtime</title>
<path fill="none" stroke="maroon" stroke-width="0.5" d="M197.69,-120.5C216.46,-120.5 236.05,-120.5 254.54,-120.5"/>
<polygon fill="maroon" stroke="maroon" stroke-width="0.5" points="254.73,-122.25 259.73,-120.5 254.73,-118.75 254.73,-122.25"/>
</g>
<!-- tools.modelsearch.mfl.Peripherals -->
<g id="node8" class="node">
<title>tools.modelsearch.mfl.Peripherals</title>
<g id="a_node8"><a xlink:href="../reference/pharmpy.tools.modelsearch.mfl.html#pharmpy.tools.modelsearch.mfl.Peripherals" xlink:title="tools.modelsearch.mfl.Peripherals" target="_top">
<polygon fill="white" stroke="#7f7f7f" stroke-width="0.5" points="435.5,-93 252.5,-93 252.5,-74 435.5,-74 435.5,-93"/>
<text text-anchor="middle" x="344" y="-81" font-family="Vera Sans, DejaVu Sans, Liberation Sans, Arial, Helvetica, sans" font-size="10.00">tools.modelsearch.mfl.Peripherals</text>
</a>
</g>
</g>
<!-- tools.modelsearch.mfl.ModelFeature&#45;&gt;tools.modelsearch.mfl.Peripherals -->
<g id="edge5" class="edge">
<title>tools.modelsearch.mfl.ModelFeature&#45;&gt;tools.modelsearch.mfl.Peripherals</title>
<path fill="none" stroke="maroon" stroke-width="0.5" d="M163.32,-110.97C197.63,-105.73 240.23,-99.21 275.35,-93.84"/>
<polygon fill="maroon" stroke="maroon" stroke-width="0.5" points="275.79,-95.55 280.47,-93.06 275.26,-92.09 275.79,-95.55"/>
</g>
<!-- tools.modelsearch.mfl.Transits -->
<g id="node9" class="node">
<title>tools.modelsearch.mfl.Transits</title>
<g id="a_node9"><a xlink:href="../reference/pharmpy.tools.modelsearch.mfl.html#pharmpy.tools.modelsearch.mfl.Transits" xlink:title="tools.modelsearch.mfl.Transits" target="_top">
<polygon fill="white" stroke="#7f7f7f" stroke-width="0.5" points="427,-56 261,-56 261,-37 427,-37 427,-56"/>
<text text-anchor="middle" x="344" y="-44" font-family="Vera Sans, DejaVu Sans, Liberation Sans, Arial, Helvetica, sans" font-size="10.00">tools.modelsearch.mfl.Transits</text>
</a>
</g>
</g>
<!-- tools.modelsearch.mfl.ModelFeature&#45;&gt;tools.modelsearch.mfl.Transits -->
<g id="edge6" class="edge">
<title>tools.modelsearch.mfl.ModelFeature&#45;&gt;tools.modelsearch.mfl.Transits</title>
<path fill="none" stroke="maroon" stroke-width="0.5" d="M120.66,-110.95C146.53,-98.74 193.7,-77.72 236,-65.5 247.34,-62.22 259.53,-59.41 271.47,-57.04"/>
<polygon fill="maroon" stroke="maroon" stroke-width="0.5" points="272,-58.72 276.57,-56.05 271.33,-55.28 272,-58.72"/>
</g>
<!-- tools.modelsearch.mfl.ModelFeatures -->
<g id="node6" class="node">
<title>tools.modelsearch.mfl.ModelFeatures</title>
<g id="a_node6"><a xlink:href="../reference/pharmpy.tools.modelsearch.mfl.html#pharmpy.tools.modelsearch.mfl.ModelFeatures" xlink:title="tools.modelsearch.mfl.ModelFeatures" target="_top">
<polygon fill="white" stroke="#7f7f7f" stroke-width="0.5" points="200,-167 0,-167 0,-148 200,-148 200,-167"/>
<text text-anchor="middle" x="100" y="-155" font-family="Vera Sans, DejaVu Sans, Liberation Sans, Arial, Helvetica, sans" font-size="10.00">tools.modelsearch.mfl.ModelFeatures</text>
</a>
</g>
</g>
</g>
</svg>
