<?xml version="1.0" encoding="UTF-8" standalone="no"?>
<!DOCTYPE svg PUBLIC "-//W3C//DTD SVG 1.1//EN"
 "http://www.w3.org/Graphics/SVG/1.1/DTD/svg11.dtd">
<!-- Generated by graphviz version 2.43.0 (0)
 -->
<!-- Title: inheritance279931d535 Pages: 1 -->
<svg width="576pt" height="66pt"
 viewBox="0.00 0.00 576.00 65.81" xmlns="http://www.w3.org/2000/svg" xmlns:xlink="http://www.w3.org/1999/xlink">
<g id="graph0" class="graph" transform="scale(1.53 1.53) rotate(0) translate(4 97)">
<title>inheritance279931d535</title>
<!-- collections.abc.Collection -->
<g id="node1" class="node">
<title>collections.abc.Collection</title>
<polygon fill="white" stroke="#7f7f7f" stroke-width="0.5" points="317,-56 176,-56 176,-37 317,-37 317,-56"/>
<text text-anchor="middle" x="246.5" y="-44" font-family="Vera Sans, DejaVu Sans, Liberation Sans, Arial, Helvetica, sans" font-size="10.00">collections.abc.Collection</text>
</g>
<!-- collections.abc.Set -->
<g id="node6" class="node">
<title>collections.abc.Set</title>
<g id="a_node6"><a xlink:title="A set is a finite, iterable container.">
<polygon fill="white" stroke="#7f7f7f" stroke-width="0.5" points="461,-56 353,-56 353,-37 461,-37 461,-56"/>
<text text-anchor="middle" x="407" y="-44" font-family="Vera Sans, DejaVu Sans, Liberation Sans, Arial, Helvetica, sans" font-size="10.00">collections.abc.Set</text>
</a>
</g>
</g>
<!-- collections.abc.Collection&#45;&gt;collections.abc.Set -->
<g id="edge5" class="edge">
<title>collections.abc.Collection&#45;&gt;collections.abc.Set</title>
<path fill="none" stroke="maroon" stroke-width="0.5" d="M317.02,-46.5C327.22,-46.5 337.64,-46.5 347.58,-46.5"/>
<polygon fill="maroon" stroke="maroon" stroke-width="0.5" points="347.74,-48.25 352.74,-46.5 347.74,-44.75 347.74,-48.25"/>
</g>
<!-- collections.abc.Sized -->
<g id="node2" class="node">
<title>collections.abc.Sized</title>
<polygon fill="white" stroke="#7f7f7f" stroke-width="0.5" points="129.5,-93 10.5,-93 10.5,-74 129.5,-74 129.5,-93"/>
<text text-anchor="middle" x="70" y="-81" font-family="Vera Sans, DejaVu Sans, Liberation Sans, Arial, Helvetica, sans" font-size="10.00">collections.abc.Sized</text>
</g>
<!-- collections.abc.Sized&#45;&gt;collections.abc.Collection -->
<g id="edge1" class="edge">
<title>collections.abc.Sized&#45;&gt;collections.abc.Collection</title>
<path fill="none" stroke="maroon" stroke-width="0.5" d="M115.94,-73.97C140.27,-68.81 170.39,-62.43 195.47,-57.11"/>
<polygon fill="maroon" stroke="maroon" stroke-width="0.5" points="195.88,-58.81 200.41,-56.06 195.16,-55.39 195.88,-58.81"/>
</g>
<!-- collections.abc.Iterable -->
<g id="node3" class="node">
<title>collections.abc.Iterable</title>
<polygon fill="white" stroke="#7f7f7f" stroke-width="0.5" points="135,-56 5,-56 5,-37 135,-37 135,-56"/>
<text text-anchor="middle" x="70" y="-44" font-family="Vera Sans, DejaVu Sans, Liberation Sans, Arial, Helvetica, sans" font-size="10.00">collections.abc.Iterable</text>
</g>
<!-- collections.abc.Iterable&#45;&gt;collections.abc.Collection -->
<g id="edge2" class="edge">
<title>collections.abc.Iterable&#45;&gt;collections.abc.Collection</title>
<path fill="none" stroke="maroon" stroke-width="0.5" d="M135.48,-46.5C146.95,-46.5 158.98,-46.5 170.71,-46.5"/>
<polygon fill="maroon" stroke="maroon" stroke-width="0.5" points="170.71,-48.25 175.71,-46.5 170.71,-44.75 170.71,-48.25"/>
</g>
<!-- collections.abc.Container -->
<g id="node4" class="node">
<title>collections.abc.Container</title>
<polygon fill="white" stroke="#7f7f7f" stroke-width="0.5" points="140,-19 0,-19 0,0 140,0 140,-19"/>
<text text-anchor="middle" x="70" y="-7" font-family="Vera Sans, DejaVu Sans, Liberation Sans, Arial, Helvetica, sans" font-size="10.00">collections.abc.Container</text>
</g>
<!-- collections.abc.Container&#45;&gt;collections.abc.Collection -->
<g id="edge3" class="edge">
<title>collections.abc.Container&#45;&gt;collections.abc.Collection</title>
<path fill="none" stroke="maroon" stroke-width="0.5" d="M115.94,-19.03C140.27,-24.19 170.39,-30.57 195.47,-35.89"/>
<polygon fill="maroon" stroke="maroon" stroke-width="0.5" points="195.16,-37.61 200.41,-36.94 195.88,-34.19 195.16,-37.61"/>
</g>
<!-- collections.abc.MutableSet -->
<g id="node5" class="node">
<title>collections.abc.MutableSet</title>
<g id="a_node5"><a xlink:title="A mutable set is a finite, iterable container.">
<polygon fill="white" stroke="#7f7f7f" stroke-width="0.5" points="645,-56 497,-56 497,-37 645,-37 645,-56"/>
<text text-anchor="middle" x="571" y="-44" font-family="Vera Sans, DejaVu Sans, Liberation Sans, Arial, Helvetica, sans" font-size="10.00">collections.abc.MutableSet</text>
</a>
</g>
</g>
<!-- pharmpy.data_structures.OrderedSet -->
<g id="node7" class="node">
<title>pharmpy.data_structures.OrderedSet</title>
<g id="a_node7"><a xlink:href="../reference/pharmpy.data_structures.html#pharmpy.data_structures.OrderedSet" xlink:title="pharmpy.data_structures.OrderedSet" target="_top">
<polygon fill="white" stroke="#7f7f7f" stroke-width="0.5" points="876,-56 681,-56 681,-37 876,-37 876,-56"/>
<text text-anchor="middle" x="778.5" y="-44" font-family="Vera Sans, DejaVu Sans, Liberation Sans, Arial, Helvetica, sans" font-size="10.00">pharmpy.data_structures.OrderedSet</text>
</a>
</g>
</g>
<!-- collections.abc.MutableSet&#45;&gt;pharmpy.data_structures.OrderedSet -->
<g id="edge6" class="edge">
<title>collections.abc.MutableSet&#45;&gt;pharmpy.data_structures.OrderedSet</title>
<path fill="none" stroke="maroon" stroke-width="0.5" d="M645.03,-46.5C655.04,-46.5 665.47,-46.5 675.88,-46.5"/>
<polygon fill="maroon" stroke="maroon" stroke-width="0.5" points="675.99,-48.25 680.99,-46.5 675.99,-44.75 675.99,-48.25"/>
</g>
<!-- collections.abc.Set&#45;&gt;collections.abc.MutableSet -->
<g id="edge4" class="edge">
<title>collections.abc.Set&#45;&gt;collections.abc.MutableSet</title>
<path fill="none" stroke="maroon" stroke-width="0.5" d="M461.04,-46.5C470.88,-46.5 481.34,-46.5 491.74,-46.5"/>
<polygon fill="maroon" stroke="maroon" stroke-width="0.5" points="491.84,-48.25 496.83,-46.5 491.83,-44.75 491.84,-48.25"/>
</g>
</g>
</svg>
