<?xml version="1.0" encoding="UTF-8" standalone="no"?>
<!DOCTYPE svg PUBLIC "-//W3C//DTD SVG 1.1//EN"
 "http://www.w3.org/Graphics/SVG/1.1/DTD/svg11.dtd">
<!-- Generated by graphviz version 2.43.0 (0)
 -->
<!-- Title: inheritancebc7904800a Pages: 1 -->
<svg width="576pt" height="189pt"
 viewBox="0.00 0.00 576.00 189.06" xmlns="http://www.w3.org/2000/svg" xmlns:xlink="http://www.w3.org/1999/xlink">
<g id="graph0" class="graph" transform="scale(1.02 1.02) rotate(0) translate(4 189)">
<title>inheritancebc7904800a</title>
<!-- ABC -->
<g id="node1" class="node">
<title>ABC</title>
<g id="a_node1"><a xlink:title="Helper class that provides a standard way to create an ABC using">
<polygon fill="white" stroke="#7f7f7f" stroke-width="0.5" points="58,-74 4,-74 4,-55 58,-55 58,-74"/>
<text text-anchor="middle" x="31" y="-62" font-family="Vera Sans, DejaVu Sans, Liberation Sans, Arial, Helvetica, sans" font-size="10.00">ABC</text>
</a>
</g>
</g>
<!-- ModelDatabase -->
<g id="node3" class="node">
<title>ModelDatabase</title>
<g id="a_node3"><a xlink:href="../api/pharmpy.workflows.ModelDatabase.html#pharmpy.workflows.ModelDatabase" xlink:title="Baseclass for databases for models and results of model runs" target="_top">
<polygon fill="white" stroke="#7f7f7f" stroke-width="0.5" points="191,-93 98,-93 98,-74 191,-74 191,-93"/>
<text text-anchor="middle" x="144.5" y="-81" font-family="Vera Sans, DejaVu Sans, Liberation Sans, Arial, Helvetica, sans" font-size="10.00">ModelDatabase</text>
</a>
</g>
</g>
<!-- ABC&#45;&gt;ModelDatabase -->
<g id="edge4" class="edge">
<title>ABC&#45;&gt;ModelDatabase</title>
<path fill="none" stroke="maroon" stroke-width="0.5" d="M58.14,-68.95C68.5,-70.72 80.79,-72.81 92.77,-74.85"/>
<polygon fill="maroon" stroke="maroon" stroke-width="0.5" points="92.65,-76.61 97.87,-75.72 93.24,-73.16 92.65,-76.61"/>
</g>
<!-- ToolDatabase -->
<g id="node5" class="node">
<title>ToolDatabase</title>
<g id="a_node5"><a xlink:href="../api/pharmpy.workflows.ToolDatabase.html#pharmpy.workflows.ToolDatabase" xlink:title="Database of results, metadata and run files for one tool run" target="_top">
<polygon fill="white" stroke="#7f7f7f" stroke-width="0.5" points="186,-56 103,-56 103,-37 186,-37 186,-56"/>
<text text-anchor="middle" x="144.5" y="-44" font-family="Vera Sans, DejaVu Sans, Liberation Sans, Arial, Helvetica, sans" font-size="10.00">ToolDatabase</text>
</a>
</g>
</g>
<!-- ABC&#45;&gt;ToolDatabase -->
<g id="edge7" class="edge">
<title>ABC&#45;&gt;ToolDatabase</title>
<path fill="none" stroke="maroon" stroke-width="0.5" d="M58.14,-60.28C69.85,-58.39 84.01,-56.1 97.4,-53.94"/>
<polygon fill="maroon" stroke="maroon" stroke-width="0.5" points="98.03,-55.61 102.69,-53.09 97.47,-52.16 98.03,-55.61"/>
</g>
<!-- LocalDirectoryDatabase -->
<g id="node2" class="node">
<title>LocalDirectoryDatabase</title>
<g id="a_node2"><a xlink:href="../api/pharmpy.workflows.LocalDirectoryDatabase.html#pharmpy.workflows.LocalDirectoryDatabase" xlink:title="ModelDatabase implementation for single local directory" target="_top">
<polygon fill="white" stroke="#7f7f7f" stroke-width="0.5" points="370.5,-130 236.5,-130 236.5,-111 370.5,-111 370.5,-130"/>
<text text-anchor="middle" x="303.5" y="-118" font-family="Vera Sans, DejaVu Sans, Liberation Sans, Arial, Helvetica, sans" font-size="10.00">LocalDirectoryDatabase</text>
</a>
</g>
</g>
<!-- LocalModelDirectoryDatabase -->
<g id="node6" class="node">
<title>LocalModelDirectoryDatabase</title>
<g id="a_node6"><a xlink:href="../api/pharmpy.workflows.LocalModelDirectoryDatabase.html#pharmpy.workflows.LocalModelDirectoryDatabase" xlink:title="ModelDatabase implementation for a local directory structure" target="_top">
<polygon fill="white" stroke="#7f7f7f" stroke-width="0.5" points="580,-130 416,-130 416,-111 580,-111 580,-130"/>
<text text-anchor="middle" x="498" y="-118" font-family="Vera Sans, DejaVu Sans, Liberation Sans, Arial, Helvetica, sans" font-size="10.00">LocalModelDirectoryDatabase</text>
</a>
</g>
</g>
<!-- LocalDirectoryDatabase&#45;&gt;LocalModelDirectoryDatabase -->
<g id="edge3" class="edge">
<title>LocalDirectoryDatabase&#45;&gt;LocalModelDirectoryDatabase</title>
<path fill="none" stroke="maroon" stroke-width="0.5" d="M370.75,-120.5C383.61,-120.5 397.27,-120.5 410.67,-120.5"/>
<polygon fill="maroon" stroke="maroon" stroke-width="0.5" points="410.99,-122.25 415.99,-120.5 410.99,-118.75 410.99,-122.25"/>
</g>
<!-- ModelDatabase&#45;&gt;LocalDirectoryDatabase -->
<g id="edge1" class="edge">
<title>ModelDatabase&#45;&gt;LocalDirectoryDatabase</title>
<path fill="none" stroke="maroon" stroke-width="0.5" d="M185.93,-93.03C207.64,-98.14 234.47,-104.47 256.92,-109.76"/>
<polygon fill="maroon" stroke="maroon" stroke-width="0.5" points="256.66,-111.5 261.93,-110.94 257.47,-108.09 256.66,-111.5"/>
</g>
<!-- NullModelDatabase -->
<g id="node8" class="node">
<title>NullModelDatabase</title>
<g id="a_node8"><a xlink:href="../api/pharmpy.workflows.NullModelDatabase.html#pharmpy.workflows.NullModelDatabase" xlink:title="Dummy model database implementation" target="_top">
<polygon fill="white" stroke="#7f7f7f" stroke-width="0.5" points="360,-93 247,-93 247,-74 360,-74 360,-93"/>
<text text-anchor="middle" x="303.5" y="-81" font-family="Vera Sans, DejaVu Sans, Liberation Sans, Arial, Helvetica, sans" font-size="10.00">NullModelDatabase</text>
</a>
</g>
</g>
<!-- ModelDatabase&#45;&gt;NullModelDatabase -->
<g id="edge5" class="edge">
<title>ModelDatabase&#45;&gt;NullModelDatabase</title>
<path fill="none" stroke="maroon" stroke-width="0.5" d="M191.33,-83.5C207.08,-83.5 224.97,-83.5 241.71,-83.5"/>
<polygon fill="maroon" stroke="maroon" stroke-width="0.5" points="241.87,-85.25 246.87,-83.5 241.87,-81.75 241.87,-85.25"/>
</g>
<!-- LocalDirectoryToolDatabase -->
<g id="node4" class="node">
<title>LocalDirectoryToolDatabase</title>
<g id="a_node4"><a xlink:href="../api/pharmpy.workflows.LocalDirectoryToolDatabase.html#pharmpy.workflows.LocalDirectoryToolDatabase" xlink:title="ToolDatabase in a local directory" target="_top">
<polygon fill="white" stroke="#7f7f7f" stroke-width="0.5" points="380,-56 227,-56 227,-37 380,-37 380,-56"/>
<text text-anchor="middle" x="303.5" y="-44" font-family="Vera Sans, DejaVu Sans, Liberation Sans, Arial, Helvetica, sans" font-size="10.00">LocalDirectoryToolDatabase</text>
</a>
</g>
</g>
<!-- ToolDatabase&#45;&gt;LocalDirectoryToolDatabase -->
<g id="edge2" class="edge">
<title>ToolDatabase&#45;&gt;LocalDirectoryToolDatabase</title>
<path fill="none" stroke="maroon" stroke-width="0.5" d="M186.34,-46.5C197.23,-46.5 209.39,-46.5 221.63,-46.5"/>
<polygon fill="maroon" stroke="maroon" stroke-width="0.5" points="221.87,-48.25 226.87,-46.5 221.87,-44.75 221.87,-48.25"/>
</g>
<!-- NullToolDatabase -->
<g id="node9" class="node">
<title>NullToolDatabase</title>
<g id="a_node9"><a xlink:href="../api/pharmpy.workflows.NullToolDatabase.html#pharmpy.workflows.NullToolDatabase" xlink:title="Dummy tool database" target="_top">
<polygon fill="white" stroke="#7f7f7f" stroke-width="0.5" points="354.5,-19 252.5,-19 252.5,0 354.5,0 354.5,-19"/>
<text text-anchor="middle" x="303.5" y="-7" font-family="Vera Sans, DejaVu Sans, Liberation Sans, Arial, Helvetica, sans" font-size="10.00">NullToolDatabase</text>
</a>
</g>
</g>
<!-- ToolDatabase&#45;&gt;NullToolDatabase -->
<g id="edge6" class="edge">
<title>ToolDatabase&#45;&gt;NullToolDatabase</title>
<path fill="none" stroke="maroon" stroke-width="0.5" d="M185.93,-36.97C207.64,-31.86 234.47,-25.53 256.92,-20.24"/>
<polygon fill="maroon" stroke="maroon" stroke-width="0.5" points="257.47,-21.91 261.93,-19.06 256.66,-18.5 257.47,-21.91"/>
</g>
<!-- Log -->
<g id="node7" class="node">
<title>Log</title>
<g id="a_node7"><a xlink:href="../api/pharmpy.workflows.Log.html#pharmpy.workflows.Log" xlink:title="Timestamped error and warning log" target="_top">
<polygon fill="white" stroke="#7f7f7f" stroke-width="0.5" points="58,-111 4,-111 4,-92 58,-92 58,-111"/>
<text text-anchor="middle" x="31" y="-99" font-family="Vera Sans, DejaVu Sans, Liberation Sans, Arial, Helvetica, sans" font-size="10.00">Log</text>
</a>
</g>
</g>
<!-- Task -->
<g id="node10" class="node">
<title>Task</title>
<g id="a_node10"><a xlink:href="../api/pharmpy.workflows.Task.html#pharmpy.workflows.Task" xlink:title="One task" target="_top">
<polygon fill="white" stroke="#7f7f7f" stroke-width="0.5" points="58,-148 4,-148 4,-129 58,-129 58,-148"/>
<text text-anchor="middle" x="31" y="-136" font-family="Vera Sans, DejaVu Sans, Liberation Sans, Arial, Helvetica, sans" font-size="10.00">Task</text>
</a>
</g>
</g>
<!-- Workflow -->
<g id="node11" class="node">
<title>Workflow</title>
<g id="a_node11"><a xlink:href="../api/pharmpy.workflows.Workflow.html#pharmpy.workflows.Workflow" xlink:title="Workflow class" target="_top">
<polygon fill="white" stroke="#7f7f7f" stroke-width="0.5" points="62,-185 0,-185 0,-166 62,-166 62,-185"/>
<text text-anchor="middle" x="31" y="-173" font-family="Vera Sans, DejaVu Sans, Liberation Sans, Arial, Helvetica, sans" font-size="10.00">Workflow</text>
</a>
</g>
</g>
</g>
</svg>
