<?xml version="1.0" encoding="UTF-8" standalone="no"?>
<!DOCTYPE svg PUBLIC "-//W3C//DTD SVG 1.1//EN"
 "http://www.w3.org/Graphics/SVG/1.1/DTD/svg11.dtd">
<!-- Generated by graphviz version 2.43.0 (0)
 -->
<!-- Title: inheritance7089845ed6 Pages: 1 -->
<svg width="576pt" height="111pt"
 viewBox="0.00 0.00 576.00 110.81" xmlns="http://www.w3.org/2000/svg" xmlns:xlink="http://www.w3.org/1999/xlink">
<g id="graph0" class="graph" transform="scale(1.91 1.91) rotate(0) translate(4 208)">
<title>inheritance7089845ed6</title>
<!-- collections.abc.Collection -->
<g id="node1" class="node">
<title>collections.abc.Collection</title>
<polygon fill="white" stroke="#7f7f7f" stroke-width="0.5" points="427.5,-56 286.5,-56 286.5,-37 427.5,-37 427.5,-56"/>
<text text-anchor="middle" x="357" y="-44" font-family="Vera Sans, DejaVu Sans, Liberation Sans, Arial, Helvetica, sans" font-size="10.00">collections.abc.Collection</text>
</g>
<!-- collections.abc.Sequence -->
<g id="node6" class="node">
<title>collections.abc.Sequence</title>
<g id="a_node6"><a xlink:title="All the operations on a read&#45;only sequence.">
<polygon fill="white" stroke="#7f7f7f" stroke-width="0.5" points="605,-37 465,-37 465,-18 605,-18 605,-37"/>
<text text-anchor="middle" x="535" y="-25" font-family="Vera Sans, DejaVu Sans, Liberation Sans, Arial, Helvetica, sans" font-size="10.00">collections.abc.Sequence</text>
</a>
</g>
</g>
<!-- collections.abc.Collection&#45;&gt;collections.abc.Sequence -->
<g id="edge7" class="edge">
<title>collections.abc.Collection&#45;&gt;collections.abc.Sequence</title>
<path fill="none" stroke="maroon" stroke-width="0.5" d="M427.56,-38.99C438.13,-37.85 449.07,-36.67 459.73,-35.52"/>
<polygon fill="maroon" stroke="maroon" stroke-width="0.5" points="460.16,-37.23 464.95,-34.95 459.79,-33.75 460.16,-37.23"/>
</g>
<!-- collections.abc.Sized -->
<g id="node2" class="node">
<title>collections.abc.Sized</title>
<polygon fill="white" stroke="#7f7f7f" stroke-width="0.5" points="184,-93 65,-93 65,-74 184,-74 184,-93"/>
<text text-anchor="middle" x="124.5" y="-81" font-family="Vera Sans, DejaVu Sans, Liberation Sans, Arial, Helvetica, sans" font-size="10.00">collections.abc.Sized</text>
</g>
<!-- collections.abc.Sized&#45;&gt;collections.abc.Collection -->
<g id="edge1" class="edge">
<title>collections.abc.Sized&#45;&gt;collections.abc.Collection</title>
<path fill="none" stroke="maroon" stroke-width="0.5" d="M184.29,-75.31C204.79,-72.35 227.93,-68.91 249,-65.5 265.37,-62.85 283.12,-59.78 299.36,-56.89"/>
<polygon fill="maroon" stroke="maroon" stroke-width="0.5" points="299.74,-58.61 304.35,-56 299.12,-55.16 299.74,-58.61"/>
</g>
<!-- collections.abc.Iterable -->
<g id="node3" class="node">
<title>collections.abc.Iterable</title>
<polygon fill="white" stroke="#7f7f7f" stroke-width="0.5" points="189.5,-19 59.5,-19 59.5,0 189.5,0 189.5,-19"/>
<text text-anchor="middle" x="124.5" y="-7" font-family="Vera Sans, DejaVu Sans, Liberation Sans, Arial, Helvetica, sans" font-size="10.00">collections.abc.Iterable</text>
</g>
<!-- collections.abc.Iterable&#45;&gt;collections.abc.Collection -->
<g id="edge2" class="edge">
<title>collections.abc.Iterable&#45;&gt;collections.abc.Collection</title>
<path fill="none" stroke="maroon" stroke-width="0.5" d="M188.67,-19.04C208.04,-22.02 229.4,-25.34 249,-28.5 263.95,-30.91 280.07,-33.58 295.14,-36.11"/>
<polygon fill="maroon" stroke="maroon" stroke-width="0.5" points="294.99,-37.86 300.21,-36.96 295.57,-34.41 294.99,-37.86"/>
</g>
<!-- collections.abc.Reversible -->
<g id="node7" class="node">
<title>collections.abc.Reversible</title>
<polygon fill="white" stroke="#7f7f7f" stroke-width="0.5" points="429,-19 285,-19 285,0 429,0 429,-19"/>
<text text-anchor="middle" x="357" y="-7" font-family="Vera Sans, DejaVu Sans, Liberation Sans, Arial, Helvetica, sans" font-size="10.00">collections.abc.Reversible</text>
</g>
<!-- collections.abc.Iterable&#45;&gt;collections.abc.Reversible -->
<g id="edge5" class="edge">
<title>collections.abc.Iterable&#45;&gt;collections.abc.Reversible</title>
<path fill="none" stroke="maroon" stroke-width="0.5" d="M189.71,-9.5C217.66,-9.5 250.64,-9.5 279.82,-9.5"/>
<polygon fill="maroon" stroke="maroon" stroke-width="0.5" points="279.85,-11.25 284.85,-9.5 279.85,-7.75 279.85,-11.25"/>
</g>
<!-- collections.abc.Container -->
<g id="node4" class="node">
<title>collections.abc.Container</title>
<polygon fill="white" stroke="#7f7f7f" stroke-width="0.5" points="194.5,-56 54.5,-56 54.5,-37 194.5,-37 194.5,-56"/>
<text text-anchor="middle" x="124.5" y="-44" font-family="Vera Sans, DejaVu Sans, Liberation Sans, Arial, Helvetica, sans" font-size="10.00">collections.abc.Container</text>
</g>
<!-- collections.abc.Container&#45;&gt;collections.abc.Collection -->
<g id="edge3" class="edge">
<title>collections.abc.Container&#45;&gt;collections.abc.Collection</title>
<path fill="none" stroke="maroon" stroke-width="0.5" d="M194.66,-46.5C222,-46.5 253.48,-46.5 281.34,-46.5"/>
<polygon fill="maroon" stroke="maroon" stroke-width="0.5" points="281.49,-48.25 286.49,-46.5 281.49,-44.75 281.49,-48.25"/>
</g>
<!-- collections.abc.MutableSequence -->
<g id="node5" class="node">
<title>collections.abc.MutableSequence</title>
<polygon fill="white" stroke="#7f7f7f" stroke-width="0.5" points="820,-37 641,-37 641,-18 820,-18 820,-37"/>
<text text-anchor="middle" x="730.5" y="-25" font-family="Vera Sans, DejaVu Sans, Liberation Sans, Arial, Helvetica, sans" font-size="10.00">collections.abc.MutableSequence</text>
</g>
<!-- pharmpy.random_variables.RandomVariables -->
<g id="node9" class="node">
<title>pharmpy.random_variables.RandomVariables</title>
<g id="a_node9"><a xlink:href="../reference/pharmpy.random_variables.html#pharmpy.random_variables.RandomVariables" xlink:title="A collection of random variables" target="_top">
<polygon fill="white" stroke="#7f7f7f" stroke-width="0.5" points="1094,-37 856,-37 856,-18 1094,-18 1094,-37"/>
<text text-anchor="middle" x="975" y="-25" font-family="Vera Sans, DejaVu Sans, Liberation Sans, Arial, Helvetica, sans" font-size="10.00">pharmpy.random_variables.RandomVariables</text>
</a>
</g>
</g>
<!-- collections.abc.MutableSequence&#45;&gt;pharmpy.random_variables.RandomVariables -->
<g id="edge8" class="edge">
<title>collections.abc.MutableSequence&#45;&gt;pharmpy.random_variables.RandomVariables</title>
<path fill="none" stroke="maroon" stroke-width="0.5" d="M820.08,-27.5C830.08,-27.5 840.4,-27.5 850.74,-27.5"/>
<polygon fill="maroon" stroke="maroon" stroke-width="0.5" points="850.81,-29.25 855.81,-27.5 850.81,-25.75 850.81,-29.25"/>
</g>
<!-- collections.abc.Sequence&#45;&gt;collections.abc.MutableSequence -->
<g id="edge4" class="edge">
<title>collections.abc.Sequence&#45;&gt;collections.abc.MutableSequence</title>
<path fill="none" stroke="maroon" stroke-width="0.5" d="M605.04,-27.5C615.02,-27.5 625.43,-27.5 635.79,-27.5"/>
<polygon fill="maroon" stroke="maroon" stroke-width="0.5" points="635.87,-29.25 640.87,-27.5 635.87,-25.75 635.87,-29.25"/>
</g>
<!-- collections.abc.Reversible&#45;&gt;collections.abc.Sequence -->
<g id="edge6" class="edge">
<title>collections.abc.Reversible&#45;&gt;collections.abc.Sequence</title>
<path fill="none" stroke="maroon" stroke-width="0.5" d="M429.08,-16.77C439.25,-17.81 449.72,-18.88 459.95,-19.93"/>
<polygon fill="maroon" stroke="maroon" stroke-width="0.5" points="459.79,-21.67 464.94,-20.44 460.15,-18.19 459.79,-21.67"/>
</g>
<!-- pharmpy.random_variables.RandomVariable -->
<g id="node8" class="node">
<title>pharmpy.random_variables.RandomVariable</title>
<g id="a_node8"><a xlink:href="../reference/pharmpy.random_variables.html#pharmpy.random_variables.RandomVariable" xlink:title="A single random variable" target="_top">
<polygon fill="white" stroke="#7f7f7f" stroke-width="0.5" points="241,-130 8,-130 8,-111 241,-111 241,-130"/>
<text text-anchor="middle" x="124.5" y="-118" font-family="Vera Sans, DejaVu Sans, Liberation Sans, Arial, Helvetica, sans" font-size="10.00">pharmpy.random_variables.RandomVariable</text>
</a>
</g>
</g>
<!-- pharmpy.random_variables.VariabilityHierarchy -->
<g id="node10" class="node">
<title>pharmpy.random_variables.VariabilityHierarchy</title>
<g id="a_node10"><a xlink:href="../reference/pharmpy.random_variables.html#pharmpy.random_variables.VariabilityHierarchy" xlink:title="Description of a variability hierarchy" target="_top">
<polygon fill="white" stroke="#7f7f7f" stroke-width="0.5" points="249,-167 0,-167 0,-148 249,-148 249,-167"/>
<text text-anchor="middle" x="124.5" y="-155" font-family="Vera Sans, DejaVu Sans, Liberation Sans, Arial, Helvetica, sans" font-size="10.00">pharmpy.random_variables.VariabilityHierarchy</text>
</a>
</g>
</g>
<!-- pharmpy.random_variables.VariabilityLevel -->
<g id="node11" class="node">
<title>pharmpy.random_variables.VariabilityLevel</title>
<g id="a_node11"><a xlink:href="../reference/pharmpy.random_variables.html#pharmpy.random_variables.VariabilityLevel" xlink:title="A variability level" target="_top">
<polygon fill="white" stroke="#7f7f7f" stroke-width="0.5" points="238.5,-204 10.5,-204 10.5,-185 238.5,-185 238.5,-204"/>
<text text-anchor="middle" x="124.5" y="-192" font-family="Vera Sans, DejaVu Sans, Liberation Sans, Arial, Helvetica, sans" font-size="10.00">pharmpy.random_variables.VariabilityLevel</text>
</a>
</g>
</g>
</g>
</svg>
