<?xml version="1.0" encoding="UTF-8" standalone="no"?>
<!DOCTYPE svg PUBLIC "-//W3C//DTD SVG 1.1//EN"
 "http://www.w3.org/Graphics/SVG/1.1/DTD/svg11.dtd">
<!-- Generated by graphviz version 2.43.0 (0)
 -->
<!-- Title: inheritance89f277dbe8 Pages: 1 -->
<svg width="576pt" height="374pt"
 viewBox="0.00 0.00 576.00 373.50" xmlns="http://www.w3.org/2000/svg" xmlns:xlink="http://www.w3.org/1999/xlink">
<g id="graph0" class="graph" transform="scale(1.11 1.11) rotate(0) translate(4 411)">
<title>inheritance89f277dbe8</title>
<!-- ABC -->
<g id="node1" class="node">
<title>ABC</title>
<g id="a_node1"><a xlink:title="Helper class that provides a standard way to create an ABC using">
<polygon fill="white" stroke="#7f7f7f" stroke-width="0.5" points="83.5,-74 29.5,-74 29.5,-55 83.5,-55 83.5,-74"/>
<text text-anchor="middle" x="56.5" y="-62" font-family="Vera Sans, DejaVu Sans, Liberation Sans, Arial, Helvetica, sans" font-size="10.00">ABC</text>
</a>
</g>
</g>
<!-- Statement -->
<g id="node3" class="node">
<title>Statement</title>
<g id="a_node3"><a xlink:title="Abstract base class for all types of statements">
<polygon fill="white" stroke="#7f7f7f" stroke-width="0.5" points="217,-93 149,-93 149,-74 217,-74 217,-93"/>
<text text-anchor="middle" x="183" y="-81" font-family="Vera Sans, DejaVu Sans, Liberation Sans, Arial, Helvetica, sans" font-size="10.00">Statement</text>
</a>
</g>
</g>
<!-- ABC&#45;&gt;Statement -->
<g id="edge19" class="edge">
<title>ABC&#45;&gt;Statement</title>
<path fill="none" stroke="maroon" stroke-width="0.5" d="M83.6,-68.48C100.94,-71.13 124,-74.65 143.44,-77.61"/>
<polygon fill="maroon" stroke="maroon" stroke-width="0.5" points="143.61,-79.41 148.82,-78.44 144.14,-75.95 143.61,-79.41"/>
</g>
<!-- Dose -->
<g id="node5" class="node">
<title>Dose</title>
<g id="a_node5"><a xlink:title="Abstract base class for different types of doses">
<polygon fill="white" stroke="#7f7f7f" stroke-width="0.5" points="210,-56 156,-56 156,-37 210,-37 210,-56"/>
<text text-anchor="middle" x="183" y="-44" font-family="Vera Sans, DejaVu Sans, Liberation Sans, Arial, Helvetica, sans" font-size="10.00">Dose</text>
</a>
</g>
</g>
<!-- ABC&#45;&gt;Dose -->
<g id="edge8" class="edge">
<title>ABC&#45;&gt;Dose</title>
<path fill="none" stroke="maroon" stroke-width="0.5" d="M83.6,-60.73C103.19,-57.89 130.08,-54.01 150.81,-51.01"/>
<polygon fill="maroon" stroke="maroon" stroke-width="0.5" points="151.24,-52.72 155.94,-50.27 150.74,-49.25 151.24,-52.72"/>
</g>
<!-- Assignment -->
<g id="node2" class="node">
<title>Assignment</title>
<g id="a_node2"><a xlink:href="../api/pharmpy.Assignment.html#pharmpy.Assignment" xlink:title="Representation of variable assignment" target="_top">
<polygon fill="white" stroke="#7f7f7f" stroke-width="0.5" points="327,-130 253,-130 253,-111 327,-111 327,-130"/>
<text text-anchor="middle" x="290" y="-118" font-family="Vera Sans, DejaVu Sans, Liberation Sans, Arial, Helvetica, sans" font-size="10.00">Assignment</text>
</a>
</g>
</g>
<!-- Statement&#45;&gt;Assignment -->
<g id="edge1" class="edge">
<title>Statement&#45;&gt;Assignment</title>
<path fill="none" stroke="maroon" stroke-width="0.5" d="M211.04,-93.03C225.02,-97.95 242.17,-104 256.82,-109.16"/>
<polygon fill="maroon" stroke="maroon" stroke-width="0.5" points="256.39,-110.86 261.69,-110.88 257.55,-107.56 256.39,-110.86"/>
</g>
<!-- ODESystem -->
<g id="node13" class="node">
<title>ODESystem</title>
<g id="a_node13"><a xlink:href="../api/pharmpy.ODESystem.html#pharmpy.ODESystem" xlink:title="Base class and placeholder for ODE systems of different forms" target="_top">
<polygon fill="white" stroke="#7f7f7f" stroke-width="0.5" points="327,-93 253,-93 253,-74 327,-74 327,-93"/>
<text text-anchor="middle" x="290" y="-81" font-family="Vera Sans, DejaVu Sans, Liberation Sans, Arial, Helvetica, sans" font-size="10.00">ODESystem</text>
</a>
</g>
</g>
<!-- Statement&#45;&gt;ODESystem -->
<g id="edge13" class="edge">
<title>Statement&#45;&gt;ODESystem</title>
<path fill="none" stroke="maroon" stroke-width="0.5" d="M217.22,-83.5C226.84,-83.5 237.46,-83.5 247.52,-83.5"/>
<polygon fill="maroon" stroke="maroon" stroke-width="0.5" points="247.72,-85.25 252.72,-83.5 247.72,-81.75 247.72,-85.25"/>
</g>
<!-- Bolus -->
<g id="node4" class="node">
<title>Bolus</title>
<g id="a_node4"><a xlink:href="../api/pharmpy.Bolus.html#pharmpy.Bolus" xlink:title="A Bolus dose" target="_top">
<polygon fill="white" stroke="#7f7f7f" stroke-width="0.5" points="317,-56 263,-56 263,-37 317,-37 317,-56"/>
<text text-anchor="middle" x="290" y="-44" font-family="Vera Sans, DejaVu Sans, Liberation Sans, Arial, Helvetica, sans" font-size="10.00">Bolus</text>
</a>
</g>
</g>
<!-- Dose&#45;&gt;Bolus -->
<g id="edge2" class="edge">
<title>Dose&#45;&gt;Bolus</title>
<path fill="none" stroke="maroon" stroke-width="0.5" d="M210.23,-46.5C224.63,-46.5 242.6,-46.5 257.73,-46.5"/>
<polygon fill="maroon" stroke="maroon" stroke-width="0.5" points="257.75,-48.25 262.75,-46.5 257.75,-44.75 257.75,-48.25"/>
</g>
<!-- Infusion -->
<g id="node17" class="node">
<title>Infusion</title>
<g id="a_node17"><a xlink:href="../api/pharmpy.Infusion.html#pharmpy.Infusion" xlink:title="An infusion dose" target="_top">
<polygon fill="white" stroke="#7f7f7f" stroke-width="0.5" points="318,-19 262,-19 262,0 318,0 318,-19"/>
<text text-anchor="middle" x="290" y="-7" font-family="Vera Sans, DejaVu Sans, Liberation Sans, Arial, Helvetica, sans" font-size="10.00">Infusion</text>
</a>
</g>
</g>
<!-- Dose&#45;&gt;Infusion -->
<g id="edge10" class="edge">
<title>Dose&#45;&gt;Infusion</title>
<path fill="none" stroke="maroon" stroke-width="0.5" d="M210.23,-37.26C224.41,-32.26 242.05,-26.04 257.04,-20.76"/>
<polygon fill="maroon" stroke="maroon" stroke-width="0.5" points="257.88,-22.32 262.01,-19.01 256.72,-19.02 257.88,-22.32"/>
</g>
<!-- Collection -->
<g id="node6" class="node">
<title>Collection</title>
<polygon fill="white" stroke="#7f7f7f" stroke-width="0.5" points="215.5,-185 150.5,-185 150.5,-166 215.5,-166 215.5,-185"/>
<text text-anchor="middle" x="183" y="-173" font-family="Vera Sans, DejaVu Sans, Liberation Sans, Arial, Helvetica, sans" font-size="10.00">Collection</text>
</g>
<!-- Sequence -->
<g id="node19" class="node">
<title>Sequence</title>
<g id="a_node19"><a xlink:title="All the operations on a read&#45;only sequence.">
<polygon fill="white" stroke="#7f7f7f" stroke-width="0.5" points="322,-167 258,-167 258,-148 322,-148 322,-167"/>
<text text-anchor="middle" x="290" y="-155" font-family="Vera Sans, DejaVu Sans, Liberation Sans, Arial, Helvetica, sans" font-size="10.00">Sequence</text>
</a>
</g>
</g>
<!-- Collection&#45;&gt;Sequence -->
<g id="edge18" class="edge">
<title>Collection&#45;&gt;Sequence</title>
<path fill="none" stroke="maroon" stroke-width="0.5" d="M215.5,-170.1C227.24,-168.09 240.65,-165.79 252.77,-163.71"/>
<polygon fill="maroon" stroke="maroon" stroke-width="0.5" points="253.25,-165.4 257.88,-162.83 252.66,-161.95 253.25,-165.4"/>
</g>
<!-- Sized -->
<g id="node7" class="node">
<title>Sized</title>
<polygon fill="white" stroke="#7f7f7f" stroke-width="0.5" points="83.5,-222 29.5,-222 29.5,-203 83.5,-203 83.5,-222"/>
<text text-anchor="middle" x="56.5" y="-210" font-family="Vera Sans, DejaVu Sans, Liberation Sans, Arial, Helvetica, sans" font-size="10.00">Sized</text>
</g>
<!-- Sized&#45;&gt;Collection -->
<g id="edge3" class="edge">
<title>Sized&#45;&gt;Collection</title>
<path fill="none" stroke="maroon" stroke-width="0.5" d="M83.6,-204.74C101.48,-199.43 125.45,-192.31 145.25,-186.42"/>
<polygon fill="maroon" stroke="maroon" stroke-width="0.5" points="145.9,-188.06 150.19,-184.95 144.9,-184.7 145.9,-188.06"/>
</g>
<!-- Iterable -->
<g id="node8" class="node">
<title>Iterable</title>
<polygon fill="white" stroke="#7f7f7f" stroke-width="0.5" points="83.5,-148 29.5,-148 29.5,-129 83.5,-129 83.5,-148"/>
<text text-anchor="middle" x="56.5" y="-136" font-family="Vera Sans, DejaVu Sans, Liberation Sans, Arial, Helvetica, sans" font-size="10.00">Iterable</text>
</g>
<!-- Iterable&#45;&gt;Collection -->
<g id="edge4" class="edge">
<title>Iterable&#45;&gt;Collection</title>
<path fill="none" stroke="maroon" stroke-width="0.5" d="M83.6,-146.26C101.48,-151.57 125.45,-158.69 145.25,-164.58"/>
<polygon fill="maroon" stroke="maroon" stroke-width="0.5" points="144.9,-166.3 150.19,-166.05 145.9,-162.94 144.9,-166.3"/>
</g>
<!-- Reversible -->
<g id="node24" class="node">
<title>Reversible</title>
<polygon fill="white" stroke="#7f7f7f" stroke-width="0.5" points="217,-148 149,-148 149,-129 217,-129 217,-148"/>
<text text-anchor="middle" x="183" y="-136" font-family="Vera Sans, DejaVu Sans, Liberation Sans, Arial, Helvetica, sans" font-size="10.00">Reversible</text>
</g>
<!-- Iterable&#45;&gt;Reversible -->
<g id="edge16" class="edge">
<title>Iterable&#45;&gt;Reversible</title>
<path fill="none" stroke="maroon" stroke-width="0.5" d="M83.6,-138.5C100.94,-138.5 124,-138.5 143.44,-138.5"/>
<polygon fill="maroon" stroke="maroon" stroke-width="0.5" points="143.82,-140.25 148.82,-138.5 143.82,-136.75 143.82,-140.25"/>
</g>
<!-- Container -->
<g id="node9" class="node">
<title>Container</title>
<polygon fill="white" stroke="#7f7f7f" stroke-width="0.5" points="88.5,-185 24.5,-185 24.5,-166 88.5,-166 88.5,-185"/>
<text text-anchor="middle" x="56.5" y="-173" font-family="Vera Sans, DejaVu Sans, Liberation Sans, Arial, Helvetica, sans" font-size="10.00">Container</text>
</g>
<!-- Container&#45;&gt;Collection -->
<g id="edge5" class="edge">
<title>Container&#45;&gt;Collection</title>
<path fill="none" stroke="maroon" stroke-width="0.5" d="M88.6,-175.5C105.7,-175.5 127.02,-175.5 144.98,-175.5"/>
<polygon fill="maroon" stroke="maroon" stroke-width="0.5" points="145.44,-177.25 150.44,-175.5 145.44,-173.75 145.44,-177.25"/>
</g>
<!-- ColumnInfo -->
<g id="node10" class="node">
<title>ColumnInfo</title>
<g id="a_node10"><a xlink:href="../api/pharmpy.ColumnInfo.html#pharmpy.ColumnInfo" xlink:title="Information about one data column" target="_top">
<polygon fill="white" stroke="#7f7f7f" stroke-width="0.5" points="93,-259 20,-259 20,-240 93,-240 93,-259"/>
<text text-anchor="middle" x="56.5" y="-247" font-family="Vera Sans, DejaVu Sans, Liberation Sans, Arial, Helvetica, sans" font-size="10.00">ColumnInfo</text>
</a>
</g>
</g>
<!-- Compartment -->
<g id="node11" class="node">
<title>Compartment</title>
<g id="a_node11"><a xlink:href="../api/pharmpy.Compartment.html#pharmpy.Compartment" xlink:title="Compartment for a compartmental system" target="_top">
<polygon fill="white" stroke="#7f7f7f" stroke-width="0.5" points="98.5,-296 14.5,-296 14.5,-277 98.5,-277 98.5,-296"/>
<text text-anchor="middle" x="56.5" y="-284" font-family="Vera Sans, DejaVu Sans, Liberation Sans, Arial, Helvetica, sans" font-size="10.00">Compartment</text>
</a>
</g>
</g>
<!-- CompartmentalSystem -->
<g id="node12" class="node">
<title>CompartmentalSystem</title>
<g id="a_node12"><a xlink:href="../api/pharmpy.CompartmentalSystem.html#pharmpy.CompartmentalSystem" xlink:title="System of ODEs descibed as a compartmental system" target="_top">
<polygon fill="white" stroke="#7f7f7f" stroke-width="0.5" points="493,-111 363,-111 363,-92 493,-92 493,-111"/>
<text text-anchor="middle" x="428" y="-99" font-family="Vera Sans, DejaVu Sans, Liberation Sans, Arial, Helvetica, sans" font-size="10.00">CompartmentalSystem</text>
</a>
</g>
</g>
<!-- ODESystem&#45;&gt;CompartmentalSystem -->
<g id="edge6" class="edge">
<title>ODESystem&#45;&gt;CompartmentalSystem</title>
<path fill="none" stroke="maroon" stroke-width="0.5" d="M327.09,-88.28C336.56,-89.53 347.09,-90.92 357.67,-92.32"/>
<polygon fill="maroon" stroke="maroon" stroke-width="0.5" points="357.67,-94.09 362.86,-93.01 358.13,-90.62 357.67,-94.09"/>
</g>
<!-- ExplicitODESystem -->
<g id="node16" class="node">
<title>ExplicitODESystem</title>
<g id="a_node16"><a xlink:href="../api/pharmpy.ExplicitODESystem.html#pharmpy.ExplicitODESystem" xlink:title="System of ODEs described explicitly" target="_top">
<polygon fill="white" stroke="#7f7f7f" stroke-width="0.5" points="483,-74 373,-74 373,-55 483,-55 483,-74"/>
<text text-anchor="middle" x="428" y="-62" font-family="Vera Sans, DejaVu Sans, Liberation Sans, Arial, Helvetica, sans" font-size="10.00">ExplicitODESystem</text>
</a>
</g>
</g>
<!-- ODESystem&#45;&gt;ExplicitODESystem -->
<g id="edge9" class="edge">
<title>ODESystem&#45;&gt;ExplicitODESystem</title>
<path fill="none" stroke="maroon" stroke-width="0.5" d="M327.09,-78.46C339.56,-76.72 353.89,-74.71 367.73,-72.78"/>
<polygon fill="maroon" stroke="maroon" stroke-width="0.5" points="368.09,-74.5 372.8,-72.07 367.61,-71.03 368.09,-74.5"/>
</g>
<!-- DataInfo -->
<g id="node14" class="node">
<title>DataInfo</title>
<g id="a_node14"><a xlink:href="../api/pharmpy.DataInfo.html#pharmpy.DataInfo" xlink:title="Metadata for the dataset" target="_top">
<polygon fill="white" stroke="#7f7f7f" stroke-width="0.5" points="610,-222 551,-222 551,-203 610,-203 610,-222"/>
<text text-anchor="middle" x="580.5" y="-210" font-family="Vera Sans, DejaVu Sans, Liberation Sans, Arial, Helvetica, sans" font-size="10.00">DataInfo</text>
</a>
</g>
</g>
<!-- MutableSequence -->
<g id="node15" class="node">
<title>MutableSequence</title>
<polygon fill="white" stroke="#7f7f7f" stroke-width="0.5" points="480,-167 376,-167 376,-148 480,-148 480,-167"/>
<text text-anchor="middle" x="428" y="-155" font-family="Vera Sans, DejaVu Sans, Liberation Sans, Arial, Helvetica, sans" font-size="10.00">MutableSequence</text>
</g>
<!-- MutableSequence&#45;&gt;DataInfo -->
<g id="edge7" class="edge">
<title>MutableSequence&#45;&gt;DataInfo</title>
<path fill="none" stroke="maroon" stroke-width="0.5" d="M454.45,-167.01C474.64,-174.54 503.6,-185.27 529,-194.5 534.95,-196.66 541.29,-198.94 547.41,-201.13"/>
<polygon fill="maroon" stroke="maroon" stroke-width="0.5" points="547.19,-202.91 552.48,-202.94 548.36,-199.61 547.19,-202.91"/>
</g>
<!-- ModelStatements -->
<g id="node18" class="node">
<title>ModelStatements</title>
<g id="a_node18"><a xlink:href="../api/pharmpy.ModelStatements.html#pharmpy.ModelStatements" xlink:title="A sequence of symbolic statements describing the model" target="_top">
<polygon fill="white" stroke="#7f7f7f" stroke-width="0.5" points="632,-185 529,-185 529,-166 632,-166 632,-185"/>
<text text-anchor="middle" x="580.5" y="-173" font-family="Vera Sans, DejaVu Sans, Liberation Sans, Arial, Helvetica, sans" font-size="10.00">ModelStatements</text>
</a>
</g>
</g>
<!-- MutableSequence&#45;&gt;ModelStatements -->
<g id="edge11" class="edge">
<title>MutableSequence&#45;&gt;ModelStatements</title>
<path fill="none" stroke="maroon" stroke-width="0.5" d="M480.37,-163.64C494.33,-165.31 509.5,-167.13 523.69,-168.83"/>
<polygon fill="maroon" stroke="maroon" stroke-width="0.5" points="523.7,-170.59 528.87,-169.44 524.11,-167.11 523.7,-170.59"/>
</g>
<!-- Parameters -->
<g id="node21" class="node">
<title>Parameters</title>
<g id="a_node21"><a xlink:href="../api/pharmpy.Parameters.html#pharmpy.Parameters" xlink:title="A collection of parameters" target="_top">
<polygon fill="white" stroke="#7f7f7f" stroke-width="0.5" points="616.5,-148 544.5,-148 544.5,-129 616.5,-129 616.5,-148"/>
<text text-anchor="middle" x="580.5" y="-136" font-family="Vera Sans, DejaVu Sans, Liberation Sans, Arial, Helvetica, sans" font-size="10.00">Parameters</text>
</a>
</g>
</g>
<!-- MutableSequence&#45;&gt;Parameters -->
<g id="edge14" class="edge">
<title>MutableSequence&#45;&gt;Parameters</title>
<path fill="none" stroke="maroon" stroke-width="0.5" d="M480.37,-151.01C499.68,-148.58 521.32,-145.85 539.44,-143.56"/>
<polygon fill="maroon" stroke="maroon" stroke-width="0.5" points="539.72,-145.29 544.46,-142.92 539.28,-141.81 539.72,-145.29"/>
</g>
<!-- RandomVariables -->
<g id="node23" class="node">
<title>RandomVariables</title>
<g id="a_node23"><a xlink:href="../api/pharmpy.RandomVariables.html#pharmpy.RandomVariables" xlink:title="A collection of random variables" target="_top">
<polygon fill="white" stroke="#7f7f7f" stroke-width="0.5" points="631.5,-111 529.5,-111 529.5,-92 631.5,-92 631.5,-111"/>
<text text-anchor="middle" x="580.5" y="-99" font-family="Vera Sans, DejaVu Sans, Liberation Sans, Arial, Helvetica, sans" font-size="10.00">RandomVariables</text>
</a>
</g>
</g>
<!-- MutableSequence&#45;&gt;RandomVariables -->
<g id="edge15" class="edge">
<title>MutableSequence&#45;&gt;RandomVariables</title>
<path fill="none" stroke="maroon" stroke-width="0.5" d="M453.6,-147.99C473.81,-140.21 503.21,-129 529,-119.5 534.94,-117.31 541.28,-115.02 547.4,-112.83"/>
<polygon fill="maroon" stroke="maroon" stroke-width="0.5" points="548.35,-114.35 552.47,-111.02 547.17,-111.05 548.35,-114.35"/>
</g>
<!-- Sequence&#45;&gt;MutableSequence -->
<g id="edge12" class="edge">
<title>Sequence&#45;&gt;MutableSequence</title>
<path fill="none" stroke="maroon" stroke-width="0.5" d="M322.2,-157.5C336.63,-157.5 354.22,-157.5 370.83,-157.5"/>
<polygon fill="maroon" stroke="maroon" stroke-width="0.5" points="370.96,-159.25 375.96,-157.5 370.96,-155.75 370.96,-159.25"/>
</g>
<!-- Parameter -->
<g id="node20" class="node">
<title>Parameter</title>
<g id="a_node20"><a xlink:href="../api/pharmpy.Parameter.html#pharmpy.Parameter" xlink:title="A single parameter" target="_top">
<polygon fill="white" stroke="#7f7f7f" stroke-width="0.5" points="90,-333 23,-333 23,-314 90,-314 90,-333"/>
<text text-anchor="middle" x="56.5" y="-321" font-family="Vera Sans, DejaVu Sans, Liberation Sans, Arial, Helvetica, sans" font-size="10.00">Parameter</text>
</a>
</g>
</g>
<!-- RandomVariable -->
<g id="node22" class="node">
<title>RandomVariable</title>
<g id="a_node22"><a xlink:href="../api/pharmpy.RandomVariable.html#pharmpy.RandomVariable" xlink:title="A single random variable" target="_top">
<polygon fill="white" stroke="#7f7f7f" stroke-width="0.5" points="105,-370 8,-370 8,-351 105,-351 105,-370"/>
<text text-anchor="middle" x="56.5" y="-358" font-family="Vera Sans, DejaVu Sans, Liberation Sans, Arial, Helvetica, sans" font-size="10.00">RandomVariable</text>
</a>
</g>
</g>
<!-- Reversible&#45;&gt;Sequence -->
<g id="edge17" class="edge">
<title>Reversible&#45;&gt;Sequence</title>
<path fill="none" stroke="maroon" stroke-width="0.5" d="M217.22,-144.51C228.48,-146.55 241.1,-148.83 252.59,-150.91"/>
<polygon fill="maroon" stroke="maroon" stroke-width="0.5" points="252.55,-152.68 257.78,-151.85 253.17,-149.24 252.55,-152.68"/>
</g>
<!-- VariabilityHierarchy -->
<g id="node25" class="node">
<title>VariabilityHierarchy</title>
<g id="a_node25"><a xlink:href="../api/pharmpy.VariabilityHierarchy.html#pharmpy.VariabilityHierarchy" xlink:title="Description of a variability hierarchy" target="_top">
<polygon fill="white" stroke="#7f7f7f" stroke-width="0.5" points="113,-407 0,-407 0,-388 113,-388 113,-407"/>
<text text-anchor="middle" x="56.5" y="-395" font-family="Vera Sans, DejaVu Sans, Liberation Sans, Arial, Helvetica, sans" font-size="10.00">VariabilityHierarchy</text>
</a>
</g>
</g>
</g>
</svg>
