<?xml version="1.0" encoding="UTF-8" standalone="no"?>
<!DOCTYPE svg PUBLIC "-//W3C//DTD SVG 1.1//EN"
 "http://www.w3.org/Graphics/SVG/1.1/DTD/svg11.dtd">
<!-- Generated by graphviz version 2.43.0 (0)
 -->
<!-- Title: inheritance59db821a26 Pages: 1 -->
<svg width="576pt" height="71pt"
 viewBox="0.00 0.00 576.00 70.59" xmlns="http://www.w3.org/2000/svg" xmlns:xlink="http://www.w3.org/1999/xlink">
<g id="graph0" class="graph" transform="scale(1.95 1.95) rotate(0) translate(4 134)">
<title>inheritance59db821a26</title>
<!-- collections.abc.Collection -->
<g id="node1" class="node">
<title>collections.abc.Collection</title>
<polygon fill="white" stroke="#7f7f7f" stroke-width="0.5" points="342,-56 201,-56 201,-37 342,-37 342,-56"/>
<text text-anchor="middle" x="271.5" y="-44" font-family="Vera Sans, DejaVu Sans, Liberation Sans, Arial, Helvetica, sans" font-size="10.00">collections.abc.Collection</text>
</g>
<!-- collections.abc.Set -->
<g id="node6" class="node">
<title>collections.abc.Set</title>
<g id="a_node6"><a xlink:title="A set is a finite, iterable container.">
<polygon fill="white" stroke="#7f7f7f" stroke-width="0.5" points="486,-56 378,-56 378,-37 486,-37 486,-56"/>
<text text-anchor="middle" x="432" y="-44" font-family="Vera Sans, DejaVu Sans, Liberation Sans, Arial, Helvetica, sans" font-size="10.00">collections.abc.Set</text>
</a>
</g>
</g>
<!-- collections.abc.Collection&#45;&gt;collections.abc.Set -->
<g id="edge5" class="edge">
<title>collections.abc.Collection&#45;&gt;collections.abc.Set</title>
<path fill="none" stroke="maroon" stroke-width="0.5" d="M342.02,-46.5C352.22,-46.5 362.64,-46.5 372.58,-46.5"/>
<polygon fill="maroon" stroke="maroon" stroke-width="0.5" points="372.74,-48.25 377.74,-46.5 372.74,-44.75 372.74,-48.25"/>
</g>
<!-- collections.abc.Sized -->
<g id="node2" class="node">
<title>collections.abc.Sized</title>
<polygon fill="white" stroke="#7f7f7f" stroke-width="0.5" points="142,-93 23,-93 23,-74 142,-74 142,-93"/>
<text text-anchor="middle" x="82.5" y="-81" font-family="Vera Sans, DejaVu Sans, Liberation Sans, Arial, Helvetica, sans" font-size="10.00">collections.abc.Sized</text>
</g>
<!-- collections.abc.Sized&#45;&gt;collections.abc.Collection -->
<g id="edge1" class="edge">
<title>collections.abc.Sized&#45;&gt;collections.abc.Collection</title>
<path fill="none" stroke="maroon" stroke-width="0.5" d="M131.66,-73.97C157.84,-68.79 190.28,-62.37 217.22,-57.04"/>
<polygon fill="maroon" stroke="maroon" stroke-width="0.5" points="217.62,-58.75 222.18,-56.06 216.94,-55.31 217.62,-58.75"/>
</g>
<!-- collections.abc.Iterable -->
<g id="node3" class="node">
<title>collections.abc.Iterable</title>
<polygon fill="white" stroke="#7f7f7f" stroke-width="0.5" points="147.5,-56 17.5,-56 17.5,-37 147.5,-37 147.5,-56"/>
<text text-anchor="middle" x="82.5" y="-44" font-family="Vera Sans, DejaVu Sans, Liberation Sans, Arial, Helvetica, sans" font-size="10.00">collections.abc.Iterable</text>
</g>
<!-- collections.abc.Iterable&#45;&gt;collections.abc.Collection -->
<g id="edge2" class="edge">
<title>collections.abc.Iterable&#45;&gt;collections.abc.Collection</title>
<path fill="none" stroke="maroon" stroke-width="0.5" d="M147.59,-46.5C162.98,-46.5 179.55,-46.5 195.39,-46.5"/>
<polygon fill="maroon" stroke="maroon" stroke-width="0.5" points="195.73,-48.25 200.73,-46.5 195.73,-44.75 195.73,-48.25"/>
</g>
<!-- collections.abc.Container -->
<g id="node4" class="node">
<title>collections.abc.Container</title>
<polygon fill="white" stroke="#7f7f7f" stroke-width="0.5" points="152.5,-19 12.5,-19 12.5,0 152.5,0 152.5,-19"/>
<text text-anchor="middle" x="82.5" y="-7" font-family="Vera Sans, DejaVu Sans, Liberation Sans, Arial, Helvetica, sans" font-size="10.00">collections.abc.Container</text>
</g>
<!-- collections.abc.Container&#45;&gt;collections.abc.Collection -->
<g id="edge3" class="edge">
<title>collections.abc.Container&#45;&gt;collections.abc.Collection</title>
<path fill="none" stroke="maroon" stroke-width="0.5" d="M131.66,-19.03C157.84,-24.21 190.28,-30.63 217.22,-35.96"/>
<polygon fill="maroon" stroke="maroon" stroke-width="0.5" points="216.94,-37.69 222.18,-36.94 217.62,-34.25 216.94,-37.69"/>
</g>
<!-- collections.abc.MutableSet -->
<g id="node5" class="node">
<title>collections.abc.MutableSet</title>
<g id="a_node5"><a xlink:title="A mutable set is a finite, iterable container.">
<polygon fill="white" stroke="#7f7f7f" stroke-width="0.5" points="670,-56 522,-56 522,-37 670,-37 670,-56"/>
<text text-anchor="middle" x="596" y="-44" font-family="Vera Sans, DejaVu Sans, Liberation Sans, Arial, Helvetica, sans" font-size="10.00">collections.abc.MutableSet</text>
</a>
</g>
</g>
<!-- pharmpy.data_structures.OrderedSet -->
<g id="node7" class="node">
<title>pharmpy.data_structures.OrderedSet</title>
<g id="a_node7"><a xlink:href="../pharmpy.data_structures.html#pharmpy.data_structures.OrderedSet" xlink:title="pharmpy.data_structures.OrderedSet" target="_top">
<polygon fill="white" stroke="#7f7f7f" stroke-width="0.5" points="901,-56 706,-56 706,-37 901,-37 901,-56"/>
<text text-anchor="middle" x="803.5" y="-44" font-family="Vera Sans, DejaVu Sans, Liberation Sans, Arial, Helvetica, sans" font-size="10.00">pharmpy.data_structures.OrderedSet</text>
</a>
</g>
</g>
<!-- collections.abc.MutableSet&#45;&gt;pharmpy.data_structures.OrderedSet -->
<g id="edge6" class="edge">
<title>collections.abc.MutableSet&#45;&gt;pharmpy.data_structures.OrderedSet</title>
<path fill="none" stroke="maroon" stroke-width="0.5" d="M670.03,-46.5C680.04,-46.5 690.47,-46.5 700.88,-46.5"/>
<polygon fill="maroon" stroke="maroon" stroke-width="0.5" points="700.99,-48.25 705.99,-46.5 700.99,-44.75 700.99,-48.25"/>
</g>
<!-- collections.abc.Set&#45;&gt;collections.abc.MutableSet -->
<g id="edge4" class="edge">
<title>collections.abc.Set&#45;&gt;collections.abc.MutableSet</title>
<path fill="none" stroke="maroon" stroke-width="0.5" d="M486.04,-46.5C495.88,-46.5 506.34,-46.5 516.74,-46.5"/>
<polygon fill="maroon" stroke="maroon" stroke-width="0.5" points="516.84,-48.25 521.83,-46.5 516.83,-44.75 516.84,-48.25"/>
</g>
<!-- pharmpy.parameter.ParameterSet -->
<g id="node9" class="node">
<title>pharmpy.parameter.ParameterSet</title>
<g id="a_node9"><a xlink:href="../reference/pharmpy.parameter.html#pharmpy.parameter.ParameterSet" xlink:title="A set of parameters" target="_top">
<polygon fill="white" stroke="#7f7f7f" stroke-width="0.5" points="1118,-56 937,-56 937,-37 1118,-37 1118,-56"/>
<text text-anchor="middle" x="1027.5" y="-44" font-family="Vera Sans, DejaVu Sans, Liberation Sans, Arial, Helvetica, sans" font-size="10.00">pharmpy.parameter.ParameterSet</text>
</a>
</g>
</g>
<!-- pharmpy.data_structures.OrderedSet&#45;&gt;pharmpy.parameter.ParameterSet -->
<g id="edge7" class="edge">
<title>pharmpy.data_structures.OrderedSet&#45;&gt;pharmpy.parameter.ParameterSet</title>
<path fill="none" stroke="maroon" stroke-width="0.5" d="M901.23,-46.5C911.28,-46.5 921.48,-46.5 931.51,-46.5"/>
<polygon fill="maroon" stroke="maroon" stroke-width="0.5" points="931.74,-48.25 936.74,-46.5 931.74,-44.75 931.74,-48.25"/>
</g>
<!-- pharmpy.parameter.Parameter -->
<g id="node8" class="node">
<title>pharmpy.parameter.Parameter</title>
<g id="a_node8"><a xlink:href="../reference/pharmpy.parameter.html#pharmpy.parameter.Parameter" xlink:title="A single parameter" target="_top">
<polygon fill="white" stroke="#7f7f7f" stroke-width="0.5" points="165,-130 0,-130 0,-111 165,-111 165,-130"/>
<text text-anchor="middle" x="82.5" y="-118" font-family="Vera Sans, DejaVu Sans, Liberation Sans, Arial, Helvetica, sans" font-size="10.00">pharmpy.parameter.Parameter</text>
</a>
</g>
</g>
</g>
</svg>
