<?xml version="1.0" encoding="UTF-8" standalone="no"?>
<!DOCTYPE svg PUBLIC "-//W3C//DTD SVG 1.1//EN"
 "http://www.w3.org/Graphics/SVG/1.1/DTD/svg11.dtd">
<!-- Generated by graphviz version 2.43.0 (0)
 -->
<!-- Title: inheritanceb713c20658 Pages: 1 -->
<svg width="576pt" height="332pt"
 viewBox="0.00 0.00 576.00 332.10" xmlns="http://www.w3.org/2000/svg" xmlns:xlink="http://www.w3.org/1999/xlink">
<g id="graph0" class="graph" transform="scale(1.11 1.11) rotate(0) translate(4 365)">
<title>inheritanceb713c20658</title>
<!-- ABC -->
<g id="node1" class="node">
<title>ABC</title>
<g id="a_node1"><a xlink:title="Helper class that provides a standard way to create an ABC using">
<polygon fill="white" stroke="#7f7f7f" stroke-width="0.5" points="83.5,-28 29.5,-28 29.5,-9 83.5,-9 83.5,-28"/>
<text text-anchor="middle" x="56.5" y="-16" font-family="Vera Sans, DejaVu Sans, Liberation Sans, Arial, Helvetica, sans" font-size="10.00">ABC</text>
</a>
</g>
</g>
<!-- Statement -->
<g id="node3" class="node">
<title>Statement</title>
<g id="a_node3"><a xlink:title="Abstract base class for all types of statements">
<polygon fill="white" stroke="#7f7f7f" stroke-width="0.5" points="217,-28 149,-28 149,-9 217,-9 217,-28"/>
<text text-anchor="middle" x="183" y="-16" font-family="Vera Sans, DejaVu Sans, Liberation Sans, Arial, Helvetica, sans" font-size="10.00">Statement</text>
</a>
</g>
</g>
<!-- ABC&#45;&gt;Statement -->
<g id="edge15" class="edge">
<title>ABC&#45;&gt;Statement</title>
<path fill="none" stroke="maroon" stroke-width="0.5" d="M83.6,-18.5C100.94,-18.5 124,-18.5 143.44,-18.5"/>
<polygon fill="maroon" stroke="maroon" stroke-width="0.5" points="143.82,-20.25 148.82,-18.5 143.82,-16.75 143.82,-20.25"/>
</g>
<!-- Assignment -->
<g id="node2" class="node">
<title>Assignment</title>
<g id="a_node2"><a xlink:href="../api/pharmpy.Assignment.html#pharmpy.Assignment" xlink:title="Representation of variable assignment" target="_top">
<polygon fill="white" stroke="#7f7f7f" stroke-width="0.5" points="327,-65 253,-65 253,-46 327,-46 327,-65"/>
<text text-anchor="middle" x="290" y="-53" font-family="Vera Sans, DejaVu Sans, Liberation Sans, Arial, Helvetica, sans" font-size="10.00">Assignment</text>
</a>
</g>
</g>
<!-- Statement&#45;&gt;Assignment -->
<g id="edge1" class="edge">
<title>Statement&#45;&gt;Assignment</title>
<path fill="none" stroke="maroon" stroke-width="0.5" d="M211.04,-28.03C225.02,-32.95 242.17,-39 256.82,-44.16"/>
<polygon fill="maroon" stroke="maroon" stroke-width="0.5" points="256.39,-45.86 261.69,-45.88 257.55,-42.56 256.39,-45.86"/>
</g>
<!-- ODESystem -->
<g id="node11" class="node">
<title>ODESystem</title>
<g id="a_node11"><a xlink:href="../api/pharmpy.ODESystem.html#pharmpy.ODESystem" xlink:title="Base class and placeholder for ODE systems of different forms" target="_top">
<polygon fill="white" stroke="#7f7f7f" stroke-width="0.5" points="327,-28 253,-28 253,-9 327,-9 327,-28"/>
<text text-anchor="middle" x="290" y="-16" font-family="Vera Sans, DejaVu Sans, Liberation Sans, Arial, Helvetica, sans" font-size="10.00">ODESystem</text>
</a>
</g>
</g>
<!-- Statement&#45;&gt;ODESystem -->
<g id="edge9" class="edge">
<title>Statement&#45;&gt;ODESystem</title>
<path fill="none" stroke="maroon" stroke-width="0.5" d="M217.22,-18.5C226.84,-18.5 237.46,-18.5 247.52,-18.5"/>
<polygon fill="maroon" stroke="maroon" stroke-width="0.5" points="247.72,-20.25 252.72,-18.5 247.72,-16.75 247.72,-20.25"/>
</g>
<!-- Bolus -->
<g id="node4" class="node">
<title>Bolus</title>
<g id="a_node4"><a xlink:href="../api/pharmpy.Bolus.html#pharmpy.Bolus" xlink:title="A Bolus dose" target="_top">
<polygon fill="white" stroke="#7f7f7f" stroke-width="0.5" points="83.5,-65 29.5,-65 29.5,-46 83.5,-46 83.5,-65"/>
<text text-anchor="middle" x="56.5" y="-53" font-family="Vera Sans, DejaVu Sans, Liberation Sans, Arial, Helvetica, sans" font-size="10.00">Bolus</text>
</a>
</g>
</g>
<!-- Collection -->
<g id="node5" class="node">
<title>Collection</title>
<polygon fill="white" stroke="#7f7f7f" stroke-width="0.5" points="215.5,-139 150.5,-139 150.5,-120 215.5,-120 215.5,-139"/>
<text text-anchor="middle" x="183" y="-127" font-family="Vera Sans, DejaVu Sans, Liberation Sans, Arial, Helvetica, sans" font-size="10.00">Collection</text>
</g>
<!-- Sequence -->
<g id="node16" class="node">
<title>Sequence</title>
<g id="a_node16"><a xlink:title="All the operations on a read&#45;only sequence.">
<polygon fill="white" stroke="#7f7f7f" stroke-width="0.5" points="322,-111 258,-111 258,-92 322,-92 322,-111"/>
<text text-anchor="middle" x="290" y="-99" font-family="Vera Sans, DejaVu Sans, Liberation Sans, Arial, Helvetica, sans" font-size="10.00">Sequence</text>
</a>
</g>
</g>
<!-- Collection&#45;&gt;Sequence -->
<g id="edge14" class="edge">
<title>Collection&#45;&gt;Sequence</title>
<path fill="none" stroke="maroon" stroke-width="0.5" d="M215.5,-121.1C227.24,-117.97 240.65,-114.39 252.77,-111.16"/>
<polygon fill="maroon" stroke="maroon" stroke-width="0.5" points="253.5,-112.78 257.88,-109.8 252.6,-109.4 253.5,-112.78"/>
</g>
<!-- Sized -->
<g id="node6" class="node">
<title>Sized</title>
<polygon fill="white" stroke="#7f7f7f" stroke-width="0.5" points="83.5,-176 29.5,-176 29.5,-157 83.5,-157 83.5,-176"/>
<text text-anchor="middle" x="56.5" y="-164" font-family="Vera Sans, DejaVu Sans, Liberation Sans, Arial, Helvetica, sans" font-size="10.00">Sized</text>
</g>
<!-- Sized&#45;&gt;Collection -->
<g id="edge2" class="edge">
<title>Sized&#45;&gt;Collection</title>
<path fill="none" stroke="maroon" stroke-width="0.5" d="M83.6,-158.74C101.48,-153.43 125.45,-146.31 145.25,-140.42"/>
<polygon fill="maroon" stroke="maroon" stroke-width="0.5" points="145.9,-142.06 150.19,-138.95 144.9,-138.7 145.9,-142.06"/>
</g>
<!-- Iterable -->
<g id="node7" class="node">
<title>Iterable</title>
<polygon fill="white" stroke="#7f7f7f" stroke-width="0.5" points="83.5,-102 29.5,-102 29.5,-83 83.5,-83 83.5,-102"/>
<text text-anchor="middle" x="56.5" y="-90" font-family="Vera Sans, DejaVu Sans, Liberation Sans, Arial, Helvetica, sans" font-size="10.00">Iterable</text>
</g>
<!-- Iterable&#45;&gt;Collection -->
<g id="edge3" class="edge">
<title>Iterable&#45;&gt;Collection</title>
<path fill="none" stroke="maroon" stroke-width="0.5" d="M83.6,-100.26C101.48,-105.57 125.45,-112.69 145.25,-118.58"/>
<polygon fill="maroon" stroke="maroon" stroke-width="0.5" points="144.9,-120.3 150.19,-120.05 145.9,-116.94 144.9,-120.3"/>
</g>
<!-- Reversible -->
<g id="node21" class="node">
<title>Reversible</title>
<polygon fill="white" stroke="#7f7f7f" stroke-width="0.5" points="217,-102 149,-102 149,-83 217,-83 217,-102"/>
<text text-anchor="middle" x="183" y="-90" font-family="Vera Sans, DejaVu Sans, Liberation Sans, Arial, Helvetica, sans" font-size="10.00">Reversible</text>
</g>
<!-- Iterable&#45;&gt;Reversible -->
<g id="edge12" class="edge">
<title>Iterable&#45;&gt;Reversible</title>
<path fill="none" stroke="maroon" stroke-width="0.5" d="M83.6,-92.5C100.94,-92.5 124,-92.5 143.44,-92.5"/>
<polygon fill="maroon" stroke="maroon" stroke-width="0.5" points="143.82,-94.25 148.82,-92.5 143.82,-90.75 143.82,-94.25"/>
</g>
<!-- Container -->
<g id="node8" class="node">
<title>Container</title>
<polygon fill="white" stroke="#7f7f7f" stroke-width="0.5" points="88.5,-139 24.5,-139 24.5,-120 88.5,-120 88.5,-139"/>
<text text-anchor="middle" x="56.5" y="-127" font-family="Vera Sans, DejaVu Sans, Liberation Sans, Arial, Helvetica, sans" font-size="10.00">Container</text>
</g>
<!-- Container&#45;&gt;Collection -->
<g id="edge4" class="edge">
<title>Container&#45;&gt;Collection</title>
<path fill="none" stroke="maroon" stroke-width="0.5" d="M88.6,-129.5C105.7,-129.5 127.02,-129.5 144.98,-129.5"/>
<polygon fill="maroon" stroke="maroon" stroke-width="0.5" points="145.44,-131.25 150.44,-129.5 145.44,-127.75 145.44,-131.25"/>
</g>
<!-- Compartment -->
<g id="node9" class="node">
<title>Compartment</title>
<g id="a_node9"><a xlink:href="../api/pharmpy.Compartment.html#pharmpy.Compartment" xlink:title="Compartment for a compartmental system" target="_top">
<polygon fill="white" stroke="#7f7f7f" stroke-width="0.5" points="98.5,-213 14.5,-213 14.5,-194 98.5,-194 98.5,-213"/>
<text text-anchor="middle" x="56.5" y="-201" font-family="Vera Sans, DejaVu Sans, Liberation Sans, Arial, Helvetica, sans" font-size="10.00">Compartment</text>
</a>
</g>
</g>
<!-- CompartmentalSystem -->
<g id="node10" class="node">
<title>CompartmentalSystem</title>
<g id="a_node10"><a xlink:href="../api/pharmpy.CompartmentalSystem.html#pharmpy.CompartmentalSystem" xlink:title="System of ODEs descibed as a compartmental system" target="_top">
<polygon fill="white" stroke="#7f7f7f" stroke-width="0.5" points="493,-56 363,-56 363,-37 493,-37 493,-56"/>
<text text-anchor="middle" x="428" y="-44" font-family="Vera Sans, DejaVu Sans, Liberation Sans, Arial, Helvetica, sans" font-size="10.00">CompartmentalSystem</text>
</a>
</g>
</g>
<!-- ODESystem&#45;&gt;CompartmentalSystem -->
<g id="edge5" class="edge">
<title>ODESystem&#45;&gt;CompartmentalSystem</title>
<path fill="none" stroke="maroon" stroke-width="0.5" d="M327.09,-25.93C341.99,-29 359.54,-32.61 375.74,-35.95"/>
<polygon fill="maroon" stroke="maroon" stroke-width="0.5" points="375.47,-37.68 380.72,-36.97 376.18,-34.25 375.47,-37.68"/>
</g>
<!-- ExplicitODESystem -->
<g id="node12" class="node">
<title>ExplicitODESystem</title>
<g id="a_node12"><a xlink:href="../api/pharmpy.ExplicitODESystem.html#pharmpy.ExplicitODESystem" xlink:title="System of ODEs described explicitly" target="_top">
<polygon fill="white" stroke="#7f7f7f" stroke-width="0.5" points="483,-19 373,-19 373,0 483,0 483,-19"/>
<text text-anchor="middle" x="428" y="-7" font-family="Vera Sans, DejaVu Sans, Liberation Sans, Arial, Helvetica, sans" font-size="10.00">ExplicitODESystem</text>
</a>
</g>
</g>
<!-- ODESystem&#45;&gt;ExplicitODESystem -->
<g id="edge6" class="edge">
<title>ODESystem&#45;&gt;ExplicitODESystem</title>
<path fill="none" stroke="maroon" stroke-width="0.5" d="M327.09,-16.11C339.56,-15.29 353.89,-14.34 367.73,-13.42"/>
<polygon fill="maroon" stroke="maroon" stroke-width="0.5" points="367.93,-15.16 372.8,-13.09 367.7,-11.67 367.93,-15.16"/>
</g>
<!-- Infusion -->
<g id="node13" class="node">
<title>Infusion</title>
<g id="a_node13"><a xlink:href="../api/pharmpy.Infusion.html#pharmpy.Infusion" xlink:title="An infusion dose" target="_top">
<polygon fill="white" stroke="#7f7f7f" stroke-width="0.5" points="84.5,-250 28.5,-250 28.5,-231 84.5,-231 84.5,-250"/>
<text text-anchor="middle" x="56.5" y="-238" font-family="Vera Sans, DejaVu Sans, Liberation Sans, Arial, Helvetica, sans" font-size="10.00">Infusion</text>
</a>
</g>
</g>
<!-- ModelStatements -->
<g id="node14" class="node">
<title>ModelStatements</title>
<g id="a_node14"><a xlink:href="../api/pharmpy.ModelStatements.html#pharmpy.ModelStatements" xlink:title="A sequence of symbolic statements describing the model" target="_top">
<polygon fill="white" stroke="#7f7f7f" stroke-width="0.5" points="632,-148 529,-148 529,-129 632,-129 632,-148"/>
<text text-anchor="middle" x="580.5" y="-136" font-family="Vera Sans, DejaVu Sans, Liberation Sans, Arial, Helvetica, sans" font-size="10.00">ModelStatements</text>
</a>
</g>
</g>
<!-- MutableSequence -->
<g id="node15" class="node">
<title>MutableSequence</title>
<polygon fill="white" stroke="#7f7f7f" stroke-width="0.5" points="480,-111 376,-111 376,-92 480,-92 480,-111"/>
<text text-anchor="middle" x="428" y="-99" font-family="Vera Sans, DejaVu Sans, Liberation Sans, Arial, Helvetica, sans" font-size="10.00">MutableSequence</text>
</g>
<!-- MutableSequence&#45;&gt;ModelStatements -->
<g id="edge7" class="edge">
<title>MutableSequence&#45;&gt;ModelStatements</title>
<path fill="none" stroke="maroon" stroke-width="0.5" d="M467.76,-111.03C488.48,-116.12 514.07,-122.41 535.54,-127.69"/>
<polygon fill="maroon" stroke="maroon" stroke-width="0.5" points="535.34,-129.45 540.61,-128.94 536.17,-126.05 535.34,-129.45"/>
</g>
<!-- Parameters -->
<g id="node18" class="node">
<title>Parameters</title>
<g id="a_node18"><a xlink:href="../api/pharmpy.Parameters.html#pharmpy.Parameters" xlink:title="A collection of parameters" target="_top">
<polygon fill="white" stroke="#7f7f7f" stroke-width="0.5" points="616.5,-111 544.5,-111 544.5,-92 616.5,-92 616.5,-111"/>
<text text-anchor="middle" x="580.5" y="-99" font-family="Vera Sans, DejaVu Sans, Liberation Sans, Arial, Helvetica, sans" font-size="10.00">Parameters</text>
</a>
</g>
</g>
<!-- MutableSequence&#45;&gt;Parameters -->
<g id="edge10" class="edge">
<title>MutableSequence&#45;&gt;Parameters</title>
<path fill="none" stroke="maroon" stroke-width="0.5" d="M480.37,-101.5C499.68,-101.5 521.32,-101.5 539.44,-101.5"/>
<polygon fill="maroon" stroke="maroon" stroke-width="0.5" points="539.46,-103.25 544.46,-101.5 539.46,-99.75 539.46,-103.25"/>
</g>
<!-- RandomVariables -->
<g id="node20" class="node">
<title>RandomVariables</title>
<g id="a_node20"><a xlink:href="../api/pharmpy.RandomVariables.html#pharmpy.RandomVariables" xlink:title="A collection of random variables" target="_top">
<polygon fill="white" stroke="#7f7f7f" stroke-width="0.5" points="631.5,-74 529.5,-74 529.5,-55 631.5,-55 631.5,-74"/>
<text text-anchor="middle" x="580.5" y="-62" font-family="Vera Sans, DejaVu Sans, Liberation Sans, Arial, Helvetica, sans" font-size="10.00">RandomVariables</text>
</a>
</g>
</g>
<!-- MutableSequence&#45;&gt;RandomVariables -->
<g id="edge11" class="edge">
<title>MutableSequence&#45;&gt;RandomVariables</title>
<path fill="none" stroke="maroon" stroke-width="0.5" d="M467.76,-91.97C488.48,-86.88 514.07,-80.59 535.54,-75.31"/>
<polygon fill="maroon" stroke="maroon" stroke-width="0.5" points="536.17,-76.95 540.61,-74.06 535.34,-73.55 536.17,-76.95"/>
</g>
<!-- Sequence&#45;&gt;MutableSequence -->
<g id="edge8" class="edge">
<title>Sequence&#45;&gt;MutableSequence</title>
<path fill="none" stroke="maroon" stroke-width="0.5" d="M322.2,-101.5C336.63,-101.5 354.22,-101.5 370.83,-101.5"/>
<polygon fill="maroon" stroke="maroon" stroke-width="0.5" points="370.96,-103.25 375.96,-101.5 370.96,-99.75 370.96,-103.25"/>
</g>
<!-- Parameter -->
<g id="node17" class="node">
<title>Parameter</title>
<g id="a_node17"><a xlink:href="../api/pharmpy.Parameter.html#pharmpy.Parameter" xlink:title="A single parameter" target="_top">
<polygon fill="white" stroke="#7f7f7f" stroke-width="0.5" points="90,-287 23,-287 23,-268 90,-268 90,-287"/>
<text text-anchor="middle" x="56.5" y="-275" font-family="Vera Sans, DejaVu Sans, Liberation Sans, Arial, Helvetica, sans" font-size="10.00">Parameter</text>
</a>
</g>
</g>
<!-- RandomVariable -->
<g id="node19" class="node">
<title>RandomVariable</title>
<g id="a_node19"><a xlink:href="../api/pharmpy.RandomVariable.html#pharmpy.RandomVariable" xlink:title="A single random variable" target="_top">
<polygon fill="white" stroke="#7f7f7f" stroke-width="0.5" points="105,-324 8,-324 8,-305 105,-305 105,-324"/>
<text text-anchor="middle" x="56.5" y="-312" font-family="Vera Sans, DejaVu Sans, Liberation Sans, Arial, Helvetica, sans" font-size="10.00">RandomVariable</text>
</a>
</g>
</g>
<!-- Reversible&#45;&gt;Sequence -->
<g id="edge13" class="edge">
<title>Reversible&#45;&gt;Sequence</title>
<path fill="none" stroke="maroon" stroke-width="0.5" d="M217.22,-95.35C228.48,-96.31 241.1,-97.39 252.59,-98.38"/>
<polygon fill="maroon" stroke="maroon" stroke-width="0.5" points="252.65,-100.14 257.78,-98.82 252.95,-96.65 252.65,-100.14"/>
</g>
<!-- VariabilityHierarchy -->
<g id="node22" class="node">
<title>VariabilityHierarchy</title>
<g id="a_node22"><a xlink:href="../api/pharmpy.VariabilityHierarchy.html#pharmpy.VariabilityHierarchy" xlink:title="Description of a variability hierarchy" target="_top">
<polygon fill="white" stroke="#7f7f7f" stroke-width="0.5" points="113,-361 0,-361 0,-342 113,-342 113,-361"/>
<text text-anchor="middle" x="56.5" y="-349" font-family="Vera Sans, DejaVu Sans, Liberation Sans, Arial, Helvetica, sans" font-size="10.00">VariabilityHierarchy</text>
</a>
</g>
</g>
</g>
</svg>
