<?xml version="1.0" encoding="UTF-8" standalone="no"?>
<!DOCTYPE svg PUBLIC "-//W3C//DTD SVG 1.1//EN"
 "http://www.w3.org/Graphics/SVG/1.1/DTD/svg11.dtd">
<!-- Generated by graphviz version 2.43.0 (0)
 -->
<!-- Title: inheritance7140313f70 Pages: 1 -->
<svg width="576pt" height="220pt"
 viewBox="0.00 0.00 576.00 220.29" xmlns="http://www.w3.org/2000/svg" xmlns:xlink="http://www.w3.org/1999/xlink">
<g id="graph0" class="graph" transform="scale(1.05 1.05) rotate(0) translate(4 227)">
<title>inheritance7140313f70</title>
<!-- Collection -->
<g id="node1" class="node">
<title>Collection</title>
<polygon fill="white" stroke="#7f7f7f" stroke-width="0.5" points="215.5,-75 150.5,-75 150.5,-56 215.5,-56 215.5,-75"/>
<text text-anchor="middle" x="183" y="-63" font-family="Vera Sans, DejaVu Sans, Liberation Sans, Arial, Helvetica, sans" font-size="10.00">Collection</text>
</g>
<!-- Sequence -->
<g id="node7" class="node">
<title>Sequence</title>
<g id="a_node7"><a xlink:title="All the operations on a read&#45;only sequence.">
<polygon fill="white" stroke="#7f7f7f" stroke-width="0.5" points="317,-56 253,-56 253,-37 317,-37 317,-56"/>
<text text-anchor="middle" x="285" y="-44" font-family="Vera Sans, DejaVu Sans, Liberation Sans, Arial, Helvetica, sans" font-size="10.00">Sequence</text>
</a>
</g>
</g>
<!-- Collection&#45;&gt;Sequence -->
<g id="edge10" class="edge">
<title>Collection&#45;&gt;Sequence</title>
<path fill="none" stroke="maroon" stroke-width="0.5" d="M215.64,-59.49C225.87,-57.54 237.29,-55.38 247.82,-53.37"/>
<polygon fill="maroon" stroke="maroon" stroke-width="0.5" points="248.32,-55.06 252.91,-52.41 247.67,-51.62 248.32,-55.06"/>
</g>
<!-- Sized -->
<g id="node2" class="node">
<title>Sized</title>
<polygon fill="white" stroke="#7f7f7f" stroke-width="0.5" points="83.5,-112 29.5,-112 29.5,-93 83.5,-93 83.5,-112"/>
<text text-anchor="middle" x="56.5" y="-100" font-family="Vera Sans, DejaVu Sans, Liberation Sans, Arial, Helvetica, sans" font-size="10.00">Sized</text>
</g>
<!-- Sized&#45;&gt;Collection -->
<g id="edge1" class="edge">
<title>Sized&#45;&gt;Collection</title>
<path fill="none" stroke="maroon" stroke-width="0.5" d="M83.6,-94.74C101.48,-89.43 125.45,-82.31 145.25,-76.42"/>
<polygon fill="maroon" stroke="maroon" stroke-width="0.5" points="145.9,-78.06 150.19,-74.95 144.9,-74.7 145.9,-78.06"/>
</g>
<!-- Iterable -->
<g id="node3" class="node">
<title>Iterable</title>
<polygon fill="white" stroke="#7f7f7f" stroke-width="0.5" points="83.5,-38 29.5,-38 29.5,-19 83.5,-19 83.5,-38"/>
<text text-anchor="middle" x="56.5" y="-26" font-family="Vera Sans, DejaVu Sans, Liberation Sans, Arial, Helvetica, sans" font-size="10.00">Iterable</text>
</g>
<!-- Iterable&#45;&gt;Collection -->
<g id="edge2" class="edge">
<title>Iterable&#45;&gt;Collection</title>
<path fill="none" stroke="maroon" stroke-width="0.5" d="M83.6,-36.26C101.48,-41.57 125.45,-48.69 145.25,-54.58"/>
<polygon fill="maroon" stroke="maroon" stroke-width="0.5" points="144.9,-56.3 150.19,-56.05 145.9,-52.94 144.9,-56.3"/>
</g>
<!-- Reversible -->
<g id="node12" class="node">
<title>Reversible</title>
<polygon fill="white" stroke="#7f7f7f" stroke-width="0.5" points="217,-38 149,-38 149,-19 217,-19 217,-38"/>
<text text-anchor="middle" x="183" y="-26" font-family="Vera Sans, DejaVu Sans, Liberation Sans, Arial, Helvetica, sans" font-size="10.00">Reversible</text>
</g>
<!-- Iterable&#45;&gt;Reversible -->
<g id="edge8" class="edge">
<title>Iterable&#45;&gt;Reversible</title>
<path fill="none" stroke="maroon" stroke-width="0.5" d="M83.6,-28.5C100.94,-28.5 124,-28.5 143.44,-28.5"/>
<polygon fill="maroon" stroke="maroon" stroke-width="0.5" points="143.82,-30.25 148.82,-28.5 143.82,-26.75 143.82,-30.25"/>
</g>
<!-- Container -->
<g id="node4" class="node">
<title>Container</title>
<polygon fill="white" stroke="#7f7f7f" stroke-width="0.5" points="88.5,-75 24.5,-75 24.5,-56 88.5,-56 88.5,-75"/>
<text text-anchor="middle" x="56.5" y="-63" font-family="Vera Sans, DejaVu Sans, Liberation Sans, Arial, Helvetica, sans" font-size="10.00">Container</text>
</g>
<!-- Container&#45;&gt;Collection -->
<g id="edge3" class="edge">
<title>Container&#45;&gt;Collection</title>
<path fill="none" stroke="maroon" stroke-width="0.5" d="M88.6,-65.5C105.7,-65.5 127.02,-65.5 144.98,-65.5"/>
<polygon fill="maroon" stroke="maroon" stroke-width="0.5" points="145.44,-67.25 150.44,-65.5 145.44,-63.75 145.44,-67.25"/>
</g>
<!-- ModelStatements -->
<g id="node5" class="node">
<title>ModelStatements</title>
<g id="a_node5"><a xlink:href="../api/pharmpy.ModelStatements.html#pharmpy.ModelStatements" xlink:title="A list of sympy statements describing the model" target="_top">
<polygon fill="white" stroke="#7f7f7f" stroke-width="0.5" points="596,-93 493,-93 493,-74 596,-74 596,-93"/>
<text text-anchor="middle" x="544.5" y="-81" font-family="Vera Sans, DejaVu Sans, Liberation Sans, Arial, Helvetica, sans" font-size="10.00">ModelStatements</text>
</a>
</g>
</g>
<!-- MutableSequence -->
<g id="node6" class="node">
<title>MutableSequence</title>
<polygon fill="white" stroke="#7f7f7f" stroke-width="0.5" points="457,-56 353,-56 353,-37 457,-37 457,-56"/>
<text text-anchor="middle" x="405" y="-44" font-family="Vera Sans, DejaVu Sans, Liberation Sans, Arial, Helvetica, sans" font-size="10.00">MutableSequence</text>
</g>
<!-- MutableSequence&#45;&gt;ModelStatements -->
<g id="edge4" class="edge">
<title>MutableSequence&#45;&gt;ModelStatements</title>
<path fill="none" stroke="maroon" stroke-width="0.5" d="M441.41,-56.03C460.19,-61.08 483.35,-67.31 502.86,-72.56"/>
<polygon fill="maroon" stroke="maroon" stroke-width="0.5" points="502.45,-74.27 507.73,-73.88 503.36,-70.89 502.45,-74.27"/>
</g>
<!-- Parameters -->
<g id="node9" class="node">
<title>Parameters</title>
<g id="a_node9"><a xlink:href="../api/pharmpy.Parameters.html#pharmpy.Parameters" xlink:title="A collection of parameters" target="_top">
<polygon fill="white" stroke="#7f7f7f" stroke-width="0.5" points="580.5,-56 508.5,-56 508.5,-37 580.5,-37 580.5,-56"/>
<text text-anchor="middle" x="544.5" y="-44" font-family="Vera Sans, DejaVu Sans, Liberation Sans, Arial, Helvetica, sans" font-size="10.00">Parameters</text>
</a>
</g>
</g>
<!-- MutableSequence&#45;&gt;Parameters -->
<g id="edge6" class="edge">
<title>MutableSequence&#45;&gt;Parameters</title>
<path fill="none" stroke="maroon" stroke-width="0.5" d="M457.2,-46.5C472.3,-46.5 488.6,-46.5 502.93,-46.5"/>
<polygon fill="maroon" stroke="maroon" stroke-width="0.5" points="503.12,-48.25 508.12,-46.5 503.12,-44.75 503.12,-48.25"/>
</g>
<!-- RandomVariables -->
<g id="node11" class="node">
<title>RandomVariables</title>
<g id="a_node11"><a xlink:href="../api/pharmpy.RandomVariables.html#pharmpy.RandomVariables" xlink:title="A collection of random variables" target="_top">
<polygon fill="white" stroke="#7f7f7f" stroke-width="0.5" points="595.5,-19 493.5,-19 493.5,0 595.5,0 595.5,-19"/>
<text text-anchor="middle" x="544.5" y="-7" font-family="Vera Sans, DejaVu Sans, Liberation Sans, Arial, Helvetica, sans" font-size="10.00">RandomVariables</text>
</a>
</g>
</g>
<!-- MutableSequence&#45;&gt;RandomVariables -->
<g id="edge7" class="edge">
<title>MutableSequence&#45;&gt;RandomVariables</title>
<path fill="none" stroke="maroon" stroke-width="0.5" d="M441.41,-36.97C460.19,-31.92 483.35,-25.69 502.86,-20.44"/>
<polygon fill="maroon" stroke="maroon" stroke-width="0.5" points="503.36,-22.11 507.73,-19.12 502.45,-18.73 503.36,-22.11"/>
</g>
<!-- Sequence&#45;&gt;MutableSequence -->
<g id="edge5" class="edge">
<title>Sequence&#45;&gt;MutableSequence</title>
<path fill="none" stroke="maroon" stroke-width="0.5" d="M317,-46.5C326.39,-46.5 337.01,-46.5 347.53,-46.5"/>
<polygon fill="maroon" stroke="maroon" stroke-width="0.5" points="347.67,-48.25 352.67,-46.5 347.67,-44.75 347.67,-48.25"/>
</g>
<!-- Parameter -->
<g id="node8" class="node">
<title>Parameter</title>
<g id="a_node8"><a xlink:href="../api/pharmpy.Parameter.html#pharmpy.Parameter" xlink:title="A single parameter" target="_top">
<polygon fill="white" stroke="#7f7f7f" stroke-width="0.5" points="90,-149 23,-149 23,-130 90,-130 90,-149"/>
<text text-anchor="middle" x="56.5" y="-137" font-family="Vera Sans, DejaVu Sans, Liberation Sans, Arial, Helvetica, sans" font-size="10.00">Parameter</text>
</a>
</g>
</g>
<!-- RandomVariable -->
<g id="node10" class="node">
<title>RandomVariable</title>
<g id="a_node10"><a xlink:href="../api/pharmpy.RandomVariable.html#pharmpy.RandomVariable" xlink:title="A single random variable" target="_top">
<polygon fill="white" stroke="#7f7f7f" stroke-width="0.5" points="105,-186 8,-186 8,-167 105,-167 105,-186"/>
<text text-anchor="middle" x="56.5" y="-174" font-family="Vera Sans, DejaVu Sans, Liberation Sans, Arial, Helvetica, sans" font-size="10.00">RandomVariable</text>
</a>
</g>
</g>
<!-- Reversible&#45;&gt;Sequence -->
<g id="edge9" class="edge">
<title>Reversible&#45;&gt;Sequence</title>
<path fill="none" stroke="maroon" stroke-width="0.5" d="M217.02,-34.44C226.81,-36.21 237.58,-38.14 247.57,-39.94"/>
<polygon fill="maroon" stroke="maroon" stroke-width="0.5" points="247.48,-41.7 252.71,-40.87 248.1,-38.26 247.48,-41.7"/>
</g>
<!-- VariabilityHierarchy -->
<g id="node13" class="node">
<title>VariabilityHierarchy</title>
<g id="a_node13"><a xlink:href="../api/pharmpy.VariabilityHierarchy.html#pharmpy.VariabilityHierarchy" xlink:title="Description of a variability hierarchy" target="_top">
<polygon fill="white" stroke="#7f7f7f" stroke-width="0.5" points="113,-223 0,-223 0,-204 113,-204 113,-223"/>
<text text-anchor="middle" x="56.5" y="-211" font-family="Vera Sans, DejaVu Sans, Liberation Sans, Arial, Helvetica, sans" font-size="10.00">VariabilityHierarchy</text>
</a>
</g>
</g>
</g>
</svg>
