<?xml version="1.0" encoding="UTF-8" standalone="no"?>
<!DOCTYPE svg PUBLIC "-//W3C//DTD SVG 1.1//EN"
 "http://www.w3.org/Graphics/SVG/1.1/DTD/svg11.dtd">
<!-- Generated by graphviz version 2.43.0 (0)
 -->
<!-- Title: inheritancec14762bdb1 Pages: 1 -->
<svg width="576pt" height="496pt"
 viewBox="0.00 0.00 576.00 495.91" xmlns="http://www.w3.org/2000/svg" xmlns:xlink="http://www.w3.org/1999/xlink">
<g id="graph0" class="graph" transform="scale(1.17 1.17) rotate(0) translate(4 578)">
<title>inheritancec14762bdb1</title>
<!-- ABC -->
<g id="node1" class="node">
<title>ABC</title>
<g id="a_node1"><a xlink:title="Helper class that provides a standard way to create an ABC using">
<polygon fill="white" stroke="#7f7f7f" stroke-width="0.5" points="83.5,-75 29.5,-75 29.5,-56 83.5,-56 83.5,-75"/>
<text text-anchor="middle" x="56.5" y="-63" font-family="Vera Sans, DejaVu Sans, Liberation Sans, Arial, Helvetica, sans" font-size="10.00">ABC</text>
</a>
</g>
</g>
<!-- Statement -->
<g id="node3" class="node">
<title>Statement</title>
<g id="a_node3"><a xlink:title="Abstract base class for all types of statements">
<polygon fill="white" stroke="#7f7f7f" stroke-width="0.5" points="235,-93 167,-93 167,-74 235,-74 235,-93"/>
<text text-anchor="middle" x="201" y="-81" font-family="Vera Sans, DejaVu Sans, Liberation Sans, Arial, Helvetica, sans" font-size="10.00">Statement</text>
</a>
</g>
</g>
<!-- ABC&#45;&gt;Statement -->
<g id="edge21" class="edge">
<title>ABC&#45;&gt;Statement</title>
<path fill="none" stroke="maroon" stroke-width="0.5" d="M83.64,-68.8C105.47,-71.56 136.89,-75.53 161.58,-78.65"/>
<polygon fill="maroon" stroke="maroon" stroke-width="0.5" points="161.56,-80.41 166.74,-79.3 162,-76.94 161.56,-80.41"/>
</g>
<!-- Dose -->
<g id="node5" class="node">
<title>Dose</title>
<g id="a_node5"><a xlink:title="Abstract base class for different types of doses">
<polygon fill="white" stroke="#7f7f7f" stroke-width="0.5" points="228,-56 174,-56 174,-37 228,-37 228,-56"/>
<text text-anchor="middle" x="201" y="-44" font-family="Vera Sans, DejaVu Sans, Liberation Sans, Arial, Helvetica, sans" font-size="10.00">Dose</text>
</a>
</g>
</g>
<!-- ABC&#45;&gt;Dose -->
<g id="edge8" class="edge">
<title>ABC&#45;&gt;Dose</title>
<path fill="none" stroke="maroon" stroke-width="0.5" d="M83.64,-62.02C107.59,-58.82 143.1,-54.09 168.59,-50.69"/>
<polygon fill="maroon" stroke="maroon" stroke-width="0.5" points="168.82,-52.42 173.55,-50.03 168.36,-48.95 168.82,-52.42"/>
</g>
<!-- Assignment -->
<g id="node2" class="node">
<title>Assignment</title>
<g id="a_node2"><a xlink:href="../api/pharmpy.Assignment.html#pharmpy.Assignment" xlink:title="Representation of variable assignment" target="_top">
<polygon fill="white" stroke="#7f7f7f" stroke-width="0.5" points="363,-130 289,-130 289,-111 363,-111 363,-130"/>
<text text-anchor="middle" x="326" y="-118" font-family="Vera Sans, DejaVu Sans, Liberation Sans, Arial, Helvetica, sans" font-size="10.00">Assignment</text>
</a>
</g>
</g>
<!-- Statement&#45;&gt;Assignment -->
<g id="edge1" class="edge">
<title>Statement&#45;&gt;Assignment</title>
<path fill="none" stroke="maroon" stroke-width="0.5" d="M233.68,-93.03C250.33,-98.04 270.84,-104.21 288.2,-109.43"/>
<polygon fill="maroon" stroke="maroon" stroke-width="0.5" points="287.71,-111.11 293,-110.88 288.72,-107.76 287.71,-111.11"/>
</g>
<!-- ODESystem -->
<g id="node13" class="node">
<title>ODESystem</title>
<g id="a_node13"><a xlink:href="../api/pharmpy.ODESystem.html#pharmpy.ODESystem" xlink:title="Base class and placeholder for ODE systems of different forms" target="_top">
<polygon fill="white" stroke="#7f7f7f" stroke-width="0.5" points="363,-93 289,-93 289,-74 363,-74 363,-93"/>
<text text-anchor="middle" x="326" y="-81" font-family="Vera Sans, DejaVu Sans, Liberation Sans, Arial, Helvetica, sans" font-size="10.00">ODESystem</text>
</a>
</g>
</g>
<!-- Statement&#45;&gt;ODESystem -->
<g id="edge15" class="edge">
<title>Statement&#45;&gt;ODESystem</title>
<path fill="none" stroke="maroon" stroke-width="0.5" d="M235.29,-83.5C250.12,-83.5 267.74,-83.5 283.42,-83.5"/>
<polygon fill="maroon" stroke="maroon" stroke-width="0.5" points="283.66,-85.25 288.66,-83.5 283.66,-81.75 283.66,-85.25"/>
</g>
<!-- Bolus -->
<g id="node4" class="node">
<title>Bolus</title>
<g id="a_node4"><a xlink:href="../api/pharmpy.Bolus.html#pharmpy.Bolus" xlink:title="A Bolus dose" target="_top">
<polygon fill="white" stroke="#7f7f7f" stroke-width="0.5" points="353,-56 299,-56 299,-37 353,-37 353,-56"/>
<text text-anchor="middle" x="326" y="-44" font-family="Vera Sans, DejaVu Sans, Liberation Sans, Arial, Helvetica, sans" font-size="10.00">Bolus</text>
</a>
</g>
</g>
<!-- Dose&#45;&gt;Bolus -->
<g id="edge2" class="edge">
<title>Dose&#45;&gt;Bolus</title>
<path fill="none" stroke="maroon" stroke-width="0.5" d="M228.09,-46.5C247.33,-46.5 273.59,-46.5 293.92,-46.5"/>
<polygon fill="maroon" stroke="maroon" stroke-width="0.5" points="293.95,-48.25 298.95,-46.5 293.95,-44.75 293.95,-48.25"/>
</g>
<!-- Infusion -->
<g id="node21" class="node">
<title>Infusion</title>
<g id="a_node21"><a xlink:href="../api/pharmpy.Infusion.html#pharmpy.Infusion" xlink:title="An infusion dose" target="_top">
<polygon fill="white" stroke="#7f7f7f" stroke-width="0.5" points="354,-19 298,-19 298,0 354,0 354,-19"/>
<text text-anchor="middle" x="326" y="-7" font-family="Vera Sans, DejaVu Sans, Liberation Sans, Arial, Helvetica, sans" font-size="10.00">Infusion</text>
</a>
</g>
</g>
<!-- Dose&#45;&gt;Infusion -->
<g id="edge11" class="edge">
<title>Dose&#45;&gt;Infusion</title>
<path fill="none" stroke="maroon" stroke-width="0.5" d="M228.09,-38.65C246.94,-32.98 272.53,-25.28 292.68,-19.22"/>
<polygon fill="maroon" stroke="maroon" stroke-width="0.5" points="293.39,-20.84 297.67,-17.72 292.38,-17.48 293.39,-20.84"/>
</g>
<!-- Collection -->
<g id="node6" class="node">
<title>Collection</title>
<polygon fill="white" stroke="#7f7f7f" stroke-width="0.5" points="233.5,-167 168.5,-167 168.5,-148 233.5,-148 233.5,-167"/>
<text text-anchor="middle" x="201" y="-155" font-family="Vera Sans, DejaVu Sans, Liberation Sans, Arial, Helvetica, sans" font-size="10.00">Collection</text>
</g>
<!-- Sequence -->
<g id="node26" class="node">
<title>Sequence</title>
<g id="a_node26"><a xlink:title="All the operations on a read&#45;only sequence.">
<polygon fill="white" stroke="#7f7f7f" stroke-width="0.5" points="358,-167 294,-167 294,-148 358,-148 358,-167"/>
<text text-anchor="middle" x="326" y="-155" font-family="Vera Sans, DejaVu Sans, Liberation Sans, Arial, Helvetica, sans" font-size="10.00">Sequence</text>
</a>
</g>
</g>
<!-- Collection&#45;&gt;Sequence -->
<g id="edge20" class="edge">
<title>Collection&#45;&gt;Sequence</title>
<path fill="none" stroke="maroon" stroke-width="0.5" d="M233.68,-157.5C250.45,-157.5 271.12,-157.5 288.56,-157.5"/>
<polygon fill="maroon" stroke="maroon" stroke-width="0.5" points="288.86,-159.25 293.86,-157.5 288.86,-155.75 288.86,-159.25"/>
</g>
<!-- Sized -->
<g id="node7" class="node">
<title>Sized</title>
<polygon fill="white" stroke="#7f7f7f" stroke-width="0.5" points="83.5,-204 29.5,-204 29.5,-185 83.5,-185 83.5,-204"/>
<text text-anchor="middle" x="56.5" y="-192" font-family="Vera Sans, DejaVu Sans, Liberation Sans, Arial, Helvetica, sans" font-size="10.00">Sized</text>
</g>
<!-- Sized&#45;&gt;Collection -->
<g id="edge3" class="edge">
<title>Sized&#45;&gt;Collection</title>
<path fill="none" stroke="maroon" stroke-width="0.5" d="M83.64,-187.71C106.01,-181.9 138.46,-173.48 163.41,-167"/>
<polygon fill="maroon" stroke="maroon" stroke-width="0.5" points="163.9,-168.68 168.3,-165.73 163.02,-165.29 163.9,-168.68"/>
</g>
<!-- Iterable -->
<g id="node8" class="node">
<title>Iterable</title>
<polygon fill="white" stroke="#7f7f7f" stroke-width="0.5" points="83.5,-130 29.5,-130 29.5,-111 83.5,-111 83.5,-130"/>
<text text-anchor="middle" x="56.5" y="-118" font-family="Vera Sans, DejaVu Sans, Liberation Sans, Arial, Helvetica, sans" font-size="10.00">Iterable</text>
</g>
<!-- Iterable&#45;&gt;Collection -->
<g id="edge4" class="edge">
<title>Iterable&#45;&gt;Collection</title>
<path fill="none" stroke="maroon" stroke-width="0.5" d="M83.64,-127.29C106.01,-133.1 138.46,-141.52 163.41,-148"/>
<polygon fill="maroon" stroke="maroon" stroke-width="0.5" points="163.02,-149.71 168.3,-149.27 163.9,-146.32 163.02,-149.71"/>
</g>
<!-- Reversible -->
<g id="node31" class="node">
<title>Reversible</title>
<polygon fill="white" stroke="#7f7f7f" stroke-width="0.5" points="235,-130 167,-130 167,-111 235,-111 235,-130"/>
<text text-anchor="middle" x="201" y="-118" font-family="Vera Sans, DejaVu Sans, Liberation Sans, Arial, Helvetica, sans" font-size="10.00">Reversible</text>
</g>
<!-- Iterable&#45;&gt;Reversible -->
<g id="edge18" class="edge">
<title>Iterable&#45;&gt;Reversible</title>
<path fill="none" stroke="maroon" stroke-width="0.5" d="M83.64,-120.5C105.47,-120.5 136.89,-120.5 161.58,-120.5"/>
<polygon fill="maroon" stroke="maroon" stroke-width="0.5" points="161.74,-122.25 166.74,-120.5 161.74,-118.75 161.74,-122.25"/>
</g>
<!-- Container -->
<g id="node9" class="node">
<title>Container</title>
<polygon fill="white" stroke="#7f7f7f" stroke-width="0.5" points="88.5,-167 24.5,-167 24.5,-148 88.5,-148 88.5,-167"/>
<text text-anchor="middle" x="56.5" y="-155" font-family="Vera Sans, DejaVu Sans, Liberation Sans, Arial, Helvetica, sans" font-size="10.00">Container</text>
</g>
<!-- Container&#45;&gt;Collection -->
<g id="edge5" class="edge">
<title>Container&#45;&gt;Collection</title>
<path fill="none" stroke="maroon" stroke-width="0.5" d="M88.77,-157.5C110.71,-157.5 140.12,-157.5 163.19,-157.5"/>
<polygon fill="maroon" stroke="maroon" stroke-width="0.5" points="163.31,-159.25 168.31,-157.5 163.31,-155.75 163.31,-159.25"/>
</g>
<!-- ColumnInfo -->
<g id="node10" class="node">
<title>ColumnInfo</title>
<g id="a_node10"><a xlink:href="../api/pharmpy.ColumnInfo.html#pharmpy.ColumnInfo" xlink:title="Information about one data column" target="_top">
<polygon fill="white" stroke="#7f7f7f" stroke-width="0.5" points="93,-241 20,-241 20,-222 93,-222 93,-241"/>
<text text-anchor="middle" x="56.5" y="-229" font-family="Vera Sans, DejaVu Sans, Liberation Sans, Arial, Helvetica, sans" font-size="10.00">ColumnInfo</text>
</a>
</g>
</g>
<!-- Compartment -->
<g id="node11" class="node">
<title>Compartment</title>
<g id="a_node11"><a xlink:href="../api/pharmpy.Compartment.html#pharmpy.Compartment" xlink:title="Compartment for a compartmental system" target="_top">
<polygon fill="white" stroke="#7f7f7f" stroke-width="0.5" points="98.5,-278 14.5,-278 14.5,-259 98.5,-259 98.5,-278"/>
<text text-anchor="middle" x="56.5" y="-266" font-family="Vera Sans, DejaVu Sans, Liberation Sans, Arial, Helvetica, sans" font-size="10.00">Compartment</text>
</a>
</g>
</g>
<!-- CompartmentalSystem -->
<g id="node12" class="node">
<title>CompartmentalSystem</title>
<g id="a_node12"><a xlink:href="../api/pharmpy.CompartmentalSystem.html#pharmpy.CompartmentalSystem" xlink:title="System of ODEs descibed as a compartmental system" target="_top">
<polygon fill="white" stroke="#7f7f7f" stroke-width="0.5" points="529,-111 399,-111 399,-92 529,-92 529,-111"/>
<text text-anchor="middle" x="464" y="-99" font-family="Vera Sans, DejaVu Sans, Liberation Sans, Arial, Helvetica, sans" font-size="10.00">CompartmentalSystem</text>
</a>
</g>
</g>
<!-- ODESystem&#45;&gt;CompartmentalSystem -->
<g id="edge6" class="edge">
<title>ODESystem&#45;&gt;CompartmentalSystem</title>
<path fill="none" stroke="maroon" stroke-width="0.5" d="M363.09,-88.28C372.56,-89.53 383.09,-90.92 393.67,-92.32"/>
<polygon fill="maroon" stroke="maroon" stroke-width="0.5" points="393.67,-94.09 398.86,-93.01 394.13,-90.62 393.67,-94.09"/>
</g>
<!-- ExplicitODESystem -->
<g id="node20" class="node">
<title>ExplicitODESystem</title>
<g id="a_node20"><a xlink:href="../api/pharmpy.ExplicitODESystem.html#pharmpy.ExplicitODESystem" xlink:title="System of ODEs described explicitly" target="_top">
<polygon fill="white" stroke="#7f7f7f" stroke-width="0.5" points="519,-74 409,-74 409,-55 519,-55 519,-74"/>
<text text-anchor="middle" x="464" y="-62" font-family="Vera Sans, DejaVu Sans, Liberation Sans, Arial, Helvetica, sans" font-size="10.00">ExplicitODESystem</text>
</a>
</g>
</g>
<!-- ODESystem&#45;&gt;ExplicitODESystem -->
<g id="edge10" class="edge">
<title>ODESystem&#45;&gt;ExplicitODESystem</title>
<path fill="none" stroke="maroon" stroke-width="0.5" d="M363.09,-78.46C375.56,-76.72 389.89,-74.71 403.73,-72.78"/>
<polygon fill="maroon" stroke="maroon" stroke-width="0.5" points="404.09,-74.5 408.8,-72.07 403.61,-71.03 404.09,-74.5"/>
</g>
<!-- DataInfo -->
<g id="node14" class="node">
<title>DataInfo</title>
<g id="a_node14"><a xlink:href="../api/pharmpy.DataInfo.html#pharmpy.DataInfo" xlink:title="Metadata for the dataset" target="_top">
<polygon fill="white" stroke="#7f7f7f" stroke-width="0.5" points="646,-241 587,-241 587,-222 646,-222 646,-241"/>
<text text-anchor="middle" x="616.5" y="-229" font-family="Vera Sans, DejaVu Sans, Liberation Sans, Arial, Helvetica, sans" font-size="10.00">DataInfo</text>
</a>
</g>
</g>
<!-- MutableSequence -->
<g id="node15" class="node">
<title>MutableSequence</title>
<polygon fill="white" stroke="#7f7f7f" stroke-width="0.5" points="516,-167 412,-167 412,-148 516,-148 516,-167"/>
<text text-anchor="middle" x="464" y="-155" font-family="Vera Sans, DejaVu Sans, Liberation Sans, Arial, Helvetica, sans" font-size="10.00">MutableSequence</text>
</g>
<!-- MutableSequence&#45;&gt;DataInfo -->
<g id="edge7" class="edge">
<title>MutableSequence&#45;&gt;DataInfo</title>
<path fill="none" stroke="maroon" stroke-width="0.5" d="M480.91,-167.18C500.34,-178.78 534.4,-198.42 565,-212.5 570.72,-215.13 576.91,-217.69 582.94,-220.03"/>
<polygon fill="maroon" stroke="maroon" stroke-width="0.5" points="582.65,-221.8 587.95,-221.95 583.9,-218.53 582.65,-221.8"/>
</g>
<!-- EstimationSteps -->
<g id="node19" class="node">
<title>EstimationSteps</title>
<g id="a_node19"><a xlink:href="../api/pharmpy.EstimationSteps.html#pharmpy.EstimationSteps" xlink:title="A sequence of estimation steps" target="_top">
<polygon fill="white" stroke="#7f7f7f" stroke-width="0.5" points="664.5,-204 568.5,-204 568.5,-185 664.5,-185 664.5,-204"/>
<text text-anchor="middle" x="616.5" y="-192" font-family="Vera Sans, DejaVu Sans, Liberation Sans, Arial, Helvetica, sans" font-size="10.00">EstimationSteps</text>
</a>
</g>
</g>
<!-- MutableSequence&#45;&gt;EstimationSteps -->
<g id="edge9" class="edge">
<title>MutableSequence&#45;&gt;EstimationSteps</title>
<path fill="none" stroke="maroon" stroke-width="0.5" d="M503.76,-167.03C524.48,-172.12 550.07,-178.41 571.54,-183.69"/>
<polygon fill="maroon" stroke="maroon" stroke-width="0.5" points="571.34,-185.45 576.61,-184.94 572.17,-182.05 571.34,-185.45"/>
</g>
<!-- ModelStatements -->
<g id="node24" class="node">
<title>ModelStatements</title>
<g id="a_node24"><a xlink:href="../api/pharmpy.ModelStatements.html#pharmpy.ModelStatements" xlink:title="A sequence of symbolic statements describing the model" target="_top">
<polygon fill="white" stroke="#7f7f7f" stroke-width="0.5" points="668,-167 565,-167 565,-148 668,-148 668,-167"/>
<text text-anchor="middle" x="616.5" y="-155" font-family="Vera Sans, DejaVu Sans, Liberation Sans, Arial, Helvetica, sans" font-size="10.00">ModelStatements</text>
</a>
</g>
</g>
<!-- MutableSequence&#45;&gt;ModelStatements -->
<g id="edge12" class="edge">
<title>MutableSequence&#45;&gt;ModelStatements</title>
<path fill="none" stroke="maroon" stroke-width="0.5" d="M516.37,-157.5C530.33,-157.5 545.5,-157.5 559.69,-157.5"/>
<polygon fill="maroon" stroke="maroon" stroke-width="0.5" points="559.87,-159.25 564.87,-157.5 559.87,-155.75 559.87,-159.25"/>
</g>
<!-- Parameters -->
<g id="node28" class="node">
<title>Parameters</title>
<g id="a_node28"><a xlink:href="../api/pharmpy.Parameters.html#pharmpy.Parameters" xlink:title="A collection of parameters" target="_top">
<polygon fill="white" stroke="#7f7f7f" stroke-width="0.5" points="652.5,-130 580.5,-130 580.5,-111 652.5,-111 652.5,-130"/>
<text text-anchor="middle" x="616.5" y="-118" font-family="Vera Sans, DejaVu Sans, Liberation Sans, Arial, Helvetica, sans" font-size="10.00">Parameters</text>
</a>
</g>
</g>
<!-- MutableSequence&#45;&gt;Parameters -->
<g id="edge16" class="edge">
<title>MutableSequence&#45;&gt;Parameters</title>
<path fill="none" stroke="maroon" stroke-width="0.5" d="M503.76,-147.97C525.78,-142.56 553.31,-135.79 575.53,-130.33"/>
<polygon fill="maroon" stroke="maroon" stroke-width="0.5" points="576.04,-132 580.48,-129.11 575.2,-128.61 576.04,-132"/>
</g>
<!-- RandomVariables -->
<g id="node30" class="node">
<title>RandomVariables</title>
<g id="a_node30"><a xlink:href="../api/pharmpy.RandomVariables.html#pharmpy.RandomVariables" xlink:title="A collection of random variables" target="_top">
<polygon fill="white" stroke="#7f7f7f" stroke-width="0.5" points="667.5,-93 565.5,-93 565.5,-74 667.5,-74 667.5,-93"/>
<text text-anchor="middle" x="616.5" y="-81" font-family="Vera Sans, DejaVu Sans, Liberation Sans, Arial, Helvetica, sans" font-size="10.00">RandomVariables</text>
</a>
</g>
</g>
<!-- MutableSequence&#45;&gt;RandomVariables -->
<g id="edge17" class="edge">
<title>MutableSequence&#45;&gt;RandomVariables</title>
<path fill="none" stroke="maroon" stroke-width="0.5" d="M480.17,-147.94C499.41,-136.07 533.84,-115.66 565,-101.5 570.13,-99.17 575.65,-96.94 581.09,-94.89"/>
<polygon fill="maroon" stroke="maroon" stroke-width="0.5" points="581.97,-96.43 586.06,-93.05 580.76,-93.14 581.97,-96.43"/>
</g>
<!-- DatasetError -->
<g id="node16" class="node">
<title>DatasetError</title>
<g id="a_node16"><a xlink:href="../api/pharmpy.DatasetError.html#pharmpy.DatasetError" xlink:title="Exception for errors in the dataset" target="_top">
<polygon fill="white" stroke="#7f7f7f" stroke-width="0.5" points="95.5,-315 17.5,-315 17.5,-296 95.5,-296 95.5,-315"/>
<text text-anchor="middle" x="56.5" y="-303" font-family="Vera Sans, DejaVu Sans, Liberation Sans, Arial, Helvetica, sans" font-size="10.00">DatasetError</text>
</a>
</g>
</g>
<!-- DatasetWarning -->
<g id="node17" class="node">
<title>DatasetWarning</title>
<g id="a_node17"><a xlink:href="../api/pharmpy.DatasetWarning.html#pharmpy.DatasetWarning" xlink:title="Warning for recoverable issues in the dataset" target="_top">
<polygon fill="white" stroke="#7f7f7f" stroke-width="0.5" points="104,-352 9,-352 9,-333 104,-333 104,-352"/>
<text text-anchor="middle" x="56.5" y="-340" font-family="Vera Sans, DejaVu Sans, Liberation Sans, Arial, Helvetica, sans" font-size="10.00">DatasetWarning</text>
</a>
</g>
</g>
<!-- EstimationStep -->
<g id="node18" class="node">
<title>EstimationStep</title>
<g id="a_node18"><a xlink:href="../api/pharmpy.EstimationStep.html#pharmpy.EstimationStep" xlink:title="Definition of one estimation operation" target="_top">
<polygon fill="white" stroke="#7f7f7f" stroke-width="0.5" points="102,-389 11,-389 11,-370 102,-370 102,-389"/>
<text text-anchor="middle" x="56.5" y="-377" font-family="Vera Sans, DejaVu Sans, Liberation Sans, Arial, Helvetica, sans" font-size="10.00">EstimationStep</text>
</a>
</g>
</g>
<!-- Model -->
<g id="node22" class="node">
<title>Model</title>
<g id="a_node22"><a xlink:href="../api/pharmpy.Model.html#pharmpy.Model" xlink:title="The Pharmpy model class" target="_top">
<polygon fill="white" stroke="#7f7f7f" stroke-width="0.5" points="83.5,-426 29.5,-426 29.5,-407 83.5,-407 83.5,-426"/>
<text text-anchor="middle" x="56.5" y="-414" font-family="Vera Sans, DejaVu Sans, Liberation Sans, Arial, Helvetica, sans" font-size="10.00">Model</text>
</a>
</g>
</g>
<!-- ModelError -->
<g id="node23" class="node">
<title>ModelError</title>
<g id="a_node23"><a xlink:href="../api/pharmpy.ModelError.html#pharmpy.ModelError" xlink:title="Exception for errors in model object" target="_top">
<polygon fill="white" stroke="#7f7f7f" stroke-width="0.5" points="91.5,-463 21.5,-463 21.5,-444 91.5,-444 91.5,-463"/>
<text text-anchor="middle" x="56.5" y="-451" font-family="Vera Sans, DejaVu Sans, Liberation Sans, Arial, Helvetica, sans" font-size="10.00">ModelError</text>
</a>
</g>
</g>
<!-- ModelSyntaxError -->
<g id="node25" class="node">
<title>ModelSyntaxError</title>
<g id="a_node25"><a xlink:href="../api/pharmpy.ModelSyntaxError.html#pharmpy.ModelSyntaxError" xlink:title="Exception for Syntax errors in model code" target="_top">
<polygon fill="white" stroke="#7f7f7f" stroke-width="0.5" points="253,-463 149,-463 149,-444 253,-444 253,-463"/>
<text text-anchor="middle" x="201" y="-451" font-family="Vera Sans, DejaVu Sans, Liberation Sans, Arial, Helvetica, sans" font-size="10.00">ModelSyntaxError</text>
</a>
</g>
</g>
<!-- ModelError&#45;&gt;ModelSyntaxError -->
<g id="edge13" class="edge">
<title>ModelError&#45;&gt;ModelSyntaxError</title>
<path fill="none" stroke="maroon" stroke-width="0.5" d="M91.63,-453.5C107.15,-453.5 125.93,-453.5 143.47,-453.5"/>
<polygon fill="maroon" stroke="maroon" stroke-width="0.5" points="143.87,-455.25 148.87,-453.5 143.87,-451.75 143.87,-455.25"/>
</g>
<!-- Sequence&#45;&gt;MutableSequence -->
<g id="edge14" class="edge">
<title>Sequence&#45;&gt;MutableSequence</title>
<path fill="none" stroke="maroon" stroke-width="0.5" d="M358.2,-157.5C372.63,-157.5 390.22,-157.5 406.83,-157.5"/>
<polygon fill="maroon" stroke="maroon" stroke-width="0.5" points="406.96,-159.25 411.96,-157.5 406.96,-155.75 406.96,-159.25"/>
</g>
<!-- Parameter -->
<g id="node27" class="node">
<title>Parameter</title>
<g id="a_node27"><a xlink:href="../api/pharmpy.Parameter.html#pharmpy.Parameter" xlink:title="A single parameter" target="_top">
<polygon fill="white" stroke="#7f7f7f" stroke-width="0.5" points="90,-500 23,-500 23,-481 90,-481 90,-500"/>
<text text-anchor="middle" x="56.5" y="-488" font-family="Vera Sans, DejaVu Sans, Liberation Sans, Arial, Helvetica, sans" font-size="10.00">Parameter</text>
</a>
</g>
</g>
<!-- RandomVariable -->
<g id="node29" class="node">
<title>RandomVariable</title>
<g id="a_node29"><a xlink:href="../api/pharmpy.RandomVariable.html#pharmpy.RandomVariable" xlink:title="A single random variable" target="_top">
<polygon fill="white" stroke="#7f7f7f" stroke-width="0.5" points="105,-537 8,-537 8,-518 105,-518 105,-537"/>
<text text-anchor="middle" x="56.5" y="-525" font-family="Vera Sans, DejaVu Sans, Liberation Sans, Arial, Helvetica, sans" font-size="10.00">RandomVariable</text>
</a>
</g>
</g>
<!-- Reversible&#45;&gt;Sequence -->
<g id="edge19" class="edge">
<title>Reversible&#45;&gt;Sequence</title>
<path fill="none" stroke="maroon" stroke-width="0.5" d="M233.68,-130.03C250.59,-135.12 271.48,-141.4 289.01,-146.67"/>
<polygon fill="maroon" stroke="maroon" stroke-width="0.5" points="288.57,-148.37 293.86,-148.13 289.57,-145.02 288.57,-148.37"/>
</g>
<!-- VariabilityHierarchy -->
<g id="node32" class="node">
<title>VariabilityHierarchy</title>
<g id="a_node32"><a xlink:href="../api/pharmpy.VariabilityHierarchy.html#pharmpy.VariabilityHierarchy" xlink:title="Description of a variability hierarchy" target="_top">
<polygon fill="white" stroke="#7f7f7f" stroke-width="0.5" points="113,-574 0,-574 0,-555 113,-555 113,-574"/>
<text text-anchor="middle" x="56.5" y="-562" font-family="Vera Sans, DejaVu Sans, Liberation Sans, Arial, Helvetica, sans" font-size="10.00">VariabilityHierarchy</text>
</a>
</g>
</g>
</g>
</svg>
